<svg version="1.1" xmlns="http://www.w3.org/2000/svg" viewBox="0 0 1245.355509678681 946.5796281935525" width="1245.355509678681" height="946.5796281935525" filter="invert(93%) hue-rotate(180deg)">
  <!-- svg-source:excalidraw -->
  
  <defs>
    <style>
      @font-face {
        font-family: "Virgil";
        src: url("https://excalidraw.com/Virgil.woff2");
      }
      @font-face {
        font-family: "Cascadia";
        src: url("https://excalidraw.com/Cascadia.woff2");
      }
    </style>
  </defs>
  <g stroke-linecap="round" transform="translate(460.5220135849312 703.6668090820312) rotate(0 117.00003051757812 78)"><path d="M-1.64 -0.85 C51.34 -1.71, 105.09 0.12, 233.92 0.09 M0.02 -0.8 C83.69 0.98, 167.62 1.28, 234.51 0.07 M233.95 -1.23 C232.28 61.17, 231 121.21, 233.74 157.72 M233.96 0.3 C235.47 53, 234.23 108.13, 233.14 156.02 M234.06 155.22 C155.01 155.51, 78.49 154.86, 1.19 155.08 M233.75 155.55 C179.31 154.87, 124.29 154.42, 0.54 156.64 M-0.66 155.07 C2.8 117.08, 3.06 78.93, -0.21 -1.36 M-0.95 155.4 C-1.47 109.05, -1.06 59.85, -0.02 -0.07" stroke="#000000" stroke-width="1" fill="none"></path></g><g transform="translate(538.3553876083687 768.6668090820312) rotate(0 36 12.5)"><text x="36" y="18" font-family="Virgil, Segoe UI Emoji" font-size="20px" fill="#000000" text-anchor="middle" style="white-space: pre;" direction="ltr">NextJS</text></g><g stroke-linecap="round" transform="translate(445.85532657321244 483.66677856445307) rotate(0 134.99996948242193 23.666656494140625)"><path d="M-0.45 -0.76 C94.49 2, 186.25 1.15, 270.92 -0.52 M-0.22 0.06 C68.21 2.35, 137.32 2.07, 270.65 -0.54 M269.35 1.33 C268.05 16.01, 269.73 30.69, 270.9 48.77 M270.35 -0.8 C269.09 13.16, 269.12 25.25, 270.34 47.38 M269.3 47.06 C192.59 45.48, 114.47 45.51, -1 48.33 M270.47 48.07 C215.91 46.53, 161.05 46.8, -0.44 46.58 M1.3 46.4 C1.72 27.6, -0.05 8.68, 0.13 1.81 M-0.06 48.23 C0.8 33.48, 0.43 20.46, 0.69 -0.83" stroke="#000000" stroke-width="1" fill="none"></path></g><g stroke-linecap="round"><g transform="translate(556.7637545250451 684.3334350585938) rotate(0 1.0680475872694615 -57.31903083585206)"><path d="M-0.35 -0.58 C0.26 -19.59, 2.19 -95.5, 2.48 -114.62 M1.67 1.72 C2.31 -17.57, 2.24 -97.09, 2.07 -116.36" stroke="#000000" stroke-width="1" fill="none"></path></g><g transform="translate(556.7637545250451 684.3334350585938) rotate(0 1.0680475872694615 -57.31903083585206)"><path d="M11.46 -86.52 C11.67 -94.03, 8.48 -98.47, 1.41 -117.29 M12.51 -88.49 C10.01 -96.13, 6.53 -104.4, 1.38 -116.3" stroke="#000000" stroke-width="1" fill="none"></path></g><g transform="translate(556.7637545250451 684.3334350585938) rotate(0 1.0680475872694615 -57.31903083585206)"><path d="M-9.06 -86.44 C-4.69 -93.91, -3.73 -98.37, 1.41 -117.29 M-8.01 -88.41 C-4.32 -96.02, -1.6 -104.31, 1.38 -116.3" stroke="#000000" stroke-width="1" fill="none"></path></g></g><g stroke-linecap="round"><g transform="translate(583.9516085749866 572.3334350585938) rotate(0 0.5928065883489921 53.64417780091986)"><path d="M-0.58 1.01 C-0.19 18.62, 1.49 87.77, 1.77 105.28 M1.31 0.5 C1.66 18.34, 1.35 89.53, 1.2 106.79" stroke="#000000" stroke-width="1" fill="none"></path></g><g transform="translate(583.9516085749866 572.3334350585938) rotate(0 0.5928065883489921 53.64417780091986)"><path d="M-7.21 79.73 C-6.55 85.74, -2.77 92.02, 0.27 106.82 M-9.17 78.97 C-6.3 84.41, -4 89.44, 1.26 106.76" stroke="#000000" stroke-width="1" fill="none"></path></g><g transform="translate(583.9516085749866 572.3334350585938) rotate(0 0.5928065883489921 53.64417780091986)"><path d="M13.31 79.85 C8.85 85.73, 7.51 91.98, 0.27 106.82 M11.35 79.09 C10.01 84.52, 8.1 89.52, 1.26 106.76" stroke="#000000" stroke-width="1" fill="none"></path></g></g><g transform="translate(477.3553876083687 497.3334350585937) rotate(0 104.5 12.5)"><text x="104.5" y="18" font-family="Virgil, Segoe UI Emoji" font-size="20px" fill="#000000" text-anchor="middle" style="white-space: pre;" direction="ltr">Load Balancer - SSL</text></g><g stroke-linecap="round" transform="translate(449.8553876083687 216.33337402343744) rotate(0 129.33334350585943 85.3333435058594)"><path d="M-0.07 0.08 C65.95 -1.77, 129.27 -1.21, 257.15 -0.45 M0.49 0.07 C80.17 -1.45, 159.04 -0.92, 258.17 -0.26 M258.41 1.72 C257.91 63.97, 256.35 124.99, 259.26 171.37 M257.81 0.02 C257.49 37.61, 257.05 75.17, 258.21 170.22 M259.8 169.79 C184.57 170.52, 110.97 169.02, -0.85 171.63 M259.18 171.27 C156.31 170.73, 55.61 171.24, -0.37 171.19 M-0.21 169.31 C-1.2 129.24, -1.67 82.3, -1.19 -0.12 M-0.02 170.6 C0.09 103.3, 0.2 36.76, 0.4 -0.21" stroke="#000000" stroke-width="1" fill="none"></path></g><g transform="translate(858.0219525497748 347.3334045410156) rotate(0 66.5 25.5)"><text x="66.5" y="17.5" font-family="Virgil, Segoe UI Emoji" font-size="20px" fill="#1864ab" text-anchor="middle" style="white-space: pre;" direction="ltr">Dockerized</text><text x="66.5" y="43" font-family="Virgil, Segoe UI Emoji" font-size="20px" fill="#1864ab" text-anchor="middle" style="white-space: pre;" direction="ltr">Express - api</text></g><g stroke-linecap="round"><g transform="translate(564.1515861679362 460.1856277924223) rotate(0 -1.1491126303674832 -26.545976310539203)"><path d="M0.06 0.7 C-0.26 -8.25, -1.06 -44.62, -1.2 -53.8 M-1.36 0.03 C-1.94 -8.77, -2.33 -43.6, -2.36 -52.55" stroke="#000000" stroke-width="1" fill="none"></path></g><g transform="translate(564.1515861679362 460.1856277924223) rotate(0 -1.1491126303674832 -26.545976310539203)"><path d="M8.14 -28.28 C2.69 -36.55, -1.63 -46.12, -2.21 -53.11 M7.8 -28.3 C3.67 -36.2, -0.2 -45.06, -1.7 -53.52" stroke="#000000" stroke-width="1" fill="none"></path></g><g transform="translate(564.1515861679362 460.1856277924223) rotate(0 -1.1491126303674832 -26.545976310539203)"><path d="M-10.07 -28.12 C-8.97 -36.45, -6.74 -46.08, -2.21 -53.11 M-10.41 -28.14 C-8.29 -36.11, -5.91 -45.02, -1.7 -53.52" stroke="#000000" stroke-width="1" fill="none"></path></g></g><g stroke-linecap="round"><g transform="translate(579.0180302212881 408.71269601803) rotate(0 -0.5587300846185599 26.22418111661301)"><path d="M0.7 -0.4 C0.62 8.35, -0.24 43.78, -0.55 52.55 M-0.39 -1.65 C-0.67 7.3, -2.05 44.94, -1.79 54.1" stroke="#000000" stroke-width="1" fill="none"></path></g><g transform="translate(579.0180302212881 408.71269601803) rotate(0 -0.5587300846185599 26.22418111661301)"><path d="M-11.2 28.4 C-7.9 34.7, -5.92 44.06, -2.34 54.97 M-11.22 29.4 C-7.39 37.58, -4.53 47.79, -2.76 54.86" stroke="#000000" stroke-width="1" fill="none"></path></g><g transform="translate(579.0180302212881 408.71269601803) rotate(0 -0.5587300846185599 26.22418111661301)"><path d="M6.76 28.57 C4.75 34.93, 1.43 44.24, -2.34 54.97 M6.74 29.56 C4.1 37.84, 0.47 47.98, -2.76 54.86" stroke="#000000" stroke-width="1" fill="none"></path></g></g><g transform="translate(758.5221356552437 736.0000610351562) rotate(0 171.99999999999994 38)"><text x="172" y="18.333333333333332" font-family="Virgil, Segoe UI Emoji" font-size="20px" fill="#000000" text-anchor="middle" style="white-space: pre;" direction="ltr">Vercel - uses cloudflare as a CDN</text><text x="172" y="43.666666666666664" font-family="Virgil, Segoe UI Emoji" font-size="20px" fill="#000000" text-anchor="middle" style="white-space: pre;" direction="ltr"></text><text x="172" y="69" font-family="Virgil, Segoe UI Emoji" font-size="20px" fill="#000000" text-anchor="middle" style="white-space: pre;" direction="ltr">Frontend</text></g><g stroke-linecap="round"><g transform="translate(831.1887005966498 639.666748046875) rotate(0 95.54211698092524 0.004287510886797463)"><path d="M-0.56 0.02 C30.91 0.03, 157.64 -0.28, 189.53 -0.34 M1.35 -1.01 C33.11 -0.79, 160.2 0.72, 191.64 1.02" stroke="#000000" stroke-width="1" fill="none"></path></g></g><g transform="translate(257.18870059664994 10) rotate(0 123.3333129882812 30.8333282470703)"><text x="123.3333129882812" y="42.6666564941406" font-family="Virgil, Segoe UI Emoji" font-size="49.333325195312476px" fill="#000000" text-anchor="middle" style="white-space: pre;" direction="ltr">Aliatokens</text></g><g transform="translate(455.0220135849312 538.6666564941406) rotate(0 125.5 12.5)"><text x="125.5" y="18" font-family="Virgil, Segoe UI Emoji" font-size="20px" fill="#000000" text-anchor="middle" style="white-space: pre;" direction="ltr">https://api.aliatokens.com</text></g><g transform="translate(471.6537352471804 228) rotate(0 54 12.5)"><text x="54" y="18" font-family="Virgil, Segoe UI Emoji" font-size="20px" fill="#000000" text-anchor="middle" style="white-space: pre;" direction="ltr">AWS - ECS</text></g><g stroke-linecap="round" transform="translate(466.52207462008744 260.9999694824219) rotate(0 111 56.333343505859375)"><path d="M0.13 1.99 L221.08 0.27 L220.2 112.11 L0.94 112.98" stroke="none" stroke-width="0" fill="#ced4da"></path><path d="M-0.48 0.75 C46.59 0.01, 92.53 -1.32, 222.1 -0.05 M-0.84 0.66 C52.88 -0.53, 106.36 -0.65, 221.71 -0.04 M220.22 1.09 C220.68 37.17, 223.09 74.38, 221.8 112.74 M222.58 -0.56 C222.2 28.07, 220.86 57.86, 221.03 112.37 M223.41 113.36 C168.28 115.77, 111.38 112.81, 1.62 112.1 M222.67 112.2 C165.64 111.19, 109.52 112.55, -0.15 111.85 M0.71 111.77 C0.03 85.46, 1.45 56.85, 1.61 -1.69 M-0.82 112.34 C1.1 74.11, 0.26 35.66, 0.71 0.18" stroke="#000000" stroke-width="1" fill="none"></path></g><g stroke-linecap="round" transform="translate(475.18870059664994 329.6666564941406) rotate(0 50.33331298828125 18)"><path d="M1.99 -0.92 L100.93 -1.8 L100.11 36.94 L0.32 34.62" stroke="none" stroke-width="0" fill="#15aabf"></path><path d="M0.87 1.21 C27.53 1.95, 53.35 0.4, 100.61 -1.23 M0.76 -0.13 C27.78 1.42, 54.56 0.64, 100.62 0.3 M101.75 -1.72 C100.41 12.76, 100.47 23.94, 100.74 35.08 M100.1 0.71 C100.06 8.56, 101.24 17.43, 100.37 35.47 M101.47 37.28 C65.95 35.69, 26.29 38.7, -0.66 35.07 M100.12 35.9 C63.25 36.85, 28.1 36.62, -0.95 35.4 M-0.9 35.96 C-0.46 26.79, -1.99 16.44, -1.69 0.8 M-0.33 36.86 C-0.11 25.97, -0.27 16.62, 0.18 0.06" stroke="#000000" stroke-width="1" fill="none"></path></g><g transform="translate(480.68870059664994 335.3333435058594) rotate(0 44.5 12.5)"><text x="44.5" y="18" font-family="Virgil, Segoe UI Emoji" font-size="20px" fill="#000000" text-anchor="middle" style="white-space: pre;" direction="ltr">container</text></g><g transform="translate(481.85532657321244 284) rotate(0 40 12.5)"><text x="40" y="18" font-family="Virgil, Segoe UI Emoji" font-size="20px" fill="#000000" text-anchor="middle" style="white-space: pre;" direction="ltr">Fargate</text></g><g stroke-linecap="round"><g transform="translate(580.5219525497749 353.7186614009389) rotate(0 132.7452985133976 10.353461541511678)"><path d="M0.1 1 C44.1 3.99, 220.31 15.84, 264.51 18.65 M-1.3 0.48 C43.03 3.62, 222.49 17.18, 266.79 20.22" stroke="#1864ab" stroke-width="1" fill="none"></path></g><g transform="translate(580.5219525497749 353.7186614009389) rotate(0 132.7452985133976 10.353461541511678)"><path d="M239.61 27.05 C247.91 25.52, 256.48 22.11, 268.12 18.29 M238.38 29.13 C248.47 25.04, 259.97 22.35, 266 19.33" stroke="#1864ab" stroke-width="1" fill="none"></path></g><g transform="translate(580.5219525497749 353.7186614009389) rotate(0 132.7452985133976 10.353461541511678)"><path d="M241.09 6.58 C249.01 12.09, 257.07 15.7, 268.12 18.29 M239.87 8.67 C249.38 12.29, 260.31 17.31, 266 19.33" stroke="#1864ab" stroke-width="1" fill="none"></path></g></g><g stroke-linecap="round"><g transform="translate(568.5220135849312 297.5377624848923) rotate(0 125.98804114856756 -16.20811701960946)"><path d="M1 -0.82 C42.87 -6.47, 210.22 -28.23, 251.91 -33.78 M0.07 1.36 C41.72 -4.09, 208.74 -26.53, 251 -32.26" stroke="#1864ab" stroke-width="1" fill="none"></path></g><g transform="translate(568.5220135849312 297.5377624848923) rotate(0 125.98804114856756 -16.20811701960946)"><path d="M223.06 -18.2 C233.94 -24.8, 242.93 -27.27, 249.06 -30.73 M225.15 -18.66 C231.9 -22.15, 239.92 -27.25, 250.11 -31.72" stroke="#1864ab" stroke-width="1" fill="none"></path></g><g transform="translate(568.5220135849312 297.5377624848923) rotate(0 125.98804114856756 -16.20811701960946)"><path d="M220.32 -38.54 C232.21 -37.82, 242.18 -32.96, 249.06 -30.73 M222.4 -39 C230.12 -36.66, 238.93 -35.91, 250.11 -31.72" stroke="#1864ab" stroke-width="1" fill="none"></path></g></g><g transform="translate(932.3555096786811 230) rotate(0 151.5 38)"><text x="151.5" y="18.333333333333332" font-family="Virgil, Segoe UI Emoji" font-size="20px" fill="#1864ab" text-anchor="middle" style="white-space: pre;" direction="ltr">Service to automatically scale</text><text x="151.5" y="43.666666666666664" font-family="Virgil, Segoe UI Emoji" font-size="20px" fill="#1864ab" text-anchor="middle" style="white-space: pre;" direction="ltr">and only pay for what you use</text><text x="151.5" y="69" font-family="Virgil, Segoe UI Emoji" font-size="20px" fill="#1864ab" text-anchor="middle" style="white-space: pre;" direction="ltr">- lambda for containers</text></g><g transform="translate(753.6885785263374 142.66665649414062) rotate(0 113.49999999999994 12.5)"><text x="113.5" y="18" font-family="Virgil, Segoe UI Emoji" font-size="20px" fill="#1864ab" text-anchor="middle" style="white-space: pre;" direction="ltr">AWS Container solution</text></g><g stroke-linecap="round"><g transform="translate(545.8643088551623 217.33343505859375) rotate(0 99.10267076314398 -21.495141086564786)"><path d="M-0.03 -0.74 C33.39 -7.88, 166.55 -35.79, 199.71 -42.78 M-1.51 1.49 C31.79 -5.99, 164.77 -36.81, 198.56 -44.48" stroke="#1864ab" stroke-width="1" fill="none"></path></g><g transform="translate(545.8643088551623 217.33343505859375) rotate(0 99.10267076314398 -21.495141086564786)"><path d="M172.15 -28.83 C180.53 -33.88, 186.57 -35.98, 200.28 -43.59 M173.68 -27.82 C182 -35.12, 192.7 -41.15, 198.58 -44.14" stroke="#1864ab" stroke-width="1" fill="none"></path></g><g transform="translate(545.8643088551623 217.33343505859375) rotate(0 99.10267076314398 -21.495141086564786)"><path d="M167.56 -48.83 C177.02 -49.25, 184.11 -46.71, 200.28 -43.59 M169.09 -47.82 C179.04 -47.68, 191.46 -46.28, 198.58 -44.14" stroke="#1864ab" stroke-width="1" fill="none"></path></g></g><g stroke-linecap="round" transform="translate(741.3148450058296 474.21196484295245) rotate(0 32.540420532226506 32.540420532226506)"><path d="M0 0 C0 0, 0 0, 0 0 M0 0 C0 0, 0 0, 0 0 M0.13 12.04 C2.68 9.12, 5.22 6.19, 10.63 -0.03 M0.13 12.04 C2.96 8.79, 5.79 5.53, 10.63 -0.03 M0.27 24.08 C6.76 16.61, 13.25 9.15, 21.26 -0.07 M0.27 24.08 C7.18 16.12, 14.1 8.17, 21.26 -0.07 M-0.26 36.88 C8.15 27.2, 16.56 17.53, 31.89 -0.1 M-0.26 36.88 C11.81 22.99, 23.88 9.11, 31.89 -0.1 M-0.12 48.92 C16.28 30.04, 32.69 11.17, 42.52 -0.14 M-0.12 48.92 C9.98 37.29, 20.09 25.67, 42.52 -0.14 M0.01 60.96 C15.22 43.46, 30.44 25.96, 53.15 -0.17 M0.01 60.96 C12.18 46.96, 24.35 32.96, 53.15 -0.17 M4.08 68.47 C19.36 50.89, 34.64 33.32, 63.78 -0.21 M4.08 68.47 C18.55 51.82, 33.02 35.18, 63.78 -0.21 M14.71 68.44 C32.82 47.61, 50.92 26.78, 70.47 4.29 M14.71 68.44 C33.36 46.98, 52.01 25.52, 70.47 4.29 M25.34 68.4 C35.34 56.9, 45.34 45.39, 69.95 17.08 M25.34 68.4 C35.14 57.12, 44.95 45.85, 69.95 17.08 M35.97 68.37 C44.37 58.7, 52.77 49.04, 70.08 29.12 M35.97 68.37 C44.85 58.15, 53.74 47.93, 70.08 29.12 M46.6 68.33 C51.37 62.85, 56.14 57.36, 70.22 41.16 M46.6 68.33 C55.03 58.63, 63.47 48.93, 70.22 41.16 M57.23 68.3 C60.92 64.05, 64.61 59.81, 70.35 53.2 M57.23 68.3 C61.68 63.18, 66.14 58.05, 70.35 53.2 M0.23 65.28 C0.23 65.28, 0.23 65.28, 0.23 65.28 M0.23 65.28 C0.23 65.28, 0.23 65.28, 0.23 65.28 M12.27 65.15 C8.39 61.78, 4.51 58.4, 0.19 54.65 M12.27 65.15 C7.83 61.28, 3.39 57.42, 0.19 54.65 M24.31 65.01 C17.31 58.92, 10.3 52.84, 0.16 44.02 M24.31 65.01 C18.66 60.1, 13.01 55.19, 0.16 44.02 M36.35 64.88 C28.45 58.01, 20.56 51.15, 0.13 33.39 M36.35 64.88 C25.24 55.22, 14.13 45.57, 0.13 33.39 M49.15 65.4 C30.52 49.21, 11.89 33.01, 0.09 22.76 M49.15 65.4 C38.36 56.03, 27.57 46.65, 0.09 22.76 M61.19 65.27 C43.76 50.12, 26.34 34.98, 0.06 12.13 M61.19 65.27 C37.93 45.05, 14.67 24.84, 0.06 12.13 M68.7 61.2 C52.36 47, 36.02 32.8, 0.02 1.5 M68.7 61.2 C50.95 45.77, 33.2 30.34, 0.02 1.5 M68.67 50.57 C43.24 28.47, 17.82 6.37, 4.52 -5.19 M68.67 50.57 C44.42 29.49, 20.17 8.41, 4.52 -5.19 M68.63 39.94 C51.37 24.94, 34.11 9.94, 16.56 -5.33 M68.63 39.94 C57.8 30.53, 46.98 21.12, 16.56 -5.33 M68.6 29.31 C57.12 19.33, 45.65 9.36, 28.6 -5.46 M68.6 29.31 C54.51 17.06, 40.42 4.82, 28.6 -5.46 M68.56 18.68 C59.37 10.69, 50.18 2.7, 41.39 -4.94 M68.56 18.68 C62.02 12.99, 55.48 7.31, 41.39 -4.94 M68.53 8.05 C64.71 4.73, 60.9 1.42, 53.43 -5.07 M68.53 8.05 C63.7 3.85, 58.87 -0.35, 53.43 -5.07" stroke="#7950f288" stroke-width="1" fill="none"></path><path d="M0 0 C19.92 0, 39.83 0, 65.08 0 M0 0 C17.35 0, 34.7 0, 65.08 0 M65.08 0 C65.08 18.88, 65.08 37.76, 65.08 65.08 M65.08 0 C65.08 13.19, 65.08 26.38, 65.08 65.08 M65.08 65.08 C39.44 65.08, 13.81 65.08, 0 65.08 M65.08 65.08 C46.66 65.08, 28.23 65.08, 0 65.08 M0 65.08 C0 40.31, 0 15.54, 0 0 M0 65.08 C0 40.96, 0 16.84, 0 0" stroke="#000000" stroke-width="2" fill="none"></path></g><g stroke-linecap="round" transform="translate(747.2986399684193 491.78600089371884) rotate(0 15.50619339104469 15.50619339104469)"><path d="M31.01 15.51 C31.01 16.4, 30.93 17.31, 30.78 18.2 C30.62 19.08, 30.38 19.97, 30.08 20.81 C29.77 21.65, 29.38 22.48, 28.93 23.26 C28.49 24.04, 27.96 24.79, 27.38 25.47 C26.81 26.16, 26.16 26.81, 25.47 27.38 C24.79 27.96, 24.04 28.49, 23.26 28.93 C22.48 29.38, 21.65 29.77, 20.81 30.08 C19.97 30.38, 19.08 30.62, 18.2 30.78 C17.31 30.93, 16.4 31.01, 15.51 31.01 C14.61 31.01, 13.7 30.93, 12.81 30.78 C11.93 30.62, 11.05 30.38, 10.2 30.08 C9.36 29.77, 8.53 29.38, 7.75 28.93 C6.98 28.49, 6.23 27.96, 5.54 27.38 C4.85 26.81, 4.2 26.16, 3.63 25.47 C3.05 24.79, 2.53 24.04, 2.08 23.26 C1.63 22.48, 1.24 21.65, 0.94 20.81 C0.63 19.97, 0.39 19.08, 0.24 18.2 C0.08 17.31, 0 16.4, 0 15.51 C0 14.61, 0.08 13.7, 0.24 12.81 C0.39 11.93, 0.63 11.05, 0.94 10.2 C1.24 9.36, 1.63 8.53, 2.08 7.75 C2.53 6.98, 3.05 6.23, 3.63 5.54 C4.2 4.85, 4.85 4.2, 5.54 3.63 C6.23 3.05, 6.98 2.53, 7.75 2.08 C8.53 1.63, 9.36 1.24, 10.2 0.94 C11.05 0.63, 11.93 0.39, 12.81 0.24 C13.7 0.08, 14.61 0, 15.51 0 C16.4 0, 17.31 0.08, 18.2 0.24 C19.08 0.39, 19.97 0.63, 20.81 0.94 C21.65 1.24, 22.48 1.63, 23.26 2.08 C24.04 2.53, 24.79 3.05, 25.47 3.63 C26.16 4.2, 26.81 4.85, 27.38 5.54 C27.96 6.23, 28.49 6.98, 28.93 7.75 C29.38 8.53, 29.77 9.36, 30.08 10.2 C30.38 11.05, 30.62 11.93, 30.78 12.81 C30.93 13.7, 30.97 15.06, 31.01 15.51 C31.05 15.95, 31.05 15.06, 31.01 15.51" stroke="#000000" stroke-width="2" fill="none"></path></g><g stroke-linecap="round" transform="translate(786.3830405729965 486.39980913152357) rotate(0 4.681114985975739 4.681114985975796)"><path d="M9.36 4.68 C9.36 4.95, 9.34 5.23, 9.29 5.49 C9.24 5.76, 9.17 6.03, 9.08 6.28 C8.99 6.54, 8.87 6.79, 8.74 7.02 C8.6 7.26, 8.44 7.48, 8.27 7.69 C8.09 7.9, 7.9 8.09, 7.69 8.27 C7.48 8.44, 7.26 8.6, 7.02 8.74 C6.79 8.87, 6.54 8.99, 6.28 9.08 C6.03 9.17, 5.76 9.24, 5.49 9.29 C5.23 9.34, 4.95 9.36, 4.68 9.36 C4.41 9.36, 4.14 9.34, 3.87 9.29 C3.6 9.24, 3.33 9.17, 3.08 9.08 C2.83 8.99, 2.58 8.87, 2.34 8.74 C2.11 8.6, 1.88 8.44, 1.67 8.27 C1.46 8.09, 1.27 7.9, 1.1 7.69 C0.92 7.48, 0.76 7.26, 0.63 7.02 C0.49 6.79, 0.37 6.54, 0.28 6.28 C0.19 6.03, 0.12 5.76, 0.07 5.49 C0.02 5.23, 0 4.95, 0 4.68 C0 4.41, 0.02 4.14, 0.07 3.87 C0.12 3.6, 0.19 3.33, 0.28 3.08 C0.37 2.83, 0.49 2.58, 0.63 2.34 C0.76 2.11, 0.92 1.88, 1.1 1.67 C1.27 1.46, 1.46 1.27, 1.67 1.1 C1.88 0.92, 2.11 0.76, 2.34 0.63 C2.58 0.49, 2.83 0.37, 3.08 0.28 C3.33 0.19, 3.6 0.12, 3.87 0.07 C4.14 0.02, 4.41 0, 4.68 0 C4.95 0, 5.23 0.02, 5.49 0.07 C5.76 0.12, 6.03 0.19, 6.28 0.28 C6.54 0.37, 6.79 0.49, 7.02 0.63 C7.26 0.76, 7.48 0.92, 7.69 1.1 C7.9 1.27, 8.09 1.46, 8.27 1.67 C8.44 1.88, 8.6 2.11, 8.74 2.34 C8.87 2.58, 8.99 2.83, 9.08 3.08 C9.17 3.33, 9.24 3.6, 9.29 3.87 C9.34 4.14, 9.35 4.55, 9.36 4.68 C9.37 4.82, 9.37 4.55, 9.36 4.68" stroke="#000000" stroke-width="2" fill="none"></path></g><g stroke-linecap="round" transform="translate(786.502977975969 518.7024120630786) rotate(0 4.681114985975739 4.681114985975796)"><path d="M9.36 4.68 C9.36 4.95, 9.34 5.23, 9.29 5.49 C9.24 5.76, 9.17 6.03, 9.08 6.28 C8.99 6.54, 8.87 6.79, 8.74 7.02 C8.6 7.26, 8.44 7.48, 8.27 7.69 C8.09 7.9, 7.9 8.09, 7.69 8.27 C7.48 8.44, 7.26 8.6, 7.02 8.74 C6.79 8.87, 6.54 8.99, 6.28 9.08 C6.03 9.17, 5.76 9.24, 5.49 9.29 C5.23 9.34, 4.95 9.36, 4.68 9.36 C4.41 9.36, 4.14 9.34, 3.87 9.29 C3.6 9.24, 3.33 9.17, 3.08 9.08 C2.83 8.99, 2.58 8.87, 2.34 8.74 C2.11 8.6, 1.88 8.44, 1.67 8.27 C1.46 8.09, 1.27 7.9, 1.1 7.69 C0.92 7.48, 0.76 7.26, 0.63 7.02 C0.49 6.79, 0.37 6.54, 0.28 6.28 C0.19 6.03, 0.12 5.76, 0.07 5.49 C0.02 5.23, 0 4.95, 0 4.68 C0 4.41, 0.02 4.14, 0.07 3.87 C0.12 3.6, 0.19 3.33, 0.28 3.08 C0.37 2.83, 0.49 2.58, 0.63 2.34 C0.76 2.11, 0.92 1.88, 1.1 1.67 C1.27 1.46, 1.46 1.27, 1.67 1.1 C1.88 0.92, 2.11 0.76, 2.34 0.63 C2.58 0.49, 2.83 0.37, 3.08 0.28 C3.33 0.19, 3.6 0.12, 3.87 0.07 C4.14 0.02, 4.41 0, 4.68 0 C4.95 0, 5.23 0.02, 5.49 0.07 C5.76 0.12, 6.03 0.19, 6.28 0.28 C6.54 0.37, 6.79 0.49, 7.02 0.63 C7.26 0.76, 7.48 0.92, 7.69 1.1 C7.9 1.27, 8.09 1.46, 8.27 1.67 C8.44 1.88, 8.6 2.11, 8.74 2.34 C8.87 2.58, 8.99 2.83, 9.08 3.08 C9.17 3.33, 9.24 3.6, 9.29 3.87 C9.34 4.14, 9.35 4.55, 9.36 4.68 C9.37 4.82, 9.37 4.55, 9.36 4.68" stroke="#000000" stroke-width="2" fill="none"></path></g><g stroke-linecap="round" transform="translate(791.1840929619422 501.14823086567066) rotate(0 4.681114985975739 4.681114985975796)"><path d="M9.36 4.68 C9.36 4.95, 9.34 5.23, 9.29 5.49 C9.24 5.76, 9.17 6.03, 9.08 6.28 C8.99 6.54, 8.87 6.79, 8.74 7.02 C8.6 7.26, 8.44 7.48, 8.27 7.69 C8.09 7.9, 7.9 8.09, 7.69 8.27 C7.48 8.44, 7.26 8.6, 7.02 8.74 C6.79 8.87, 6.54 8.99, 6.28 9.08 C6.03 9.17, 5.76 9.24, 5.49 9.29 C5.23 9.34, 4.95 9.36, 4.68 9.36 C4.41 9.36, 4.14 9.34, 3.87 9.29 C3.6 9.24, 3.33 9.17, 3.08 9.08 C2.83 8.99, 2.58 8.87, 2.34 8.74 C2.11 8.6, 1.88 8.44, 1.67 8.27 C1.46 8.09, 1.27 7.9, 1.1 7.69 C0.92 7.48, 0.76 7.26, 0.63 7.02 C0.49 6.79, 0.37 6.54, 0.28 6.28 C0.19 6.03, 0.12 5.76, 0.07 5.49 C0.02 5.23, 0 4.95, 0 4.68 C0 4.41, 0.02 4.14, 0.07 3.87 C0.12 3.6, 0.19 3.33, 0.28 3.08 C0.37 2.83, 0.49 2.58, 0.63 2.34 C0.76 2.11, 0.92 1.88, 1.1 1.67 C1.27 1.46, 1.46 1.27, 1.67 1.1 C1.88 0.92, 2.11 0.76, 2.34 0.63 C2.58 0.49, 2.83 0.37, 3.08 0.28 C3.33 0.19, 3.6 0.12, 3.87 0.07 C4.14 0.02, 4.41 0, 4.68 0 C4.95 0, 5.23 0.02, 5.49 0.07 C5.76 0.12, 6.03 0.19, 6.28 0.28 C6.54 0.37, 6.79 0.49, 7.02 0.63 C7.26 0.76, 7.48 0.92, 7.69 1.1 C7.9 1.27, 8.09 1.46, 8.27 1.67 C8.44 1.88, 8.6 2.11, 8.74 2.34 C8.87 2.58, 8.99 2.83, 9.08 3.08 C9.17 3.33, 9.24 3.6, 9.29 3.87 C9.34 4.14, 9.35 4.55, 9.36 4.68 C9.37 4.82, 9.37 4.55, 9.36 4.68" stroke="#000000" stroke-width="2" fill="none"></path></g><g stroke-linecap="round"><g transform="translate(778.8961661237557 506.9996245981401) rotate(0 5.851393732469717 0)"><path d="M0 0 C1.95 0, 9.75 0, 11.7 0 M0 0 C1.95 0, 9.75 0, 11.7 0" stroke="#000000" stroke-width="2" fill="none"></path></g></g><g stroke-linecap="round"><g transform="translate(775.2653924813031 519.2875514363259) rotate(23.749494492867285 5.851393732469717 0)"><path d="M0 0 C1.95 0, 9.75 0, 11.7 0 M0 0 C1.95 0, 9.75 0, 11.7 0" stroke="#000000" stroke-width="2" fill="none"></path></g></g><g stroke-linecap="round"><g transform="translate(775.2653924813036 494.8316351629248) rotate(338.0702750671431 5.851393732469717 0)"><path d="M0 0 C1.95 0, 9.75 0, 11.7 0 M0 0 C1.95 0, 9.75 0, 11.7 0" stroke="#000000" stroke-width="2" fill="none"></path></g></g><g transform="translate(753.355265538056 544.1214702156415) rotate(0 20.5 12.5)"><text x="0" y="18" font-family="Virgil, Segoe UI Emoji" font-size="20px" fill="#000000" text-anchor="start" style="white-space: pre;" direction="ltr">ELB</text></g><g stroke-linecap="round" transform="translate(832.2914374024529 224.9490407536697) rotate(0 32.230576182478444 32.199712367130076)"><path d="M0 0 C0 0, 0 0, 0 0 M0 0 C0 0, 0 0, 0 0 M0.13 12.04 C2.6 9.2, 5.07 6.36, 10.63 -0.03 M0.13 12.04 C3.18 8.53, 6.23 5.03, 10.63 -0.03 M0.27 24.08 C5.02 18.61, 9.78 13.14, 21.26 -0.07 M0.27 24.08 C4.48 19.23, 8.7 14.38, 21.26 -0.07 M-0.26 36.88 C10.32 24.71, 20.89 12.55, 31.89 -0.1 M-0.26 36.88 C9.95 25.13, 20.16 13.39, 31.89 -0.1 M-0.12 48.92 C12.45 34.46, 25.02 20, 42.52 -0.14 M-0.12 48.92 C15.85 30.54, 31.82 12.17, 42.52 -0.14 M0.01 60.96 C20.7 37.15, 41.4 13.35, 53.15 -0.17 M0.01 60.96 C16.44 42.05, 32.88 23.15, 53.15 -0.17 M4.08 68.47 C26.91 42.21, 49.73 15.95, 63.78 -0.21 M4.08 68.47 C17.37 53.19, 30.65 37.9, 63.78 -0.21 M14.71 68.44 C27.8 53.37, 40.9 38.31, 69.82 5.04 M14.71 68.44 C27.81 53.36, 40.92 38.29, 69.82 5.04 M25.34 68.4 C38.93 52.77, 52.51 37.14, 69.95 17.08 M25.34 68.4 C36.95 55.04, 48.57 41.68, 69.95 17.08 M35.97 68.37 C43.08 60.19, 50.19 52.01, 70.08 29.12 M35.97 68.37 C44.05 59.08, 52.12 49.79, 70.08 29.12 M46.6 68.33 C52.29 61.79, 57.98 55.25, 70.22 41.16 M46.6 68.33 C54.02 59.79, 61.45 51.25, 70.22 41.16 M57.23 68.3 C60.36 64.7, 63.48 61.11, 69.69 53.96 M57.23 68.3 C60.97 63.99, 64.72 59.68, 69.69 53.96 M-0.19 64.24 C-0.19 64.24, -0.19 64.24, -0.19 64.24 M-0.19 64.24 C-0.19 64.24, -0.19 64.24, -0.19 64.24 M11.85 64.1 C9.1 61.71, 6.35 59.32, -0.22 53.61 M11.85 64.1 C7.21 60.07, 2.57 56.03, -0.22 53.61 M24.65 64.63 C17.34 58.27, 10.02 51.91, -0.26 42.98 M24.65 64.63 C16.39 57.45, 8.14 50.27, -0.26 42.98 M36.69 64.49 C28.69 57.54, 20.7 50.59, -0.29 32.35 M36.69 64.49 C25.42 54.7, 14.16 44.91, -0.29 32.35 M48.73 64.36 C34.54 52.03, 20.35 39.69, -0.33 21.72 M48.73 64.36 C38.81 55.74, 28.9 47.12, -0.33 21.72 M60.77 64.23 C48.09 53.2, 35.4 42.17, -0.36 11.09 M60.77 64.23 C46.19 51.55, 31.6 38.87, -0.36 11.09 M68.28 60.16 C50.81 44.97, 33.34 29.78, 0.36 1.11 M68.28 60.16 C47.62 42.19, 26.96 24.23, 0.36 1.11 M68.25 49.53 C55.14 38.13, 42.03 26.73, 4.85 -5.58 M68.25 49.53 C54.03 37.16, 39.81 24.8, 4.85 -5.58 M68.21 38.9 C52.96 25.63, 37.7 12.37, 16.89 -5.72 M68.21 38.9 C51.86 24.68, 35.5 10.46, 16.89 -5.72 M68.18 28.27 C55.1 16.89, 42.02 5.52, 28.93 -5.85 M68.18 28.27 C57.94 19.36, 47.7 10.46, 28.93 -5.85 M68.15 17.64 C60.93 11.36, 53.71 5.08, 41.73 -5.33 M68.15 17.64 C61.86 12.18, 55.58 6.71, 41.73 -5.33 M68.11 7.01 C63.52 3.01, 58.92 -0.98, 53.77 -5.46 M68.11 7.01 C65.12 4.41, 62.13 1.81, 53.77 -5.46" stroke="#fd7e1488" stroke-width="1" fill="none"></path><path d="M0 0 C22.23 0, 44.46 0, 64.46 0 M0 0 C21.55 0, 43.11 0, 64.46 0 M64.46 0 C64.46 15.19, 64.46 30.38, 64.46 64.4 M64.46 0 C64.46 15.68, 64.46 31.37, 64.46 64.4 M64.46 64.4 C44.69 64.4, 24.92 64.4, 0 64.4 M64.46 64.4 C40.68 64.4, 16.9 64.4, 0 64.4 M0 64.4 C0 44.96, 0 25.51, 0 0 M0 64.4 C0 44.06, 0 23.71, 0 0" stroke="#000000" stroke-width="2" fill="none"></path></g><g stroke-linecap="round"><g transform="translate(879.5563873756298 240.32775803992774) rotate(0 -14.527943252572754 4.246637183852329)" fill-rule="evenodd"><path d="M0 0 L-0.01 -5.02 L-14.76 -10.29 L-28.99 -5.08 L-29.08 12.27 L-14.61 18.78 L0.03 12.33 L0 0" stroke="none" stroke-width="0" fill="#ff00" fill-rule="evenodd"></path><path d="M0 0 C-0.01 -1.87, -0.01 -3.74, -0.01 -5.02 M0 0 C0 -1.53, -0.01 -3.06, -0.01 -5.02 M-0.01 -5.02 C-5.38 -6.94, -10.74 -8.85, -14.76 -10.29 M-0.01 -5.02 C-3.02 -6.1, -6.03 -7.17, -14.76 -10.29 M-14.76 -10.29 C-20.32 -8.25, -25.88 -6.22, -28.99 -5.08 M-14.76 -10.29 C-17.84 -9.16, -20.92 -8.03, -28.99 -5.08 M-28.99 -5.08 C-29.02 -0.62, -29.04 3.83, -29.08 12.27 M-28.99 -5.08 C-29.01 -1.07, -29.04 2.95, -29.08 12.27 M-29.08 12.27 C-24.98 14.12, -20.89 15.96, -14.61 18.78 M-29.08 12.27 C-24.34 14.41, -19.59 16.54, -14.61 18.78 M-14.61 18.78 C-10.71 17.06, -6.81 15.34, 0.03 12.33 M-14.61 18.78 C-10.67 17.04, -6.74 15.31, 0.03 12.33 M0.03 12.33 C0.02 8.16, 0.01 4, 0 0 M0.03 12.33 C0.02 8.77, 0.01 5.21, 0 0 M0 0 C0 0, 0 0, 0 0 M0 0 C0 0, 0 0, 0 0" stroke="#000" stroke-width="2" fill="none"></path></g></g><g stroke-linecap="round"><g transform="translate(850.9902700024379 235.5233425796731) rotate(0 7.040937546110854 11.492780070298295)"><path d="M0 0 C3.75 1.5, 7.51 3.01, 14.08 5.64 M0 0 C4.08 1.64, 8.17 3.27, 14.08 5.64 M14.08 5.64 C14.07 9.15, 14.06 12.67, 14.02 22.99 M14.08 5.64 C14.06 12.47, 14.03 19.31, 14.02 22.99" stroke="#000000" stroke-width="2" fill="none"></path></g></g><g stroke-linecap="round"><g transform="translate(865.0284441230544 241.09006027723137) rotate(0 6.968669893097058 -2.7100382917599575)"><path d="M0 0 C4.12 -1.6, 8.24 -3.2, 13.94 -5.42 M0 0 C4.23 -1.65, 8.46 -3.29, 13.94 -5.42" stroke="#000000" stroke-width="2" fill="none"></path></g></g><g stroke-linecap="round"><g transform="translate(858.3575397954908 269.05635736332056) rotate(0 -6.263092272848439 1.8307533330340107)" fill-rule="evenodd"><path d="M0 0 L-0.01 -2.17 L-6.36 -4.43 L-12.5 -2.19 L-12.54 5.29 L-6.3 8.1 L0.01 5.31 L0 0" stroke="none" stroke-width="0" fill="#ff00" fill-rule="evenodd"></path><path d="M0 0 C0 -0.71, 0 -1.43, -0.01 -2.17 M0 0 C0 -0.55, 0 -1.1, -0.01 -2.17 M-0.01 -2.17 C-1.58 -2.73, -3.15 -3.29, -6.36 -4.43 M-0.01 -2.17 C-1.62 -2.74, -3.23 -3.32, -6.36 -4.43 M-6.36 -4.43 C-7.84 -3.89, -9.31 -3.36, -12.5 -2.19 M-6.36 -4.43 C-8.45 -3.67, -10.53 -2.91, -12.5 -2.19 M-12.5 -2.19 C-12.51 0.1, -12.52 2.39, -12.54 5.29 M-12.5 -2.19 C-12.51 -0.55, -12.52 1.09, -12.54 5.29 M-12.54 5.29 C-10.38 6.26, -8.22 7.23, -6.3 8.1 M-12.54 5.29 C-10.28 6.31, -8.03 7.32, -6.3 8.1 M-6.3 8.1 C-4.69 7.39, -3.09 6.68, 0.01 5.31 M-6.3 8.1 C-4.67 7.38, -3.03 6.66, 0.01 5.31 M0.01 5.31 C0.01 3.66, 0 2, 0 0 M0.01 5.31 C0.01 3.27, 0 1.22, 0 0 M0 0 C0 0, 0 0, 0 0 M0 0 C0 0, 0 0, 0 0" stroke="#000" stroke-width="2" fill="none"></path></g></g><g stroke-linecap="round"><g transform="translate(846.0424979568186 266.98514213198916) rotate(0 3.0353946716336395 4.954613381979243)"><path d="M0 0 C2.04 0.82, 4.07 1.63, 6.07 2.43 M0 0 C1.55 0.62, 3.1 1.24, 6.07 2.43 M6.07 2.43 C6.06 5.12, 6.05 7.81, 6.04 9.91 M6.07 2.43 C6.06 5.16, 6.05 7.89, 6.04 9.91" stroke="#000000" stroke-width="2" fill="none"></path></g></g><g stroke-linecap="round"><g transform="translate(852.0944475226427 269.38499089176173) rotate(0 3.004239609193064 -1.1683154035750647)"><path d="M0 0 C1.32 -0.51, 2.65 -1.03, 6.01 -2.34 M0 0 C1.7 -0.66, 3.39 -1.32, 6.01 -2.34" stroke="#000000" stroke-width="2" fill="none"></path></g></g><g stroke-linecap="round"><g transform="translate(871.494680352235 276.07577725709655) rotate(0 -6.263092272848439 1.8307533330339822)" fill-rule="evenodd"><path d="M0 0 L-0.01 -2.17 L-6.36 -4.43 L-12.5 -2.19 L-12.54 5.29 L-6.3 8.1 L0.01 5.31 L0 0" stroke="none" stroke-width="0" fill="#ff00" fill-rule="evenodd"></path><path d="M0 0 C0 -0.46, 0 -0.91, -0.01 -2.17 M0 0 C0 -0.78, 0 -1.55, -0.01 -2.17 M-0.01 -2.17 C-2.43 -3.03, -4.86 -3.9, -6.36 -4.43 M-0.01 -2.17 C-2.41 -3.02, -4.81 -3.88, -6.36 -4.43 M-6.36 -4.43 C-8.42 -3.68, -10.48 -2.93, -12.5 -2.19 M-6.36 -4.43 C-7.7 -3.94, -9.04 -3.45, -12.5 -2.19 M-12.5 -2.19 C-12.51 0.16, -12.52 2.5, -12.54 5.29 M-12.5 -2.19 C-12.51 -0.32, -12.52 1.55, -12.54 5.29 M-12.54 5.29 C-11.24 5.88, -9.93 6.46, -6.3 8.1 M-12.54 5.29 C-10.35 6.28, -8.16 7.26, -6.3 8.1 M-6.3 8.1 C-4.88 7.47, -3.47 6.85, 0.01 5.31 M-6.3 8.1 C-4.41 7.26, -2.53 6.43, 0.01 5.31 M0.01 5.31 C0.01 4.08, 0.01 2.86, 0 0 M0.01 5.31 C0.01 3.95, 0.01 2.58, 0 0 M0 0 C0 0, 0 0, 0 0 M0 0 C0 0, 0 0, 0 0" stroke="#000" stroke-width="2" fill="none"></path></g></g><g stroke-linecap="round"><g transform="translate(859.1796385135606 274.00456202576095) rotate(0 3.0353946716336395 4.954613381979243)"><path d="M0 0 C2.15 0.86, 4.3 1.72, 6.07 2.43 M0 0 C1.48 0.59, 2.96 1.19, 6.07 2.43 M6.07 2.43 C6.06 4.98, 6.05 7.52, 6.04 9.91 M6.07 2.43 C6.06 4.27, 6.06 6.11, 6.04 9.91" stroke="#000000" stroke-width="2" fill="none"></path></g></g><g stroke-linecap="round"><g transform="translate(865.2315880793888 276.40441078553533) rotate(0 3.004239609193064 -1.1683154035750647)"><path d="M0 0 C1.29 -0.5, 2.57 -1, 6.01 -2.34 M0 0 C2.23 -0.87, 4.45 -1.73, 6.01 -2.34" stroke="#000000" stroke-width="2" fill="none"></path></g></g><g stroke-linecap="round"><g transform="translate(884.1340801776944 268.22250905098156) rotate(0 -6.263092272848439 1.8307533330339822)" fill-rule="evenodd"><path d="M0 0 L-0.01 -2.17 L-6.36 -4.43 L-12.5 -2.19 L-12.54 5.29 L-6.3 8.1 L0.01 5.31 L0 0" stroke="none" stroke-width="0" fill="#ff00" fill-rule="evenodd"></path><path d="M0 0 C0 -0.65, 0 -1.31, -0.01 -2.17 M0 0 C0 -0.53, 0 -1.06, -0.01 -2.17 M-0.01 -2.17 C-2.39 -3.02, -4.78 -3.87, -6.36 -4.43 M-0.01 -2.17 C-1.48 -2.69, -2.96 -3.22, -6.36 -4.43 M-6.36 -4.43 C-8.16 -3.78, -9.96 -3.12, -12.5 -2.19 M-6.36 -4.43 C-8.04 -3.82, -9.71 -3.21, -12.5 -2.19 M-12.5 -2.19 C-12.51 0.41, -12.53 3, -12.54 5.29 M-12.5 -2.19 C-12.51 -0.44, -12.52 1.31, -12.54 5.29 M-12.54 5.29 C-10.99 5.99, -9.44 6.68, -6.3 8.1 M-12.54 5.29 C-10.18 6.35, -7.82 7.41, -6.3 8.1 M-6.3 8.1 C-4.28 7.21, -2.27 6.32, 0.01 5.31 M-6.3 8.1 C-4.24 7.19, -2.18 6.28, 0.01 5.31 M0.01 5.31 C0.01 3.28, 0 1.24, 0 0 M0.01 5.31 C0.01 3.64, 0 1.97, 0 0 M0 0 C0 0, 0 0, 0 0 M0 0 C0 0, 0 0, 0 0" stroke="#000" stroke-width="2" fill="none"></path></g></g><g stroke-linecap="round"><g transform="translate(871.8190383390172 266.15129381964846) rotate(0 3.0353946716336395 4.954613381979243)"><path d="M0 0 C2.03 0.81, 4.06 1.63, 6.07 2.43 M0 0 C1.43 0.57, 2.86 1.15, 6.07 2.43 M6.07 2.43 C6.06 4.25, 6.06 6.07, 6.04 9.91 M6.07 2.43 C6.06 4.72, 6.05 7.02, 6.04 9.91" stroke="#000000" stroke-width="2" fill="none"></path></g></g><g stroke-linecap="round"><g transform="translate(877.8709879048477 268.5511425794183) rotate(0 3.004239609193064 -1.1683154035750647)"><path d="M0 0 C1.83 -0.71, 3.66 -1.42, 6.01 -2.34 M0 0 C2.19 -0.85, 4.37 -1.7, 6.01 -2.34" stroke="#000000" stroke-width="2" fill="none"></path></g></g><g stroke-linecap="round"><g transform="translate(847.3942212013678 262.08326346436786) rotate(178.33979303936556 17.36663167122265 -8.19403422875601)"><path d="M0 0 C-0.62 -0.36, -2.66 -1.12, -3.74 -2.14 C-4.83 -3.16, -6.37 -4.65, -6.52 -6.13 C-6.66 -7.6, -5.97 -9.61, -4.61 -10.98 C-3.25 -12.36, -0.8 -13.5, 1.63 -14.37 C4.06 -15.24, 7.05 -15.79, 9.95 -16.2 C12.86 -16.6, 15.99 -16.86, 19.06 -16.78 C22.13 -16.7, 25.63 -16.28, 28.39 -15.71 C31.14 -15.15, 33.66 -14.36, 35.59 -13.41 C37.52 -12.46, 39.02 -11.32, 39.96 -10.04 C40.89 -8.76, 41.49 -7.11, 41.19 -5.74 C40.9 -4.38, 39.47 -2.89, 38.2 -1.86 C36.93 -0.84, 34.36 0.03, 33.59 0.41 M0 0 C-0.62 -0.36, -2.66 -1.12, -3.74 -2.14 C-4.83 -3.16, -6.37 -4.65, -6.52 -6.13 C-6.66 -7.6, -5.97 -9.61, -4.61 -10.98 C-3.25 -12.36, -0.8 -13.5, 1.63 -14.37 C4.06 -15.24, 7.05 -15.79, 9.95 -16.2 C12.86 -16.6, 15.99 -16.86, 19.06 -16.78 C22.13 -16.7, 25.63 -16.28, 28.39 -15.71 C31.14 -15.15, 33.66 -14.36, 35.59 -13.41 C37.52 -12.46, 39.02 -11.32, 39.96 -10.04 C40.89 -8.76, 41.49 -7.11, 41.19 -5.74 C40.9 -4.38, 39.47 -2.89, 38.2 -1.86 C36.93 -0.84, 34.36 0.03, 33.59 0.41" stroke="#000000" stroke-width="2" fill="none"></path></g></g><g transform="translate(824.5220135849311 293.38427223461156) rotate(0 40 12.5)"><text x="0" y="18" font-family="Virgil, Segoe UI Emoji" font-size="20px" fill="#000000" text-anchor="start" style="white-space: pre;" direction="ltr">Fargate</text></g><g stroke-linecap="round"><g transform="translate(129.4545474488135 129.14795536760178) rotate(0 43.74011972362564 47.98146408464845)" fill-rule="evenodd"><path d="M1.61 -1.69 L0.55 95.16 L0.39 96.72 L19.66 105.39 L46.44 104.82 L71.59 104.41 L81.06 101.11 L89.76 96.25 L88.33 -3.1 L86.93 0.59 L85.69 -4.15 L75.98 -4.95 L41.1 -8.56 L12.18 -6.93 L2.84 -3.87 L-1.32 -1.48" stroke="none" stroke-width="0" fill="#228be6" fill-rule="evenodd"></path><path d="M-0.21 0.7 C-0.18 15.27, -0.31 71.17, -0.38 86.9 C-0.46 102.63, -1.59 93.08, -0.64 95.08 C0.31 97.08, 1.88 97.59, 5.31 98.92 C8.74 100.24, 12.89 101.86, 19.96 103.03 C27.02 104.19, 38.79 105.83, 47.7 105.91 C56.61 105.98, 66.93 104.53, 73.44 103.48 C79.95 102.44, 84.46 101.23, 86.76 99.64 C89.06 98.06, 86.8 96.13, 87.22 94 C87.65 91.87, 89.27 101.2, 89.3 86.87 C89.33 72.53, 87.8 22.38, 87.4 8 C87 -6.38, 87.96 2.71, 86.92 0.59 C85.89 -1.52, 84.14 -3.44, 81.17 -4.7 C78.19 -5.95, 75.3 -6.17, 69.08 -6.94 C62.85 -7.7, 52.01 -9.01, 43.8 -9.28 C35.58 -9.55, 26.46 -9.68, 19.78 -8.57 C13.1 -7.45, 6.94 -3.94, 3.7 -2.61 C0.47 -1.28, 1 -1.01, 0.38 -0.59 C-0.25 -0.17, -0.1 -0.01, -0.02 -0.08 M-1.78 0.02 C-1.31 14.3, 1.97 69.23, 1.97 85.22 C1.98 101.22, -2.41 93.63, -1.75 95.99 C-1.08 98.36, 2.01 98.22, 5.96 99.41 C9.91 100.59, 15.31 102.08, 21.96 103.09 C28.6 104.09, 37.67 105.58, 45.83 105.46 C53.99 105.34, 64.22 103.34, 70.94 102.39 C77.65 101.44, 83.15 100.9, 86.14 99.78 C89.12 98.66, 88.71 97.93, 88.86 95.67 C89 93.4, 87.23 101.2, 87 86.21 C86.76 71.22, 87.11 19.99, 87.43 5.73 C87.74 -8.53, 89.94 2.55, 88.88 0.66 C87.82 -1.22, 83.94 -4.29, 81.06 -5.59 C78.18 -6.88, 78.27 -6.36, 71.6 -7.09 C64.93 -7.81, 49.6 -9.84, 41.04 -9.94 C32.47 -10.04, 26.66 -8.52, 20.22 -7.69 C13.78 -6.86, 5.9 -6.15, 2.41 -4.95 C-1.07 -3.76, -0.05 -1.35, -0.69 -0.51 C-1.33 0.34, -1.83 -0.01, -1.42 0.13" stroke="#0a11d3" stroke-width="1" fill="none"></path></g></g><g stroke-linecap="round"><g transform="translate(130.14190903831093 194.43808339838938) rotate(0 44.40823931602904 4.525953307375431)"><path d="M0.7 -0.68 C1.31 -0.1, 1.36 1.82, 3.17 3.25 C4.99 4.69, 8.03 7.02, 11.59 7.95 C15.15 8.87, 18.81 8.45, 24.54 8.81 C30.28 9.16, 38.05 10.02, 45.99 10.07 C53.93 10.11, 65.53 10.03, 72.16 9.07 C78.79 8.1, 82.93 5.96, 85.77 4.26 C88.61 2.56, 88.98 -0.53, 89.21 -1.13 M-0.4 1.58 C0.18 2.33, 0.26 3.71, 2.67 4.45 C5.08 5.18, 10.5 5.13, 14.08 6.01 C17.67 6.89, 18.55 8.92, 24.18 9.72 C29.8 10.52, 40.12 11.03, 47.85 10.83 C55.57 10.64, 64.04 9.79, 70.51 8.54 C76.98 7.29, 83.64 5.04, 86.67 3.31 C89.7 1.59, 88.35 -1.25, 88.66 -1.82" stroke="#0a11d3" stroke-width="1" fill="none"></path></g></g><g stroke-linecap="round"><g transform="translate(129.04816752624947 161.36392883631757) rotate(0 44.61691304355071 4.435613417300004)"><path d="M-0.68 0.85 C-0.36 1.25, -0.63 2.27, 1.67 3.14 C3.97 4, 9.18 5.12, 13.12 6.01 C17.07 6.91, 19.65 7.79, 25.35 8.53 C31.05 9.27, 39.57 10.47, 47.35 10.48 C55.12 10.48, 65.56 9.58, 72.02 8.57 C78.47 7.55, 83.46 6.09, 86.06 4.39 C88.66 2.7, 87.07 -0.73, 87.63 -1.6 M1.17 0.25 C1.9 0.73, 2.11 3.19, 4.04 4.27 C5.97 5.35, 9.2 5.88, 12.76 6.72 C16.32 7.56, 19.83 9.12, 25.41 9.3 C30.99 9.48, 38.77 8.05, 46.25 7.8 C53.73 7.54, 63.48 8.49, 70.28 7.78 C77.09 7.07, 83.83 4.63, 87.1 3.52 C90.38 2.41, 89.7 1.49, 89.91 1.11" stroke="#0a11d3" stroke-width="1" fill="none"></path></g></g><g stroke-linecap="round" transform="translate(127.9273448400877 121.1232591405051) rotate(0 43.825373054270926 8.863351988406833)"><path d="M28.24 0.78 C36.63 -0.1, 50.64 -0.55, 59.5 0.05 C68.36 0.65, 76.96 2.77, 81.42 4.38 C85.89 5.99, 87.91 7.89, 86.29 9.71 C84.66 11.53, 78.91 13.87, 71.66 15.28 C64.41 16.7, 52.13 18.28, 42.79 18.19 C33.45 18.09, 22.77 16.07, 15.59 14.71 C8.41 13.34, 1.2 11.81, -0.28 10.01 C-1.77 8.2, 0.35 5.48, 6.71 3.88 C13.06 2.27, 31.57 0.95, 37.84 0.39 C44.11 -0.17, 44.28 0.45, 44.34 0.5 M50.39 1.27 C59.01 1.17, 69.48 1.07, 75.61 2.47 C81.74 3.87, 86.86 7.46, 87.17 9.68 C87.49 11.89, 83.4 14.64, 77.5 15.77 C71.6 16.89, 60.83 16.33, 51.79 16.41 C42.74 16.48, 31.32 16.97, 23.25 16.24 C15.18 15.5, 6.96 13.66, 3.38 11.99 C-0.2 10.32, -1.1 8.09, 1.77 6.21 C4.63 4.33, 12.26 1.72, 20.57 0.7 C28.89 -0.32, 46.76 0.29, 51.68 0.11 C56.59 -0.08, 50.33 -0.62, 50.06 -0.41" stroke="none" stroke-width="0" fill="#fff"></path><path d="M29.72 -0.08 C38 -0.44, 51.67 0.71, 60.58 1.56 C69.5 2.42, 78.74 3.41, 83.21 5.05 C87.67 6.7, 89.51 9.77, 87.39 11.4 C85.27 13.04, 77.77 13.85, 70.46 14.85 C63.15 15.85, 52.88 17.18, 43.51 17.39 C34.14 17.61, 21.5 17.21, 14.24 16.14 C6.99 15.06, 1.38 12.94, 0 10.93 C-1.38 8.93, 0.38 5.89, 5.97 4.11 C11.56 2.34, 27.94 0.96, 33.54 0.28 C39.13 -0.39, 39.41 0.04, 39.52 0.07 M41.84 -0.03 C50.49 -0.11, 63.6 1.56, 70.87 2.94 C78.15 4.32, 83.77 6.48, 85.48 8.27 C87.2 10.06, 85.44 12.3, 81.15 13.66 C76.86 15.02, 68.45 15.91, 59.73 16.43 C51.01 16.95, 37.5 17.34, 28.85 16.79 C20.2 16.24, 12.57 14.76, 7.84 13.12 C3.11 11.48, -0.83 8.71, 0.49 6.94 C1.8 5.17, 8.7 3.43, 15.72 2.52 C22.74 1.61, 38.25 1.85, 42.61 1.5 C46.96 1.14, 42.06 0.55, 41.84 0.38" stroke="#0a11d3" stroke-width="1" fill="none"></path></g><g stroke-linecap="round" transform="translate(199.4370771406683 145.69906201763868) rotate(0 6.423028523489904 6.970952181208048)"><path d="M4.75 0.8 C5.8 0.34, 7.16 -0.32, 8.37 0.06 C9.59 0.44, 11.43 1.71, 12.03 3.09 C12.62 4.46, 12.31 6.87, 11.96 8.31 C11.61 9.74, 10.83 10.73, 9.94 11.69 C9.05 12.64, 8.07 14.12, 6.61 14.04 C5.15 13.96, 2.32 12.11, 1.17 11.2 C0.02 10.3, -0.18 9.78, -0.3 8.61 C-0.41 7.44, -0.43 5.7, 0.49 4.2 C1.4 2.7, 4.33 0.17, 5.2 -0.38 C6.07 -0.94, 5.78 0.59, 5.71 0.85 M9.22 -0.74 C10.25 -0.58, 10.38 1.21, 11.16 2.48 C11.93 3.74, 13.68 5.43, 13.89 6.85 C14.1 8.27, 13.73 9.77, 12.4 10.99 C11.06 12.21, 7.56 13.82, 5.89 14.16 C4.21 14.49, 3.31 13.97, 2.35 13 C1.38 12.03, 0.36 9.88, 0.09 8.35 C-0.19 6.82, 0.23 4.83, 0.72 3.8 C1.22 2.77, 1.83 2.75, 3.05 2.15 C4.28 1.55, 7.34 0.43, 8.06 0.21 C8.77 -0.01, 7.29 0.88, 7.33 0.82" stroke="none" stroke-width="0" fill="#fff"></path><path d="M7.91 0.95 C9.49 1.5, 11.95 2.84, 12.83 4.12 C13.7 5.4, 13.41 7.36, 13.18 8.61 C12.95 9.86, 12.71 10.56, 11.45 11.61 C10.2 12.65, 7.21 14.82, 5.66 14.88 C4.1 14.94, 2.93 13.14, 2.12 11.98 C1.3 10.82, 0.88 9.4, 0.78 7.92 C0.69 6.45, 1.02 4.48, 1.55 3.13 C2.07 1.78, 2.72 0.1, 3.94 -0.18 C5.16 -0.47, 8.04 1.4, 8.88 1.41 C9.71 1.41, 9.1 -0.09, 8.95 -0.15 M9.18 0.59 C10.48 1.03, 12.54 1.69, 13.31 2.85 C14.08 4.02, 14.26 6, 13.81 7.59 C13.37 9.19, 12.09 11.57, 10.64 12.42 C9.19 13.27, 6.67 12.56, 5.12 12.68 C3.56 12.8, 2.25 13.99, 1.33 13.13 C0.42 12.27, -0.26 9.05, -0.39 7.52 C-0.52 5.99, -0.36 5.16, 0.56 3.96 C1.48 2.76, 3.42 0.97, 5.11 0.31 C6.8 -0.35, 10 0.14, 10.7 0 C11.41 -0.14, 9.72 -0.87, 9.36 -0.53" stroke="#0a11d3" stroke-width="1" fill="none"></path></g><g stroke-linecap="round" transform="translate(199.4370771406683 176.30151587669914) rotate(0 6.423028523489904 6.970952181208034)"><path d="M8.46 -0.3 C9.81 -0.1, 10.54 1.62, 11.16 2.79 C11.78 3.96, 12.22 5.29, 12.17 6.73 C12.12 8.17, 11.85 10.15, 10.87 11.42 C9.89 12.69, 7.6 14.3, 6.27 14.36 C4.95 14.43, 4.09 12.8, 2.93 11.83 C1.77 10.86, -0.39 9.9, -0.67 8.53 C-0.94 7.16, 0.41 4.87, 1.28 3.61 C2.16 2.35, 3.5 1.48, 4.58 0.98 C5.67 0.49, 7 0.76, 7.79 0.65 C8.57 0.53, 9.19 0.15, 9.31 0.29 M7.6 -0.11 C8.75 0.27, 10.75 2.89, 11.5 4.5 C12.24 6.1, 12.37 8.41, 12.07 9.52 C11.78 10.63, 10.61 10.47, 9.72 11.13 C8.83 11.8, 7.91 13.34, 6.73 13.51 C5.55 13.69, 3.81 13.06, 2.63 12.21 C1.45 11.35, -0.01 9.93, -0.36 8.38 C-0.7 6.83, -0.44 4.25, 0.57 2.92 C1.57 1.6, 4.32 0.99, 5.65 0.45 C6.98 -0.08, 7.99 -0.36, 8.55 -0.28 C9.1 -0.21, 9.19 0.61, 8.98 0.93" stroke="none" stroke-width="0" fill="#fff"></path><path d="M4.02 1.75 C5.32 1.16, 7.24 0.28, 8.59 0.56 C9.94 0.84, 11.52 2.49, 12.13 3.44 C12.75 4.4, 12.28 4.96, 12.28 6.27 C12.28 7.58, 13.03 9.94, 12.13 11.32 C11.22 12.69, 8.44 14.14, 6.84 14.53 C5.24 14.91, 3.72 14.58, 2.54 13.66 C1.36 12.74, 0.23 10.55, -0.23 9.01 C-0.69 7.47, -1.12 5.88, -0.21 4.41 C0.7 2.95, 4.46 1.01, 5.22 0.22 C5.97 -0.57, 4.45 -0.63, 4.33 -0.34 M7.45 1.14 C8.65 1.51, 9.41 2.63, 10.1 3.71 C10.79 4.78, 11.42 6.4, 11.58 7.58 C11.73 8.76, 11.9 9.83, 11.02 10.8 C10.14 11.76, 7.39 13.05, 6.3 13.35 C5.21 13.65, 5.48 13.37, 4.5 12.6 C3.51 11.82, 0.92 9.99, 0.41 8.7 C-0.1 7.4, 0.97 5.9, 1.45 4.85 C1.93 3.8, 2.42 3.18, 3.32 2.42 C4.22 1.66, 6.38 0.74, 6.86 0.31 C7.34 -0.12, 5.97 -0.29, 6.18 -0.17" stroke="#0a11d3" stroke-width="1" fill="none"></path></g><g stroke-linecap="round" transform="translate(199.4370771406683 209.5623170511957) rotate(0 6.423028523489904 6.970952181208048)"><path d="M3.4 0.09 C4.51 -0.74, 6.92 -0.84, 8.2 -0.36 C9.48 0.12, 10.37 1.77, 11.07 3 C11.77 4.22, 12.37 5.47, 12.4 7 C12.44 8.52, 12.36 11.16, 11.27 12.17 C10.18 13.17, 7.36 12.84, 5.85 13.02 C4.34 13.2, 3.25 13.85, 2.22 13.27 C1.18 12.69, -0.14 11.19, -0.35 9.52 C-0.56 7.85, 0.07 4.68, 0.97 3.24 C1.88 1.79, 4.36 1.31, 5.09 0.85 C5.83 0.39, 5.33 0.36, 5.38 0.48 M6.32 -0.44 C7.61 -0.4, 10.6 0.28, 11.92 1.24 C13.23 2.2, 14.42 3.68, 14.21 5.32 C13.99 6.95, 11.7 9.63, 10.63 11.07 C9.57 12.51, 8.97 13.65, 7.81 13.95 C6.66 14.25, 4.88 13.58, 3.71 12.89 C2.54 12.2, 1.5 10.82, 0.81 9.81 C0.12 8.79, -0.74 8.22, -0.44 6.81 C-0.14 5.4, 1.52 2.4, 2.62 1.34 C3.72 0.29, 5.38 0.85, 6.14 0.47 C6.91 0.09, 7.01 -1.06, 7.21 -0.95" stroke="none" stroke-width="0" fill="#fff"></path><path d="M6.4 0.9 C7.84 0.6, 9.03 1.11, 10.17 1.66 C11.31 2.21, 13.05 2.71, 13.26 4.18 C13.48 5.65, 12.13 9.04, 11.44 10.45 C10.76 11.86, 10.11 12.14, 9.17 12.62 C8.23 13.11, 6.97 13.65, 5.81 13.34 C4.64 13.03, 3.17 11.98, 2.19 10.78 C1.2 9.58, -0.02 7.38, -0.1 6.12 C-0.19 4.87, 0.73 4.44, 1.67 3.27 C2.61 2.1, 4.92 -0.37, 5.54 -0.9 C6.15 -1.43, 5.18 -0.23, 5.37 0.1 M6.03 -1.08 C7.49 -1.67, 9.41 -1.34, 10.56 -0.5 C11.71 0.33, 12.72 2.56, 12.94 3.95 C13.16 5.33, 12.48 6.1, 11.9 7.8 C11.31 9.49, 10.53 13.1, 9.42 14.12 C8.31 15.14, 6.61 14.14, 5.22 13.92 C3.83 13.69, 1.89 13.86, 1.07 12.77 C0.24 11.69, -0.01 9.2, 0.28 7.42 C0.57 5.63, 1.98 3.5, 2.79 2.07 C3.61 0.64, 4.89 -0.99, 5.19 -1.17 C5.5 -1.35, 4.58 0.85, 4.61 1.01" stroke="#0a11d3" stroke-width="1" fill="none"></path></g><g stroke-linecap="round"><g transform="translate(954.7302629786957 432.325424564211) rotate(0 -31.048234896824965 15.29896822117135)" fill-rule="evenodd"><path d="M-75.88 8.24 C-75.88 8.24, -75.88 8.24, -75.88 8.24 M-75.88 8.24 C-75.88 8.24, -75.88 8.24, -75.88 8.24 M-76.25 15.5 C-74.77 13.23, -74.25 11.87, -70.98 8.99 M-76.73 15.28 C-74.62 13.02, -72.75 10.72, -71.62 9.19 M-75.72 19.95 C-71.06 14.29, -67.24 11.53, -66.56 9.13 M-75.15 19.47 C-72.72 16.72, -71.49 14.98, -66.17 9.56 M-71.5 25.33 C-68.94 19.49, -64.58 15.61, -61.99 8.08 M-74.02 24.25 C-69.6 20.07, -65.92 16.88, -60.56 8.12 M-69.71 28.28 C-66.23 22.42, -65.43 16.86, -56.57 10.29 M-70.96 26.72 C-66.44 23.03, -62.47 17.4, -54.99 9.79 M-71.22 33.12 C-61.71 24.4, -54.65 12.53, -47.81 9.92 M-69.72 30.58 C-62.29 24.19, -57.25 16.61, -49.85 9.07 M-67.02 34.87 C-59.8 29.41, -54.38 20.73, -46.54 7.04 M-66.84 34.6 C-59.98 24.86, -52.52 17.88, -44.98 9.42 M-62.53 35.51 C-54.46 24.84, -43.57 15.84, -38.78 7.47 M-64 36.54 C-54.28 25.42, -44.05 13.92, -38.62 8.09 M-60.52 40.77 C-49.85 27.86, -39.92 15.1, -35.76 8.61 M-60.18 38.67 C-53.49 30.07, -46.05 21.23, -33.75 9.69 M-57.15 40.25 C-47.09 29.57, -38.35 20.91, -27.54 7.26 M-56.03 41.67 C-45.57 28.64, -36.28 16.72, -28.92 8.83 M-11.31 -11.16 C-11.31 -11.16, -11.31 -11.16, -11.31 -11.16 M-11.31 -11.16 C-11.31 -11.16, -11.31 -11.16, -11.31 -11.16 M-53.58 40.05 C-44.32 31.1, -36.24 23.45, -22.52 9.77 M-51.8 41.26 C-42.1 29.87, -32.36 17.35, -23.15 8.22 M-11.7 -4.21 C-11.54 -6.16, -8.68 -7.61, -6.23 -10.67 M-12.14 -4.04 C-10.82 -5.93, -9.6 -7.12, -6.63 -9.71 M-48.04 44.14 C-37.87 29.15, -26.9 20.14, -19.57 9.2 M-48.14 42.96 C-37.65 31.43, -26.28 18.71, -16.74 9.25 M-11.78 2.45 C-8.81 -2.3, -5.43 -6.9, -4.32 -8.05 M-11.87 1.09 C-9.77 -0.92, -6.65 -4.45, -2.92 -8.8 M-44.26 42.86 C-33.95 32.77, -25.19 24.88, -12.39 7.44 M-43.42 44.39 C-36.44 35.9, -30.54 28.52, -11.51 7.91 M-9.1 5.8 C-6.69 1.49, -4.03 -2.83, 0.31 -4.66 M-9.93 4.81 C-7.69 2.1, -5.92 0.31, -0.31 -4.21 M-39.12 42.87 C-26.94 29.78, -14.8 20.84, 1.18 1.36 M-38.26 43.27 C-27.37 31.26, -17.61 19.24, 0.95 -0.51 M-30.63 41.85 C-21.61 29.21, -9.08 16, 6.18 -2.3 M-31.82 44.35 C-23.28 33.16, -14.98 24.01, 4.96 -0.34 M-26.87 45.72 C-16.31 29.13, -5.7 19.59, 0.6 11.69 M-26.76 43.06 C-19.05 33.59, -9.98 24.99, 1.84 10.48 M0.45 9.87 C3.3 8.59, 6.2 4.41, 10 -0.35 M1.17 11.2 C3.52 8.78, 6.53 5.72, 11.12 -0.02 M-15.83 37.06 C-10.73 32.92, -8.64 29.79, -4.39 22.81 M-14.45 35.54 C-11.25 31.89, -9.26 28.8, -4.89 23.27 M8.45 10.47 C10.06 7.57, 11.18 5.66, 15.39 1.73 M7.53 9.48 C10.4 6.36, 13.07 3.6, 14.82 2.09" stroke="#228be6" stroke-width="0.5" fill="none"></path><path d="M-1.17 -0.36 C-1.47 -1.26, -1.95 -3.2, -2.57 -4.62 C-3.19 -6.05, -3.47 -7.9, -4.88 -8.93 C-6.3 -9.95, -9.69 -11.25, -11.06 -10.77 C-12.42 -10.29, -12.66 -8.13, -13.06 -6.04 C-13.47 -3.94, -14.1 -0.05, -13.49 1.79 C-12.88 3.64, -9.43 4.12, -9.41 5.01 C-9.39 5.89, -10.85 6.73, -13.36 7.12 C-15.86 7.51, -20.47 7.37, -24.44 7.36 C-28.41 7.36, -30.28 6.81, -37.19 7.09 C-44.11 7.36, -59.44 8.98, -65.94 9 C-72.44 9.03, -74.25 6.29, -76.19 7.24 C-78.13 8.18, -78.22 11.6, -77.6 14.67 C-76.97 17.74, -74.35 22.21, -72.41 25.68 C-70.48 29.15, -68.62 32.84, -65.99 35.48 C-63.36 38.13, -59.87 40.2, -56.63 41.57 C-53.38 42.94, -50.81 43.68, -46.53 43.71 C-42.25 43.74, -36.07 43.23, -30.96 41.77 C-25.84 40.32, -19.72 37.38, -15.83 34.98 C-11.95 32.57, -10.19 30.29, -7.66 27.32 C-5.14 24.36, -2.08 19.97, -0.68 17.16 C0.71 14.36, -0.6 11.64, 0.69 10.5 C1.98 9.36, 5.04 10.63, 7.04 10.32 C9.05 10.02, 11.34 9.91, 12.7 8.68 C14.07 7.44, 15.69 4.62, 15.22 2.93 C14.74 1.24, 11.58 -0.71, 9.87 -1.44 C8.16 -2.18, 6.73 -1.58, 4.95 -1.47 C3.17 -1.35, -0.1 -0.82, -0.83 -0.73 M0.42 -1.6 C0.58 -2.9, 0.72 -4.84, -0.19 -6.37 C-1.1 -7.9, -3.33 -9.66, -5.06 -10.75 C-6.78 -11.85, -9.06 -13.72, -10.56 -12.92 C-12.06 -12.13, -13.71 -8.38, -14.06 -6 C-14.42 -3.63, -13.53 -0.83, -12.68 1.35 C-11.84 3.52, -8.76 6.17, -8.98 7.03 C-9.19 7.88, -11.2 6.11, -13.97 6.49 C-16.75 6.86, -21.87 9.35, -25.62 9.3 C-29.37 9.25, -29.83 6.61, -36.49 6.21 C-43.15 5.81, -58.71 6.29, -65.58 6.9 C-72.45 7.51, -75.68 8.73, -77.71 9.88 C-79.74 11.03, -78.6 11.17, -77.74 13.81 C-76.88 16.45, -74.52 22.19, -72.55 25.71 C-70.58 29.23, -68.76 32.6, -65.94 34.91 C-63.13 37.23, -59.19 38.53, -55.64 39.59 C-52.09 40.66, -49.07 40.84, -44.65 41.31 C-40.23 41.77, -33.67 43.45, -29.12 42.39 C-24.57 41.33, -20.93 37.18, -17.35 34.95 C-13.78 32.72, -10.38 32.19, -7.69 29 C-5 25.81, -2.67 18.55, -1.23 15.81 C0.22 13.06, -0.46 13.58, 0.99 12.54 C2.44 11.5, 5.24 10.26, 7.47 9.57 C9.7 8.89, 12.86 9.46, 14.38 8.41 C15.9 7.37, 17.23 5, 16.58 3.3 C15.93 1.61, 12.71 -0.92, 10.46 -1.77 C8.2 -2.62, 4.77 -2.26, 3.05 -1.81 C1.33 -1.36, 0.48 0.6, 0.14 0.92" stroke="#000000" stroke-width="1" fill="none"></path></g></g><g stroke-linecap="round" transform="translate(885.7439477271007 430.2574257088085) rotate(0 4.389813198750858 4.181105756654887)"><path d="M0 0 C0 0, 0 0, 0 0 M0 0 C0 0, 0 0, 0 0 M-0.16 5.64 C2.29 3.83, 3.2 2.27, 5.65 -0.43 M0.08 6.47 C1.37 4.5, 3.17 3.26, 5.04 0.48 M1.81 9.25 C5.49 6.09, 6.36 4.68, 10.62 0.93 M1.83 9.44 C5.51 6.73, 8.5 3.18, 10.3 0.69 M7.36 9.98 C7.25 9.6, 8.2 8.8, 9.82 7.42 M7.26 10.3 C7.75 9.09, 8.54 8.43, 9.7 7.3" stroke="#228be6" stroke-width="0.5" fill="none"></path><path d="M-0.47 0.53 C4.02 0.74, 6.74 0.59, 9.44 -0.5 M-0.2 0.28 C1.59 0.37, 3.34 -0.02, 8.48 0.03 M8.28 -0.05 C9.52 3.56, 8.39 6.52, 8.72 8.94 M8.95 -0.09 C8.66 1.47, 8.71 3.98, 8.67 8.37 M8.84 9.24 C6.12 8.5, 3.48 8.14, 0.41 8.5 M8.43 8.48 C6.96 8.18, 4.51 8.36, -0.29 8.04 M0.38 8.45 C-0.73 5.23, -0.26 4.23, -0.43 0.81 M0.26 8.23 C0.17 5.83, 0.33 2.93, 0.33 -0.27" stroke="#000000" stroke-width="1" fill="none"></path></g><g stroke-linecap="round" transform="translate(895.8871294129624 430.13220124355104) rotate(0 4.2158903303375155 4.215890330337544)"><path d="M0 0 C0 0, 0 0, 0 0 M0 0 C0 0, 0 0, 0 0 M-1.02 7.19 C0.95 4.33, 3.15 3.08, 4.19 0.27 M-0.19 6.49 C0.96 5.15, 2.84 3.25, 5.1 0.45 M1.57 10.68 C4.31 5.62, 8.79 3.64, 10.19 1.75 M1.76 10.23 C5.58 6.72, 8.56 3.17, 9.94 0.14" stroke="#228be6" stroke-width="0.5" fill="none"></path><path d="M0.5 0.79 C2.4 0.38, 3.96 0.68, 7.96 -0.81 M0.27 -0.2 C3.65 -0.19, 6.6 -0.25, 8.46 0.38 M8.38 0.76 C8.65 2.01, 8.34 4.72, 9.01 7.73 M8.34 -0.19 C8.02 3.07, 8.72 6.3, 8.44 8.25 M9.27 8.04 C5.42 7.68, 1.95 8.83, 0.13 7.85 M8.54 8.63 C6.21 8.17, 4.37 8.09, -0.31 8.36 M0.09 7.66 C-0.7 5.94, 0.68 3.61, 0.82 0.24 M-0.13 8.55 C0.19 6.68, 0.03 4.68, -0.27 -0.14" stroke="#000000" stroke-width="1" fill="none"></path></g><g stroke-linecap="round" transform="translate(905.9607419514593 430.2713395382816) rotate(0 4.146321182972201 4.14632118297223)"><path d="M0 0 C0 0, 0 0, 0 0 M0 0 C0 0, 0 0, 0 0 M0.53 5.85 C0.99 4.85, 3.05 2.6, 4.9 0.05 M-0.17 6.23 C1.44 5.14, 2.5 3.34, 5.08 0.66 M2.93 9.02 C2.95 8.68, 5.79 6.46, 10.27 2.41 M2.51 10.17 C4.44 7.92, 6.33 5.32, 8.79 1.13" stroke="#228be6" stroke-width="0.5" fill="none"></path><path d="M0.78 0.68 C2.57 0.48, 5.1 -0.52, 7.5 0.78 M-0.19 0.32 C1.99 -0.1, 4.15 -0.03, 8.67 -0.07 M9.04 0.29 C7.87 1.69, 8.19 3.98, 7.6 8.96 M8.11 -0.34 C8.19 2.14, 8.21 3.58, 8.11 8.59 M7.91 8.4 C4.91 8.15, 3.4 8.51, -0.57 7.78 M8.49 8.08 C5.2 8.28, 2.23 8.01, -0.07 8.13 M-0.76 7.54 C-0.33 7.08, -0.47 5.47, 0.23 -0.48 M0.12 8.5 C0.23 5.59, 0.27 2.52, -0.14 -0.13" stroke="#000000" stroke-width="1" fill="none"></path></g><g stroke-linecap="round" transform="translate(915.7560779004941 430.1878565614432) rotate(0 4.146321182972201 4.14632118297223)"><path d="M0 0 C0 0, 0 0, 0 0 M0 0 C0 0, 0 0, 0 0 M-0.81 6.33 C1.36 5.13, 2.28 2.49, 4.68 0.06 M-0.43 6.77 C2.08 4.12, 3.88 1.83, 5.29 0.01 M1.35 9.07 C4.77 8.03, 6.31 6.09, 10.25 1.14 M2.49 10.14 C4.33 7.9, 5.81 4.95, 8.97 1.12" stroke="#228be6" stroke-width="0.5" fill="none"></path><path d="M0.68 0.33 C2.58 0.55, 3.63 -0.88, 9.07 -0.27 M0.32 -0.22 C2.06 -0.24, 4.23 0.41, 8.22 -0.39 M8.58 -0.37 C8.27 1.94, 8.86 3.29, 8.96 7.59 M7.95 -0.14 C8.63 2.71, 8.28 5.46, 8.59 8.37 M8.4 7.55 C5.52 8.64, 3.34 7.68, -0.51 8.7 M8.08 8.1 C6.44 8.06, 4.35 8.26, -0.17 7.96 M-0.76 8 C0.59 4.99, 0.79 2.79, -0.48 0.27 M0.21 8.57 C0.08 5.62, -0.24 2.15, -0.13 0.29" stroke="#000000" stroke-width="1" fill="none"></path></g><g stroke-linecap="round" transform="translate(925.6766383147872 430.2713395382816) rotate(0 4.146321182972201 4.14632118297223)"><path d="M0 0 C0 0, 0 0, 0 0 M0 0 C0 0, 0 0, 0 0 M-0.33 6.32 C1.42 4.4, 1.75 3.64, 4.68 1.04 M0.11 6.73 C1.45 4.61, 3.16 2.87, 4.64 0.26 M1.39 10.42 C4.48 7.9, 6.68 6.51, 8.98 0.99 M2.46 10.12 C4.09 7.68, 5.02 5.34, 8.96 1.85" stroke="#228be6" stroke-width="0.5" fill="none"></path><path d="M0.33 0.53 C3.61 -0.54, 5.17 0.71, 8.02 -0.39 M-0.22 -0.04 C2.74 -0.04, 6.43 -0.13, 7.9 -0.25 M7.92 -0.02 C8.31 3.01, 7.67 5.54, 7.59 8.62 M8.16 0.36 C8.14 2.32, 8.08 4.92, 8.37 8.32 M7.55 8.06 C5.37 8.44, 1.1 7.8, 0.41 7.62 M8.1 8.25 C5.31 7.95, 2.81 8.09, -0.34 8.48 M-0.29 8.89 C-0.35 6.52, 0.31 2.66, 0.27 0.51 M0.28 8.34 C0.3 5.79, -0.16 3.7, 0.29 -0.19" stroke="#000000" stroke-width="1" fill="none"></path></g><g stroke-linecap="round" transform="translate(915.6308534352368 420.39252061240813) rotate(0 4.2158903303375155 4.215890330337544)"><path d="M0 0 C0 0, 0 0, 0 0 M0 0 C0 0, 0 0, 0 0 M-0.33 7.06 C1.08 3.9, 3.67 1.28, 5.67 0.51 M0.07 6.46 C1.57 4.49, 3.45 2.11, 4.89 0.18 M2.8 10.42 C5.33 7.46, 9.09 2.66, 9.44 0.04 M2.47 10.1 C4.96 5.75, 7.56 2.54, 10.38 0.49" stroke="#228be6" stroke-width="0.5" fill="none"></path><path d="M0.54 0.64 C2.85 -0.84, 7.44 -0.31, 8.04 0.55 M-0.04 -0.29 C2.16 0.43, 4.2 -0.35, 8.18 -0.03 M8.41 -0.06 C9.04 2.58, 9.14 5.86, 8.77 8.26 M8.8 -0.11 C8.37 1.97, 8.66 4.39, 8.46 8.85 M8.2 8.83 C6.42 7.78, 3.63 8.77, -0.68 8.65 M8.39 8.15 C5.19 8.32, 2.4 8.05, 0.19 8.48 M0.61 8 C0.89 6.91, -0.41 5.19, 0.52 -0.26 M0.05 8.76 C-0.32 5.51, -0.17 3.18, -0.19 0.39" stroke="#000000" stroke-width="1" fill="none"></path></g><g stroke-linecap="round" transform="translate(906.197277052501 420.87950464396533) rotate(0 4.007182888241573 4.00718288824163)"><path d="M0 0 C0 0, 0 0, 0 0 M0 0 C0 0, 0 0, 0 0 M0.4 5.6 C0.87 4.7, 1.87 4.29, 5.14 0.54 M-0.2 6.51 C1.13 5.1, 2.04 3.15, 4.81 0.66 M2.69 9.97 C4.77 8.74, 5.16 5.4, 8.69 2.3 M2.4 9.75 C4.19 6.31, 7.04 3.95, 9.11 0.93" stroke="#228be6" stroke-width="0.5" fill="none"></path><path d="M0.6 -0.45 C2.29 0.7, 5.85 -0.42, 8.53 -0.37 M-0.27 0.03 C3.39 -0.06, 5.68 -0.23, 7.99 0.36 M7.96 0.55 C7.31 3.33, 7.3 5.69, 7.85 7.66 M7.91 0.01 C7.82 2.03, 8.06 3.52, 8.41 7.83 M8.39 8.14 C4.95 7.5, 3.38 7.35, 0.21 8.4 M7.75 7.72 C5.95 7.85, 3.69 8.19, 0.04 7.65 M-0.41 8.79 C0.25 5.88, 0.29 5.16, -0.25 0.23 M0.31 7.76 C-0.19 5.08, 0.23 2.2, 0.37 -0.23" stroke="#000000" stroke-width="1" fill="none"></path></g><g stroke-linecap="round" transform="translate(896.0540953666393 420.8099354966) rotate(0 4.007182888241573 4.00718288824163)"><path d="M0 0 C0 0, 0 0, 0 0 M0 0 C0 0, 0 0, 0 0 M-1.05 6.31 C0.97 4.29, 3.48 2.99, 5.17 0.02 M-0.15 6.49 C2.06 3.66, 3.73 1.46, 5.29 0.09 M2.3 10.72 C4.69 7.45, 4.97 5.2, 10.14 2.25 M2.07 9.25 C4.34 6.35, 7.7 3.46, 8.78 1.55" stroke="#228be6" stroke-width="0.5" fill="none"></path><path d="M-0.45 -0.77 C3.48 -0.32, 5.08 0.46, 7.64 0.63 M0.03 0.36 C1.9 -0.32, 3.7 0.03, 8.37 0.14 M8.57 -0.67 C8.66 1.37, 8.33 3.92, 7.66 7.36 M8.02 -0.17 C8.37 2.22, 8.11 4.68, 7.83 8.07 M8.14 7.46 C5.84 8.45, 4 8.26, 0.38 7.61 M7.72 7.95 C5.82 7.64, 4.14 8, -0.37 7.65 M0.78 8.24 C-0.52 6.15, 0.44 3.52, 0.23 0.41 M-0.26 7.88 C-0.13 5.35, -0.19 2.49, -0.23 -0.3" stroke="#000000" stroke-width="1" fill="none"></path></g><g stroke-linecap="round" transform="translate(915.4917151405059 410.59718466337307) rotate(0 4.2158903303375155 4.215890330337544)"><path d="M0 0 C0 0, 0 0, 0 0 M0 0 C0 0, 0 0, 0 0 M-0.35 6.09 C0.91 5.37, 2.89 3.12, 4.65 1.11 M-0.17 6.7 C1.4 3.97, 3.58 2.05, 4.71 0.1 M3.13 10.79 C4.51 5.98, 7.01 4.17, 10.82 1.51 M1.52 9.4 C4.51 6.91, 7.52 2.63, 10.06 0.76" stroke="#228be6" stroke-width="0.5" fill="none"></path><path d="M-0.81 0.79 C2.79 -0.34, 6.69 -0.35, 9.09 -0.46 M0.38 -0.07 C2.04 -0.26, 4.86 0.37, 8.58 -0.19 M7.73 0.68 C7.71 2.85, 8.25 4.65, 7.74 8.16 M8.25 0.3 C8.49 3.28, 8.83 6.32, 8.49 8.05 M7.85 7.92 C6.55 7.77, 4.06 8.85, -0.42 8.04 M8.36 8.26 C5.64 8.56, 3.57 7.98, -0.38 8.28 M0.24 7.94 C0.31 5.81, -0.21 2.4, 0.43 0.57 M-0.14 8.3 C0.23 5.6, 0.33 2.92, -0.32 0.07" stroke="#000000" stroke-width="1" fill="none"></path></g><g transform="translate(93.85532657321244 257.9999694824219) rotate(0 76 12.5)"><text x="76" y="18" font-family="Virgil, Segoe UI Emoji" font-size="20px" fill="#000000" text-anchor="middle" style="white-space: pre;" direction="ltr">MongoDB Atlas</text></g><g stroke-linecap="round"><g transform="translate(473.18870059664994 347.6666564941406) rotate(0 -116.00296107268889 -78.33185358532705)"><path d="M1.13 -0.4 C-37.41 -25.96, -193.06 -128.89, -231.89 -154.55 M0.26 -1.65 C-38.42 -27.45, -194.26 -130.5, -233.13 -156.27" stroke="#000000" stroke-width="1" fill="none"></path></g><g transform="translate(473.18870059664994 347.6666564941406) rotate(0 -116.00296107268889 -78.33185358532705)"><path d="M-204.62 -150.19 C-209.7 -151.63, -216.54 -153.48, -233.34 -157.63 M-204.91 -149.86 C-213.03 -150.56, -221.57 -154.06, -233.15 -156.34" stroke="#000000" stroke-width="1" fill="none"></path></g><g transform="translate(473.18870059664994 347.6666564941406) rotate(0 -116.00296107268889 -78.33185358532705)"><path d="M-215.95 -133.08 C-218.11 -138.79, -222.19 -144.81, -233.34 -157.63 M-216.24 -132.75 C-221.04 -138.68, -226.1 -147.43, -233.15 -156.34" stroke="#000000" stroke-width="1" fill="none"></path></g></g><g stroke-linecap="round"><g transform="translate(236.5220135849312 220.33334350585938) rotate(0 117.52497494034469 68.72942960880698)"><path d="M-0.4 -0.56 C39.04 22.05, 196.11 113.9, 235.45 136.77 M1.6 1.76 C41.04 25.04, 195.95 115.37, 234.91 138.02" stroke="#000000" stroke-width="1" fill="none"></path></g><g transform="translate(236.5220135849312 220.33334350585938) rotate(0 117.52497494034469 68.72942960880698)"><path d="M204.45 133.99 C210.52 135.44, 216.39 134.75, 233.55 138.15 M204.79 132.63 C217.8 135.4, 227.99 137.11, 234.84 138.71" stroke="#000000" stroke-width="1" fill="none"></path></g><g transform="translate(236.5220135849312 220.33334350585938) rotate(0 117.52497494034469 68.72942960880698)"><path d="M214.78 116.26 C218.91 121.29, 222.67 124.22, 233.55 138.15 M215.11 114.9 C224.07 124.5, 230.22 133.13, 234.84 138.71" stroke="#000000" stroke-width="1" fill="none"></path></g></g><g stroke-linecap="round" transform="translate(10 595.2178347059423) rotate(0 219.65542819348235 133.61532514821732)"><path d="M0.65 -0.47 C173.84 0.48, 346 0.34, 439.38 0.91 M-0.03 0.45 C124.55 1.09, 248.74 1.28, 439.66 -0.42 M438.98 -0.7 C436.24 101.19, 438.89 202.98, 439.34 266.55 M440.09 -0.36 C439.8 98.33, 439.48 198.45, 439.44 266.69 M439.57 267.71 C333.91 264.99, 229.44 264.79, -0.74 267.06 M439.36 266.77 C324.56 268.07, 211.08 267.98, 0.49 267.37 M-0.48 267.69 C0.13 203.57, -0.48 139, -1.02 -0.53 M0.74 266.77 C-2.09 195.36, -1.72 123.38, -0.08 -0.25" stroke="#1864ab" stroke-width="1" fill="none"></path></g><g stroke-linecap="round" transform="translate(347.42709704838717 755.7095465182856) rotate(0 53.666656494140625 36.33331298828125)"><path d="M0 0 C0 0, 0 0, 0 0 M0 0 C0 0, 0 0, 0 0 M-0.08 6.06 C1.82 5.47, 2.55 3.45, 5.18 0.96 M0.04 6.12 C0.62 5.37, 2.21 3.92, 5.33 0.7 M1.33 13.17 C4.06 9.84, 6.72 5.51, 9.09 -1.04 M-0.66 12.15 C2.57 8.99, 5.21 7, 10.73 -0.14 M-1.8 17.48 C2.97 14.32, 9.92 8.22, 15.03 -1.09 M-0.75 18.59 C5.5 10.74, 12.81 4.35, 15.28 -0.12 M1.14 25.57 C5.23 18.58, 13.28 12.46, 23.07 -1.22 M-0.07 24.86 C4.24 19.88, 8.37 13.36, 21.04 0.18 M-0.96 31.74 C8.22 20.57, 13.62 12.97, 27.45 0.98 M-0.23 29.61 C8.25 20.2, 16.19 10.83, 26.31 -0.47 M1.57 38.54 C10.48 25.91, 22.66 11.79, 33.27 -1.71 M0.34 36.44 C6.68 28.69, 12.83 20.81, 31.15 -0.64 M-1.25 41.19 C11.2 28.07, 24.59 13.11, 38.01 -0.53 M0.14 42.8 C13.47 28.64, 26.42 12.84, 37.07 -0.72 M-1.87 49.6 C10.81 37.89, 19.92 23.59, 41.96 1 M-0.5 49.85 C8.59 37.68, 17.66 28, 42.16 -0.32 M-1.4 52.96 C15.48 33.09, 33.94 13.01, 46.19 1.01 M1.12 53.77 C14.26 37.44, 28.78 20.6, 46.79 -0.65 M0.29 61.53 C14.92 44.87, 25.47 28.36, 54.98 -1.04 M-0.3 61.38 C21.61 37.02, 42.33 12.28, 52.75 0.04 M-1.59 67.22 C21.04 42.78, 43.35 13.56, 57.73 1.55 M0.44 67.49 C10.77 53.67, 23.41 39.96, 58.88 0.09 M0.4 73.64 C25.04 44.43, 49.93 13.81, 63.42 -1.53 M0.01 72.7 C14.11 56.04, 27.69 40.98, 64.27 -1.03 M7.1 73.37 C28.47 45.34, 53.25 19, 70.54 0.29 M6.35 73.5 C24.14 52.54, 42.22 31.78, 67.88 0.95 M9.5 72.43 C34.23 47.65, 56.06 20.02, 73.56 -1.84 M11.16 72.48 C35.19 44.06, 60.78 14.41, 73.71 -0.39 M15.63 71.66 C39.61 42.9, 65.85 13.26, 80.79 1.73 M15.54 72.51 C37.9 46.52, 60.23 20.9, 78.46 -0.5 M19.89 73.87 C47.97 43.16, 69.62 15.78, 84.92 -1.11 M21.02 73.68 C43.06 50.73, 63.12 26.38, 84.68 0.69 M25.53 71.62 C41.43 57.79, 54.39 38.03, 88.85 1.64 M26.74 71.85 C45.44 51.12, 62.6 30.48, 90.44 0.4 M30.56 73.08 C57.19 42.64, 82.71 15.65, 96.23 -2.15 M31.09 72.28 C45.77 57.51, 59.05 42.35, 96.46 -0.44 M37.52 74.55 C52.4 55.37, 71.98 35.13, 101.31 1.09 M36.23 72.95 C58.26 49.8, 78.07 26.9, 99.78 0.43 M42.72 74.52 C61.25 55.97, 78.63 34, 107.45 -1.53 M43.01 72.38 C67.45 43.3, 93.59 13.6, 106.93 -0.82 M47.46 73.77 C70.84 47.01, 94.48 19.24, 111.01 2.68 M46.93 72.56 C68.49 50.47, 88.9 25.43, 109.6 1.76 M53.81 73.89 C72.11 52.13, 93.26 28.19, 110.52 8.79 M53.58 73.18 C66.25 60.17, 76.75 45.26, 110.43 7.43 M56.52 73.13 C75.33 53.52, 92.78 32.6, 108.42 15.57 M57.4 72.32 C67.87 60.04, 78.62 49.04, 108.59 13.91 M63.49 72.19 C81.39 53.24, 94.71 37.69, 109.76 18.29 M63.72 71.98 C79.16 57.16, 93.07 41.13, 109.09 20.95 M67.69 74.03 C80.28 61.44, 90.08 46.02, 111.32 26.84 M69.51 72.72 C78.97 63.38, 87.01 52.71, 109.66 26.2 M75.62 73.68 C83.26 65.43, 90.18 54.49, 107.43 34.24 M75.5 73.21 C85.99 58.63, 97.17 46.11, 109.34 32.52 M79.21 74.11 C88.4 62.82, 98.62 48.9, 111.17 38.7 M78.79 72.86 C88.93 62.71, 96.7 52.82, 109.33 37.83 M84.3 71.94 C90.85 65.09, 100.57 56.61, 109.63 43.71 M85.12 73.4 C92.01 65.09, 98.13 57.03, 108.97 44.01 M90.54 73.34 C92.28 69.08, 98.06 62.19, 111.66 48.59 M89.39 73.46 C97.28 65.88, 104.59 56.67, 109.25 51.14 M95.84 71.8 C97.08 68.62, 102.7 65.72, 107.78 56.3 M95.93 72.18 C99.41 68.96, 104.88 63.12, 109.43 56.2 M100.49 72.33 C103.99 69.32, 107.04 66.08, 109.78 63.74 M100.99 73.55 C102.77 69.83, 105.89 68.15, 108.84 63.29 M106.52 72.33 C107.81 71.86, 108.37 69.83, 110.07 68.45 M106.69 72.82 C107.35 71.36, 108.41 70.25, 109.66 68.83" stroke="#ced4da" stroke-width="0.5" fill="none"></path><path d="M-0.93 1.56 C27.58 -0.91, 55.96 -0.56, 109.15 -0.34 M0.9 0.35 C21.6 0.04, 44.03 0.75, 106.5 0.81 M106.45 -1.64 C106.97 17.37, 107.08 31.34, 106.47 74.08 M106.87 0.13 C106.48 22.85, 107.85 46.41, 106.65 72.05 M108.29 71.66 C68.93 72.76, 31.07 71.47, -0.34 71.87 M106.42 71.75 C83.5 73.5, 59.86 73.75, 0.28 72.09 M0.58 73.69 C0.91 48.78, 1.12 23.11, -0.67 -0.61 M-0.58 71.91 C0.5 45.42, 0.53 18.64, -0.31 0.09" stroke="#000000" stroke-width="1" fill="none"></path></g><g transform="translate(352.42709704838717 770.0428595065669) rotate(0 49 25.5)"><text x="49" y="17.5" font-family="Virgil, Segoe UI Emoji" font-size="20px" fill="#000000" text-anchor="middle" style="white-space: pre;" direction="ltr">Metamask</text><text x="49" y="43" font-family="Virgil, Segoe UI Emoji" font-size="20px" fill="#000000" text-anchor="middle" style="white-space: pre;" direction="ltr">ethersjs</text></g><g stroke-linecap="round"><g transform="translate(322.76044055424654 786.3762335300044) rotate(0 -32.1009615587443 0.5879920464832367)"><path d="M0.94 -0.65 C-9.88 -0.47, -53.32 0.01, -64.13 0.52 M-0.03 1.62 C-11.08 1.98, -54.37 1.79, -65.14 1.63" stroke="#000000" stroke-width="1" fill="none"></path></g><g transform="translate(322.76044055424654 786.3762335300044) rotate(0 -32.1009615587443 0.5879920464832367)"><path d="M-37.95 -8.61 C-48.59 -4.39, -55.73 -1.2, -67.03 0.43 M-37.31 -8.42 C-45.16 -4.66, -54.23 -1.6, -65.99 2.02" stroke="#000000" stroke-width="1" fill="none"></path></g><g transform="translate(322.76044055424654 786.3762335300044) rotate(0 -32.1009615587443 0.5879920464832367)"><path d="M-38.12 11.91 C-48.6 8.65, -55.68 4.34, -67.03 0.43 M-37.48 12.1 C-45.46 9.82, -54.49 6.86, -65.99 2.02" stroke="#000000" stroke-width="1" fill="none"></path></g></g><g stroke-linecap="round" transform="translate(146.0937535425278 737.0429205417231) rotate(0 48 55)"><path d="M0 0 C0 0, 0 0, 0 0 M0 0 C0 0, 0 0, 0 0 M0.41 6.51 C1.69 4.59, 3.75 1.76, 4.79 0.01 M-0.03 6.61 C1.82 4.51, 4.06 1.77, 4.81 0.13 M1.12 12.91 C3.9 5.9, 6.91 1.88, 11.72 -0.65 M-0.12 12.26 C2.83 9.71, 4.24 7.39, 11.32 0.63 M1.82 18.32 C5.15 14.08, 5.35 12.57, 17 0.55 M-0.73 19.19 C3.69 13.85, 6.91 9.65, 16.15 -0.31 M1.33 25.57 C8.95 17.66, 13.37 5.66, 19.41 0.36 M1.06 23.35 C4.89 17.55, 11.5 11, 21.79 0.74 M-1.67 30.31 C5.17 23.91, 13.71 15.33, 25.21 2.21 M-0.64 30.19 C6.89 22.23, 14.01 14.19, 25.83 0.95 M1.47 37.94 C12.1 23.83, 22.99 6.23, 31.64 -0.34 M-0.63 36.26 C11.08 22.81, 22.51 10.5, 32.72 -0.11 M-0.53 43.35 C7.06 34.01, 16.56 23.97, 35.67 1.39 M0.89 43.48 C10.42 29.82, 21.11 16.38, 37.25 0.64 M1 48.29 C7.6 37.78, 18.99 26.26, 43.12 -1.6 M-0.99 48.27 C10.77 35.85, 21.64 24.06, 43.38 -0.3 M-0.95 53.36 C9.94 41.96, 21.93 31.73, 49.2 1.23 M0.25 54.21 C18.9 33.01, 36.22 12.37, 47.66 -0.09 M-0.52 59.16 C15.23 43.23, 32.36 24.06, 51.57 -0.9 M-0.07 60.99 C13.27 44, 28.56 28.82, 53.98 0.31 M1.49 66.25 C11.96 51.52, 28.37 34.44, 58.91 1.12 M0.32 66.97 C22.09 43.79, 42.73 19.2, 58.96 1.09 M1.39 72.55 C19.69 49.71, 38.41 25.6, 63.98 -0.52 M-0.69 72.42 C18.95 52.52, 36.08 31.61, 62.81 -0.53 M-1.52 80.84 C23.1 52.41, 50.12 21.35, 68.17 -1.36 M0.01 79.68 C23.78 50.14, 49.09 23.36, 68.64 0.63 M1.48 84.66 C17.83 63.8, 33.98 46.39, 74.61 -1.5 M-0.05 84.73 C24.86 55.94, 50.83 28.68, 75.31 -0.41 M-0.98 91.48 C19.27 69.5, 43.42 45.37, 80.67 -0.39 M-0.58 91.19 C16.34 71.33, 33.22 53.68, 78.79 0.14 M-1.87 96.69 C17.58 74.98, 36.75 53.51, 83.04 -1.67 M0.63 97.93 C21.4 71.37, 44.65 45.24, 85 0.72 M2.03 102.97 C18.92 78.91, 42.51 56.59, 90.33 0.05 M-0.62 103.24 C24.3 75.56, 49.57 48.24, 89.13 -0.65 M-2.01 109.78 C21.4 85.78, 41.28 58.54, 96.1 -1.65 M-0.34 109.96 C20.45 87.67, 39.83 63.88, 96.52 -0.46 M4.36 114.28 C33.97 77.8, 65.45 41.63, 97.44 2.47 M2.46 113.17 C24.04 86.47, 45.99 62.64, 98.01 1.42 M9.88 114.51 C33.91 81.93, 60.67 51.2, 98.03 10.22 M7.89 113.08 C38.11 79.16, 68.61 44.43, 98.75 9.42 M14.74 112.62 C38.47 85.65, 63.26 56.1, 99.92 12.89 M13.99 112.97 C32.68 89.86, 52.47 67.69, 98.79 14.89 M20.42 114.01 C44.38 83.86, 71.07 51.29, 97.49 19.75 M19.33 112.04 C44.17 82.74, 70.36 52.02, 98.8 21.31 M24.09 113.5 C38.35 93.02, 57.14 73.82, 99.12 28.19 M23.26 112.34 C40.62 93.83, 56.15 76.84, 98.54 26.13 M27.17 112.59 C48.91 89.81, 66.41 67.73, 97.78 30.94 M29.2 113.69 C49.38 88.97, 69.69 67.22, 99.25 32.78 M36.45 110.58 C49.29 96.63, 65.38 75.99, 97.43 38.01 M35.54 111.58 C58.86 85.78, 80.82 58.44, 98.76 38.2 M40.57 113.8 C58.64 86.42, 82.67 65.04, 98.87 44.07 M38.95 112.04 C62.82 86.13, 85.78 59.79, 99.18 45.09 M47.16 110.76 C59.98 96.85, 75.56 78.05, 99.54 49.98 M45.22 111.61 C57.88 97.92, 68.98 84.62, 99.51 51.02 M51.35 113.38 C64.14 98.99, 74.38 84.01, 97.99 58.62 M50.65 112.21 C64.11 95.84, 77.73 79.05, 99.79 57.11 M56.86 112.13 C68.23 98.91, 81.28 82.45, 98.41 64.18 M56.82 113.03 C64.76 100.73, 75.51 89.71, 98.5 62.94 M60.53 113.29 C72.68 98.27, 83.23 87.16, 99.02 68.04 M61.99 113.48 C72.82 99.31, 83.94 86.06, 98.7 69.15 M65.42 114.04 C74.08 102.61, 85.44 91.15, 99.96 76.19 M65.92 113.04 C77.77 99.51, 87.67 88.36, 98.7 74.67 M73.38 111.72 C78.92 104.13, 87.15 93.16, 97.09 82.74 M71.24 112.25 C82.02 100.22, 92.74 87.64, 97.64 80.85 M78.05 111.01 C86.08 103.79, 90.87 93.48, 100.4 87.77 M78.26 112.5 C85.46 102.52, 93.42 92.11, 98.71 87.09 M81.49 113.08 C88.34 104.44, 92.19 97.85, 100.61 92.61 M82.32 113.07 C85.34 108.16, 90.41 103.52, 99.47 92.78 M87.35 111.09 C90.73 109.32, 95.66 105.94, 99.32 101.38 M88.51 112.78 C91 108.85, 92.14 107.52, 98.93 100.78 M92.83 113.21 C95.41 109.82, 96.02 109.18, 99.35 105.89 M93.29 112.16 C94.01 111.12, 95.91 109.39, 99.27 106.06" stroke="#ced4da" stroke-width="0.5" fill="none"></path><path d="M-0.21 -1.36 C24.46 2.33, 48.31 -1.37, 94.81 -0.12 M-0.02 -0.07 C38.11 -0.4, 75.65 -0.42, 96.4 -0.21 M97.72 -0.54 C95.14 27.25, 96.51 56.6, 96.13 111.99 M95.72 0.47 C96.31 27.24, 95.53 56.35, 95.19 110.26 M95.82 108.68 C61.15 109.22, 28.46 107.93, 0.92 110.21 M96.72 109.48 C76.97 109.94, 55.43 109.98, 0.62 109.69 M0.25 111.57 C-1.85 73.12, -1.17 39, -0.91 1.87 M-0.28 110.19 C0.74 83.11, 0.93 56.67, -0.41 0.98" stroke="#000000" stroke-width="1" fill="none"></path></g><g transform="translate(151.0937535425278 767.0429205417231) rotate(0 43 25)"><text x="43" y="17" font-family="Virgil, Segoe UI Emoji" font-size="20px" fill="#000000" text-anchor="middle" style="white-space: pre;" direction="ltr">Infura</text><text x="43" y="42" font-family="Virgil, Segoe UI Emoji" font-size="20px" fill="#000000" text-anchor="middle" style="white-space: pre;" direction="ltr">node</text></g><g stroke-linecap="round" transform="translate(17.66193646819852 672.2822843488339) rotate(0 63 86.5)"><path d="M0 0 C0 0, 0 0, 0 0 M0 0 C0 0, 0 0, 0 0 M-0.03 6.59 C2.36 3.32, 3.63 1.28, 5.59 -0.19 M-0.19 6.74 C1.28 4.82, 2 3.3, 5.29 0.64 M0.05 10.5 C2.89 6.53, 8.82 2.55, 9.05 0.19 M0.73 12.14 C3.27 8.54, 7.29 5.28, 9.96 -0.42 M1.66 17.85 C1.5 16.56, 7.53 11.26, 14.38 0.62 M-0.04 18.1 C3.62 13.4, 8.68 8.28, 16.05 1.07 M1.91 25.89 C4.52 15.66, 9.35 11.62, 20.58 1.49 M-0.51 23.86 C5.46 17.98, 10.87 13.23, 20.78 0.56 M-1.24 31.68 C10.66 19.55, 18.64 10.08, 25.77 -1.44 M-0.62 30.55 C7.12 22.1, 15.14 13.55, 27.16 1.12 M-0.17 38.26 C7.04 24.34, 17.62 15.25, 33.09 -0.97 M-0.65 36.14 C9.21 25.99, 20.45 14.37, 31.2 -0.77 M-1.69 43.65 C9.46 31.72, 19.01 20.56, 36.88 0.82 M-0.49 42.71 C11.87 26.63, 26.24 12.58, 36 0.6 M-1.31 48.36 C15.01 31, 28.73 14.77, 41.78 1.73 M0.02 48.55 C11.06 37.35, 23.05 23.85, 41.68 -0.94 M-0.71 53.25 C10.87 44.15, 21.26 34.05, 49.21 -1.37 M0.28 53.85 C12.57 39.15, 26.77 24.12, 47.65 0.51 M-1.3 62.79 C18.78 40.9, 37.55 15.89, 52.53 0.68 M-0.77 60.56 C17.37 42.15, 35.08 22.09, 52.48 -0.24 M-1.7 66.95 C15.76 48.32, 30.41 33.56, 59.53 0.45 M0.59 68.1 C11.67 54.31, 24.99 39.95, 58.27 0.51 M0.01 72.63 C17.71 49.32, 38.57 28.33, 63.52 -0.82 M0.46 73.49 C18.65 52.44, 37.21 30, 64.44 0.18 M-1.8 81.17 C18.91 57.51, 36.52 35.2, 69.9 1.94 M-0.07 78.51 C22.41 54.67, 43.32 29.44, 68.13 -0.11 M0.06 84.19 C22.52 59.08, 48.68 27.88, 75.19 -1.22 M-0.7 84.34 C17.42 66.67, 35.48 45.96, 74.02 -0.7 M-1.84 92.84 C21.23 70.46, 40.04 46.84, 77.65 -0.01 M-0.6 90.5 C21.22 68, 42.52 42.69, 78.64 0.59 M-1.1 97.71 C32.41 61.14, 63.93 21.71, 84.28 1.22 M-0.2 97.48 C29.57 62.79, 58.26 30.41, 84.28 -0.73 M-1.72 102.31 C29.67 70.12, 57.35 37.1, 89.41 -1.29 M-0.61 103.89 C33.19 67.9, 63.91 29.51, 89.29 0.18 M-0.17 110.44 C25.14 78.21, 53.45 48.65, 93.78 -1.54 M0.07 110.66 C32.04 72.6, 65.05 35.94, 95.92 0.34 M0.95 116.18 C26.08 85.45, 49.38 55.89, 99.08 -0.57 M-0.11 114.64 C39.53 70.38, 76.82 25.71, 100.69 0.88 M-0.51 123.06 C35.8 79.07, 74.76 34.72, 107 -1.31 M-0.6 122.55 C24.64 93.62, 50.52 64.66, 106.21 -0.07 M0.17 130.01 C32.64 90.65, 66.59 50.26, 109.84 -1.32 M-1.16 128.6 C39.51 81.19, 80.85 34.29, 111.55 0.55 M0.41 134.76 C31.18 95.35, 60.68 59.95, 116.85 1.07 M-0.2 134.68 C41.02 86.33, 84.2 37.77, 115.39 0.35 M-1.8 139.33 C40.24 92.79, 78.2 51.66, 120.15 -1.76 M-0.23 139.5 C30.01 107.17, 59.26 72.91, 121.7 -0.32 M0.46 145.92 C49.82 88.97, 100.35 29.77, 126.5 -1.29 M0.41 145.24 C51.73 86.6, 101.82 28.6, 126.3 0.78 M-0.38 154.13 C37.3 108.43, 73.81 64.94, 127.85 5.87 M0.84 152.47 C42.86 101.85, 87.42 51.04, 127.18 7.2 M-1.93 156.9 C48 104.4, 93.89 48.47, 128.27 14.03 M-0.17 158.81 C35.8 119.81, 71.47 79.28, 126.22 13.63 M-0.06 165.89 C28.18 132.1, 57.84 97.5, 125.29 18.27 M0.47 164.05 C44.37 114.3, 90.36 62.82, 126.34 18.39 M0.98 171.01 C26.16 137.65, 54.32 107.65, 126.38 26.52 M-0.27 170.35 C37.21 126.35, 77.28 83.26, 126.7 25.31 M0.27 176.77 C25.24 146.06, 52.87 116.03, 125.35 31.57 M1.02 174.37 C41.73 126.74, 81.35 80.52, 126.92 30.37 M7.42 172.76 C31.58 146.05, 57.23 116.16, 126.89 36.2 M7.14 174.42 C34.89 139.62, 65.37 105.06, 126.41 36.67 M10.54 175.63 C53.75 127.49, 94.03 82.98, 126.98 45.17 M13.01 174.18 C42.11 141.24, 70.7 107.18, 126.55 42.97 M16.42 175.94 C53.84 130.68, 92.85 86.9, 128.76 50.58 M17.69 174.29 C44.54 144.22, 70.12 113.57, 127.31 48.97 M23.92 175.16 C49.38 141.22, 81.34 109.85, 128.35 55.41 M22.5 175 C56.11 133.53, 91.98 93.28, 126.9 55.38 M28.95 172.8 C63.58 131.11, 102.59 90.64, 125.26 59.36 M27.8 174.12 C57.04 141.21, 84.76 109.23, 126.93 61.61 M33.06 175.69 C56.62 152.58, 76.91 128.85, 124.96 66.13 M34.37 173.91 C60.42 142.38, 89.79 110.1, 126.8 67.68 M40.52 173.05 C62.56 147.36, 89.76 117.29, 125.28 73.25 M38.25 174.95 C67.25 142.53, 96.82 109.73, 126.8 73.87 M42.87 173.78 C70.07 141, 98.87 110.9, 126.24 79.61 M44.09 175.12 C66.92 150.12, 88.71 124.63, 125.84 78.87 M47.96 173.59 C66.15 154.49, 85.4 133.16, 125.94 86.88 M49.96 173.44 C66.12 156.56, 82.25 138.05, 125.99 86.93 M56.54 176.22 C80.44 145.21, 110.31 114.57, 128.91 91.38 M54.74 175.01 C75.45 152.12, 96.18 127.87, 126.72 92.56 M59.33 172.58 C76.9 153.41, 94.69 132.72, 126.71 97.38 M60.93 174.9 C79.93 149.85, 101 128.08, 126.23 97.36 M65.56 174 C88.3 148.64, 112.29 118.53, 126.3 104.92 M66.02 175.08 C77.83 159.4, 90.59 145.43, 125.61 104.77 M72.03 175.36 C89.09 151.75, 106.86 130.38, 125.95 111.34 M71.3 174.29 C86.53 155.38, 101.88 137.38, 127.51 111.12 M75.68 176.34 C90.93 157.74, 106.01 142.92, 125.01 114.67 M75.23 174.97 C88.18 161.39, 97.63 148.99, 125.73 115.89 M82.68 172.52 C98.42 156.71, 112.59 140, 126.35 123.57 M82.29 175.18 C97.32 155.23, 111.89 138, 126.43 121.3 M84.95 176.67 C96.19 162.69, 103 153.24, 126.92 128.55 M86.29 175.48 C98.34 160.29, 109.9 148.11, 126.46 128.24 M93.24 173.84 C99.49 165.04, 106.72 158.71, 128.18 135.86 M93.25 174.83 C104.67 159.57, 118.48 143.77, 126.54 135.9 M97.69 174.65 C102.1 165.98, 110.7 159.56, 125.89 138.95 M96.72 175.53 C106.42 164.25, 117.03 151.81, 126.93 139.98 M104.91 174.35 C109.4 167.04, 116.61 157.58, 126 147.94 M102.63 175.09 C108.14 167.08, 113.7 160.81, 125.98 147.79 M106.51 174.14 C116.24 163.95, 123.23 156.39, 125.03 153.49 M108.64 175.18 C113.54 168.79, 118.57 162.88, 126.4 152.95 M111.53 173.02 C119.78 169.77, 122.28 161.43, 126.65 160.04 M112.33 174.23 C115.86 170.8, 118.73 169.28, 126.52 158.25 M118.38 173.79 C121.69 171.81, 123.49 169.46, 126.21 165.65 M118.09 174.62 C120.86 171.64, 122.87 168.92, 126.5 166.03 M123.69 175.16 C124.63 173.73, 125.96 171.98, 126.58 171.34 M123.47 174.94 C124.65 173.68, 126 171.79, 126.9 171.12" stroke="#868e96" stroke-width="0.5" fill="none"></path><path d="M0.13 1.81 C30.63 -1.03, 60.74 0.74, 127.8 0.71 M0.69 -0.83 C32.95 -0.76, 64.68 -0.12, 125.56 -0.82 M126.04 -0.86 C128.9 46.62, 127.62 94.49, 125.08 173.27 M126.16 -0.69 C124.91 36.86, 124.72 73.01, 126.48 172.5 M124.52 172.66 C93.28 170.54, 63.08 172.38, -1.83 171.18 M126.97 173.28 C92.05 172.67, 59.87 172.04, 0.29 173.51 M-1.29 172.33 C-0.83 110.76, -1.13 47.54, -1.17 -1.52 M-0.1 172.69 C0.58 118.09, 0.08 64.52, 0.01 -0.01" stroke="#000000" stroke-width="1" fill="none"></path></g><g transform="translate(22.66193646819852 733.7822843488339) rotate(0 58 25)"><text x="58" y="17" font-family="Virgil, Segoe UI Emoji" font-size="20px" fill="#000000" text-anchor="middle" style="white-space: pre;" direction="ltr">EVM</text><text x="58" y="42" font-family="Virgil, Segoe UI Emoji" font-size="20px" fill="#000000" text-anchor="middle" style="white-space: pre;" direction="ltr">Blockchain</text></g><g stroke-linecap="round"><g transform="translate(256.7604100366684 811.0429205417231) rotate(0 33.590165763888535 -0.7964692806600624)"><path d="M1.09 -0.2 C12.03 -0.45, 54.06 -1.49, 64.87 -1.38 M0.2 -1.35 C11.57 -1.46, 56.16 -0.22, 66.98 -0.22" stroke="#000000" stroke-width="1" fill="none"></path></g><g transform="translate(256.7604100366684 811.0429205417231) rotate(0 33.590165763888535 -0.7964692806600624)"><path d="M38.3 7.71 C44.01 6.94, 53.58 5.49, 66.08 -0.26 M39.44 8.75 C47.27 6.75, 54.74 3.26, 66.66 0.64" stroke="#000000" stroke-width="1" fill="none"></path></g><g transform="translate(256.7604100366684 811.0429205417231) rotate(0 33.590165763888535 -0.7964692806600624)"><path d="M38.62 -12.81 C44.27 -8.81, 53.76 -5.5, 66.08 -0.26 M39.76 -11.77 C47.64 -7.76, 55.01 -5.23, 66.66 0.64" stroke="#000000" stroke-width="1" fill="none"></path></g></g><g stroke-linecap="round" transform="translate(227.52787689245065 621.0183249234638) rotate(0 78.33334350585938 46.3333740234375)"><path d="M86.01 0.04 C97.54 0.24, 110.74 4.61, 120.87 8.57 C131.01 12.53, 140.93 17.66, 146.81 23.82 C152.7 29.98, 155.86 38.48, 156.19 45.53 C156.52 52.59, 154.05 59.72, 148.81 66.15 C143.56 72.58, 134.68 79.76, 124.73 84.12 C114.79 88.48, 101.38 91.15, 89.15 92.3 C76.92 93.46, 62.85 93.45, 51.37 91.03 C39.89 88.61, 28.39 83.07, 20.27 77.79 C12.15 72.5, 5.89 66.25, 2.65 59.32 C-0.58 52.39, -1.71 43.42, 0.86 36.21 C3.43 29, 9.96 21.5, 18.09 16.07 C26.23 10.63, 37.29 6.23, 49.67 3.6 C62.05 0.97, 84.18 0.36, 92.37 0.3 C100.57 0.24, 99.07 2.38, 98.83 3.26 M87.2 -0.34 C98.78 -0.17, 113.88 2.79, 123.79 7.1 C133.69 11.42, 141.01 19, 146.63 25.56 C152.24 32.12, 157.06 39.23, 157.47 46.47 C157.88 53.71, 154.91 62.81, 149.09 69.02 C143.27 75.23, 132.88 79.66, 122.55 83.72 C112.23 87.79, 98.93 92.28, 87.14 93.44 C75.35 94.6, 62.88 93.26, 51.82 90.68 C40.76 88.11, 29.03 83.74, 20.77 77.97 C12.51 72.21, 5.5 63.36, 2.25 56.1 C-1 48.84, -1.78 41.22, 1.28 34.4 C4.33 27.57, 12.65 20.32, 20.58 15.13 C28.51 9.94, 37.7 5.81, 48.88 3.26 C60.05 0.72, 81.16 -0.01, 87.65 -0.16 C94.14 -0.31, 87.93 1.55, 87.8 2.36" stroke="none" stroke-width="0" fill="#ced4da"></path><path d="M55.65 1.6 C66.33 -1.22, 80.72 -0.53, 92.71 0.72 C104.69 1.97, 117.89 4.81, 127.55 9.13 C137.21 13.44, 145.79 19.96, 150.68 26.62 C155.58 33.28, 157.89 41.92, 156.9 49.08 C155.92 56.25, 151.22 63.32, 144.78 69.62 C138.35 75.93, 128.67 83.1, 118.29 86.93 C107.92 90.76, 94.65 92.23, 82.52 92.61 C70.38 92.99, 56.47 92.18, 45.5 89.22 C34.53 86.26, 23.9 80.7, 16.68 74.84 C9.47 68.98, 4.38 61.29, 2.23 54.06 C0.07 46.84, 0.32 38.19, 3.76 31.5 C7.2 24.81, 13.9 19.01, 22.86 13.92 C31.83 8.84, 51.48 2.86, 57.54 1 C63.61 -0.86, 59.06 1.85, 59.25 2.75 M96.68 0.32 C108.1 1.34, 119.94 6.59, 128.97 11.3 C138 16, 146.24 21.76, 150.88 28.54 C155.52 35.31, 158.37 44.81, 156.82 51.92 C155.27 59.02, 148.64 65.08, 141.58 71.15 C134.52 77.23, 125.07 84.54, 114.45 88.37 C103.82 92.2, 89.8 94.42, 77.83 94.12 C65.85 93.82, 53.14 89.97, 42.59 86.57 C32.03 83.17, 21.58 79.39, 14.5 73.71 C7.43 68.03, 1.6 59.62, 0.15 52.51 C-1.31 45.41, 1.39 37.67, 5.76 31.07 C10.13 24.48, 17.61 17.97, 26.37 12.94 C35.14 7.9, 46.69 2.64, 58.36 0.88 C70.02 -0.88, 90.12 1.92, 96.36 2.37 C102.59 2.83, 96.14 3.23, 95.76 3.61" stroke="#000000" stroke-width="1" fill="none"></path></g><g transform="translate(265.3611898807319 643.351637911745) rotate(0 39.5 25.5)"><text x="39.5" y="17.5" font-family="Virgil, Segoe UI Emoji" font-size="20px" fill="#000000" text-anchor="middle" style="white-space: pre;" direction="ltr">Hardhat</text><text x="39.5" y="43" font-family="Virgil, Segoe UI Emoji" font-size="20px" fill="#000000" text-anchor="middle" style="white-space: pre;" direction="ltr">dev env</text></g><g transform="translate(18.09777212147469 555.8508185581657) rotate(0 68 12.5)"><text x="0" y="18" font-family="Virgil, Segoe UI Emoji" font-size="20px" fill="#1864ab" text-anchor="start" style="white-space: pre;" direction="ltr">web3 - crypto</text></g><g transform="translate(469.8299428834364 891.334919870681) rotate(0 231.652906613102 22.622354161435737)"><text x="0" y="32.24470832287149" font-family="Virgil, Segoe UI Emoji" font-size="36.195766658297174px" fill="#000000" text-anchor="start" style="white-space: pre;" direction="ltr">https://app.aliatokens.com</text></g></svg>