<svg version="1.1" xmlns="http://www.w3.org/2000/svg" viewBox="0 0 1245.355509678681 872.4484850023769" width="1245.355509678681" height="872.4484850023769" filter="invert(93%) hue-rotate(180deg)">
  <!-- svg-source:excalidraw -->
  
  <defs>
    <style>
      @font-face {
        font-family: "Virgil";
        src: url("https://excalidraw.com/Virgil.woff2");
      }
      @font-face {
        font-family: "Cascadia";
        src: url("https://excalidraw.com/Cascadia.woff2");
      }
    </style>
  </defs>
  <g stroke-linecap="round" transform="translate(460.5220135849312 703.6668090820312) rotate(0 117.00003051757812 78)"><path d="M-0.48 -1.52 C90.99 -0.46, 179.1 -0.36, 234.5 1.16 M-0.82 0.78 C93.22 0.7, 184.07 0.88, 234.2 -0.8 M233.39 0.85 C232.05 52.28, 231.73 101.07, 234.1 155.73 M234.08 -0.61 C234.15 60.96, 233.81 120.71, 234.61 155.01 M233.61 155.77 C148.79 158.47, 65.62 157.69, 1.06 155.32 M233.26 155.77 C160.91 155.41, 87.9 154.47, -0.53 155.87 M-0.78 154.52 C-0.72 120.72, -1.69 81.74, 0.09 -0.41 M0.79 155.68 C1.89 113.17, 0.69 69.52, -0.57 -0.55" stroke="#000000" stroke-width="1" fill="none"></path></g><g transform="translate(538.3553876083687 768.6668090820312) rotate(0 36 12.5)"><text x="36" y="18" font-family="Virgil, Segoe UI Emoji" font-size="20px" fill="#000000" text-anchor="middle" style="white-space: pre;" direction="ltr">NextJS</text></g><g stroke-linecap="round" transform="translate(445.85532657321244 483.66677856445307) rotate(0 134.99996948242193 23.666656494140625)"><path d="M1.15 1.28 C105.71 3.27, 212.63 2.98, 271.49 0.9 M0.77 0.03 C71.11 -1.77, 143.73 -2.71, 270.21 -0.52 M269.07 1.29 C268.62 17.25, 269.95 36.09, 271.77 48.08 M269.57 0.34 C269.27 18.32, 270.64 36.72, 270.61 47.4 M269.27 48.09 C166.73 47.08, 63.56 46.42, 0.19 48.02 M269.89 47.78 C203.39 46.32, 136.57 46.63, -0.49 47.73 M0.07 49.04 C-0.72 35.51, 0.27 23.85, -0.51 -1.24 M0.93 47.34 C-0.64 30.26, -0.94 14.23, 0.86 -0.41" stroke="#000000" stroke-width="1" fill="none"></path></g><g stroke-linecap="round"><g transform="translate(556.7637545250451 684.3334350585938) rotate(0 0.5329056364237204 -57.43730882458391)"><path d="M0.88 0.98 C1.13 -17.89, 1.03 -95.04, 1.18 -114.28 M-0.12 0.45 C-0.02 -18.64, -0.14 -96.38, 0.09 -115.85" stroke="#000000" stroke-width="1" fill="none"></path></g><g transform="translate(556.7637545250451 684.3334350585938) rotate(0 0.5329056364237204 -57.43730882458391)"><path d="M11.86 -88.1 C9.48 -94.62, 6.35 -101, 1.24 -116.54 M10.27 -88.47 C8.16 -93, 4.91 -98.68, -0.57 -115.01" stroke="#000000" stroke-width="1" fill="none"></path></g><g transform="translate(556.7637545250451 684.3334350585938) rotate(0 0.5329056364237204 -57.43730882458391)"><path d="M-8.66 -88.18 C-5.47 -94.84, -3.02 -101.18, 1.24 -116.54 M-10.26 -88.55 C-8.2 -93.27, -7.3 -98.94, -0.57 -115.01" stroke="#000000" stroke-width="1" fill="none"></path></g></g><g stroke-linecap="round"><g transform="translate(583.9516085749866 572.3334350585938) rotate(0 1.0689299226767162 52.10588302425111)"><path d="M0.98 -0.28 C1.51 17.18, 1.95 87.9, 2.1 105.69 M0.04 -1.48 C0.59 15.54, 1.45 86.06, 1.71 103.76" stroke="#000000" stroke-width="1" fill="none"></path></g><g transform="translate(583.9516085749866 572.3334350585938) rotate(0 1.0689299226767162 52.10588302425111)"><path d="M-9.41 77.46 C-5.89 82.89, -2.36 88.56, 1.02 101.81 M-9.78 75.95 C-4.24 85.77, -0.03 97.09, 2.55 103.45" stroke="#000000" stroke-width="1" fill="none"></path></g><g transform="translate(583.9516085749866 572.3334350585938) rotate(0 1.0689299226767162 52.10588302425111)"><path d="M11.11 77.18 C10.31 82.84, 9.54 88.57, 1.02 101.81 M10.74 75.68 C8.22 85.61, 4.37 97.03, 2.55 103.45" stroke="#000000" stroke-width="1" fill="none"></path></g></g><g transform="translate(477.3553876083687 497.3334350585937) rotate(0 104.5 12.5)"><text x="104.5" y="18" font-family="Virgil, Segoe UI Emoji" font-size="20px" fill="#000000" text-anchor="middle" style="white-space: pre;" direction="ltr">Load Balancer - SSL</text></g><g stroke-linecap="round" transform="translate(449.8553876083687 216.33337402343744) rotate(0 129.33334350585943 85.3333435058594)"><path d="M0.48 1.11 C100.25 -0.89, 196.91 -3.38, 260.16 1.58 M0.19 -0.76 C78.74 -1.04, 157.73 -0.76, 259.01 -0.37 M258.76 -0.27 C259.38 62.93, 259.58 124.52, 257.45 169.8 M259.27 -0.99 C257.96 57.08, 258.2 113.8, 258.53 170.2 M259.67 170.02 C168.77 171.41, 77.62 169.29, -0.44 170.44 M258.17 170.54 C165.95 169.92, 73.8 169.2, -0.59 170.69 M0.09 170.25 C0.26 103.68, 1.65 40.74, -0.65 1.86 M-0.57 170.11 C1.32 118.86, 1.16 68.22, -0.2 0.47" stroke="#000000" stroke-width="1" fill="none"></path></g><g transform="translate(858.0219525497748 347.3334045410156) rotate(0 66.5 25.5)"><text x="66.5" y="17.5" font-family="Virgil, Segoe UI Emoji" font-size="20px" fill="#1864ab" text-anchor="middle" style="white-space: pre;" direction="ltr">Dockerized</text><text x="66.5" y="43" font-family="Virgil, Segoe UI Emoji" font-size="20px" fill="#1864ab" text-anchor="middle" style="white-space: pre;" direction="ltr">Express - api</text></g><g stroke-linecap="round"><g transform="translate(564.1515861679362 460.1856277924223) rotate(0 0.054129866089908774 -26.254498046207402)"><path d="M0.83 1.14 C0.63 -7.86, 0.35 -44.77, -0.12 -53.65 M-0.2 0.69 C-0.58 -8.17, -0.78 -43.23, -0.7 -52.33" stroke="#000000" stroke-width="1" fill="none"></path></g><g transform="translate(564.1515861679362 460.1856277924223) rotate(0 0.054129866089908774 -26.254498046207402)"><path d="M10.3 -26.16 C4.12 -38.89, 3.13 -44.66, -0.63 -54.02 M8.67 -27.97 C6.23 -35.83, 2.85 -44.11, -0.06 -52.95" stroke="#000000" stroke-width="1" fill="none"></path></g><g transform="translate(564.1515861679362 460.1856277924223) rotate(0 0.054129866089908774 -26.254498046207402)"><path d="M-7.91 -26.16 C-7.04 -39.02, -0.97 -44.79, -0.63 -54.02 M-9.54 -27.97 C-6.07 -35.65, -3.53 -43.94, -0.06 -52.95" stroke="#000000" stroke-width="1" fill="none"></path></g></g><g stroke-linecap="round"><g transform="translate(579.0180302212881 408.71269601803) rotate(0 -0.21485633081084643 26.143809897395244)"><path d="M1.14 0.69 C1.01 9.11, -0.4 42.52, -0.4 51.36 M0.28 0.01 C-0.07 8.46, -1.67 43.62, -1.56 52.28" stroke="#000000" stroke-width="1" fill="none"></path></g><g transform="translate(579.0180302212881 408.71269601803) rotate(0 -0.21485633081084643 26.143809897395244)"><path d="M-8.88 26.73 C-9.02 37.39, -2.3 43.81, -3.26 52.77 M-10.69 28.26 C-7.83 35.88, -5.24 44.15, -2.18 51.82" stroke="#000000" stroke-width="1" fill="none"></path></g><g transform="translate(579.0180302212881 408.71269601803) rotate(0 -0.21485633081084643 26.143809897395244)"><path d="M9.09 27.11 C3.02 37.82, 3.81 44.11, -3.26 52.77 M7.27 28.63 C4.32 36.18, 1.08 44.33, -2.18 51.82" stroke="#000000" stroke-width="1" fill="none"></path></g></g><g transform="translate(758.5221356552437 736.0000610351562) rotate(0 171.99999999999994 38)"><text x="172" y="18.333333333333332" font-family="Virgil, Segoe UI Emoji" font-size="20px" fill="#000000" text-anchor="middle" style="white-space: pre;" direction="ltr">Vercel - uses cloudflare as a CDN</text><text x="172" y="43.666666666666664" font-family="Virgil, Segoe UI Emoji" font-size="20px" fill="#000000" text-anchor="middle" style="white-space: pre;" direction="ltr"></text><text x="172" y="69" font-family="Virgil, Segoe UI Emoji" font-size="20px" fill="#000000" text-anchor="middle" style="white-space: pre;" direction="ltr">Frontend</text></g><g stroke-linecap="round"><g transform="translate(831.1887005966498 639.666748046875) rotate(0 95.68546131663027 0.005729706957936287)"><path d="M-0.41 -1.17 C31.36 -1.09, 159.93 1.16, 191.78 1.18 M1.58 0.83 C33.19 0.55, 160.02 -0.14, 191.42 -0.32" stroke="#000000" stroke-width="1" fill="none"></path></g></g><g transform="translate(257.18870059664994 10) rotate(0 123.3333129882812 30.8333282470703)"><text x="123.3333129882812" y="42.6666564941406" font-family="Virgil, Segoe UI Emoji" font-size="49.333325195312476px" fill="#000000" text-anchor="middle" style="white-space: pre;" direction="ltr">Aliatokens</text></g><g transform="translate(455.0220135849312 538.6666564941406) rotate(0 125.5 12.5)"><text x="125.5" y="18" font-family="Virgil, Segoe UI Emoji" font-size="20px" fill="#000000" text-anchor="middle" style="white-space: pre;" direction="ltr">https://api.aliatokens.com</text></g><g transform="translate(471.6537352471804 228) rotate(0 54 12.5)"><text x="54" y="18" font-family="Virgil, Segoe UI Emoji" font-size="20px" fill="#000000" text-anchor="middle" style="white-space: pre;" direction="ltr">AWS - ECS</text></g><g stroke-linecap="round" transform="translate(466.52207462008744 260.9999694824219) rotate(0 111 56.333343505859375)"><path d="M-0.56 1.72 L220.86 -0.88 L223.86 111.18 L-0.83 112.21" stroke="none" stroke-width="0" fill="#ced4da"></path><path d="M-1.46 0.43 C87.63 -1.71, 174.9 -1.2, 223.45 -0.53 M-0.54 -0.4 C76.11 -1.35, 152.9 -0.91, 222.85 0.07 M220.46 -1.07 C222.72 24.96, 222.73 54.01, 223.68 112.2 M222.28 0.02 C222.1 31.88, 221.6 65.01, 221.46 111.78 M221.7 111.71 C160.43 113.48, 99.92 114.62, -0.97 111.99 M221.61 112.54 C171.9 114.12, 121.51 113.77, 0.38 113.35 M-0.54 111.07 C-2.18 81.41, 0.68 51.53, 1.41 0.65 M0.11 113.16 C0.36 80.21, -1.37 49.95, 0.27 -0.98" stroke="#000000" stroke-width="1" fill="none"></path></g><g stroke-linecap="round" transform="translate(475.18870059664994 329.6666564941406) rotate(0 50.33331298828125 18)"><path d="M1.72 -1.14 L99.79 1.86 L99.18 35.17 L-0.45 35.64" stroke="none" stroke-width="0" fill="#15aabf"></path><path d="M0.5 0.48 C38.21 1.39, 78.92 2.53, 100.06 0.85 M-0.46 0.05 C25.4 1.51, 51.44 1.61, 100.75 -0.61 M99.59 1.21 C98.81 10.45, 100.91 20.16, 100.2 35.73 M100.68 0.63 C100.44 9.25, 101.28 17.73, 99.78 35.73 M99.55 34.75 C71.56 34.57, 44.07 34.7, -0.78 34.52 M100.52 36.04 C69.91 35.29, 38.95 35.98, 0.79 35.68 M-1.59 34.87 C-1.11 23.58, -0.83 9.13, 0.65 -0.41 M0.5 36.88 C-1.1 22.68, 0.14 11.31, -0.98 -0.28" stroke="#000000" stroke-width="1" fill="none"></path></g><g transform="translate(480.68870059664994 335.3333435058594) rotate(0 44.5 12.5)"><text x="44.5" y="18" font-family="Virgil, Segoe UI Emoji" font-size="20px" fill="#000000" text-anchor="middle" style="white-space: pre;" direction="ltr">container</text></g><g transform="translate(481.85532657321244 284) rotate(0 40 12.5)"><text x="40" y="18" font-family="Virgil, Segoe UI Emoji" font-size="20px" fill="#000000" text-anchor="middle" style="white-space: pre;" direction="ltr">Fargate</text></g><g stroke-linecap="round"><g transform="translate(580.5219525497749 353.7186614009389) rotate(0 132.8485755043477 9.515427494325309)"><path d="M-1.14 0.32 C42.9 3.54, 220.19 16.46, 264.54 19.58 M0.46 -0.55 C44.85 2.32, 222.92 15.06, 266.84 17.99" stroke="#1864ab" stroke-width="1" fill="none"></path></g><g transform="translate(580.5219525497749 353.7186614009389) rotate(0 132.8485755043477 9.515427494325309)"><path d="M238.55 24.96 C249.04 23.25, 257.57 20.24, 268.13 16.75 M238.89 26.65 C246.3 24.3, 252.03 21.68, 267.18 17.22" stroke="#1864ab" stroke-width="1" fill="none"></path></g><g transform="translate(580.5219525497749 353.7186614009389) rotate(0 132.8485755043477 9.515427494325309)"><path d="M239.97 4.49 C250.04 9.42, 258.12 13.06, 268.13 16.75 M240.31 6.18 C247.37 9.02, 252.74 11.59, 267.18 17.22" stroke="#1864ab" stroke-width="1" fill="none"></path></g></g><g stroke-linecap="round"><g transform="translate(568.5220135849312 297.5377624848923) rotate(0 125.93768311106595 -16.3509452580669)"><path d="M0.32 -0.79 C42.41 -6.28, 210.84 -28.53, 252.84 -34.11 M-0.97 1.41 C41.03 -3.81, 210.29 -26.99, 252.42 -32.77" stroke="#1864ab" stroke-width="1" fill="none"></path></g><g transform="translate(568.5220135849312 297.5377624848923) rotate(0 125.93768311106595 -16.3509452580669)"><path d="M224.57 -17.1 C234.01 -22.53, 242.29 -26.63, 251.18 -33.69 M226.26 -17.8 C234.08 -23.89, 241.65 -27.2, 251.66 -33.3" stroke="#1864ab" stroke-width="1" fill="none"></path></g><g transform="translate(568.5220135849312 297.5377624848923) rotate(0 125.93768311106595 -16.3509452580669)"><path d="M221.79 -37.43 C231.94 -36.28, 241.12 -33.79, 251.18 -33.69 M223.48 -38.13 C232.11 -38.05, 240.53 -35.16, 251.66 -33.3" stroke="#1864ab" stroke-width="1" fill="none"></path></g></g><g transform="translate(932.3555096786811 230) rotate(0 151.5 38)"><text x="151.5" y="18.333333333333332" font-family="Virgil, Segoe UI Emoji" font-size="20px" fill="#1864ab" text-anchor="middle" style="white-space: pre;" direction="ltr">Service to automatically scale</text><text x="151.5" y="43.666666666666664" font-family="Virgil, Segoe UI Emoji" font-size="20px" fill="#1864ab" text-anchor="middle" style="white-space: pre;" direction="ltr">and only pay for what you use</text><text x="151.5" y="69" font-family="Virgil, Segoe UI Emoji" font-size="20px" fill="#1864ab" text-anchor="middle" style="white-space: pre;" direction="ltr">- lambda for containers</text></g><g transform="translate(753.6885785263374 142.66665649414062) rotate(0 113.49999999999994 12.5)"><text x="113.5" y="18" font-family="Virgil, Segoe UI Emoji" font-size="20px" fill="#1864ab" text-anchor="middle" style="white-space: pre;" direction="ltr">AWS Container solution</text></g><g stroke-linecap="round"><g transform="translate(545.8643088551623 217.33343505859375) rotate(0 99.59174592480963 -22.004666224704522)"><path d="M-0.37 0.51 C33.02 -6.79, 166.26 -35.36, 199.55 -42.8 M1.64 -0.27 C34.9 -7.38, 164.94 -37.38, 198.31 -44.52" stroke="#1864ab" stroke-width="1" fill="none"></path></g><g transform="translate(545.8643088551623 217.33343505859375) rotate(0 99.59174592480963 -22.004666224704522)"><path d="M173.88 -29.29 C180.1 -33.31, 183.81 -35.76, 198.04 -42.75 M172.42 -28.8 C181.74 -34.61, 189.39 -38.68, 197.32 -43.91" stroke="#1864ab" stroke-width="1" fill="none"></path></g><g transform="translate(545.8643088551623 217.33343505859375) rotate(0 99.59174592480963 -22.004666224704522)"><path d="M169.41 -49.32 C176.85 -48.64, 181.6 -46.39, 198.04 -42.75 M167.95 -48.83 C178.97 -47.88, 188.13 -45.2, 197.32 -43.91" stroke="#1864ab" stroke-width="1" fill="none"></path></g></g><g stroke-linecap="round" transform="translate(741.3148450058296 474.21196484295245) rotate(0 32.540420532226506 32.540420532226506)"><path d="M0 0 C0 0, 0 0, 0 0 M0 0 C0 0, 0 0, 0 0 M0.13 12.04 C3.25 8.45, 6.37 4.86, 10.63 -0.03 M0.13 12.04 C2.62 9.18, 5.11 6.31, 10.63 -0.03 M0.27 24.08 C7.23 16.08, 14.19 8.07, 21.26 -0.07 M0.27 24.08 C7.74 15.49, 15.21 6.89, 21.26 -0.07 M-0.26 36.88 C10.04 25.03, 20.34 13.18, 31.89 -0.1 M-0.26 36.88 C6.89 28.65, 14.04 20.43, 31.89 -0.1 M-0.12 48.92 C14.67 31.9, 29.47 14.88, 42.52 -0.14 M-0.12 48.92 C9.94 37.34, 20 25.76, 42.52 -0.14 M0.01 60.96 C16.33 42.18, 32.65 23.41, 53.15 -0.17 M0.01 60.96 C18.1 40.15, 36.19 19.34, 53.15 -0.17 M4.08 68.47 C26.16 43.08, 48.23 17.68, 63.78 -0.21 M4.08 68.47 C16.89 53.73, 29.71 38.99, 63.78 -0.21 M14.71 68.44 C33.41 46.92, 52.12 25.4, 70.47 4.29 M14.71 68.44 C34.99 45.11, 55.26 21.78, 70.47 4.29 M25.34 68.4 C38.55 53.21, 51.75 38.02, 69.95 17.08 M25.34 68.4 C39.11 52.56, 52.88 36.72, 69.95 17.08 M35.97 68.37 C49.42 52.9, 62.86 37.43, 70.08 29.12 M35.97 68.37 C45.47 57.44, 54.97 46.51, 70.08 29.12 M46.6 68.33 C53.27 60.66, 59.95 52.98, 70.22 41.16 M46.6 68.33 C56.03 57.49, 65.46 46.64, 70.22 41.16 M57.23 68.3 C60.95 64.02, 64.66 59.75, 70.35 53.2 M57.23 68.3 C62.29 62.48, 67.35 56.66, 70.35 53.2 M0.23 65.28 C0.23 65.28, 0.23 65.28, 0.23 65.28 M0.23 65.28 C0.23 65.28, 0.23 65.28, 0.23 65.28 M12.27 65.15 C8.48 61.85, 4.7 58.56, 0.19 54.65 M12.27 65.15 C7.45 60.95, 2.62 56.76, 0.19 54.65 M24.31 65.01 C15.4 57.27, 6.49 49.52, 0.16 44.02 M24.31 65.01 C19.15 60.53, 13.99 56.04, 0.16 44.02 M36.35 64.88 C28.86 58.37, 21.37 51.86, 0.13 33.39 M36.35 64.88 C23.72 53.9, 11.1 42.93, 0.13 33.39 M49.15 65.4 C30.15 48.89, 11.16 32.38, 0.09 22.76 M49.15 65.4 C33.45 51.76, 17.75 38.11, 0.09 22.76 M61.19 65.27 C37 44.25, 12.82 23.22, 0.06 12.13 M61.19 65.27 C44.32 50.61, 27.46 35.95, 0.06 12.13 M68.7 61.2 C47.91 43.12, 27.11 25.05, 0.02 1.5 M68.7 61.2 C42.11 38.08, 15.52 14.97, 0.02 1.5 M68.67 50.57 C47.9 32.52, 27.13 14.47, 4.52 -5.19 M68.67 50.57 C46.98 31.72, 25.29 12.87, 4.52 -5.19 M68.63 39.94 C54.19 27.39, 39.75 14.83, 16.56 -5.33 M68.63 39.94 C52.14 25.6, 35.65 11.27, 16.56 -5.33 M68.6 29.31 C54.77 17.29, 40.95 5.28, 28.6 -5.46 M68.6 29.31 C56.36 18.67, 44.12 8.04, 28.6 -5.46 M68.56 18.68 C59.51 10.81, 50.45 2.94, 41.39 -4.94 M68.56 18.68 C61.12 12.21, 53.68 5.75, 41.39 -4.94 M68.53 8.05 C65.1 5.07, 61.68 2.1, 53.43 -5.07 M68.53 8.05 C64.54 4.58, 60.55 1.11, 53.43 -5.07" stroke="#7950f288" stroke-width="1" fill="none"></path><path d="M0 0 C25 0, 49.99 0, 65.08 0 M0 0 C25.92 0, 51.85 0, 65.08 0 M65.08 0 C65.08 25, 65.08 50, 65.08 65.08 M65.08 0 C65.08 16.02, 65.08 32.04, 65.08 65.08 M65.08 65.08 C49.22 65.08, 33.36 65.08, 0 65.08 M65.08 65.08 C42.71 65.08, 20.33 65.08, 0 65.08 M0 65.08 C0 40.97, 0 16.86, 0 0 M0 65.08 C0 43.83, 0 22.57, 0 0" stroke="#000000" stroke-width="2" fill="none"></path></g><g stroke-linecap="round" transform="translate(747.2986399684193 491.78600089371884) rotate(0 15.50619339104469 15.50619339104469)"><path d="M31.01 15.51 C31.01 16.4, 30.93 17.31, 30.78 18.2 C30.62 19.08, 30.38 19.97, 30.08 20.81 C29.77 21.65, 29.38 22.48, 28.93 23.26 C28.49 24.04, 27.96 24.79, 27.38 25.47 C26.81 26.16, 26.16 26.81, 25.47 27.38 C24.79 27.96, 24.04 28.49, 23.26 28.93 C22.48 29.38, 21.65 29.77, 20.81 30.08 C19.97 30.38, 19.08 30.62, 18.2 30.78 C17.31 30.93, 16.4 31.01, 15.51 31.01 C14.61 31.01, 13.7 30.93, 12.81 30.78 C11.93 30.62, 11.05 30.38, 10.2 30.08 C9.36 29.77, 8.53 29.38, 7.75 28.93 C6.98 28.49, 6.23 27.96, 5.54 27.38 C4.85 26.81, 4.2 26.16, 3.63 25.47 C3.05 24.79, 2.53 24.04, 2.08 23.26 C1.63 22.48, 1.24 21.65, 0.94 20.81 C0.63 19.97, 0.39 19.08, 0.24 18.2 C0.08 17.31, 0 16.4, 0 15.51 C0 14.61, 0.08 13.7, 0.24 12.81 C0.39 11.93, 0.63 11.05, 0.94 10.2 C1.24 9.36, 1.63 8.53, 2.08 7.75 C2.53 6.98, 3.05 6.23, 3.63 5.54 C4.2 4.85, 4.85 4.2, 5.54 3.63 C6.23 3.05, 6.98 2.53, 7.75 2.08 C8.53 1.63, 9.36 1.24, 10.2 0.94 C11.05 0.63, 11.93 0.39, 12.81 0.24 C13.7 0.08, 14.61 0, 15.51 0 C16.4 0, 17.31 0.08, 18.2 0.24 C19.08 0.39, 19.97 0.63, 20.81 0.94 C21.65 1.24, 22.48 1.63, 23.26 2.08 C24.04 2.53, 24.79 3.05, 25.47 3.63 C26.16 4.2, 26.81 4.85, 27.38 5.54 C27.96 6.23, 28.49 6.98, 28.93 7.75 C29.38 8.53, 29.77 9.36, 30.08 10.2 C30.38 11.05, 30.62 11.93, 30.78 12.81 C30.93 13.7, 30.97 15.06, 31.01 15.51 C31.05 15.95, 31.05 15.06, 31.01 15.51" stroke="#000000" stroke-width="2" fill="none"></path></g><g stroke-linecap="round" transform="translate(786.3830405729965 486.39980913152357) rotate(0 4.681114985975739 4.681114985975796)"><path d="M9.36 4.68 C9.36 4.95, 9.34 5.23, 9.29 5.49 C9.24 5.76, 9.17 6.03, 9.08 6.28 C8.99 6.54, 8.87 6.79, 8.74 7.02 C8.6 7.26, 8.44 7.48, 8.27 7.69 C8.09 7.9, 7.9 8.09, 7.69 8.27 C7.48 8.44, 7.26 8.6, 7.02 8.74 C6.79 8.87, 6.54 8.99, 6.28 9.08 C6.03 9.17, 5.76 9.24, 5.49 9.29 C5.23 9.34, 4.95 9.36, 4.68 9.36 C4.41 9.36, 4.14 9.34, 3.87 9.29 C3.6 9.24, 3.33 9.17, 3.08 9.08 C2.83 8.99, 2.58 8.87, 2.34 8.74 C2.11 8.6, 1.88 8.44, 1.67 8.27 C1.46 8.09, 1.27 7.9, 1.1 7.69 C0.92 7.48, 0.76 7.26, 0.63 7.02 C0.49 6.79, 0.37 6.54, 0.28 6.28 C0.19 6.03, 0.12 5.76, 0.07 5.49 C0.02 5.23, 0 4.95, 0 4.68 C0 4.41, 0.02 4.14, 0.07 3.87 C0.12 3.6, 0.19 3.33, 0.28 3.08 C0.37 2.83, 0.49 2.58, 0.63 2.34 C0.76 2.11, 0.92 1.88, 1.1 1.67 C1.27 1.46, 1.46 1.27, 1.67 1.1 C1.88 0.92, 2.11 0.76, 2.34 0.63 C2.58 0.49, 2.83 0.37, 3.08 0.28 C3.33 0.19, 3.6 0.12, 3.87 0.07 C4.14 0.02, 4.41 0, 4.68 0 C4.95 0, 5.23 0.02, 5.49 0.07 C5.76 0.12, 6.03 0.19, 6.28 0.28 C6.54 0.37, 6.79 0.49, 7.02 0.63 C7.26 0.76, 7.48 0.92, 7.69 1.1 C7.9 1.27, 8.09 1.46, 8.27 1.67 C8.44 1.88, 8.6 2.11, 8.74 2.34 C8.87 2.58, 8.99 2.83, 9.08 3.08 C9.17 3.33, 9.24 3.6, 9.29 3.87 C9.34 4.14, 9.35 4.55, 9.36 4.68 C9.37 4.82, 9.37 4.55, 9.36 4.68" stroke="#000000" stroke-width="2" fill="none"></path></g><g stroke-linecap="round" transform="translate(786.502977975969 518.7024120630786) rotate(0 4.681114985975739 4.681114985975796)"><path d="M9.36 4.68 C9.36 4.95, 9.34 5.23, 9.29 5.49 C9.24 5.76, 9.17 6.03, 9.08 6.28 C8.99 6.54, 8.87 6.79, 8.74 7.02 C8.6 7.26, 8.44 7.48, 8.27 7.69 C8.09 7.9, 7.9 8.09, 7.69 8.27 C7.48 8.44, 7.26 8.6, 7.02 8.74 C6.79 8.87, 6.54 8.99, 6.28 9.08 C6.03 9.17, 5.76 9.24, 5.49 9.29 C5.23 9.34, 4.95 9.36, 4.68 9.36 C4.41 9.36, 4.14 9.34, 3.87 9.29 C3.6 9.24, 3.33 9.17, 3.08 9.08 C2.83 8.99, 2.58 8.87, 2.34 8.74 C2.11 8.6, 1.88 8.44, 1.67 8.27 C1.46 8.09, 1.27 7.9, 1.1 7.69 C0.92 7.48, 0.76 7.26, 0.63 7.02 C0.49 6.79, 0.37 6.54, 0.28 6.28 C0.19 6.03, 0.12 5.76, 0.07 5.49 C0.02 5.23, 0 4.95, 0 4.68 C0 4.41, 0.02 4.14, 0.07 3.87 C0.12 3.6, 0.19 3.33, 0.28 3.08 C0.37 2.83, 0.49 2.58, 0.63 2.34 C0.76 2.11, 0.92 1.88, 1.1 1.67 C1.27 1.46, 1.46 1.27, 1.67 1.1 C1.88 0.92, 2.11 0.76, 2.34 0.63 C2.58 0.49, 2.83 0.37, 3.08 0.28 C3.33 0.19, 3.6 0.12, 3.87 0.07 C4.14 0.02, 4.41 0, 4.68 0 C4.95 0, 5.23 0.02, 5.49 0.07 C5.76 0.12, 6.03 0.19, 6.28 0.28 C6.54 0.37, 6.79 0.49, 7.02 0.63 C7.26 0.76, 7.48 0.92, 7.69 1.1 C7.9 1.27, 8.09 1.46, 8.27 1.67 C8.44 1.88, 8.6 2.11, 8.74 2.34 C8.87 2.58, 8.99 2.83, 9.08 3.08 C9.17 3.33, 9.24 3.6, 9.29 3.87 C9.34 4.14, 9.35 4.55, 9.36 4.68 C9.37 4.82, 9.37 4.55, 9.36 4.68" stroke="#000000" stroke-width="2" fill="none"></path></g><g stroke-linecap="round" transform="translate(791.1840929619422 501.14823086567066) rotate(0 4.681114985975739 4.681114985975796)"><path d="M9.36 4.68 C9.36 4.95, 9.34 5.23, 9.29 5.49 C9.24 5.76, 9.17 6.03, 9.08 6.28 C8.99 6.54, 8.87 6.79, 8.74 7.02 C8.6 7.26, 8.44 7.48, 8.27 7.69 C8.09 7.9, 7.9 8.09, 7.69 8.27 C7.48 8.44, 7.26 8.6, 7.02 8.74 C6.79 8.87, 6.54 8.99, 6.28 9.08 C6.03 9.17, 5.76 9.24, 5.49 9.29 C5.23 9.34, 4.95 9.36, 4.68 9.36 C4.41 9.36, 4.14 9.34, 3.87 9.29 C3.6 9.24, 3.33 9.17, 3.08 9.08 C2.83 8.99, 2.58 8.87, 2.34 8.74 C2.11 8.6, 1.88 8.44, 1.67 8.27 C1.46 8.09, 1.27 7.9, 1.1 7.69 C0.92 7.48, 0.76 7.26, 0.63 7.02 C0.49 6.79, 0.37 6.54, 0.28 6.28 C0.19 6.03, 0.12 5.76, 0.07 5.49 C0.02 5.23, 0 4.95, 0 4.68 C0 4.41, 0.02 4.14, 0.07 3.87 C0.12 3.6, 0.19 3.33, 0.28 3.08 C0.37 2.83, 0.49 2.58, 0.63 2.34 C0.76 2.11, 0.92 1.88, 1.1 1.67 C1.27 1.46, 1.46 1.27, 1.67 1.1 C1.88 0.92, 2.11 0.76, 2.34 0.63 C2.58 0.49, 2.83 0.37, 3.08 0.28 C3.33 0.19, 3.6 0.12, 3.87 0.07 C4.14 0.02, 4.41 0, 4.68 0 C4.95 0, 5.23 0.02, 5.49 0.07 C5.76 0.12, 6.03 0.19, 6.28 0.28 C6.54 0.37, 6.79 0.49, 7.02 0.63 C7.26 0.76, 7.48 0.92, 7.69 1.1 C7.9 1.27, 8.09 1.46, 8.27 1.67 C8.44 1.88, 8.6 2.11, 8.74 2.34 C8.87 2.58, 8.99 2.83, 9.08 3.08 C9.17 3.33, 9.24 3.6, 9.29 3.87 C9.34 4.14, 9.35 4.55, 9.36 4.68 C9.37 4.82, 9.37 4.55, 9.36 4.68" stroke="#000000" stroke-width="2" fill="none"></path></g><g stroke-linecap="round"><g transform="translate(778.8961661237557 506.9996245981401) rotate(0 5.851393732469717 0)"><path d="M0 0 C1.95 0, 9.75 0, 11.7 0 M0 0 C1.95 0, 9.75 0, 11.7 0" stroke="#000000" stroke-width="2" fill="none"></path></g></g><g stroke-linecap="round"><g transform="translate(775.2653924813031 519.2875514363259) rotate(23.749494492867285 5.851393732469717 0)"><path d="M0 0 C1.95 0, 9.75 0, 11.7 0 M0 0 C1.95 0, 9.75 0, 11.7 0" stroke="#000000" stroke-width="2" fill="none"></path></g></g><g stroke-linecap="round"><g transform="translate(775.2653924813036 494.8316351629248) rotate(338.0702750671431 5.851393732469717 0)"><path d="M0 0 C1.95 0, 9.75 0, 11.7 0 M0 0 C1.95 0, 9.75 0, 11.7 0" stroke="#000000" stroke-width="2" fill="none"></path></g></g><g transform="translate(753.355265538056 544.1214702156415) rotate(0 20.5 12.5)"><text x="0" y="18" font-family="Virgil, Segoe UI Emoji" font-size="20px" fill="#000000" text-anchor="start" style="white-space: pre;" direction="ltr">ELB</text></g><g stroke-linecap="round" transform="translate(832.2914374024529 224.9490407536697) rotate(0 32.230576182478444 32.199712367130076)"><path d="M0 0 C0 0, 0 0, 0 0 M0 0 C0 0, 0 0, 0 0 M0.13 12.04 C4.11 7.47, 8.08 2.9, 10.63 -0.03 M0.13 12.04 C2.3 9.54, 4.48 7.05, 10.63 -0.03 M0.27 24.08 C7.37 15.91, 14.47 7.74, 21.26 -0.07 M0.27 24.08 C4.64 19.05, 9.01 14.02, 21.26 -0.07 M-0.26 36.88 C7.31 28.18, 14.87 19.48, 31.89 -0.1 M-0.26 36.88 C9.25 25.94, 18.77 15, 31.89 -0.1 M-0.12 48.92 C13.2 33.59, 26.52 18.26, 42.52 -0.14 M-0.12 48.92 C9.26 38.12, 18.64 27.33, 42.52 -0.14 M0.01 60.96 C15.21 43.47, 30.41 25.99, 53.15 -0.17 M0.01 60.96 C11.99 47.17, 23.97 33.39, 53.15 -0.17 M4.08 68.47 C18.14 52.29, 32.21 36.11, 63.78 -0.21 M4.08 68.47 C22.64 47.12, 41.19 25.78, 63.78 -0.21 M14.71 68.44 C36.46 43.42, 58.2 18.4, 69.82 5.04 M14.71 68.44 C36.08 43.85, 57.45 19.27, 69.82 5.04 M25.34 68.4 C36.1 56.02, 46.86 43.64, 69.95 17.08 M25.34 68.4 C40.54 50.92, 55.74 33.43, 69.95 17.08 M35.97 68.37 C45.82 57.03, 55.67 45.7, 70.08 29.12 M35.97 68.37 C49.13 53.23, 62.29 38.09, 70.08 29.12 M46.6 68.33 C55.5 58.1, 64.39 47.87, 70.22 41.16 M46.6 68.33 C54.41 59.35, 62.22 50.37, 70.22 41.16 M57.23 68.3 C60.48 64.56, 63.72 60.83, 69.69 53.96 M57.23 68.3 C61.39 63.52, 65.54 58.74, 69.69 53.96 M-0.19 64.24 C-0.19 64.24, -0.19 64.24, -0.19 64.24 M-0.19 64.24 C-0.19 64.24, -0.19 64.24, -0.19 64.24 M11.85 64.1 C8.64 61.31, 5.43 58.52, -0.22 53.61 M11.85 64.1 C7.56 60.37, 3.27 56.64, -0.22 53.61 M24.65 64.63 C14.76 56.03, 4.88 47.44, -0.26 42.98 M24.65 64.63 C17.7 58.58, 10.75 52.54, -0.26 42.98 M36.69 64.49 C28.38 57.27, 20.07 50.05, -0.29 32.35 M36.69 64.49 C26.04 55.24, 15.4 45.98, -0.29 32.35 M48.73 64.36 C36.63 53.84, 24.52 43.31, -0.33 21.72 M48.73 64.36 C29.88 47.97, 11.03 31.59, -0.33 21.72 M60.77 64.23 C41.14 47.16, 21.51 30.09, -0.36 11.09 M60.77 64.23 C37.7 44.17, 14.63 24.12, -0.36 11.09 M68.28 60.16 C44.06 39.1, 19.84 18.04, 0.36 1.11 M68.28 60.16 C45 39.92, 21.72 19.68, 0.36 1.11 M68.25 49.53 C49.01 32.8, 29.77 16.08, 4.85 -5.58 M68.25 49.53 C44.06 28.5, 19.86 7.46, 4.85 -5.58 M68.21 38.9 C55.68 28, 43.15 17.11, 16.89 -5.72 M68.21 38.9 C53.83 26.39, 39.45 13.89, 16.89 -5.72 M68.18 28.27 C53.11 15.17, 38.04 2.07, 28.93 -5.85 M68.18 28.27 C57.61 19.08, 47.05 9.89, 28.93 -5.85 M68.15 17.64 C59.13 9.8, 50.12 1.96, 41.73 -5.33 M68.15 17.64 C60.66 11.13, 53.18 4.63, 41.73 -5.33 M68.11 7.01 C63.25 2.78, 58.4 -1.44, 53.77 -5.46 M68.11 7.01 C63.52 3.02, 58.94 -0.97, 53.77 -5.46" stroke="#fd7e1488" stroke-width="1" fill="none"></path><path d="M0 0 C25.05 0, 50.1 0, 64.46 0 M0 0 C23.26 0, 46.52 0, 64.46 0 M64.46 0 C64.46 20.08, 64.46 40.17, 64.46 64.4 M64.46 0 C64.46 15.27, 64.46 30.54, 64.46 64.4 M64.46 64.4 C46.76 64.4, 29.05 64.4, 0 64.4 M64.46 64.4 C39.56 64.4, 14.65 64.4, 0 64.4 M0 64.4 C0 50.5, 0 36.6, 0 0 M0 64.4 C0 46.54, 0 28.68, 0 0" stroke="#000000" stroke-width="2" fill="none"></path></g><g stroke-linecap="round"><g transform="translate(879.5563873756298 240.32775803992774) rotate(0 -14.527943252572754 4.246637183852329)" fill-rule="evenodd"><path d="M0 0 L-0.01 -5.02 L-14.76 -10.29 L-28.99 -5.08 L-29.08 12.27 L-14.61 18.78 L0.03 12.33 L0 0" stroke="none" stroke-width="0" fill="#ff00" fill-rule="evenodd"></path><path d="M0 0 C0 -1.69, -0.01 -3.39, -0.01 -5.02 M0 0 C0 -1.54, -0.01 -3.08, -0.01 -5.02 M-0.01 -5.02 C-5.09 -6.83, -10.16 -8.64, -14.76 -10.29 M-0.01 -5.02 C-5.18 -6.87, -10.35 -8.71, -14.76 -10.29 M-14.76 -10.29 C-18.15 -9.04, -21.54 -7.8, -28.99 -5.08 M-14.76 -10.29 C-18.44 -8.94, -22.12 -7.59, -28.99 -5.08 M-28.99 -5.08 C-29.02 0.63, -29.05 6.34, -29.08 12.27 M-28.99 -5.08 C-29.02 -0.19, -29.04 4.71, -29.08 12.27 M-29.08 12.27 C-24.29 14.43, -19.49 16.58, -14.61 18.78 M-29.08 12.27 C-24.41 14.38, -19.73 16.48, -14.61 18.78 M-14.61 18.78 C-11.28 17.31, -7.95 15.84, 0.03 12.33 M-14.61 18.78 C-9.83 16.67, -5.05 14.57, 0.03 12.33 M0.03 12.33 C0.02 9.56, 0.02 6.8, 0 0 M0.03 12.33 C0.02 7.79, 0.01 3.26, 0 0 M0 0 C0 0, 0 0, 0 0 M0 0 C0 0, 0 0, 0 0" stroke="#000" stroke-width="2" fill="none"></path></g></g><g stroke-linecap="round"><g transform="translate(850.9902700024379 235.5233425796731) rotate(0 7.040937546110854 11.492780070298295)"><path d="M0 0 C5.61 2.25, 11.22 4.49, 14.08 5.64 M0 0 C5.41 2.17, 10.82 4.33, 14.08 5.64 M14.08 5.64 C14.07 9.91, 14.05 14.18, 14.02 22.99 M14.08 5.64 C14.07 9.87, 14.05 14.09, 14.02 22.99" stroke="#000000" stroke-width="2" fill="none"></path></g></g><g stroke-linecap="round"><g transform="translate(865.0284441230544 241.09006027723137) rotate(0 6.968669893097058 -2.7100382917599575)"><path d="M0 0 C4.3 -1.67, 8.59 -3.34, 13.94 -5.42 M0 0 C3.86 -1.5, 7.71 -3, 13.94 -5.42" stroke="#000000" stroke-width="2" fill="none"></path></g></g><g stroke-linecap="round"><g transform="translate(858.3575397954908 269.05635736332056) rotate(0 -6.263092272848439 1.8307533330340107)" fill-rule="evenodd"><path d="M0 0 L-0.01 -2.17 L-6.36 -4.43 L-12.5 -2.19 L-12.54 5.29 L-6.3 8.1 L0.01 5.31 L0 0" stroke="none" stroke-width="0" fill="#ff00" fill-rule="evenodd"></path><path d="M0 0 C0 -0.52, 0 -1.04, -0.01 -2.17 M0 0 C0 -0.62, 0 -1.24, -0.01 -2.17 M-0.01 -2.17 C-1.74 -2.78, -3.47 -3.4, -6.36 -4.43 M-0.01 -2.17 C-1.44 -2.68, -2.88 -3.19, -6.36 -4.43 M-6.36 -4.43 C-8.01 -3.83, -9.65 -3.23, -12.5 -2.19 M-6.36 -4.43 C-8.08 -3.81, -9.79 -3.18, -12.5 -2.19 M-12.5 -2.19 C-12.51 -0.16, -12.52 1.88, -12.54 5.29 M-12.5 -2.19 C-12.51 -0.23, -12.52 1.72, -12.54 5.29 M-12.54 5.29 C-10.69 6.12, -8.84 6.95, -6.3 8.1 M-12.54 5.29 C-10.43 6.24, -8.32 7.19, -6.3 8.1 M-6.3 8.1 C-4.38 7.25, -2.45 6.4, 0.01 5.31 M-6.3 8.1 C-3.83 7.01, -1.36 5.92, 0.01 5.31 M0.01 5.31 C0.01 3.68, 0 2.04, 0 0 M0.01 5.31 C0.01 3.86, 0.01 2.41, 0 0 M0 0 C0 0, 0 0, 0 0 M0 0 C0 0, 0 0, 0 0" stroke="#000" stroke-width="2" fill="none"></path></g></g><g stroke-linecap="round"><g transform="translate(846.0424979568186 266.98514213198916) rotate(0 3.0353946716336395 4.954613381979243)"><path d="M0 0 C1.56 0.62, 3.12 1.25, 6.07 2.43 M0 0 C1.54 0.62, 3.08 1.23, 6.07 2.43 M6.07 2.43 C6.06 4.57, 6.06 6.71, 6.04 9.91 M6.07 2.43 C6.06 4.7, 6.05 6.97, 6.04 9.91" stroke="#000000" stroke-width="2" fill="none"></path></g></g><g stroke-linecap="round"><g transform="translate(852.0944475226427 269.38499089176173) rotate(0 3.004239609193064 -1.1683154035750647)"><path d="M0 0 C2.01 -0.78, 4.01 -1.56, 6.01 -2.34 M0 0 C2.09 -0.81, 4.19 -1.63, 6.01 -2.34" stroke="#000000" stroke-width="2" fill="none"></path></g></g><g stroke-linecap="round"><g transform="translate(871.494680352235 276.07577725709655) rotate(0 -6.263092272848439 1.8307533330339822)" fill-rule="evenodd"><path d="M0 0 L-0.01 -2.17 L-6.36 -4.43 L-12.5 -2.19 L-12.54 5.29 L-6.3 8.1 L0.01 5.31 L0 0" stroke="none" stroke-width="0" fill="#ff00" fill-rule="evenodd"></path><path d="M0 0 C0 -0.48, 0 -0.97, -0.01 -2.17 M0 0 C0 -0.71, 0 -1.42, -0.01 -2.17 M-0.01 -2.17 C-1.8 -2.81, -3.6 -3.45, -6.36 -4.43 M-0.01 -2.17 C-1.63 -2.74, -3.25 -3.32, -6.36 -4.43 M-6.36 -4.43 C-8.04 -3.82, -9.71 -3.21, -12.5 -2.19 M-6.36 -4.43 C-8.27 -3.74, -10.18 -3.04, -12.5 -2.19 M-12.5 -2.19 C-12.51 -0.27, -12.52 1.64, -12.54 5.29 M-12.5 -2.19 C-12.51 -0.2, -12.52 1.78, -12.54 5.29 M-12.54 5.29 C-10.45 6.23, -8.36 7.17, -6.3 8.1 M-12.54 5.29 C-10.33 6.28, -8.12 7.28, -6.3 8.1 M-6.3 8.1 C-4.96 7.51, -3.62 6.91, 0.01 5.31 M-6.3 8.1 C-3.97 7.07, -1.64 6.04, 0.01 5.31 M0.01 5.31 C0.01 3.97, 0.01 2.63, 0 0 M0.01 5.31 C0.01 3.98, 0.01 2.65, 0 0 M0 0 C0 0, 0 0, 0 0 M0 0 C0 0, 0 0, 0 0" stroke="#000" stroke-width="2" fill="none"></path></g></g><g stroke-linecap="round"><g transform="translate(859.1796385135606 274.00456202576095) rotate(0 3.0353946716336395 4.954613381979243)"><path d="M0 0 C1.5 0.6, 2.99 1.2, 6.07 2.43 M0 0 C1.83 0.73, 3.66 1.47, 6.07 2.43 M6.07 2.43 C6.06 4.26, 6.06 6.09, 6.04 9.91 M6.07 2.43 C6.06 4.57, 6.06 6.7, 6.04 9.91" stroke="#000000" stroke-width="2" fill="none"></path></g></g><g stroke-linecap="round"><g transform="translate(865.2315880793888 276.40441078553533) rotate(0 3.004239609193064 -1.1683154035750647)"><path d="M0 0 C2.17 -0.84, 4.33 -1.68, 6.01 -2.34 M0 0 C2.18 -0.85, 4.36 -1.69, 6.01 -2.34" stroke="#000000" stroke-width="2" fill="none"></path></g></g><g stroke-linecap="round"><g transform="translate(884.1340801776944 268.22250905098156) rotate(0 -6.263092272848439 1.8307533330339822)" fill-rule="evenodd"><path d="M0 0 L-0.01 -2.17 L-6.36 -4.43 L-12.5 -2.19 L-12.54 5.29 L-6.3 8.1 L0.01 5.31 L0 0" stroke="none" stroke-width="0" fill="#ff00" fill-rule="evenodd"></path><path d="M0 0 C0 -0.44, 0 -0.87, -0.01 -2.17 M0 0 C0 -0.56, 0 -1.13, -0.01 -2.17 M-0.01 -2.17 C-1.82 -2.81, -3.63 -3.46, -6.36 -4.43 M-0.01 -2.17 C-1.78 -2.8, -3.56 -3.43, -6.36 -4.43 M-6.36 -4.43 C-7.87 -3.88, -9.37 -3.33, -12.5 -2.19 M-6.36 -4.43 C-7.62 -3.97, -8.87 -3.52, -12.5 -2.19 M-12.5 -2.19 C-12.51 -0.26, -12.52 1.68, -12.54 5.29 M-12.5 -2.19 C-12.51 -0.51, -12.52 1.16, -12.54 5.29 M-12.54 5.29 C-10.78 6.08, -9.02 6.87, -6.3 8.1 M-12.54 5.29 C-11.2 5.89, -9.87 6.49, -6.3 8.1 M-6.3 8.1 C-4.15 7.15, -2 6.2, 0.01 5.31 M-6.3 8.1 C-3.78 6.99, -1.27 5.88, 0.01 5.31 M0.01 5.31 C0.01 3.61, 0 1.9, 0 0 M0.01 5.31 C0.01 3.67, 0 2.03, 0 0 M0 0 C0 0, 0 0, 0 0 M0 0 C0 0, 0 0, 0 0" stroke="#000" stroke-width="2" fill="none"></path></g></g><g stroke-linecap="round"><g transform="translate(871.8190383390172 266.15129381964846) rotate(0 3.0353946716336395 4.954613381979243)"><path d="M0 0 C2.19 0.88, 4.38 1.75, 6.07 2.43 M0 0 C1.89 0.76, 3.79 1.52, 6.07 2.43 M6.07 2.43 C6.06 4.2, 6.06 5.98, 6.04 9.91 M6.07 2.43 C6.06 4.48, 6.06 6.54, 6.04 9.91" stroke="#000000" stroke-width="2" fill="none"></path></g></g><g stroke-linecap="round"><g transform="translate(877.8709879048477 268.5511425794183) rotate(0 3.004239609193064 -1.1683154035750647)"><path d="M0 0 C1.84 -0.72, 3.68 -1.43, 6.01 -2.34 M0 0 C2.07 -0.8, 4.13 -1.61, 6.01 -2.34" stroke="#000000" stroke-width="2" fill="none"></path></g></g><g stroke-linecap="round"><g transform="translate(847.3942212013678 262.08326346436786) rotate(178.33979303936556 17.36663167122265 -8.19403422875601)"><path d="M0 0 C-0.62 -0.36, -2.66 -1.12, -3.74 -2.14 C-4.83 -3.16, -6.37 -4.65, -6.52 -6.13 C-6.66 -7.6, -5.97 -9.61, -4.61 -10.98 C-3.25 -12.36, -0.8 -13.5, 1.63 -14.37 C4.06 -15.24, 7.05 -15.79, 9.95 -16.2 C12.86 -16.6, 15.99 -16.86, 19.06 -16.78 C22.13 -16.7, 25.63 -16.28, 28.39 -15.71 C31.14 -15.15, 33.66 -14.36, 35.59 -13.41 C37.52 -12.46, 39.02 -11.32, 39.96 -10.04 C40.89 -8.76, 41.49 -7.11, 41.19 -5.74 C40.9 -4.38, 39.47 -2.89, 38.2 -1.86 C36.93 -0.84, 34.36 0.03, 33.59 0.41 M0 0 C-0.62 -0.36, -2.66 -1.12, -3.74 -2.14 C-4.83 -3.16, -6.37 -4.65, -6.52 -6.13 C-6.66 -7.6, -5.97 -9.61, -4.61 -10.98 C-3.25 -12.36, -0.8 -13.5, 1.63 -14.37 C4.06 -15.24, 7.05 -15.79, 9.95 -16.2 C12.86 -16.6, 15.99 -16.86, 19.06 -16.78 C22.13 -16.7, 25.63 -16.28, 28.39 -15.71 C31.14 -15.15, 33.66 -14.36, 35.59 -13.41 C37.52 -12.46, 39.02 -11.32, 39.96 -10.04 C40.89 -8.76, 41.49 -7.11, 41.19 -5.74 C40.9 -4.38, 39.47 -2.89, 38.2 -1.86 C36.93 -0.84, 34.36 0.03, 33.59 0.41" stroke="#000000" stroke-width="2" fill="none"></path></g></g><g transform="translate(824.5220135849311 293.38427223461156) rotate(0 40 12.5)"><text x="0" y="18" font-family="Virgil, Segoe UI Emoji" font-size="20px" fill="#000000" text-anchor="start" style="white-space: pre;" direction="ltr">Fargate</text></g><g stroke-linecap="round"><g transform="translate(129.4545474488135 129.14795536760178) rotate(0 43.60516092122097 48.3168916661037)" fill-rule="evenodd"><path d="M1.41 0.65 L-0.65 96.51 L2.08 98.58 L21.31 105.43 L45.07 103.1 L73.03 103.53 L78.73 100.42 L89.5 96.03 L87.18 0.56 L86 -1.17 L84.91 -3.14 L78.97 -7.27 L41.94 -8.46 L12.23 -6.61 L5.58 -3.27 L-1.52 1.88" stroke="none" stroke-width="0" fill="#228be6" fill-rule="evenodd"></path><path d="M0.58 0.34 C0.66 14.9, 0.49 70.86, 0.31 86.8 C0.14 102.75, -1.26 93.89, -0.47 95.99 C0.33 98.1, 1.78 98.21, 5.07 99.44 C8.36 100.66, 12.3 102.33, 19.26 103.34 C26.22 104.34, 37.98 105.63, 46.82 105.46 C55.65 105.29, 65.84 103.48, 72.25 102.33 C78.65 101.18, 82.76 99.65, 85.24 98.56 C87.73 97.46, 86.77 97.72, 87.15 95.76 C87.52 93.8, 87.51 101.54, 87.49 86.79 C87.48 72.05, 86.9 21.87, 87.07 7.26 C87.24 -7.35, 89.41 1.08, 88.51 -0.88 C87.6 -2.85, 84.79 -3.44, 81.64 -4.52 C78.5 -5.59, 76.26 -6.65, 69.64 -7.32 C63.03 -7.99, 49.93 -8.4, 41.97 -8.55 C34.01 -8.7, 28.04 -9.05, 21.86 -8.24 C15.68 -7.42, 8.6 -4.88, 4.89 -3.67 C1.18 -2.47, 0.56 -1.51, -0.37 -1.01 C-1.3 -0.51, -0.91 -0.75, -0.68 -0.66 M-0.58 -0.53 C-0.64 13.74, -0.47 68.76, -0.62 85.08 C-0.78 101.39, -2.52 94.86, -1.49 97.38 C-0.45 99.91, 1.86 99.17, 5.59 100.2 C9.32 101.23, 13.8 102.79, 20.89 103.55 C27.98 104.31, 39.49 104.65, 48.14 104.77 C56.79 104.9, 66.22 105.4, 72.78 104.29 C79.34 103.19, 84.83 99.72, 87.49 98.12 C90.15 96.52, 88.67 96.69, 88.74 94.69 C88.81 92.69, 88.21 100.5, 87.91 86.1 C87.6 71.69, 86.97 22.88, 86.92 8.27 C86.88 -6.35, 88.49 0.67, 87.63 -1.59 C86.78 -3.86, 84.92 -4.3, 81.78 -5.31 C78.64 -6.33, 75.46 -7.09, 68.81 -7.67 C62.16 -8.26, 50.09 -8.91, 41.91 -8.83 C33.73 -8.75, 26.02 -8.18, 19.74 -7.19 C13.46 -6.2, 7.81 -3.92, 4.22 -2.92 C0.63 -1.91, -1.33 -1.5, -1.83 -1.14 C-2.32 -0.78, 1.2 -1.13, 1.24 -0.75" stroke="#0a11d3" stroke-width="1" fill="none"></path></g></g><g stroke-linecap="round"><g transform="translate(130.14190903831093 194.43808339838938) rotate(0 43.591352211070756 3.8205989490222407)"><path d="M0.34 0.02 C0.95 0.5, 1.05 2.14, 3.08 3.42 C5.11 4.71, 8.84 6.93, 12.5 7.71 C16.17 8.49, 19.43 7.86, 25.07 8.11 C30.7 8.35, 38.52 9.22, 46.3 9.18 C54.07 9.14, 65.33 8.95, 71.71 7.88 C78.1 6.8, 81.89 4.25, 84.62 2.74 C87.36 1.23, 87.41 -0.56, 88.12 -1.21 M-0.94 -1.01 C-0.38 -0.43, 0.4 3.6, 2.52 4.71 C4.65 5.82, 8.07 4.99, 11.81 5.64 C15.55 6.3, 18.89 8.02, 24.97 8.66 C31.06 9.3, 40.84 9.81, 48.31 9.48 C55.79 9.16, 63.72 7.53, 69.82 6.73 C75.92 5.92, 82.05 6.11, 84.91 4.66 C87.78 3.22, 86.56 -1.3, 87 -1.94" stroke="#0a11d3" stroke-width="1" fill="none"></path></g></g><g stroke-linecap="round"><g transform="translate(129.04816752624947 161.36392883631757) rotate(0 44.17179228638116 5.45733811019781)"><path d="M0.02 0.75 C0.23 1.37, -0.3 3.08, 1.85 4.05 C3.99 5.01, 9.09 5.74, 12.89 6.54 C16.69 7.33, 19.06 8.26, 24.65 8.84 C30.25 9.42, 38.76 10.26, 46.46 10.03 C54.16 9.79, 64.48 8.54, 70.83 7.42 C77.17 6.3, 81.75 4.51, 84.54 3.3 C87.33 2.09, 87.04 0.86, 87.55 0.16 M-1.43 0.1 C-1.47 0.91, -1.66 4.42, 0.64 5.66 C2.95 6.9, 8.45 6.83, 12.4 7.51 C16.35 8.2, 18.93 9.22, 24.34 9.77 C29.76 10.31, 36.94 10.79, 44.9 10.77 C52.87 10.76, 65.48 11.17, 72.13 9.69 C78.78 8.2, 81.85 3.45, 84.79 1.86 C87.74 0.27, 89.05 0.26, 89.79 0.13" stroke="#0a11d3" stroke-width="1" fill="none"></path></g></g><g stroke-linecap="round" transform="translate(127.9273448400877 121.1232591405051) rotate(0 43.825373054270926 8.863351988406833)"><path d="M39.48 0.34 C48.25 0.12, 61.43 0.17, 69.35 1.24 C77.28 2.31, 84.77 4.7, 87.02 6.75 C89.27 8.8, 86.88 11.8, 82.84 13.53 C78.8 15.25, 71.23 16.45, 62.79 17.1 C54.34 17.74, 41.25 17.76, 32.19 17.39 C23.12 17.02, 13.68 16.29, 8.39 14.89 C3.11 13.49, -0.31 11.07, 0.5 8.99 C1.31 6.92, 6.02 3.89, 13.26 2.43 C20.51 0.97, 38.11 0.56, 43.97 0.23 C49.83 -0.09, 48.32 0.39, 48.41 0.5 M62.62 -0.5 C71.04 -0.07, 80.75 2.1, 84.53 3.95 C88.32 5.79, 87.85 8.68, 85.33 10.57 C82.81 12.45, 76.66 14.29, 69.4 15.26 C62.13 16.23, 51.29 16.22, 41.73 16.38 C32.17 16.55, 18.87 17.57, 12.05 16.23 C5.23 14.89, 1.48 10.31, 0.82 8.33 C0.15 6.34, 2.88 5.43, 8.07 4.33 C13.26 3.22, 22.77 2.27, 31.94 1.69 C41.11 1.12, 57.97 0.77, 63.08 0.88 C68.2 0.98, 63.27 1.98, 62.61 2.35" stroke="none" stroke-width="0" fill="#fff"></path><path d="M45.54 -0.26 C54.38 -0.08, 66.86 1.73, 73.8 2.99 C80.74 4.25, 86.19 5.52, 87.19 7.29 C88.18 9.05, 85.03 11.83, 79.79 13.59 C74.54 15.35, 64.7 17.36, 55.72 17.86 C46.73 18.37, 34.49 17.44, 25.86 16.61 C17.22 15.78, 7.87 14.57, 3.9 12.87 C-0.07 11.16, -0.23 8.2, 2.05 6.36 C4.32 4.51, 9.34 2.87, 17.55 1.79 C25.76 0.71, 44.97 0.02, 51.32 -0.12 C57.67 -0.25, 55.61 0.85, 55.65 0.99 M62.25 0.09 C70.34 1.08, 79.39 4.58, 83.22 6.64 C87.04 8.7, 87.67 10.9, 85.2 12.45 C82.74 14, 76.06 14.99, 68.44 15.96 C60.83 16.93, 48.88 18.31, 39.49 18.27 C30.11 18.23, 18.5 17.42, 12.15 15.7 C5.8 13.98, 2.2 9.91, 1.4 7.96 C0.61 6.01, 1.93 5.55, 7.38 4.01 C12.82 2.48, 24.79 -0.93, 34.06 -1.23 C43.34 -1.53, 58.33 1.95, 63.02 2.23 C67.71 2.51, 62.22 0.71, 62.2 0.44" stroke="#0a11d3" stroke-width="1" fill="none"></path></g><g stroke-linecap="round" transform="translate(199.4370771406683 145.69906201763868) rotate(0 6.423028523489904 6.970952181208048)"><path d="M9.48 1.17 C10.75 1.92, 11.36 3.82, 11.92 4.96 C12.47 6.11, 12.97 6.71, 12.82 8.05 C12.67 9.4, 12.15 12.11, 11.02 13.02 C9.89 13.92, 7.57 13.61, 6.04 13.48 C4.51 13.36, 2.66 13.19, 1.81 12.26 C0.97 11.33, 0.9 9.35, 0.95 7.88 C0.99 6.42, 1.44 4.78, 2.06 3.46 C2.67 2.15, 3.29 0.4, 4.62 -0.01 C5.94 -0.42, 9.04 0.68, 10.03 1.01 C11.02 1.34, 10.67 1.73, 10.57 1.98 M6.84 1.43 C7.91 1.45, 9.71 1.03, 10.62 2.08 C11.54 3.12, 12.4 5.85, 12.31 7.71 C12.23 9.56, 11.24 12.37, 10.12 13.22 C9.01 14.07, 6.68 12.81, 5.62 12.82 C4.55 12.83, 4.87 13.87, 3.73 13.26 C2.6 12.64, -0.75 10.69, -1.19 9.12 C-1.63 7.55, 0.04 5.08, 1.1 3.86 C2.15 2.63, 3.94 2.2, 5.12 1.77 C6.31 1.34, 7.49 1.67, 8.22 1.28 C8.95 0.89, 9.29 -0.61, 9.49 -0.58" stroke="none" stroke-width="0" fill="#fff"></path><path d="M7.55 0.03 C9.02 0.37, 11.3 1.46, 12.09 2.56 C12.88 3.67, 12.46 5.25, 12.28 6.66 C12.1 8.08, 11.75 9.95, 11 11.06 C10.25 12.17, 9.16 13.15, 7.76 13.32 C6.35 13.49, 3.81 12.67, 2.58 12.1 C1.34 11.54, 0.75 11.24, 0.33 9.91 C-0.09 8.58, -0.49 5.7, 0.04 4.15 C0.57 2.59, 2.12 1.3, 3.51 0.58 C4.9 -0.15, 7.32 -0.39, 8.36 -0.2 C9.4 -0.01, 9.8 1.32, 9.75 1.69 M5.61 -0.83 C7.2 -0.81, 10.51 -0.15, 11.87 1.03 C13.24 2.22, 13.85 4.59, 13.81 6.29 C13.78 7.98, 12.43 9.95, 11.66 11.19 C10.89 12.42, 10.31 13.09, 9.19 13.7 C8.07 14.31, 6.57 15.59, 4.94 14.83 C3.31 14.08, 0.14 10.61, -0.59 9.16 C-1.32 7.71, 0.3 7.45, 0.54 6.12 C0.78 4.79, -0.35 2.35, 0.85 1.18 C2.05 0.02, 6.93 -0.91, 7.75 -0.86 C8.58 -0.8, 6.2 1.38, 5.8 1.53" stroke="#0a11d3" stroke-width="1" fill="none"></path></g><g stroke-linecap="round" transform="translate(199.4370771406683 176.30151587669914) rotate(0 6.423028523489904 6.970952181208034)"><path d="M4.81 0.04 C6.24 -0.52, 8.53 -0.08, 9.61 0.66 C10.68 1.41, 10.7 3.21, 11.27 4.51 C11.84 5.82, 13.25 7.19, 13.05 8.49 C12.84 9.8, 11.11 11.27, 10.05 12.33 C9 13.4, 7.97 14.73, 6.72 14.87 C5.47 15, 3.59 14.28, 2.57 13.12 C1.55 11.96, 0.92 9.48, 0.61 7.9 C0.29 6.32, -0.17 4.9, 0.67 3.63 C1.51 2.37, 4.5 0.9, 5.62 0.32 C6.74 -0.26, 7.24 -0.01, 7.4 0.15 M8.01 -1.08 C9.05 -0.94, 9.1 0.35, 9.92 1.42 C10.73 2.5, 12.36 4.04, 12.88 5.39 C13.4 6.74, 14.01 7.97, 13.05 9.52 C12.09 11.07, 8.56 14.29, 7.13 14.69 C5.7 15.1, 5.47 12.65, 4.45 11.96 C3.44 11.27, 1.8 11.41, 1.06 10.54 C0.33 9.66, -0.39 8.21, 0.06 6.69 C0.51 5.18, 2.46 2.32, 3.76 1.44 C5.06 0.56, 7.51 1.37, 7.86 1.41 C8.22 1.44, 5.94 1.94, 5.86 1.63" stroke="none" stroke-width="0" fill="#fff"></path><path d="M4.58 0.82 C5.93 0.31, 7.75 -0.43, 8.92 0.08 C10.09 0.58, 11.09 2.3, 11.6 3.83 C12.12 5.35, 12.35 7.83, 12.01 9.23 C11.67 10.64, 10.72 11.48, 9.58 12.26 C8.44 13.05, 6.3 14.08, 5.17 13.95 C4.03 13.82, 3.65 12.53, 2.77 11.49 C1.89 10.44, 0.19 9.13, -0.12 7.67 C-0.42 6.22, 0.02 3.96, 0.93 2.76 C1.84 1.56, 4.15 0.94, 5.33 0.46 C6.5 -0.03, 7.7 -0.18, 7.97 -0.14 M4.73 1.36 C6.11 1.4, 7.85 1.6, 9.23 2.13 C10.61 2.67, 12.39 3.2, 13.03 4.54 C13.67 5.89, 13.64 8.66, 13.07 10.22 C12.49 11.77, 10.69 13.53, 9.58 13.89 C8.46 14.24, 7.97 12.72, 6.38 12.35 C4.8 11.98, 1.08 12.86, 0.08 11.67 C-0.92 10.48, 0.21 6.57, 0.4 5.22 C0.6 3.87, 0.53 4.54, 1.25 3.57 C1.97 2.6, 3.75 0.15, 4.71 -0.59 C5.66 -1.34, 6.92 -1.08, 6.97 -0.91" stroke="#0a11d3" stroke-width="1" fill="none"></path></g><g stroke-linecap="round" transform="translate(199.4370771406683 209.5623170511957) rotate(0 6.423028523489904 6.970952181208048)"><path d="M4.85 1.03 C6.1 0.46, 8.32 -0.52, 9.74 0.11 C11.15 0.73, 12.86 3.33, 13.36 4.78 C13.85 6.23, 13.32 7.38, 12.71 8.8 C12.1 10.23, 10.76 12.43, 9.7 13.33 C8.64 14.23, 7.56 14.41, 6.35 14.2 C5.14 13.99, 3.54 13.3, 2.45 12.07 C1.37 10.85, -0.05 8.45, -0.18 6.87 C-0.31 5.28, 0.63 3.64, 1.66 2.56 C2.69 1.49, 5.23 0.69, 6 0.43 C6.76 0.16, 6.2 0.92, 6.25 0.99 M6.78 -0.76 C8.2 -0.72, 10.17 1.28, 11.05 2.85 C11.92 4.41, 12.24 7.32, 12.03 8.61 C11.82 9.91, 10.44 9.64, 9.81 10.62 C9.18 11.6, 9.62 14.07, 8.24 14.5 C6.86 14.93, 2.78 14.15, 1.53 13.22 C0.28 12.28, 0.7 10.2, 0.75 8.89 C0.81 7.59, 1.41 6.57, 1.88 5.39 C2.35 4.21, 2.36 2.82, 3.59 1.79 C4.82 0.76, 8.3 -0.63, 9.26 -0.78 C10.21 -0.94, 9.76 0.48, 9.32 0.89" stroke="none" stroke-width="0" fill="#fff"></path><path d="M4.25 0.49 C5.35 -0.27, 6.29 -0.7, 7.5 -0.39 C8.71 -0.09, 10.54 1.09, 11.51 2.32 C12.49 3.55, 13.48 5.51, 13.33 6.98 C13.18 8.45, 11.64 9.84, 10.6 11.13 C9.55 12.43, 8.43 14.53, 7.05 14.76 C5.67 15, 3.44 13.58, 2.31 12.55 C1.18 11.53, 0.6 10.12, 0.27 8.6 C-0.06 7.08, -0.4 4.67, 0.33 3.44 C1.07 2.21, 3.98 1.57, 4.67 1.21 C5.37 0.85, 4.56 1.35, 4.52 1.29 M5.23 -0.08 C6.72 -0.49, 8.33 0.14, 9.38 0.8 C10.43 1.46, 10.85 2.69, 11.52 3.89 C12.19 5.1, 13.39 6.42, 13.4 8.01 C13.4 9.6, 12.88 12.64, 11.53 13.41 C10.18 14.19, 6.73 12.75, 5.31 12.67 C3.88 12.59, 4.08 13.69, 2.97 12.92 C1.87 12.16, -1.15 9.76, -1.31 8.09 C-1.47 6.43, 1.24 3.96, 2 2.93 C2.77 1.9, 3.13 2.42, 3.28 1.94 C3.42 1.46, 2.78 0.22, 2.87 0.05" stroke="#0a11d3" stroke-width="1" fill="none"></path></g><g stroke-linecap="round"><g transform="translate(954.7302629786957 432.325424564211) rotate(0 -30.62883845403701 15.585271664316622)" fill-rule="evenodd"><path d="M-75.88 8.24 C-75.88 8.24, -75.88 8.24, -75.88 8.24 M-75.88 8.24 C-75.88 8.24, -75.88 8.24, -75.88 8.24 M-76.69 15.76 C-75.97 14.2, -74.3 11.27, -71.81 9.4 M-77.09 15.67 C-75.39 13.58, -74.15 12.6, -71.58 9.72 M-73.79 18.63 C-70.26 16.03, -69.24 12.3, -65.14 9.07 M-75.63 19.95 C-71.38 14.86, -67.51 11.58, -65.83 8.77 M-72.7 25.37 C-69.56 18.39, -67.94 14.09, -62.06 9.55 M-72.72 22.75 C-68.75 18.05, -63.97 12.91, -59.67 9.25 M-72.43 28.98 C-68.42 22.76, -62.74 16.82, -54.4 10.93 M-71.86 27.56 C-65.38 20.31, -59.74 15.14, -54.28 8.47 M-70.96 32.67 C-66.08 25.58, -61.48 21.47, -50.67 9.47 M-69.37 30.63 C-62.01 22.65, -55.21 16.37, -49.93 8.11 M-67.37 34.08 C-62.93 27.45, -55.84 22.01, -45.49 8.58 M-65.59 34.02 C-57.11 23.97, -48.78 14.36, -44.91 9.04 M-63.37 39.04 C-57.36 31.27, -51.31 22.85, -38.86 8.58 M-64.34 36.63 C-57.37 30.15, -50.62 21.34, -39.29 8.82 M-60.23 40.3 C-52.64 29.24, -44.47 22.04, -32.2 10.58 M-60.21 38.81 C-53.47 30.8, -44.05 22.41, -34.27 8.32 M-56.77 39.63 C-46.1 31.19, -40 21.36, -27.89 10.27 M-55.84 41.22 C-45.98 29.86, -35.51 16.85, -28.09 9.26 M-11.31 -11.16 C-11.31 -11.16, -11.31 -11.16, -11.31 -11.16 M-11.31 -11.16 C-11.31 -11.16, -11.31 -11.16, -11.31 -11.16 M-51.76 41.48 C-41.08 29.92, -33.28 21.8, -21.77 6.87 M-51.44 41.14 C-41.09 28.95, -29.3 15.64, -23.56 9.02 M-12.14 -4.23 C-9.84 -6.2, -8.14 -8.19, -6.19 -9.92 M-12.42 -4.33 C-10.73 -5.3, -9.81 -7.03, -6.76 -10.04 M-45.67 43.17 C-38.16 28.82, -25.34 18.88, -18.99 7.46 M-48.03 41.97 C-38.09 32.75, -28.64 22.51, -18.45 8.3 M-12.66 1.67 C-7.82 -0.53, -4.62 -6.38, -3.75 -8.65 M-12.03 2.12 C-9.36 -0.63, -7.52 -3.22, -3.04 -8.09 M-42.33 43.44 C-31.04 28.52, -17.89 16.65, -10.84 7.77 M-44.58 43.8 C-33.09 31.9, -22.74 20.77, -12.41 8.78 M-8.95 3.76 C-7.7 1.98, -6.62 0.62, -0.42 -5.16 M-9.61 4.68 C-7.77 3.36, -5.33 1.29, -1.15 -4.29 M-37.74 44.27 C-23.83 28.75, -9.35 12.44, 0.22 1.54 M-38.76 43.28 C-26.6 31.9, -15.33 18.11, 0.67 -0.04 M-31.61 44.88 C-19.03 28.91, -4.32 13.61, 6.15 -1.57 M-32.63 42.49 C-23.21 33.66, -13.88 23.06, 5.79 0.61 M-28.26 45.58 C-20.53 33.75, -9.56 24.33, 2.05 13.34 M-28.24 43.32 C-16.89 32.05, -4.74 18.3, 1.15 11.01 M-0.02 10.78 C2.13 7.45, 7.03 5.52, 12.44 0.38 M0.39 10.63 C4.49 6.89, 8.49 3.01, 11.17 -1.38 M-15.42 34.92 C-10.41 32.9, -6.6 27.29, -5.86 22.52 M-14.6 35.62 C-11.7 32.31, -9.5 29.54, -4.44 23.47 M7.85 9.5 C9.98 7.67, 12.32 4.78, 15.39 1.8 M7.86 9.7 C9.54 7.17, 11.64 4.64, 14.75 2.25" stroke="#228be6" stroke-width="0.5" fill="none"></path><path d="M-0.65 -1.06 C-1.05 -2.06, -1.48 -4, -2.26 -5.51 C-3.04 -7.02, -3.68 -8.99, -5.33 -10.12 C-6.99 -11.25, -10.74 -12.95, -12.21 -12.29 C-13.68 -11.62, -14.23 -8.16, -14.15 -6.12 C-14.07 -4.07, -12.51 -1.81, -11.73 -0.01 C-10.95 1.79, -9.09 3.22, -9.48 4.68 C-9.88 6.13, -11.36 8.18, -14.09 8.7 C-16.83 9.23, -22.1 8.01, -25.92 7.84 C-29.74 7.66, -30.28 7.77, -37.01 7.66 C-43.75 7.54, -59.92 6.9, -66.32 7.17 C-72.73 7.45, -73.64 7.87, -75.46 9.32 C-77.29 10.77, -77.6 13.25, -77.27 15.86 C-76.94 18.46, -75.29 21.77, -73.48 24.93 C-71.67 28.09, -69.12 32.02, -66.41 34.83 C-63.69 37.64, -60.6 40.32, -57.21 41.78 C-53.81 43.24, -50.63 43.71, -46.02 43.59 C-41.41 43.47, -34.72 42.32, -29.55 41.05 C-24.38 39.78, -18.86 38.11, -15.02 35.99 C-11.19 33.87, -8.94 31.59, -6.55 28.31 C-4.15 25.04, -1.69 19.17, -0.66 16.34 C0.38 13.52, -1.54 12.6, -0.34 11.37 C0.85 10.13, 4.41 9.4, 6.52 8.93 C8.62 8.45, 10.86 9.63, 12.29 8.52 C13.72 7.4, 15.12 4, 15.08 2.24 C15.05 0.49, 13.93 -1.31, 12.06 -2 C10.2 -2.7, 5.94 -2.44, 3.89 -1.93 C1.85 -1.42, 0.57 0.82, -0.22 1.06 M1.22 1 C0.62 0.14, -2.22 -2.41, -3.38 -4.06 C-4.54 -5.71, -4.25 -7.65, -5.74 -8.91 C-7.23 -10.16, -10.65 -12.04, -12.31 -11.58 C-13.97 -11.11, -15.5 -8.43, -15.72 -6.12 C-15.95 -3.82, -14.77 0.15, -13.66 2.26 C-12.55 4.37, -8.85 5.42, -9.09 6.52 C-9.33 7.63, -12.58 8.93, -15.1 8.9 C-17.62 8.87, -20.7 6.67, -24.22 6.36 C-27.74 6.06, -29.23 6.84, -36.22 7.07 C-43.21 7.31, -59.43 7.38, -66.16 7.77 C-72.89 8.16, -74.75 8.09, -76.6 9.4 C-78.45 10.7, -77.65 13.09, -77.24 15.62 C-76.84 18.15, -75.95 21.52, -74.17 24.57 C-72.4 27.62, -69.52 31.36, -66.58 33.92 C-63.64 36.47, -60.3 38.71, -56.52 39.91 C-52.74 41.11, -48.19 40.89, -43.88 41.12 C-39.56 41.35, -35.26 42.06, -30.63 41.29 C-26 40.52, -20.22 38.91, -16.12 36.5 C-12.01 34.09, -8.48 29.89, -5.99 26.84 C-3.5 23.8, -2.09 20.99, -1.19 18.22 C-0.29 15.44, -1.89 11.38, -0.58 10.2 C0.72 9.01, 4.27 11.44, 6.66 11.1 C9.05 10.76, 12.13 9.65, 13.75 8.17 C15.37 6.7, 16.98 4.06, 16.38 2.26 C15.78 0.46, 12.02 -1.82, 10.14 -2.62 C8.26 -3.41, 6.6 -2.95, 5.09 -2.51 C3.58 -2.08, 2.1 -0.56, 1.07 0" stroke="#000000" stroke-width="1" fill="none"></path></g></g><g stroke-linecap="round" transform="translate(885.7439477271007 430.2574257088085) rotate(0 4.389813198750858 4.181105756654887)"><path d="M0 0 C0 0, 0 0, 0 0 M0 0 C0 0, 0 0, 0 0 M-0.2 7.08 C0.68 4.63, 1.44 4.14, 5.15 -0.37 M-0.37 6.27 C1.35 3.97, 3.72 2.29, 5.02 0.1 M2.69 10.67 C2.91 7.16, 6.34 4.85, 9.49 0.67 M2.51 9.44 C4.35 7.96, 5.51 5.85, 9.64 0.79 M7.49 10.27 C7.91 8.84, 8.53 8.3, 9.85 6.8 M7 10 C7.87 9.1, 8.89 8, 9.56 7.09" stroke="#228be6" stroke-width="0.5" fill="none"></path><path d="M-0.24 -0.12 C3.52 -0.08, 5.55 -0.47, 8.65 -0.55 M-0.33 0.02 C3.45 -0.16, 6.09 0.05, 8.69 -0.11 M8.51 0.78 C8.83 1.77, 8.15 3.51, 8.32 9.08 M8.69 0.2 C9.01 2.21, 9.05 4.69, 8.38 8.01 M8.53 9.12 C5.39 7.89, 3.82 7.63, -0.36 8.16 M8.61 8.5 C6.53 8.15, 4.22 8.39, -0.33 8.78 M-0.03 8.69 C0.75 5.88, 0.71 3.26, -0.15 -0.2 M0.16 8.35 C0.36 5.89, 0.06 3.15, -0.36 0.33" stroke="#000000" stroke-width="1" fill="none"></path></g><g stroke-linecap="round" transform="translate(895.8871294129624 430.13220124355104) rotate(0 4.2158903303375155 4.215890330337544)"><path d="M0 0 C0 0, 0 0, 0 0 M0 0 C0 0, 0 0, 0 0 M0.42 6.2 C1.19 3.63, 3.92 2.26, 4.25 0.9 M-0.39 6.09 C1.22 4.61, 3.44 2.58, 4.73 0.02 M3 8.82 C3.2 8.51, 4.58 5.23, 9.92 0.08 M1.76 10.12 C5.25 6.16, 8.09 3.1, 10.05 0.94" stroke="#228be6" stroke-width="0.5" fill="none"></path><path d="M-0.12 0.48 C1.93 -0.45, 3.63 -0.11, 7.9 0.43 M0.01 0.36 C1.86 0, 4.13 -0.02, 8.32 -0.26 M9.21 0.01 C8.27 2.23, 8.02 5.33, 9.16 8.08 M8.63 0.17 C8.51 3.33, 8.83 5.85, 8.08 8.55 M9.16 7.95 C5.31 9.19, 2.3 8.06, -0.19 8.28 M8.56 8.64 C5.01 8.78, 1.97 8.08, 0.4 8.56 M0.33 9.21 C0.33 6.46, 0.48 2.86, -0.2 0.2 M-0.01 8.79 C0.2 5.98, 0.17 3.06, 0.33 -0.31" stroke="#000000" stroke-width="1" fill="none"></path></g><g stroke-linecap="round" transform="translate(905.9607419514593 430.2713395382816) rotate(0 4.146321182972201 4.14632118297223)"><path d="M0 0 C0 0, 0 0, 0 0 M0 0 C0 0, 0 0, 0 0 M-0.46 6.02 C0.97 4.69, 3.62 1.34, 5.53 0.52 M-0.57 6.2 C1.52 4.88, 3.05 2.4, 4.65 0.05 M1.23 9.1 C4.3 6.97, 4.65 6.19, 8.73 1.99 M2.42 10.2 C4.25 7.37, 6.92 3.92, 9.52 1.12" stroke="#228be6" stroke-width="0.5" fill="none"></path><path d="M0.47 -0.14 C1.29 -0.51, 3.39 -0.51, 8.71 -0.47 M0.35 -0.19 C2.1 0.02, 4.24 -0.11, 8.04 0.18 M8.3 -0.22 C7.61 2.67, 7.81 7, 7.95 8.88 M8.46 0.05 C8.48 3.12, 7.88 5.17, 8.41 8.4 M7.82 7.93 C7.39 7.75, 4.6 8.18, -0.15 9.03 M8.5 8.15 C6.73 8.4, 4.11 8.71, 0.13 8.38 M0.77 8.58 C0.73 6.59, -0.15 3.83, 0.19 -0.02 M0.35 8.52 C0.02 5.77, -0.39 3.2, -0.3 -0.26" stroke="#000000" stroke-width="1" fill="none"></path></g><g stroke-linecap="round" transform="translate(915.7560779004941 430.1878565614432) rotate(0 4.146321182972201 4.14632118297223)"><path d="M0 0 C0 0, 0 0, 0 0 M0 0 C0 0, 0 0, 0 0 M-0.64 5.78 C1.78 4.72, 2.18 3.24, 5.15 0.45 M-0.46 6.53 C1.53 4.83, 2.36 2.8, 4.68 0 M1.42 10.5 C3.55 6.49, 7.03 3.45, 9.83 2.13 M2.53 9.39 C5.34 6.36, 7.54 3.81, 8.97 1.71" stroke="#228be6" stroke-width="0.5" fill="none"></path><path d="M-0.14 -0.46 C1.74 -0.17, 4 0.37, 7.83 -0.32 M-0.19 -0.06 C1.89 -0.16, 3.64 -0.33, 8.47 0.33 M8.07 -0.66 C7.9 1.76, 9.09 4.09, 8.88 8.56 M8.34 0.21 C8.7 1.92, 7.98 4.76, 8.4 7.89 M7.93 9.06 C5.42 7.9, 3.6 8.1, 0.73 7.74 M8.15 8.67 C6.21 8.02, 4.35 8.46, 0.09 8.12 M0.29 9.02 C0.4 5.69, -0.23 3.58, -0.02 0.22 M0.22 8.35 C0.19 5.13, 0.33 2.38, -0.26 -0.14" stroke="#000000" stroke-width="1" fill="none"></path></g><g stroke-linecap="round" transform="translate(925.6766383147872 430.2713395382816) rotate(0 4.146321182972201 4.14632118297223)"><path d="M0 0 C0 0, 0 0, 0 0 M0 0 C0 0, 0 0, 0 0 M-0.88 6.88 C1.94 3.36, 4.34 1.93, 5.07 0.14 M-0.12 6.74 C1.23 4.55, 2.26 2.88, 4.63 0.56 M2.82 8.77 C4.43 6.67, 6.98 4.12, 9.97 2.23 M1.71 10.31 C3.5 7.77, 5.76 5.33, 9.56 2.02" stroke="#228be6" stroke-width="0.5" fill="none"></path><path d="M-0.46 -0.52 C2.25 -0.51, 5.16 -0.45, 7.97 -0.62 M-0.06 0.02 C2.43 -0.07, 4.78 0.22, 8.62 -0.13 M7.63 -0.47 C7.84 3.97, 7.95 7.1, 8.56 8.12 M8.5 0.37 C7.93 2.53, 8.45 5.86, 7.89 8.18 M9.06 7.68 C4.75 8.07, 1.74 8.99, -0.56 7.97 M8.67 8.38 C5.23 8.65, 2.94 8.35, -0.18 8.28 M0.72 8.73 C-0.23 5.29, 0.12 2.65, 0.22 0.32 M0.05 8.48 C-0.43 6.15, -0.37 3.09, -0.14 0.02" stroke="#000000" stroke-width="1" fill="none"></path></g><g stroke-linecap="round" transform="translate(915.6308534352368 420.39252061240813) rotate(0 4.2158903303375155 4.215890330337544)"><path d="M0 0 C0 0, 0 0, 0 0 M0 0 C0 0, 0 0, 0 0 M0.22 6.56 C0.48 5.32, 2.82 3.2, 4.77 0.1 M0.08 6.44 C0.68 4.7, 1.79 3.33, 5.18 0.66 M1 9.29 C3.84 7.09, 6.19 6.44, 10.8 0.04 M2.68 9.44 C4.92 6.81, 7.28 3.61, 10.57 0.92" stroke="#228be6" stroke-width="0.5" fill="none"></path><path d="M-0.53 -0.13 C2.48 0.47, 5.54 -0.28, 7.81 0.03 M0.02 -0.09 C3.14 -0.25, 6.68 0.35, 8.3 0.39 M7.96 -0.47 C9.14 2.19, 9 5.35, 8.26 8.83 M8.8 -0.4 C8.09 2.99, 8.55 5.32, 8.31 8.8 M7.81 8.08 C6.19 8.36, 5.08 7.95, -0.33 8.69 M8.52 8.11 C5.87 8.64, 2.61 8.33, -0.02 8.6 M0.44 8.28 C-0.23 5.32, -0.05 2.04, 0.32 -0.02 M0.19 8.07 C0.29 4.88, -0.31 1.79, 0.02 -0.23" stroke="#000000" stroke-width="1" fill="none"></path></g><g stroke-linecap="round" transform="translate(906.197277052501 420.87950464396533) rotate(0 4.007182888241573 4.00718288824163)"><path d="M0 0 C0 0, 0 0, 0 0 M0 0 C0 0, 0 0, 0 0 M-0.09 5.66 C1.65 5, 2.52 3.1, 4.73 -0.26 M-0.22 6.14 C0.69 4.53, 1.99 3.52, 5.29 0.04 M1.66 9.73 C3.18 8.38, 6.14 6.64, 8.7 2.11 M1.79 9.85 C5.08 6.22, 7.85 3.98, 9.5 1.36" stroke="#228be6" stroke-width="0.5" fill="none"></path><path d="M-0.12 -0.5 C2.67 -0.4, 4.22 -0.54, 8.04 0.68 M-0.08 -0.1 C1.8 0.17, 4.4 -0.13, 8.39 0 M7.57 0.69 C7.62 2.75, 8.21 4.21, 8.39 8.34 M7.63 -0.34 C8.17 2.6, 7.66 4.87, 8.36 7.79 M7.68 7.83 C5.82 8.66, 3.37 7.65, 0.25 8.42 M7.71 8.39 C6.01 8.12, 3.59 8.01, 0.16 8.38 M-0.15 7.83 C0.12 5.31, 0.15 2.96, -0.02 0.68 M-0.35 8.33 C-0.3 4.93, -0.14 2.36, -0.22 0.34" stroke="#000000" stroke-width="1" fill="none"></path></g><g stroke-linecap="round" transform="translate(896.0540953666393 420.8099354966) rotate(0 4.007182888241573 4.00718288824163)"><path d="M0 0 C0 0, 0 0, 0 0 M0 0 C0 0, 0 0, 0 0 M-1 6.94 C1.03 5.13, 1.82 3.44, 4.37 -0.04 M-0.52 6.06 C1.13 4.01, 3.39 2.66, 4.67 0.11 M2.06 9.19 C5.33 7.42, 8.21 3.11, 9.95 2.33 M2.17 9.97 C3.32 8.15, 5.88 6.2, 9.21 1.1" stroke="#228be6" stroke-width="0.5" fill="none"></path><path d="M-0.5 0.41 C1.51 -0.3, 3.32 0.04, 8.7 -0.36 M-0.1 -0.25 C2.46 0.33, 4.44 0.39, 8.02 -0.11 M8.71 -0.33 C8.53 2.03, 7.81 3.91, 8.34 8.1 M7.68 0.12 C8.19 2.41, 7.97 5.95, 7.79 7.84 M7.83 7.87 C5.57 7.44, 1.41 8.23, 0.4 7.74 M8.39 8.14 C4.97 7.78, 1.75 8.11, 0.37 8.15 M-0.19 8.2 C-0.06 5.13, 0.27 1.79, 0.68 0.43 M0.31 7.72 C-0.29 5.37, -0.02 2.79, 0.34 -0.35" stroke="#000000" stroke-width="1" fill="none"></path></g><g stroke-linecap="round" transform="translate(915.4917151405059 410.59718466337307) rotate(0 4.2158903303375155 4.215890330337544)"><path d="M0 0 C0 0, 0 0, 0 0 M0 0 C0 0, 0 0, 0 0 M0.28 6.56 C1.7 4.05, 3.25 1.48, 4.59 0.63 M-0.6 6.09 C1.39 4.3, 4.08 1.46, 4.74 0.62 M1.46 10.34 C4.49 8.72, 4.74 6.7, 10.91 -0.13 M2.32 9.39 C5.54 6.77, 8.6 2.46, 9.57 0.21" stroke="#228be6" stroke-width="0.5" fill="none"></path><path d="M0.43 -0.47 C1.68 -0.57, 4.04 0.77, 8.05 -0.12 M-0.26 0.18 C2.9 -0.12, 5.52 0.03, 8.32 -0.34 M8.08 0.59 C8.66 1.88, 8.78 4.44, 8.52 8.85 M8.55 0.11 C7.94 3.16, 8.71 6.31, 8.25 8.82 M8.28 9.18 C5.96 8.09, 4.88 8.84, -0.29 9.19 M8.56 8.52 C5.55 8.49, 3.19 8.9, 0.15 8.8 M0.2 8.41 C0.24 5.79, 0 3.21, 0.45 0.11 M-0.31 8.17 C-0.07 5.54, -0.15 2.97, -0.37 -0.31" stroke="#000000" stroke-width="1" fill="none"></path></g><g transform="translate(93.85532657321244 257.9999694824219) rotate(0 76 12.5)"><text x="76" y="18" font-family="Virgil, Segoe UI Emoji" font-size="20px" fill="#000000" text-anchor="middle" style="white-space: pre;" direction="ltr">MongoDB Atlas</text></g><g stroke-linecap="round"><g transform="translate(473.18870059664994 347.6666564941406) rotate(0 -115.52634722611865 -77.87942882962525)"><path d="M-0.68 -0.47 C-39.25 -26.45, -193.95 -129.39, -232.22 -155.29 M1.17 -1.76 C-36.97 -27.59, -191.36 -128.22, -229.98 -153.73" stroke="#000000" stroke-width="1" fill="none"></path></g><g transform="translate(473.18870059664994 347.6666564941406) rotate(0 -115.52634722611865 -77.87942882962525)"><path d="M-201.56 -148.33 C-207.67 -146.94, -215.56 -150.57, -229.89 -154.14 M-199.99 -147.17 C-207.83 -148.6, -217.04 -151.3, -230.54 -154.28" stroke="#000000" stroke-width="1" fill="none"></path></g><g transform="translate(473.18870059664994 347.6666564941406) rotate(0 -115.52634722611865 -77.87942882962525)"><path d="M-212.81 -131.17 C-216.34 -133.79, -221.57 -141.48, -229.89 -154.14 M-211.24 -130.01 C-215.89 -136.2, -222.01 -143.61, -230.54 -154.28" stroke="#000000" stroke-width="1" fill="none"></path></g></g><g stroke-linecap="round"><g transform="translate(236.5220135849312 220.33334350585938) rotate(0 117.12057117037477 68.73325031585992)"><path d="M-0.47 -0.89 C38.55 22.28, 195.61 115.35, 234.71 138.36 M1.49 1.26 C40.3 24.17, 195.18 113.92, 233.78 136.77" stroke="#000000" stroke-width="1" fill="none"></path></g><g transform="translate(236.5220135849312 220.33334350585938) rotate(0 117.12057117037477 68.73325031585992)"><path d="M202.78 131.46 C216.29 132.49, 224.64 135.37, 233.37 136.26 M203.94 132.32 C211.33 132.17, 217.56 133.16, 233.23 137.63" stroke="#000000" stroke-width="1" fill="none"></path></g><g transform="translate(236.5220135849312 220.33334350585938) rotate(0 117.12057117037477 68.73325031585992)"><path d="M213.15 113.75 C222.92 120.95, 227.64 130.03, 233.37 136.26 M214.31 114.61 C219.31 118.76, 223.06 123.97, 233.23 137.63" stroke="#000000" stroke-width="1" fill="none"></path></g></g><g stroke-linecap="round" transform="translate(10 595.2178347059423) rotate(0 219.65542819348235 133.61532514821732)"><path d="M0.03 0.85 C106.61 1.49, 214.17 1.43, 439.06 -0.62 M0.47 0.01 C150.9 0.31, 301.79 0.44, 439.74 -0.21 M440.05 0.63 C440.17 99.79, 441.39 196.51, 437.99 267.69 M439.99 -0.45 C436.9 88.01, 436.66 174.22, 439.13 267.09 M439.62 267.74 C268.31 267.28, 98.21 265.62, 0.94 267.54 M439.51 267.69 C298.29 267.58, 157.18 267.05, -0.12 267.35 M-0.03 268.57 C0.28 188, 0.15 107.02, 1.24 -1.14 M-0.42 267.9 C0.02 203.25, 1.25 140.75, -0.73 0.21" stroke="#1864ab" stroke-width="1" fill="none"></path></g><g stroke-linecap="round" transform="translate(347.42709704838717 755.7095465182856) rotate(0 53.666656494140625 36.33331298828125)"><path d="M0 0 C0 0, 0 0, 0 0 M0 0 C0 0, 0 0, 0 0 M-0.88 6 C1.66 5.22, 3.09 2.14, 4.31 -0.26 M-0.58 6.15 C1.07 4.72, 1.75 3.81, 4.77 0.55 M1.06 13.28 C2.69 9.31, 6.69 3.62, 11.21 -1.06 M-0.03 11.5 C2.94 8.27, 7.5 3.07, 11.23 0.02 M-2.09 19.6 C4.6 12.8, 11.02 3.8, 14.18 1.13 M-0.14 18.77 C3.62 13.34, 8.17 8.65, 16.3 1.02 M1.76 24.47 C4.95 18.06, 10.86 9.99, 23.17 -1.78 M0.28 24.47 C6.41 17.88, 11.73 11.56, 21.65 0.29 M1.69 30.45 C7.67 24.18, 14.31 15.97, 25.54 1.56 M0.84 30.53 C7.63 20.74, 16.02 12.91, 26.07 0.25 M-0.55 37.58 C8.37 28.15, 17.21 15.69, 32.77 0.07 M-0.26 35.89 C12.03 22.21, 23.58 8.4, 32.59 0.84 M-1.04 41.68 C10.23 29.67, 22.41 19.16, 36.54 -0.17 M0.69 42.27 C12.4 28.88, 23.91 15.75, 37.3 0.08 M1.47 50.51 C12.74 32.08, 27.67 17.9, 41.17 1.85 M0.85 48.99 C17.17 29.39, 33.92 9.79, 43.45 -0.3 M1.38 54.26 C14.75 37.8, 31.05 19.95, 47.55 1.93 M0.33 55.3 C17.17 35.18, 33.14 16.77, 48.18 -0.31 M-1.83 61.41 C11.18 46.78, 23.51 34.16, 53.61 0.45 M0.83 61.01 C20.6 36.04, 42.77 13.11, 52.61 -0.04 M0.16 69.24 C22.01 43.95, 39.28 18.72, 58.2 2.18 M-0.83 66.79 C13.15 50.97, 27.74 36.02, 58.54 0.88 M-0.23 71.94 C13.52 55.96, 30.86 41.11, 65.57 -1.93 M-0.81 73.05 C17.05 54.8, 35.1 34.36, 64.58 -1.14 M4.61 71.87 C28.37 46.54, 48.4 21.22, 69.3 1.13 M6.63 72.97 C27.74 45.64, 51.85 19.69, 68.84 1.03 M12.24 73.98 C28.14 51.77, 44.2 32.95, 72.73 0.16 M10.58 73.75 C32.43 48.06, 54.02 24.5, 75.03 0.71 M15.08 73.25 C32.99 53.18, 50.13 33.74, 80.9 -0.36 M16.1 71.76 C34.33 49.85, 54.27 29.06, 79.18 0.15 M19.74 71.83 C44.88 47.84, 65.97 21.46, 85 1.47 M22.3 72.5 C41.91 48.91, 63.05 26.89, 85.76 -0.04 M27.49 72.79 C44.55 52.22, 62.68 28.56, 90.27 0.85 M26.48 72.16 C47.94 45.53, 70.6 20.93, 90.33 -0.14 M30.17 72 C51.84 48.62, 71.73 24.46, 96.49 0.02 M32.78 72.23 C54.16 44.79, 77.89 18.77, 95.71 0.15 M37.95 72.63 C54.59 51.71, 73.51 34.67, 101.87 0.17 M37.73 73.81 C52.39 56.84, 66.68 40.61, 100.65 0.38 M42.62 73.28 C63.45 49.38, 84.36 26.6, 107.54 -0.87 M42.1 72.49 C68.07 44.22, 92.72 14.5, 105.96 -1.08 M46.73 73.96 C68.78 46.52, 90.92 21.89, 107.46 1.57 M47.94 74.16 C66.06 51.14, 86.21 28.72, 109.22 1.82 M53.42 72.74 C70.14 54.79, 89.7 33.11, 111.51 9.68 M52.98 72.4 C76.47 47.39, 98.2 21.44, 109.53 7.36 M56.35 71.49 C69.93 60.21, 83.74 42.38, 109.38 14.57 M58.36 74.04 C71.29 58.04, 84.14 42.38, 110.14 14.16 M62.12 71.74 C79.68 54.77, 97.71 34.2, 111.11 19.02 M63.76 73.74 C78.93 56.78, 92.74 39.69, 110.71 19.8 M68.23 72.47 C80.53 58.33, 94.32 45.18, 110.31 25.62 M69.05 73.64 C83.94 56.48, 99.68 38.52, 109.25 25.65 M73.48 73.92 C88.95 57.96, 102.17 41.61, 107.95 31.27 M75.46 71.87 C85.64 60.16, 98.43 45.8, 109.63 33.21 M79.98 71.42 C86.16 62.32, 94.91 54.65, 111.59 39.26 M79.21 72.24 C86.5 64.15, 94.31 55.12, 109.5 38.95 M83.49 71.19 C92.73 64.25, 102.98 53.09, 108.57 45.36 M84.7 72.76 C90.76 66.7, 96.79 59.31, 109.25 44.18 M91.44 72.15 C99.1 64.26, 105.85 56.81, 111.81 50.32 M90.15 73.27 C95.6 65.36, 102.18 58.78, 110.49 50.33 M97.34 73.74 C100.92 66.71, 103.42 63.37, 109.75 57.75 M96.76 72 C99.58 68.64, 103.64 65.31, 109.71 56.65 M102.03 73.5 C102.97 68.46, 107.39 66.24, 108.53 62.85 M100.52 73.16 C102.71 70.82, 104.91 69.3, 108.97 63.36 M106.7 72.51 C107.27 71, 108.12 70.07, 110.08 69.02 M106.48 72.44 C107.39 71.56, 108.99 69.72, 109.77 68.65" stroke="#ced4da" stroke-width="0.5" fill="none"></path><path d="M1.71 -0.9 C27.73 0.05, 55.63 -0.54, 106.1 0.88 M0.01 -0.27 C39.89 -1.56, 80.81 -0.13, 106.92 0.7 M108.14 0.22 C108.18 25.94, 105.28 46.65, 107.91 73.2 M106.76 -0.44 C108.06 13.93, 106.71 29.11, 107.15 73.55 M108.34 71.98 C84.13 73.41, 55.79 74.88, 0.63 73.09 M108.26 73.01 C80.6 73.61, 51.93 72.85, 0.23 72.64 M1.7 73.75 C-0.02 49.82, -2 26.73, -1.45 -1.26 M0.85 71.79 C-0.77 54, 0.37 33.02, 0.26 0.32" stroke="#000000" stroke-width="1" fill="none"></path></g><g transform="translate(352.42709704838717 770.0428595065669) rotate(0 49 25.5)"><text x="49" y="17.5" font-family="Virgil, Segoe UI Emoji" font-size="20px" fill="#000000" text-anchor="middle" style="white-space: pre;" direction="ltr">Metamask</text><text x="49" y="43" font-family="Virgil, Segoe UI Emoji" font-size="20px" fill="#000000" text-anchor="middle" style="white-space: pre;" direction="ltr">ethersjs</text></g><g stroke-linecap="round"><g transform="translate(322.76044055424654 786.3762335300044) rotate(0 -31.74559638150035 0.590312614515426)"><path d="M-0.54 -0.18 C-11.21 -0.16, -53.32 0.96, -63.95 1.09 M1.38 -1.31 C-9.45 -0.6, -53.77 2.02, -64.87 2.49" stroke="#000000" stroke-width="1" fill="none"></path></g><g transform="translate(322.76044055424654 786.3762335300044) rotate(0 -31.74559638150035 0.590312614515426)"><path d="M-37.54 -9.13 C-45.94 -6.3, -55.15 -1.36, -63.29 1.85 M-38.05 -9.79 C-48.65 -3.83, -59.36 0.61, -64.54 2.29" stroke="#000000" stroke-width="1" fill="none"></path></g><g transform="translate(322.76044055424654 786.3762335300044) rotate(0 -31.74559638150035 0.590312614515426)"><path d="M-36.47 11.36 C-45.37 7.97, -54.9 6.69, -63.29 1.85 M-36.98 10.71 C-48 8.61, -59.13 5, -64.54 2.29" stroke="#000000" stroke-width="1" fill="none"></path></g></g><g stroke-linecap="round" transform="translate(146.0937535425278 737.0429205417231) rotate(0 48 55)"><path d="M0 0 C0 0, 0 0, 0 0 M0 0 C0 0, 0 0, 0 0 M0.42 6.47 C0.42 4.36, 1.48 2.97, 5.38 0.96 M-0.63 6.24 C0.92 4.82, 2.28 3.94, 5.26 0.13 M1.68 11.14 C3.99 8.37, 6.53 4.17, 12.23 0.5 M0.55 12.32 C2.51 9.35, 6.14 6.17, 10.26 -0.6 M1.36 16.92 C2.67 13.47, 6.93 10.21, 16.55 1.14 M-0.67 19.02 C3.77 13.73, 9.91 7.33, 15.19 -0.66 M0.55 23.27 C6.8 17.06, 14.25 5.24, 20.94 1.84 M0.48 24.7 C6.61 17.04, 13.19 9.09, 21.4 -0.35 M1.87 30.51 C11.98 18.1, 21.45 7.34, 26.32 -0.2 M-0.54 30.41 C10.94 18.82, 20.1 7.12, 26.57 0.12 M0.99 37.02 C7.62 27.19, 18.15 17.57, 33.61 -0.2 M-0.49 35.91 C10.16 26.47, 20.33 14.42, 31.35 -0.14 M-1.15 44.44 C8.95 32.02, 17.6 22.65, 38.68 1.64 M0.44 42.88 C14.16 27.65, 26.19 12.48, 37.67 1.1 M-0.51 49.12 C17.21 29.1, 33.85 13.81, 43.42 1.2 M0.21 49.15 C17.11 30.13, 33.6 9.79, 42.55 0.06 M0.47 56.03 C16.35 35.33, 35.64 16.93, 46.31 1.72 M0.13 54.27 C14.66 38.54, 28.25 20.4, 48.45 0.89 M-0.56 61.99 C10.98 48.66, 22.58 37.46, 53.45 -1.07 M-0.79 61.47 C20.92 37.31, 40.75 15.01, 53.15 0.54 M0.53 65.56 C17.15 45.42, 38.55 22.56, 57.17 0.29 M-0.67 67.32 C14.82 51.94, 29.1 34.57, 58.01 0.72 M0.19 74.51 C20.39 54.58, 34.64 31.5, 63.04 -1.87 M0.89 73.82 C12.94 58.99, 25.26 43.59, 63.9 0.75 M-0.94 79.26 C15.29 60.37, 34.4 41.97, 68.5 0.85 M-0.58 79.65 C25.97 49.66, 53.47 18.79, 69.51 -0.5 M-1.65 84.79 C26.47 51.21, 55.62 21.85, 73.84 -1.88 M-0.24 84.76 C21.28 61.85, 42.22 36.96, 75.18 0.28 M0.41 91.86 C18.64 71.57, 36.24 48.89, 80.84 0.08 M-0.57 91.3 C22.87 67.34, 43.45 43.57, 79.26 0.75 M1.16 96.92 C19.94 76.2, 39.06 55.36, 83.77 -1.52 M-1.23 98.27 C33.85 60.59, 66.9 21.66, 85.95 -0.16 M1.89 101.55 C29.07 70.81, 58.74 38.39, 91.99 1.91 M-0.36 102.68 C23.19 79.49, 43.99 54.31, 89.66 -0.36 M-0.87 107.92 C19.06 88.47, 40.3 66.2, 97.01 0.98 M-1.05 109.7 C36.33 69.21, 72.9 27.58, 94.81 0.3 M1.68 113.7 C38.12 75.72, 69.75 34.76, 97.07 1.75 M2.57 113.31 C37.48 71.04, 73.62 30.44, 98.26 2.24 M7.93 113.26 C35.45 83.11, 61.05 52.82, 98.18 8.67 M8.34 112.23 C30.2 87.1, 51.72 62.71, 99.07 8.73 M12.9 110.9 C35.59 86.16, 55.75 63.37, 99.89 15.49 M13.98 112.85 C40.83 80.55, 68.2 48.5, 98.12 13.55 M20.06 113.97 C42.95 86.83, 69.36 58.78, 99.28 19.74 M18.63 113.05 C40.39 87.18, 61.31 62.09, 98.79 21.22 M25.79 113.06 C38.28 95.11, 55.58 76.76, 98.62 26.9 M24.11 112.19 C45.71 86.68, 69.36 60.09, 98.5 25.85 M29.92 113.25 C43.39 97.62, 57.82 79.76, 97.98 31.6 M29.24 112.96 C47.51 90.53, 67.72 67.18, 98.01 32.06 M34.78 111.22 C53.9 94.24, 68.13 75.72, 99.56 37.53 M35.69 112.3 C55.27 89.22, 73.74 67.22, 97.6 39.63 M39.81 114.52 C52.3 94.25, 67.01 79.62, 99.6 42.9 M40.33 113.36 C63.09 86.83, 86.93 59.89, 99.73 44.66 M44.57 110.68 C64.51 95.03, 81.01 72.37, 98.21 51.88 M45.05 112.31 C59.21 96.11, 74.84 80.35, 98.66 51.74 M51.33 114.44 C60.33 99.93, 72.3 87.67, 97.75 56.51 M51.15 112.33 C62.75 98.73, 74.18 85.76, 99.61 57.59 M56.13 112.92 C73.19 96.13, 87.18 76.3, 97.42 63.94 M55.14 112.46 C67.93 98.59, 81.28 83.06, 99.11 62.97 M59.34 112.84 C74.18 96.39, 89.87 79.17, 99.66 70.29 M61.09 113.56 C76.89 95.69, 90.68 78.91, 98.21 70.32 M64.73 113.66 C78.89 96.66, 91.32 81.53, 99.97 76.16 M66.51 113.15 C75.53 102.19, 83.29 93.48, 98.1 75.95 M70 110.81 C80.65 103.36, 91.18 92.32, 98.8 80.03 M72.63 113.39 C79.41 103.41, 87.83 92.55, 98.71 81.18 M77.9 112.85 C85.94 103.32, 92.41 97.11, 97.91 86.21 M76.32 111.91 C81.56 107.21, 86.11 101.31, 98.93 86.99 M82.74 112.65 C86.2 107.34, 89.47 102.56, 96.97 94.02 M82.36 111.8 C87.47 105.76, 93.84 99.18, 97.91 92.93 M89.17 112.54 C92.08 110.27, 95.54 106.04, 98.03 101.42 M87.46 112.39 C90.5 108.62, 94.66 104.29, 99.14 99.85 M92.63 112.26 C94.41 110.31, 95.73 110.43, 97.96 104.99 M92.5 112.96 C94.76 110.84, 95.91 108.75, 98.41 106.19" stroke="#ced4da" stroke-width="0.5" fill="none"></path><path d="M0.09 -0.41 C36.48 -1.09, 74.85 1.72, 95.35 1.86 M-0.57 -0.55 C29.77 0.35, 58.52 1.09, 95.8 0.47 M97.77 -1.91 C94.44 37.99, 96.65 72.87, 95.44 111.72 M95.26 -0.42 C95.29 26.55, 96.4 52.79, 95.61 110.31 M96.41 108.48 C64.25 111.49, 29.16 110.01, -0.08 110.78 M96.52 109.82 C58.09 111.07, 20.63 111.11, 0.38 109.98 M0.91 108.28 C0.98 66.17, -1.85 24.57, 0.1 -1.08 M0.69 110.41 C0.03 67.86, 1.28 25.11, 0.91 0.76" stroke="#000000" stroke-width="1" fill="none"></path></g><g transform="translate(151.0937535425278 767.0429205417231) rotate(0 43 25)"><text x="43" y="17" font-family="Virgil, Segoe UI Emoji" font-size="20px" fill="#000000" text-anchor="middle" style="white-space: pre;" direction="ltr">Infura</text><text x="43" y="42" font-family="Virgil, Segoe UI Emoji" font-size="20px" fill="#000000" text-anchor="middle" style="white-space: pre;" direction="ltr">node</text></g><g stroke-linecap="round" transform="translate(17.66193646819852 672.2822843488339) rotate(0 63 86.5)"><path d="M0 0 C0 0, 0 0, 0 0 M0 0 C0 0, 0 0, 0 0 M-0.78 5.72 C0.82 3.65, 3.59 2.95, 4.35 -0.13 M-0.28 6.18 C1.9 4.45, 3.9 1.78, 5.22 0.67 M0.33 12.62 C1.4 10.03, 6.43 7.1, 10.3 -1.12 M-0.51 12.64 C2.39 10.2, 4.23 6.23, 9.85 0.43 M-0.41 17 C3.97 13.57, 7.52 11.49, 15.58 0.98 M-0.87 19.12 C5.29 12.72, 8.79 6.73, 16.37 0.52 M-1.02 25.99 C3.69 17.37, 10.25 14.2, 21.29 0.71 M0.37 24.47 C8.34 14.73, 15.91 5.78, 22.1 -0.08 M1.9 29.77 C9.6 20.72, 17 10.2, 27.92 0.39 M0.88 30.3 C6.93 22.39, 14.09 14.69, 26.1 0.64 M-1.43 37.76 C9.37 27.53, 20.6 14.49, 31.89 -2.07 M0.15 37.58 C10.56 25.67, 18.86 14.64, 31.3 -0.53 M-0.09 42.18 C10.64 30.38, 23.54 19.02, 37.99 -0.25 M1 42.94 C13.58 26.86, 28.29 11.61, 37.67 1.05 M1.41 47.56 C13.17 37.95, 23.31 24.4, 44.48 0 M0.18 49.85 C14.45 31.78, 29.54 14.73, 43.07 -0.29 M-0.52 54.61 C15.71 39.31, 26.58 24.01, 47.63 1.69 M0.6 55.23 C14.71 36.74, 31.08 21.11, 46.59 0.45 M0.08 61.42 C17.35 43.62, 33.57 21.72, 54.8 -0.08 M0.63 60.42 C13.99 45.86, 27.2 30.68, 53.36 0.77 M-0.94 67.42 C23.65 41.12, 42.86 16.97, 56.98 -0.95 M0.3 67.76 C13.72 51.72, 25.89 38.02, 57.95 -0.34 M2.08 74.79 C13.46 54.52, 29.5 36.21, 61.88 -0.11 M-0.07 73.8 C15.84 53.12, 34.07 33.92, 63.19 -0.58 M-1.63 79.93 C26.17 51.95, 49.93 22.64, 70.46 0.89 M-0.24 79.47 C14.94 63.01, 28.63 46.77, 69.5 0.66 M-0.79 83.36 C26.71 56.93, 50.96 25.48, 74.03 1.32 M1.12 85.66 C22.37 61.12, 42.88 38.14, 73.74 0.1 M0.44 92.94 C23.98 63.05, 50.53 34.57, 78.77 -1.51 M0.79 91.22 C17.88 72.21, 35.01 52.38, 78.57 -0.43 M0.89 97.79 C29.32 65.82, 54.82 31.37, 86.84 -1.14 M0.18 98.55 C23.74 71.28, 47.21 45.14, 85.26 -0.15 M0.22 103.72 C22.7 79.4, 46.59 53.98, 88.89 -0.66 M0.96 103.78 C19.05 83.06, 37.5 60.98, 89.09 -0.37 M-1.23 110.69 C23.88 85.39, 48.12 58.63, 97.17 -1.64 M-0.31 109.92 C23.98 83.76, 45.28 58.64, 96.14 -0.62 M1.96 116.74 C29.28 80.95, 55.71 49.54, 102.07 1.16 M-0.03 115.51 C37.56 72.88, 73.36 30.53, 100.63 0.26 M0.84 123.16 C31.27 87.08, 63.34 48.51, 105.18 -1.1 M-0.15 121.58 C30.81 86.36, 64.26 48.82, 105.84 0.03 M0.53 126.46 C27.02 97.73, 56.36 66.9, 111.86 1.9 M-0.04 128.22 C26.67 95.83, 54.37 62.8, 111.35 -0.03 M0.02 135.76 C29.82 101.97, 57.72 65.71, 115.64 -0.47 M0.15 133.77 C45.27 80.43, 91.88 28.75, 115.31 -0.47 M-1.94 140.29 C31.34 101.85, 63.1 66.07, 122.08 1.69 M-0.87 141.04 C35.28 100.46, 70.44 58.52, 121.02 -0.54 M-0.49 147.26 C30.29 109.67, 62.02 72.03, 126.58 2.24 M-0.34 146.86 C45.43 93.76, 90.33 40.53, 126.56 0 M1.96 153.12 C25.68 124.43, 53.95 90.75, 126.93 7.71 M0.85 152.06 C32.61 113.39, 67.08 73.35, 126.11 7.32 M-1.88 157.42 C44.48 105.24, 92.97 49.38, 128.19 11.36 M-0.58 159.1 C31.42 121.1, 63.88 84.23, 126.6 12.29 M1.62 166.31 C28.53 133.46, 54.22 104.27, 126.11 17.03 M-0.75 164.22 C33.07 128.23, 64.43 91.83, 125.93 18.01 M-1.07 169.95 C34.73 128.42, 67.92 88.98, 125.54 25.25 M0.05 170.63 C29.69 135.98, 62.45 99.59, 127.15 24.71 M3 176.93 C48.15 120.81, 93.72 67.76, 126.87 31.19 M0.86 175.61 C33.08 139.72, 63.87 104.86, 127.67 31.35 M6.54 174.73 C53.57 122.71, 98.13 73.3, 128.55 35.84 M8.03 174.69 C46.78 128.09, 86.54 82.63, 127.59 37.57 M11.89 173.71 C41.1 139.97, 71 110.19, 125.51 43.97 M12.91 174.39 C49.78 131.48, 85.98 89.19, 126.89 43.32 M17.33 175.95 C46.56 145.61, 73.3 111.57, 127.04 47.52 M16.93 174.73 C38.27 146.83, 61.88 121.37, 127.06 49.04 M24.34 174.24 C59.84 133.91, 94.43 89.51, 124.57 55.1 M22.65 175.01 C59.99 133.11, 95.98 92.11, 125.72 54.8 M28.64 173.24 C49.8 147.58, 70.01 124.74, 128.14 59.89 M27.61 174.6 C65.8 132.15, 103.26 87.51, 126.8 60.96 M34.82 176.74 C59.42 146.99, 81.94 119, 126.91 68.81 M32.66 174.97 C54.58 150.88, 75.36 127.88, 125.92 67.07 M39.35 172.72 C57.9 155.72, 74.05 130.98, 125.59 74.52 M39.82 174.5 C65.53 143.58, 90.38 115.67, 126.52 74.54 M45.13 176.66 C70.46 142.81, 98.9 111.13, 128.31 80.79 M44.6 174.44 C60.67 155.19, 78.4 135.28, 126.54 79.78 M48.62 172.67 C67.62 150.57, 88.64 128.78, 128.39 85.97 M49.89 173.78 C78.51 140.74, 107.37 107.56, 126 86.39 M54.32 176.68 C77.96 143.79, 102.9 115.37, 126.84 92.93 M54.26 175.21 C72.31 152.94, 91.12 132.08, 126.23 92.74 M61.89 173.64 C86.72 145.69, 109.91 115.9, 126.85 96.24 M59.8 173.94 C87.57 145.4, 113.71 115.19, 126.16 97.99 M64.72 176.69 C82.95 154.29, 96.62 135.31, 128.22 104.11 M64.51 175.71 C80.49 157.07, 97.21 137.39, 125.58 103.65 M72.91 176.36 C91.82 150.8, 112.07 127.72, 125.2 109.82 M70.1 173.6 C87.64 154.75, 105.91 133.74, 126.69 109.76 M75.95 175.78 C93.37 157, 108.17 136.06, 126.37 117.17 M76.36 174.01 C95.74 151.02, 114.5 129.44, 126.77 116.07 M81.68 175.81 C98.09 155.79, 111.75 139.55, 126.98 120.41 M80.99 173.53 C90.18 163.08, 101.86 151.65, 126.37 122.7 M86.92 174.29 C97.43 161.18, 113.31 146.06, 125.57 129.42 M85.93 174.84 C101.43 157.43, 117.24 139.9, 126.63 129 M92.49 175.18 C99.29 166.82, 106.08 155.68, 128.34 133.68 M93.24 173.64 C99.58 166.84, 107.69 158.7, 125.46 134.24 M97.8 175.77 C104.77 166.27, 113.21 157.35, 125.01 139.64 M97.42 174.55 C103.93 167.01, 110.49 159.72, 126.23 140.78 M103.91 175.85 C108.37 164.89, 117.9 158.35, 126.67 146.26 M103.25 173.99 C110.2 165.74, 118.13 158.18, 127.29 146.19 M108.07 172.96 C114.96 168, 123.24 157.88, 128.17 150.83 M108.16 174.13 C113.23 169.47, 116.64 164.11, 127.27 152.93 M114.15 176.22 C115.51 172.21, 119.32 165.81, 126.69 160.26 M113.38 174.52 C117.93 169.44, 120.76 164.5, 127.33 158.25 M118.49 174.15 C120.62 172.51, 124.44 167.74, 127.45 165.18 M117.97 174.38 C120.91 171.74, 123.97 169.4, 126.4 165.72 M123.05 174.87 C124.97 174.26, 125.55 172.46, 126.36 170.95 M123.53 174.98 C124.07 174.25, 125.09 173.63, 126.8 171.39" stroke="#868e96" stroke-width="0.5" fill="none"></path><path d="M-0.51 -1.24 C36.84 1.84, 71.27 2.12, 126.02 -0.54 M0.86 -0.41 C28.48 1.02, 55.34 1.16, 126.4 0.11 M124.32 0.58 C128.06 58.52, 126.97 122.68, 124.86 172.12 M125.77 -0.18 C125.6 67.31, 124.33 136.26, 126.5 172.66 M127.88 173.63 C77.28 171.18, 27.61 172.82, 1.85 173.69 M125.76 173.23 C77.17 173.04, 28.79 172.75, 0.85 173.54 M1.57 171.55 C-2.04 118.22, -0.69 63.71, 1.71 -1.75 M-0.93 173.26 C-0.88 133.71, -0.28 95.34, 0.06 0.69" stroke="#000000" stroke-width="1" fill="none"></path></g><g transform="translate(22.66193646819852 733.7822843488339) rotate(0 58 25)"><text x="58" y="17" font-family="Virgil, Segoe UI Emoji" font-size="20px" fill="#000000" text-anchor="middle" style="white-space: pre;" direction="ltr">EVM</text><text x="58" y="42" font-family="Virgil, Segoe UI Emoji" font-size="20px" fill="#000000" text-anchor="middle" style="white-space: pre;" direction="ltr">Blockchain</text></g><g stroke-linecap="round"><g transform="translate(256.7604100366684 811.0429205417231) rotate(0 33.10360682792958 -0.26470952220262234)"><path d="M-0.74 0.53 C10.46 0.4, 55.64 -0.86, 66.95 -1.06 M1.07 -0.24 C12.22 -0.17, 55.52 0.13, 66.5 0.28" stroke="#000000" stroke-width="1" fill="none"></path></g><g transform="translate(256.7604100366684 811.0429205417231) rotate(0 33.10360682792958 -0.26470952220262234)"><path d="M39.08 11.84 C45.49 9.5, 54.06 4.32, 64.91 -0.85 M38.91 10.59 C44.84 8.4, 52.38 5.6, 66.99 1.16" stroke="#000000" stroke-width="1" fill="none"></path></g><g transform="translate(256.7604100366684 811.0429205417231) rotate(0 33.10360682792958 -0.26470952220262234)"><path d="M39.29 -8.68 C45.58 -5.29, 54.1 -4.74, 64.91 -0.85 M39.11 -9.93 C45.17 -7.1, 52.66 -4.87, 66.99 1.16" stroke="#000000" stroke-width="1" fill="none"></path></g></g><g stroke-linecap="round" transform="translate(227.52787689245065 621.0183249234638) rotate(0 78.33334350585938 46.3333740234375)"><path d="M94.43 0.87 C106.27 1.66, 119.54 6.57, 128.88 11.25 C138.22 15.92, 145.76 22.55, 150.5 28.93 C155.24 35.3, 158.17 42.39, 157.33 49.49 C156.49 56.59, 152.24 65.28, 145.46 71.54 C138.68 77.8, 127.23 83.53, 116.64 87.05 C106.05 90.58, 93.77 92.57, 81.91 92.71 C70.06 92.85, 56.62 91.14, 45.5 87.91 C34.37 84.68, 22.48 79, 15.16 73.34 C7.85 67.67, 3.6 60.75, 1.6 53.9 C-0.4 47.06, -0.64 39.09, 3.15 32.27 C6.95 25.45, 15.49 18.11, 24.36 12.98 C33.23 7.85, 43.6 3.38, 56.38 1.49 C69.17 -0.4, 92.28 0.97, 101.05 1.64 C109.83 2.3, 109.26 4.77, 109.02 5.48 M46.75 5.25 C56.77 1.88, 69.53 -0.85, 81.68 -0.85 C93.83 -0.85, 109.18 1.41, 119.68 5.25 C130.17 9.09, 138.66 15.72, 144.67 22.21 C150.67 28.69, 154.7 36.78, 155.71 44.13 C156.72 51.47, 155.69 59.7, 150.73 66.28 C145.77 72.85, 135.43 79.51, 125.94 83.6 C116.46 87.69, 105.35 89.8, 93.81 90.82 C82.26 91.85, 68.42 91.61, 56.66 89.76 C44.91 87.9, 32.27 84.53, 23.26 79.71 C14.26 74.9, 6.06 67.73, 2.64 60.88 C-0.78 54.02, 0.48 45.93, 2.75 38.59 C5.01 31.25, 9.25 22.44, 16.25 16.83 C23.25 11.21, 39.59 7.08, 44.75 4.9 C49.9 2.73, 46.25 3.18, 47.19 3.77" stroke="none" stroke-width="0" fill="#ced4da"></path><path d="M65.44 -0.19 C76.38 -2.06, 90.82 -0.51, 102.52 1.82 C114.22 4.15, 127.03 8.48, 135.65 13.8 C144.27 19.12, 151.06 26.7, 154.26 33.74 C157.47 40.77, 157.36 49.04, 154.89 56.03 C152.42 63.03, 147 70.09, 139.45 75.72 C131.9 81.35, 120.97 87.17, 109.59 89.83 C98.2 92.49, 83.26 92.35, 71.13 91.68 C59 91, 47.07 89.52, 36.8 85.78 C26.54 82.04, 15.52 75.6, 9.54 69.25 C3.56 62.9, 1.33 54.63, 0.93 47.66 C0.52 40.69, 2.17 33.89, 7.1 27.43 C12.03 20.97, 18.38 13.5, 30.49 8.9 C42.59 4.3, 69.01 1.11, 79.71 -0.17 C90.41 -1.46, 94.74 0.33, 94.69 1.19 M98.15 0.32 C109.93 1.21, 123.27 7.54, 132.28 12.43 C141.28 17.33, 148.23 22.94, 152.17 29.7 C156.12 36.45, 157.34 45.65, 155.94 52.96 C154.53 60.27, 150.5 67.66, 143.74 73.56 C136.97 79.45, 126.42 85.23, 115.35 88.36 C104.27 91.48, 89.57 92.52, 77.27 92.31 C64.98 92.1, 52.16 90.34, 41.58 87.1 C31.01 83.86, 20.68 78.57, 13.83 72.85 C6.97 67.12, 1.73 59.93, 0.45 52.73 C-0.82 45.54, 1.65 36.77, 6.18 29.66 C10.72 22.55, 18.43 14.97, 27.66 10.05 C36.88 5.13, 49.99 1.66, 61.53 0.15 C73.07 -1.37, 90.9 0.72, 96.9 0.96 C102.9 1.19, 97.48 0.94, 97.52 1.55" stroke="#000000" stroke-width="1" fill="none"></path></g><g transform="translate(265.3611898807319 643.351637911745) rotate(0 39.5 25.5)"><text x="39.5" y="17.5" font-family="Virgil, Segoe UI Emoji" font-size="20px" fill="#000000" text-anchor="middle" style="white-space: pre;" direction="ltr">Hardhat</text><text x="39.5" y="43" font-family="Virgil, Segoe UI Emoji" font-size="20px" fill="#000000" text-anchor="middle" style="white-space: pre;" direction="ltr">dev env</text></g><g transform="translate(18.09777212147469 555.8508185581657) rotate(0 68 12.5)"><text x="0" y="18" font-family="Virgil, Segoe UI Emoji" font-size="20px" fill="#1864ab" text-anchor="start" style="white-space: pre;" direction="ltr">web3 - crypto</text></g></svg>