<svg version="1.1" xmlns="http://www.w3.org/2000/svg" viewBox="0 0 1439.537932934929 1044.0765279727784" width="1439.537932934929" height="1044.0765279727784" filter="invert(93%) hue-rotate(180deg)">
  <!-- svg-source:excalidraw -->
  
  <defs>
    <style>
      @font-face {
        font-family: "Virgil";
        src: url("https://excalidraw.com/Virgil.woff2");
      }
      @font-face {
        font-family: "Cascadia";
        src: url("https://excalidraw.com/Cascadia.woff2");
      }
    </style>
  </defs>
  <g stroke-linecap="round" transform="translate(524.946442197558 688.366846034533) rotate(0 117.00003051757812 78)"><path d="M-0.27 1.61 C92.6 1.5, 186.34 1.21, 235.05 0.18 M0.12 -0.24 C79.93 0.53, 158.67 1.32, 234.01 0.8 M234.08 -0.49 C236.67 41.4, 234.17 81.5, 233.87 157.76 M234.32 -0.17 C233.79 44.32, 233.95 88.57, 234.07 155.41 M235.45 155.92 C153.52 156.13, 73.12 157.4, -1.64 156.69 M233.54 155.97 C146.87 155.13, 60.66 154.94, 0.81 155.91 M1.8 157.38 C1.45 111.36, 1.82 68.32, 0.72 1.72 M0.79 156.84 C1.07 103.42, -0.1 49.06, 0.1 0.77" stroke="#000000" stroke-width="1" fill="none"></path></g><g transform="translate(602.7798162209955 753.366846034533) rotate(0 36 12.5)"><text x="36" y="18" font-family="Virgil, Segoe UI Emoji" font-size="20px" fill="#000000" text-anchor="middle" style="white-space: pre;" direction="ltr">NextJS</text></g><g stroke-linecap="round" transform="translate(510.27975518583924 468.36681551695494) rotate(0 134.99996948242193 23.666656494140625)"><path d="M0.03 0.61 C70.58 -1.68, 139.93 -1.85, 270.6 0.56 M0.66 -0.01 C73.87 1.32, 147.32 1.33, 269.72 0.5 M271.68 0.1 C269.2 13.42, 269.89 30.79, 269.64 47.25 M269.86 0.35 C270.16 13.46, 270.22 25.09, 270.44 47.42 M270 45.79 C164.56 46.87, 57.47 47.87, 1.1 48.81 M269.54 47 C195.98 46.76, 122.86 47.17, -0.13 47.16 M1.11 46.83 C1.06 32.61, 0.29 18.39, 0.84 -0.35 M0.8 48.13 C-0.74 31.61, -0.27 17.04, -0.68 0.99" stroke="#000000" stroke-width="1" fill="none"></path></g><g stroke-linecap="round"><g transform="translate(619.9061921089217 669.0334720110955) rotate(0 -0.021490383431796545 -58.29409611143166)"><path d="M0.02 0.47 C0.28 -18.9, 1.18 -95.79, 1.39 -115.07 M-1.43 -0.33 C-1.23 -19.57, 0.49 -98.14, 0.88 -117.06" stroke="#000000" stroke-width="1" fill="none"></path></g><g transform="translate(619.9061921089217 669.0334720110955) rotate(0 -0.021490383431796545 -58.29409611143166)"><path d="M11.33 -87.25 C7.96 -95.48, 5 -104.03, 1.59 -117.6 M10.53 -88.38 C8.52 -97.49, 5.49 -106.78, 1.52 -116.99" stroke="#000000" stroke-width="1" fill="none"></path></g><g transform="translate(619.9061921089217 669.0334720110955) rotate(0 -0.021490383431796545 -58.29409611143166)"><path d="M-9.19 -87.68 C-6.72 -95.8, -3.85 -104.22, 1.59 -117.6 M-9.99 -88.81 C-5.55 -97.96, -2.12 -107.12, 1.52 -116.99" stroke="#000000" stroke-width="1" fill="none"></path></g></g><g stroke-linecap="round"><g transform="translate(648.701319991925 557.0334720110956) rotate(0 0.18506466423059464 53.16135420001109)"><path d="M0.47 0.84 C0.47 18.52, 1.05 88.59, 1.14 106.08 M-0.74 0.24 C-0.98 17.58, 0.16 87.11, 0.33 104.35" stroke="#000000" stroke-width="1" fill="none"></path></g><g transform="translate(648.701319991925 557.0334720110956) rotate(0 0.18506466423059464 53.16135420001109)"><path d="M-8.89 76.73 C-4.84 87.57, -1.11 99.16, -0.21 104.64 M-10.02 77.23 C-7.16 84.87, -4.63 92.19, 0.4 104.39" stroke="#000000" stroke-width="1" fill="none"></path></g><g transform="translate(648.701319991925 557.0334720110956) rotate(0 0.18506466423059464 53.16135420001109)"><path d="M11.63 76.46 C7.56 87.49, 3.17 99.19, -0.21 104.64 M10.5 76.96 C7.78 84.67, 4.73 92.07, 0.4 104.39" stroke="#000000" stroke-width="1" fill="none"></path></g></g><g transform="translate(541.7798162209955 482.03347201109557) rotate(0 104.5 12.5)"><text x="104.5" y="18" font-family="Virgil, Segoe UI Emoji" font-size="20px" fill="#000000" text-anchor="middle" style="white-space: pre;" direction="ltr">Load Balancer - SSL</text></g><g stroke-linecap="round" transform="translate(514.2798162209955 201.03341097593926) rotate(0 129.33334350585943 85.3333435058594)"><path d="M1 0.17 C88.35 0.12, 175.02 -0.22, 258.22 1.35 M0.01 0.76 C77 -1.42, 154.62 -1.9, 258.47 0.67 M258.54 1.76 C257.61 51.98, 257.39 104.76, 258.33 170.38 M258.74 -0.59 C259.13 57.24, 259.59 115.18, 258.62 170.67 M257.11 171.32 C207.69 171.69, 154.04 169.31, -0.05 169.72 M259.44 170.58 C191.85 169.16, 125.5 170.05, 0.56 171.11 M0.72 172.38 C-0.42 123.41, -0.7 78.43, 1.69 1.59 M0.1 171.43 C-0.05 106.89, 1.62 41.58, 0.67 0.98" stroke="#000000" stroke-width="1" fill="none"></path></g><g transform="translate(265.242903491107 327.8607214046245) rotate(0 66.5 25.5)"><text x="66.5" y="17.5" font-family="Virgil, Segoe UI Emoji" font-size="20px" fill="#1864ab" text-anchor="middle" style="white-space: pre;" direction="ltr">Dockerized</text><text x="66.5" y="43" font-family="Virgil, Segoe UI Emoji" font-size="20px" fill="#1864ab" text-anchor="middle" style="white-space: pre;" direction="ltr">Express - api</text></g><g stroke-linecap="round"><g transform="translate(628.576014780563 444.88566474492416) rotate(0 -0.606194338402986 -26.550366407203626)"><path d="M0.13 0.46 C0.02 -8.59, -0.26 -44.56, -0.38 -53.56 M-1.26 -0.34 C-1.51 -9.28, -1.1 -43.52, -1.11 -52.2" stroke="#000000" stroke-width="1" fill="none"></path></g><g transform="translate(628.576014780563 444.88566474492416) rotate(0 -0.606194338402986 -26.550366407203626)"><path d="M8.62 -26.42 C4.27 -34.9, 1.37 -41.57, -1.13 -51.64 M7.5 -26.49 C4.39 -36.86, 0.56 -45.92, -1.06 -52.61" stroke="#000000" stroke-width="1" fill="none"></path></g><g transform="translate(628.576014780563 444.88566474492416) rotate(0 -0.606194338402986 -26.550366407203626)"><path d="M-9.59 -26.53 C-8.08 -34.99, -5.12 -41.62, -1.13 -51.64 M-10.71 -26.6 C-6.66 -37.1, -3.34 -46.11, -1.06 -52.61" stroke="#000000" stroke-width="1" fill="none"></path></g></g><g stroke-linecap="round"><g transform="translate(643.4424588339149 393.4127329705318) rotate(0 -0.4859491573892569 26.96478808143962)"><path d="M0.46 0.43 C0.29 9.19, -0.18 43.85, -0.32 52.7 M-0.75 -0.4 C-1.18 8.57, -1.35 45.64, -1.43 54.33" stroke="#000000" stroke-width="1" fill="none"></path></g><g transform="translate(643.4424588339149 393.4127329705318) rotate(0 -0.4859491573892569 26.96478808143962)"><path d="M-9.52 29.04 C-6.73 37.95, -2.15 47.45, -0.88 56.19 M-9.6 29.65 C-7.31 36.83, -3.85 44.58, -1.84 53.78" stroke="#000000" stroke-width="1" fill="none"></path></g><g transform="translate(643.4424588339149 393.4127329705318) rotate(0 -0.4859491573892569 26.96478808143962)"><path d="M8.44 29.17 C4.72 38.1, 2.8 47.55, -0.88 56.19 M8.37 29.78 C5.24 36.86, 3.28 44.57, -1.84 53.78" stroke="#000000" stroke-width="1" fill="none"></path></g></g><g transform="translate(469.58865454100294 958.0765279727784) rotate(0 172 38)"><text x="172" y="18.333333333333332" font-family="Virgil, Segoe UI Emoji" font-size="20px" fill="#000000" text-anchor="middle" style="white-space: pre;" direction="ltr">Vercel - uses cloudflare as a CDN</text><text x="172" y="43.666666666666664" font-family="Virgil, Segoe UI Emoji" font-size="20px" fill="#000000" text-anchor="middle" style="white-space: pre;" direction="ltr"></text><text x="172" y="69" font-family="Virgil, Segoe UI Emoji" font-size="20px" fill="#000000" text-anchor="middle" style="white-space: pre;" direction="ltr">Frontend</text></g><g transform="translate(485.8233665088659 10) rotate(0 161.5 31.5)"><text x="161.5" y="44" font-family="Virgil, Segoe UI Emoji" font-size="49.333325195312476px" fill="#000000" text-anchor="middle" style="white-space: pre;" direction="ltr">Dragonbounty</text></g><g transform="translate(505.946442197558 523.3666934466424) rotate(0 139 12.5)"><text x="139" y="18" font-family="Virgil, Segoe UI Emoji" font-size="20px" fill="#000000" text-anchor="middle" style="white-space: pre;" direction="ltr">https://api.dragonbounty.com</text></g><g transform="translate(535.1676710444694 212.00456238080113) rotate(0 54 12.5)"><text x="54" y="18" font-family="Virgil, Segoe UI Emoji" font-size="20px" fill="#000000" text-anchor="middle" style="white-space: pre;" direction="ltr">AWS - ECS</text></g><g stroke-linecap="round" transform="translate(530.9465032327142 245.7000064349237) rotate(0 111 56.333343505859375)"><path d="M0.05 0.39 L223.11 -0.3 L221.83 112.87 L1.47 111.88" stroke="none" stroke-width="0" fill="#ced4da"></path><path d="M-0.02 0.48 C71.39 -1.59, 141.2 -2.22, 223.1 0.12 M0.04 -0.35 C66.98 -1.66, 135.66 -1.76, 221.97 -0.25 M222.7 0.02 C223.06 37.56, 220.63 75.72, 222.17 114.48 M221.01 0.04 C221.71 42.53, 222.36 87.7, 222.94 112.41 M221.27 112.5 C166.31 113.2, 112.64 111.24, -0.37 113.08 M221.78 113.31 C135.64 114.04, 49.5 114.09, -0.15 112.91 M1.59 111.93 C-1.34 70.17, 0.58 25.9, 1.98 1.98 M0.07 113.16 C-0.42 74.02, -0.45 35.84, -0.17 0.1" stroke="#000000" stroke-width="1" fill="none"></path></g><g stroke-linecap="round" transform="translate(539.6131292092767 314.36669344664244) rotate(0 50.33331298828125 18)"><path d="M0.39 1.11 L100.37 -0.17 L100.87 37.47 L-0.79 36.05" stroke="none" stroke-width="0" fill="#15aabf"></path><path d="M0.55 1.86 C27.41 1.9, 54.06 1.28, 100.8 0.08 M-0.41 -0.55 C27.65 0.83, 55.24 -0.09, 100.38 0.32 M100.69 1.25 C100.76 9.02, 101.49 20.56, 102.48 37.72 M100.71 -0.23 C99.7 11.04, 101.37 22.21, 100.41 35.46 M100.47 34.71 C72.73 35.35, 40.61 35.14, 0.48 37.8 M101.41 36.3 C63.86 36.6, 26.75 35.57, 0.28 36.79 M-0.74 35.61 C-0.08 23.69, -1.64 10.3, 1.98 0.9 M0.49 36.33 C-0.12 23.1, 0.58 9.42, 0.1 0.03" stroke="#000000" stroke-width="1" fill="none"></path></g><g transform="translate(545.1131292092767 320.0333804583612) rotate(0 44.5 12.5)"><text x="44.5" y="18" font-family="Virgil, Segoe UI Emoji" font-size="20px" fill="#000000" text-anchor="middle" style="white-space: pre;" direction="ltr">container</text></g><g transform="translate(546.2797551858392 268.7000369525018) rotate(0 40 12.5)"><text x="40" y="18" font-family="Virgil, Segoe UI Emoji" font-size="20px" fill="#000000" text-anchor="middle" style="white-space: pre;" direction="ltr">Fargate</text></g><g stroke-linecap="round"><g transform="translate(534.2798772561517 334.35914296295425) rotate(0 -62.72291086955897 5.0183387056568165)"><path d="M0.02 1.14 C-20.75 2.51, -103.66 8.1, -124.29 9.35 M-1.43 0.69 C-22.43 2.23, -104.95 6.08, -125.46 7.63" stroke="#1864ab" stroke-width="1" fill="none"></path></g><g transform="translate(534.2798772561517 334.35914296295425) rotate(0 -62.72291086955897 5.0183387056568165)"><path d="M-96.04 -4.99 C-105.57 -0.24, -115.79 3.03, -123.79 7.73 M-97.05 -4.46 C-105.17 -1.5, -111.94 1.7, -125.61 7.98" stroke="#1864ab" stroke-width="1" fill="none"></path></g><g transform="translate(534.2798772561517 334.35914296295425) rotate(0 -62.72291086955897 5.0183387056568165)"><path d="M-94.82 15.5 C-104.94 13.53, -115.56 10.09, -123.79 7.73 M-95.84 16.02 C-104.15 13.68, -111.24 11.57, -125.61 7.98" stroke="#1864ab" stroke-width="1" fill="none"></path></g></g><g stroke-linecap="round"><g transform="translate(541.3659715641893 264.1945462764684) rotate(0 -60.55468987858535 -12.14566854218036)"><path d="M1.14 -0.42 C-19.33 -4.4, -101.11 -19.9, -121.7 -23.87 M0.27 -1.69 C-20.39 -5.46, -101.67 -18.72, -122.24 -22.29" stroke="#1864ab" stroke-width="1" fill="none"></path></g><g transform="translate(541.3659715641893 264.1945462764684) rotate(0 -60.55468987858535 -12.14566854218036)"><path d="M-93.45 -26.47 C-104.21 -25.24, -116.44 -21.5, -122.14 -23.11 M-92.93 -27.78 C-100.27 -25.82, -107.38 -24.95, -121.9 -22.28" stroke="#1864ab" stroke-width="1" fill="none"></path></g><g transform="translate(541.3659715641893 264.1945462764684) rotate(0 -60.55468987858535 -12.14566854218036)"><path d="M-96.85 -6.23 C-106.27 -12.99, -117.16 -17.21, -122.14 -23.11 M-96.32 -7.54 C-102.82 -10.58, -109.1 -14.67, -121.9 -22.28" stroke="#1864ab" stroke-width="1" fill="none"></path></g></g><g transform="translate(10 200.35462861004373) rotate(0 151.5 38)"><text x="151.5" y="18.333333333333332" font-family="Virgil, Segoe UI Emoji" font-size="20px" fill="#1864ab" text-anchor="middle" style="white-space: pre;" direction="ltr">Service to automatically scale</text><text x="151.5" y="43.666666666666664" font-family="Virgil, Segoe UI Emoji" font-size="20px" fill="#1864ab" text-anchor="middle" style="white-space: pre;" direction="ltr">and only pay for what you use</text><text x="151.5" y="69" font-family="Virgil, Segoe UI Emoji" font-size="20px" fill="#1864ab" text-anchor="middle" style="white-space: pre;" direction="ltr">- lambda for containers</text></g><g transform="translate(210.1129766213861 98.0333804583612) rotate(0 113.5 12.5)"><text x="113.5" y="18" font-family="Virgil, Segoe UI Emoji" font-size="20px" fill="#1864ab" text-anchor="middle" style="white-space: pre;" direction="ltr">AWS Container solution</text></g><g stroke-linecap="round"><g transform="translate(524.5011061030632 222.96823410421695) rotate(0 -92.84123706769702 -45.321866186789336)"><path d="M0.08 0.05 C-30.63 -14.93, -153.93 -73.99, -184.66 -89.1 M-1.34 -0.98 C-32.19 -16.34, -155.15 -75.93, -185.76 -90.69" stroke="#1864ab" stroke-width="1" fill="none"></path></g><g transform="translate(524.5011061030632 222.96823410421695) rotate(0 -92.84123706769702 -45.321866186789336)"><path d="M-155.84 -88.14 C-162.16 -88.33, -172.56 -90.34, -185.89 -88.93 M-155.6 -87.82 C-164.47 -88.24, -172.73 -88.82, -185.69 -91.28" stroke="#1864ab" stroke-width="1" fill="none"></path></g><g transform="translate(524.5011061030632 222.96823410421695) rotate(0 -92.84123706769702 -45.321866186789336)"><path d="M-164.78 -69.67 C-168.85 -74.76, -176.88 -81.65, -185.89 -88.93 M-164.53 -69.35 C-170.88 -74.95, -176.62 -80.74, -185.69 -91.28" stroke="#1864ab" stroke-width="1" fill="none"></path></g></g><g stroke-linecap="round" transform="translate(805.7392736184564 458.9120017954542) rotate(0 32.540420532226506 32.540420532226506)"><path d="M0 0 C0 0, 0 0, 0 0 M0 0 C0 0, 0 0, 0 0 M0.13 12.04 C3.61 8.04, 7.09 4.04, 10.63 -0.03 M0.13 12.04 C3.42 8.25, 6.72 4.47, 10.63 -0.03 M0.27 24.08 C8.65 14.44, 17.04 4.79, 21.26 -0.07 M0.27 24.08 C8.01 15.17, 15.76 6.26, 21.26 -0.07 M-0.26 36.88 C6.61 28.97, 13.48 21.07, 31.89 -0.1 M-0.26 36.88 C6.39 29.23, 13.04 21.58, 31.89 -0.1 M-0.12 48.92 C14.74 31.82, 29.61 14.72, 42.52 -0.14 M-0.12 48.92 C16.39 29.92, 32.9 10.93, 42.52 -0.14 M0.01 60.96 C17.01 41.4, 34.02 21.84, 53.15 -0.17 M0.01 60.96 C21.03 36.77, 42.06 12.59, 53.15 -0.17 M4.08 68.47 C20.55 49.52, 37.02 30.57, 63.78 -0.21 M4.08 68.47 C22.16 47.68, 40.23 26.88, 63.78 -0.21 M14.71 68.44 C36.3 43.6, 57.89 18.76, 70.47 4.29 M14.71 68.44 C32.76 47.67, 50.81 26.9, 70.47 4.29 M25.34 68.4 C40.42 51.05, 55.5 33.7, 69.95 17.08 M25.34 68.4 C37.71 54.17, 50.08 39.94, 69.95 17.08 M35.97 68.37 C46.77 55.94, 57.58 43.51, 70.08 29.12 M35.97 68.37 C47.76 54.8, 59.55 41.24, 70.08 29.12 M46.6 68.33 C53.82 60.02, 61.05 51.71, 70.22 41.16 M46.6 68.33 C54.47 59.28, 62.34 50.22, 70.22 41.16 M57.23 68.3 C60.82 64.17, 64.42 60.03, 70.35 53.2 M57.23 68.3 C60.21 64.88, 63.18 61.45, 70.35 53.2 M0.23 65.28 C0.23 65.28, 0.23 65.28, 0.23 65.28 M0.23 65.28 C0.23 65.28, 0.23 65.28, 0.23 65.28 M12.27 65.15 C7.58 61.07, 2.9 57, 0.19 54.65 M12.27 65.15 C9.33 62.59, 6.38 60.03, 0.19 54.65 M24.31 65.01 C16.77 58.46, 9.23 51.9, 0.16 44.02 M24.31 65.01 C17.44 59.04, 10.58 53.08, 0.16 44.02 M36.35 64.88 C27.2 56.92, 18.05 48.97, 0.13 33.39 M36.35 64.88 C26.07 55.94, 15.79 47, 0.13 33.39 M49.15 65.4 C36.26 54.2, 23.37 42.99, 0.09 22.76 M49.15 65.4 C37.9 55.63, 26.66 45.86, 0.09 22.76 M61.19 65.27 C47.41 53.29, 33.63 41.32, 0.06 12.13 M61.19 65.27 C40.07 46.92, 18.96 28.56, 0.06 12.13 M68.7 61.2 C45.15 40.73, 21.61 20.26, 0.02 1.5 M68.7 61.2 C44.32 40.01, 19.94 18.81, 0.02 1.5 M68.67 50.57 C47.64 32.29, 26.61 14.01, 4.52 -5.19 M68.67 50.57 C53.42 37.32, 38.18 24.07, 4.52 -5.19 M68.63 39.94 C53.34 26.65, 38.05 13.35, 16.56 -5.33 M68.63 39.94 C53.58 26.86, 38.53 13.77, 16.56 -5.33 M68.6 29.31 C54.78 17.3, 40.96 5.28, 28.6 -5.46 M68.6 29.31 C57.37 19.55, 46.14 9.79, 28.6 -5.46 M68.56 18.68 C61.21 12.29, 53.87 5.91, 41.39 -4.94 M68.56 18.68 C59.89 11.14, 51.21 3.59, 41.39 -4.94 M68.53 8.05 C63.57 3.74, 58.62 -0.57, 53.43 -5.07 M68.53 8.05 C65.42 5.35, 62.31 2.65, 53.43 -5.07" stroke="#7950f288" stroke-width="1" fill="none"></path><path d="M0 0 C23.66 0, 47.33 0, 65.08 0 M0 0 C19.27 0, 38.53 0, 65.08 0 M65.08 0 C65.08 20.09, 65.08 40.18, 65.08 65.08 M65.08 0 C65.08 25.65, 65.08 51.31, 65.08 65.08 M65.08 65.08 C46.96 65.08, 28.83 65.08, 0 65.08 M65.08 65.08 C46.69 65.08, 28.3 65.08, 0 65.08 M0 65.08 C0 39.1, 0 13.12, 0 0 M0 65.08 C0 46.64, 0 28.21, 0 0" stroke="#000000" stroke-width="2" fill="none"></path></g><g stroke-linecap="round" transform="translate(811.723068581046 476.4860378462206) rotate(0 15.50619339104469 15.50619339104469)"><path d="M31.01 15.51 C31.01 16.4, 30.93 17.31, 30.78 18.2 C30.62 19.08, 30.38 19.97, 30.08 20.81 C29.77 21.65, 29.38 22.48, 28.93 23.26 C28.49 24.04, 27.96 24.79, 27.38 25.47 C26.81 26.16, 26.16 26.81, 25.47 27.38 C24.79 27.96, 24.04 28.49, 23.26 28.93 C22.48 29.38, 21.65 29.77, 20.81 30.08 C19.97 30.38, 19.08 30.62, 18.2 30.78 C17.31 30.93, 16.4 31.01, 15.51 31.01 C14.61 31.01, 13.7 30.93, 12.81 30.78 C11.93 30.62, 11.05 30.38, 10.2 30.08 C9.36 29.77, 8.53 29.38, 7.75 28.93 C6.98 28.49, 6.23 27.96, 5.54 27.38 C4.85 26.81, 4.2 26.16, 3.63 25.47 C3.05 24.79, 2.53 24.04, 2.08 23.26 C1.63 22.48, 1.24 21.65, 0.94 20.81 C0.63 19.97, 0.39 19.08, 0.24 18.2 C0.08 17.31, 0 16.4, 0 15.51 C0 14.61, 0.08 13.7, 0.24 12.81 C0.39 11.93, 0.63 11.05, 0.94 10.2 C1.24 9.36, 1.63 8.53, 2.08 7.75 C2.53 6.98, 3.05 6.23, 3.63 5.54 C4.2 4.85, 4.85 4.2, 5.54 3.63 C6.23 3.05, 6.98 2.53, 7.75 2.08 C8.53 1.63, 9.36 1.24, 10.2 0.94 C11.05 0.63, 11.93 0.39, 12.81 0.24 C13.7 0.08, 14.61 0, 15.51 0 C16.4 0, 17.31 0.08, 18.2 0.24 C19.08 0.39, 19.97 0.63, 20.81 0.94 C21.65 1.24, 22.48 1.63, 23.26 2.08 C24.04 2.53, 24.79 3.05, 25.47 3.63 C26.16 4.2, 26.81 4.85, 27.38 5.54 C27.96 6.23, 28.49 6.98, 28.93 7.75 C29.38 8.53, 29.77 9.36, 30.08 10.2 C30.38 11.05, 30.62 11.93, 30.78 12.81 C30.93 13.7, 30.97 15.06, 31.01 15.51 C31.05 15.95, 31.05 15.06, 31.01 15.51" stroke="#000000" stroke-width="2" fill="none"></path></g><g stroke-linecap="round" transform="translate(850.8074691856232 471.09984608402533) rotate(0 4.681114985975796 4.681114985975768)"><path d="M9.36 4.68 C9.36 4.95, 9.34 5.23, 9.29 5.49 C9.24 5.76, 9.17 6.03, 9.08 6.28 C8.99 6.54, 8.87 6.79, 8.74 7.02 C8.6 7.26, 8.44 7.48, 8.27 7.69 C8.09 7.9, 7.9 8.09, 7.69 8.27 C7.48 8.44, 7.26 8.6, 7.02 8.74 C6.79 8.87, 6.54 8.99, 6.28 9.08 C6.03 9.17, 5.76 9.24, 5.49 9.29 C5.23 9.34, 4.95 9.36, 4.68 9.36 C4.41 9.36, 4.14 9.34, 3.87 9.29 C3.6 9.24, 3.33 9.17, 3.08 9.08 C2.83 8.99, 2.58 8.87, 2.34 8.74 C2.11 8.6, 1.88 8.44, 1.67 8.27 C1.46 8.09, 1.27 7.9, 1.1 7.69 C0.92 7.48, 0.76 7.26, 0.63 7.02 C0.49 6.79, 0.37 6.54, 0.28 6.28 C0.19 6.03, 0.12 5.76, 0.07 5.49 C0.02 5.23, 0 4.95, 0 4.68 C0 4.41, 0.02 4.14, 0.07 3.87 C0.12 3.6, 0.19 3.33, 0.28 3.08 C0.37 2.83, 0.49 2.58, 0.63 2.34 C0.76 2.11, 0.92 1.88, 1.1 1.67 C1.27 1.46, 1.46 1.27, 1.67 1.1 C1.88 0.92, 2.11 0.76, 2.34 0.63 C2.58 0.49, 2.83 0.37, 3.08 0.28 C3.33 0.19, 3.6 0.12, 3.87 0.07 C4.14 0.02, 4.41 0, 4.68 0 C4.95 0, 5.23 0.02, 5.49 0.07 C5.76 0.12, 6.03 0.19, 6.28 0.28 C6.54 0.37, 6.79 0.49, 7.02 0.63 C7.26 0.76, 7.48 0.92, 7.69 1.1 C7.9 1.27, 8.09 1.46, 8.27 1.67 C8.44 1.88, 8.6 2.11, 8.74 2.34 C8.87 2.58, 8.99 2.83, 9.08 3.08 C9.17 3.33, 9.24 3.6, 9.29 3.87 C9.34 4.14, 9.35 4.55, 9.36 4.68 C9.37 4.82, 9.37 4.55, 9.36 4.68" stroke="#000000" stroke-width="2" fill="none"></path></g><g stroke-linecap="round" transform="translate(850.9274065885957 503.40244901558026) rotate(0 4.681114985975796 4.681114985975768)"><path d="M9.36 4.68 C9.36 4.95, 9.34 5.23, 9.29 5.49 C9.24 5.76, 9.17 6.03, 9.08 6.28 C8.99 6.54, 8.87 6.79, 8.74 7.02 C8.6 7.26, 8.44 7.48, 8.27 7.69 C8.09 7.9, 7.9 8.09, 7.69 8.27 C7.48 8.44, 7.26 8.6, 7.02 8.74 C6.79 8.87, 6.54 8.99, 6.28 9.08 C6.03 9.17, 5.76 9.24, 5.49 9.29 C5.23 9.34, 4.95 9.36, 4.68 9.36 C4.41 9.36, 4.14 9.34, 3.87 9.29 C3.6 9.24, 3.33 9.17, 3.08 9.08 C2.83 8.99, 2.58 8.87, 2.34 8.74 C2.11 8.6, 1.88 8.44, 1.67 8.27 C1.46 8.09, 1.27 7.9, 1.1 7.69 C0.92 7.48, 0.76 7.26, 0.63 7.02 C0.49 6.79, 0.37 6.54, 0.28 6.28 C0.19 6.03, 0.12 5.76, 0.07 5.49 C0.02 5.23, 0 4.95, 0 4.68 C0 4.41, 0.02 4.14, 0.07 3.87 C0.12 3.6, 0.19 3.33, 0.28 3.08 C0.37 2.83, 0.49 2.58, 0.63 2.34 C0.76 2.11, 0.92 1.88, 1.1 1.67 C1.27 1.46, 1.46 1.27, 1.67 1.1 C1.88 0.92, 2.11 0.76, 2.34 0.63 C2.58 0.49, 2.83 0.37, 3.08 0.28 C3.33 0.19, 3.6 0.12, 3.87 0.07 C4.14 0.02, 4.41 0, 4.68 0 C4.95 0, 5.23 0.02, 5.49 0.07 C5.76 0.12, 6.03 0.19, 6.28 0.28 C6.54 0.37, 6.79 0.49, 7.02 0.63 C7.26 0.76, 7.48 0.92, 7.69 1.1 C7.9 1.27, 8.09 1.46, 8.27 1.67 C8.44 1.88, 8.6 2.11, 8.74 2.34 C8.87 2.58, 8.99 2.83, 9.08 3.08 C9.17 3.33, 9.24 3.6, 9.29 3.87 C9.34 4.14, 9.35 4.55, 9.36 4.68 C9.37 4.82, 9.37 4.55, 9.36 4.68" stroke="#000000" stroke-width="2" fill="none"></path></g><g stroke-linecap="round" transform="translate(855.6085215745688 485.8482678181724) rotate(0 4.681114985975796 4.681114985975768)"><path d="M9.36 4.68 C9.36 4.95, 9.34 5.23, 9.29 5.49 C9.24 5.76, 9.17 6.03, 9.08 6.28 C8.99 6.54, 8.87 6.79, 8.74 7.02 C8.6 7.26, 8.44 7.48, 8.27 7.69 C8.09 7.9, 7.9 8.09, 7.69 8.27 C7.48 8.44, 7.26 8.6, 7.02 8.74 C6.79 8.87, 6.54 8.99, 6.28 9.08 C6.03 9.17, 5.76 9.24, 5.49 9.29 C5.23 9.34, 4.95 9.36, 4.68 9.36 C4.41 9.36, 4.14 9.34, 3.87 9.29 C3.6 9.24, 3.33 9.17, 3.08 9.08 C2.83 8.99, 2.58 8.87, 2.34 8.74 C2.11 8.6, 1.88 8.44, 1.67 8.27 C1.46 8.09, 1.27 7.9, 1.1 7.69 C0.92 7.48, 0.76 7.26, 0.63 7.02 C0.49 6.79, 0.37 6.54, 0.28 6.28 C0.19 6.03, 0.12 5.76, 0.07 5.49 C0.02 5.23, 0 4.95, 0 4.68 C0 4.41, 0.02 4.14, 0.07 3.87 C0.12 3.6, 0.19 3.33, 0.28 3.08 C0.37 2.83, 0.49 2.58, 0.63 2.34 C0.76 2.11, 0.92 1.88, 1.1 1.67 C1.27 1.46, 1.46 1.27, 1.67 1.1 C1.88 0.92, 2.11 0.76, 2.34 0.63 C2.58 0.49, 2.83 0.37, 3.08 0.28 C3.33 0.19, 3.6 0.12, 3.87 0.07 C4.14 0.02, 4.41 0, 4.68 0 C4.95 0, 5.23 0.02, 5.49 0.07 C5.76 0.12, 6.03 0.19, 6.28 0.28 C6.54 0.37, 6.79 0.49, 7.02 0.63 C7.26 0.76, 7.48 0.92, 7.69 1.1 C7.9 1.27, 8.09 1.46, 8.27 1.67 C8.44 1.88, 8.6 2.11, 8.74 2.34 C8.87 2.58, 8.99 2.83, 9.08 3.08 C9.17 3.33, 9.24 3.6, 9.29 3.87 C9.34 4.14, 9.35 4.55, 9.36 4.68 C9.37 4.82, 9.37 4.55, 9.36 4.68" stroke="#000000" stroke-width="2" fill="none"></path></g><g stroke-linecap="round"><g transform="translate(843.3205947363826 491.69966155064185) rotate(0 5.851393732469717 0)"><path d="M0 0 C1.95 0, 9.75 0, 11.7 0 M0 0 C1.95 0, 9.75 0, 11.7 0" stroke="#000000" stroke-width="2" fill="none"></path></g></g><g stroke-linecap="round"><g transform="translate(839.6898210939298 503.9875883888276) rotate(23.749494492867285 5.851393732469717 0)"><path d="M0 0 C1.95 0, 9.75 0, 11.7 0 M0 0 C1.95 0, 9.75 0, 11.7 0" stroke="#000000" stroke-width="2" fill="none"></path></g></g><g stroke-linecap="round"><g transform="translate(839.6898210939303 479.53167211542655) rotate(338.0702750671431 5.851393732469717 0)"><path d="M0 0 C1.95 0, 9.75 0, 11.7 0 M0 0 C1.95 0, 9.75 0, 11.7 0" stroke="#000000" stroke-width="2" fill="none"></path></g></g><g transform="translate(817.7796941506828 528.8215071681432) rotate(0 20.5 12.5)"><text x="0" y="18" font-family="Virgil, Segoe UI Emoji" font-size="20px" fill="#000000" text-anchor="start" style="white-space: pre;" direction="ltr">ELB</text></g><g stroke-linecap="round" transform="translate(342.5079314958922 200.1718003536514) rotate(0 32.2305761824785 32.199712367130076)"><path d="M0 0 C0 0, 0 0, 0 0 M0 0 C0 0, 0 0, 0 0 M0.13 12.04 C3.94 7.66, 7.74 3.29, 10.63 -0.03 M0.13 12.04 C2.92 8.83, 5.71 5.62, 10.63 -0.03 M0.27 24.08 C7.73 15.5, 15.19 6.91, 21.26 -0.07 M0.27 24.08 C8.6 14.5, 16.93 4.91, 21.26 -0.07 M-0.26 36.88 C8.71 26.56, 17.69 16.24, 31.89 -0.1 M-0.26 36.88 C6.96 28.57, 14.19 20.26, 31.89 -0.1 M-0.12 48.92 C12.15 34.8, 24.43 20.67, 42.52 -0.14 M-0.12 48.92 C10.4 36.81, 20.92 24.71, 42.52 -0.14 M0.01 60.96 C20.43 37.47, 40.85 13.98, 53.15 -0.17 M0.01 60.96 C17.08 41.33, 34.14 21.7, 53.15 -0.17 M4.08 68.47 C26.61 42.55, 49.14 16.64, 63.78 -0.21 M4.08 68.47 C25.37 43.98, 46.66 19.49, 63.78 -0.21 M14.71 68.44 C33.6 46.71, 52.49 24.98, 69.82 5.04 M14.71 68.44 C31.43 49.2, 48.16 29.96, 69.82 5.04 M25.34 68.4 C42.36 48.82, 59.39 29.23, 69.95 17.08 M25.34 68.4 C36.23 55.87, 47.13 43.34, 69.95 17.08 M35.97 68.37 C45.53 57.37, 55.09 46.37, 70.08 29.12 M35.97 68.37 C49.07 53.3, 62.17 38.23, 70.08 29.12 M46.6 68.33 C52.96 61.02, 59.32 53.7, 70.22 41.16 M46.6 68.33 C54.66 59.06, 62.72 49.79, 70.22 41.16 M57.23 68.3 C60.76 64.24, 64.29 60.18, 69.69 53.96 M57.23 68.3 C61.45 63.44, 65.67 58.58, 69.69 53.96 M-0.19 64.24 C-0.19 64.24, -0.19 64.24, -0.19 64.24 M-0.19 64.24 C-0.19 64.24, -0.19 64.24, -0.19 64.24 M11.85 64.1 C8.24 60.96, 4.62 57.82, -0.22 53.61 M11.85 64.1 C9.34 61.92, 6.82 59.73, -0.22 53.61 M24.65 64.63 C19.07 59.78, 13.5 54.93, -0.26 42.98 M24.65 64.63 C18.14 58.97, 11.64 53.32, -0.26 42.98 M36.69 64.49 C27.93 56.87, 19.16 49.26, -0.29 32.35 M36.69 64.49 C22.01 51.73, 7.33 38.97, -0.29 32.35 M48.73 64.36 C29.95 48.03, 11.17 31.71, -0.33 21.72 M48.73 64.36 C38.05 55.07, 27.36 45.79, -0.33 21.72 M60.77 64.23 C44.53 50.11, 28.3 36, -0.36 11.09 M60.77 64.23 C37.95 44.39, 15.13 24.55, -0.36 11.09 M68.28 60.16 C54.09 47.82, 39.89 35.47, 0.36 1.11 M68.28 60.16 C51.2 45.3, 34.11 30.45, 0.36 1.11 M68.25 49.53 C48.25 32.14, 28.24 14.75, 4.85 -5.58 M68.25 49.53 C44.81 29.15, 21.37 8.77, 4.85 -5.58 M68.21 38.9 C56.63 28.82, 45.04 18.75, 16.89 -5.72 M68.21 38.9 C54.64 27.09, 41.06 15.29, 16.89 -5.72 M68.18 28.27 C53.34 15.37, 38.51 2.47, 28.93 -5.85 M68.18 28.27 C57.07 18.61, 45.97 8.96, 28.93 -5.85 M68.15 17.64 C58.44 9.2, 48.73 0.76, 41.73 -5.33 M68.15 17.64 C60.94 11.37, 53.73 5.1, 41.73 -5.33 M68.11 7.01 C65.17 4.45, 62.22 1.89, 53.77 -5.46 M68.11 7.01 C62.75 2.35, 57.39 -2.31, 53.77 -5.46" stroke="#fd7e1488" stroke-width="1" fill="none"></path><path d="M0 0 C25 0, 49.99 0, 64.46 0 M0 0 C15.55 0, 31.1 0, 64.46 0 M64.46 0 C64.46 21.94, 64.46 43.88, 64.46 64.4 M64.46 0 C64.46 18.6, 64.46 37.2, 64.46 64.4 M64.46 64.4 C39.59 64.4, 14.73 64.4, 0 64.4 M64.46 64.4 C40.18 64.4, 15.9 64.4, 0 64.4 M0 64.4 C0 43.11, 0 21.82, 0 0 M0 64.4 C0 47.62, 0 30.84, 0 0" stroke="#000000" stroke-width="2" fill="none"></path></g><g stroke-linecap="round"><g transform="translate(389.77288146906915 215.55051763990946) rotate(0 -14.527943252572783 4.2466371838523145)" fill-rule="evenodd"><path d="M0 0 L-0.01 -5.02 L-14.76 -10.29 L-28.99 -5.08 L-29.08 12.27 L-14.61 18.78 L0.03 12.33 L0 0" stroke="none" stroke-width="0" fill="#ff00" fill-rule="evenodd"></path><path d="M0 0 C0 -1.42, -0.01 -2.83, -0.01 -5.02 M0 0 C0 -1.73, -0.01 -3.46, -0.01 -5.02 M-0.01 -5.02 C-5.47 -6.97, -10.93 -8.92, -14.76 -10.29 M-0.01 -5.02 C-4.19 -6.51, -8.36 -8, -14.76 -10.29 M-14.76 -10.29 C-19.63 -8.5, -24.5 -6.72, -28.99 -5.08 M-14.76 -10.29 C-18.07 -9.08, -21.37 -7.87, -28.99 -5.08 M-28.99 -5.08 C-29.03 1.75, -29.06 8.57, -29.08 12.27 M-28.99 -5.08 C-29.02 0.17, -29.05 5.41, -29.08 12.27 M-29.08 12.27 C-23.77 14.66, -18.45 17.05, -14.61 18.78 M-29.08 12.27 C-24.41 14.37, -19.73 16.48, -14.61 18.78 M-14.61 18.78 C-11.01 17.19, -7.41 15.6, 0.03 12.33 M-14.61 18.78 C-10.17 16.82, -5.74 14.87, 0.03 12.33 M0.03 12.33 C0.02 8.13, 0.01 3.94, 0 0 M0.03 12.33 C0.02 7.53, 0.01 2.72, 0 0 M0 0 C0 0, 0 0, 0 0 M0 0 C0 0, 0 0, 0 0" stroke="#000" stroke-width="2" fill="none"></path></g></g><g stroke-linecap="round"><g transform="translate(361.2067640958775 210.74610217965483) rotate(0 7.040937546110854 11.492780070298295)"><path d="M0 0 C4.17 1.67, 8.34 3.34, 14.08 5.64 M0 0 C4.35 1.74, 8.69 3.48, 14.08 5.64 M14.08 5.64 C14.06 12.48, 14.03 19.31, 14.02 22.99 M14.08 5.64 C14.06 10.47, 14.05 15.3, 14.02 22.99" stroke="#000000" stroke-width="2" fill="none"></path></g></g><g stroke-linecap="round"><g transform="translate(375.2449382164938 216.3128198772131) rotate(0 6.968669893097058 -2.7100382917599717)"><path d="M0 0 C3.78 -1.47, 7.56 -2.94, 13.94 -5.42 M0 0 C5.45 -2.12, 10.89 -4.24, 13.94 -5.42" stroke="#000000" stroke-width="2" fill="none"></path></g></g><g stroke-linecap="round"><g transform="translate(368.57403388893033 244.27911696330227) rotate(0 -6.263092272848468 1.8307533330339965)" fill-rule="evenodd"><path d="M0 0 L-0.01 -2.17 L-6.36 -4.43 L-12.5 -2.19 L-12.54 5.29 L-6.3 8.1 L0.01 5.31 L0 0" stroke="none" stroke-width="0" fill="#ff00" fill-rule="evenodd"></path><path d="M0 0 C0 -0.72, 0 -1.44, -0.01 -2.17 M0 0 C0 -0.84, 0 -1.67, -0.01 -2.17 M-0.01 -2.17 C-1.57 -2.72, -3.13 -3.28, -6.36 -4.43 M-0.01 -2.17 C-2.49 -3.05, -4.97 -3.94, -6.36 -4.43 M-6.36 -4.43 C-8.69 -3.58, -11.01 -2.73, -12.5 -2.19 M-6.36 -4.43 C-8.48 -3.66, -10.6 -2.88, -12.5 -2.19 M-12.5 -2.19 C-12.51 0.08, -12.52 2.34, -12.54 5.29 M-12.5 -2.19 C-12.51 -0.39, -12.52 1.4, -12.54 5.29 M-12.54 5.29 C-10.08 6.4, -7.61 7.51, -6.3 8.1 M-12.54 5.29 C-10.57 6.17, -8.61 7.06, -6.3 8.1 M-6.3 8.1 C-4.41 7.26, -2.52 6.43, 0.01 5.31 M-6.3 8.1 C-4.71 7.4, -3.13 6.7, 0.01 5.31 M0.01 5.31 C0.01 3.79, 0.01 2.27, 0 0 M0.01 5.31 C0.01 3.92, 0.01 2.52, 0 0 M0 0 C0 0, 0 0, 0 0 M0 0 C0 0, 0 0, 0 0" stroke="#000" stroke-width="2" fill="none"></path></g></g><g stroke-linecap="round"><g transform="translate(356.2589920502579 242.20790173197088) rotate(0 3.035394671633668 4.954613381979257)"><path d="M0 0 C1.72 0.69, 3.44 1.38, 6.07 2.43 M0 0 C1.79 0.72, 3.59 1.44, 6.07 2.43 M6.07 2.43 C6.06 4.65, 6.05 6.87, 6.04 9.91 M6.07 2.43 C6.06 5.19, 6.05 7.95, 6.04 9.91" stroke="#000000" stroke-width="2" fill="none"></path></g></g><g stroke-linecap="round"><g transform="translate(362.310941616082 244.60775049174345) rotate(0 3.0042396091930357 -1.1683154035750647)"><path d="M0 0 C1.72 -0.67, 3.43 -1.33, 6.01 -2.34 M0 0 C1.8 -0.7, 3.6 -1.4, 6.01 -2.34" stroke="#000000" stroke-width="2" fill="none"></path></g></g><g stroke-linecap="round"><g transform="translate(381.7111744456744 251.29853685707826) rotate(0 -6.263092272848468 1.8307533330339965)" fill-rule="evenodd"><path d="M0 0 L-0.01 -2.17 L-6.36 -4.43 L-12.5 -2.19 L-12.54 5.29 L-6.3 8.1 L0.01 5.31 L0 0" stroke="none" stroke-width="0" fill="#ff00" fill-rule="evenodd"></path><path d="M0 0 C0 -0.73, 0 -1.45, -0.01 -2.17 M0 0 C0 -0.44, 0 -0.87, -0.01 -2.17 M-0.01 -2.17 C-1.64 -2.75, -3.28 -3.34, -6.36 -4.43 M-0.01 -2.17 C-1.75 -2.79, -3.5 -3.41, -6.36 -4.43 M-6.36 -4.43 C-8.69 -3.58, -11.02 -2.73, -12.5 -2.19 M-6.36 -4.43 C-8.25 -3.75, -10.13 -3.06, -12.5 -2.19 M-12.5 -2.19 C-12.51 -0.06, -12.52 2.07, -12.54 5.29 M-12.5 -2.19 C-12.51 0.61, -12.53 3.4, -12.54 5.29 M-12.54 5.29 C-10.53 6.2, -8.51 7.1, -6.3 8.1 M-12.54 5.29 C-10.64 6.15, -8.74 7, -6.3 8.1 M-6.3 8.1 C-3.81 7, -1.32 5.9, 0.01 5.31 M-6.3 8.1 C-4.76 7.42, -3.23 6.74, 0.01 5.31 M0.01 5.31 C0.01 4, 0.01 2.69, 0 0 M0.01 5.31 C0.01 3.69, 0 2.07, 0 0 M0 0 C0 0, 0 0, 0 0 M0 0 C0 0, 0 0, 0 0" stroke="#000" stroke-width="2" fill="none"></path></g></g><g stroke-linecap="round"><g transform="translate(369.39613260700014 249.22732162574266) rotate(0 3.035394671633668 4.954613381979257)"><path d="M0 0 C1.83 0.73, 3.66 1.46, 6.07 2.43 M0 0 C1.85 0.74, 3.7 1.48, 6.07 2.43 M6.07 2.43 C6.06 4.6, 6.06 6.77, 6.04 9.91 M6.07 2.43 C6.06 5.23, 6.05 8.03, 6.04 9.91" stroke="#000000" stroke-width="2" fill="none"></path></g></g><g stroke-linecap="round"><g transform="translate(375.4480821728283 251.62717038551705) rotate(0 3.0042396091930357 -1.1683154035750647)"><path d="M0 0 C2.18 -0.85, 4.36 -1.69, 6.01 -2.34 M0 0 C1.66 -0.65, 3.32 -1.29, 6.01 -2.34" stroke="#000000" stroke-width="2" fill="none"></path></g></g><g stroke-linecap="round"><g transform="translate(394.35057427113395 243.44526865096327) rotate(0 -6.263092272848468 1.8307533330339965)" fill-rule="evenodd"><path d="M0 0 L-0.01 -2.17 L-6.36 -4.43 L-12.5 -2.19 L-12.54 5.29 L-6.3 8.1 L0.01 5.31 L0 0" stroke="none" stroke-width="0" fill="#ff00" fill-rule="evenodd"></path><path d="M0 0 C0 -0.67, 0 -1.33, -0.01 -2.17 M0 0 C0 -0.44, 0 -0.88, -0.01 -2.17 M-0.01 -2.17 C-2.52 -3.06, -5.04 -3.96, -6.36 -4.43 M-0.01 -2.17 C-2.14 -2.93, -4.28 -3.69, -6.36 -4.43 M-6.36 -4.43 C-8.27 -3.74, -10.17 -3.04, -12.5 -2.19 M-6.36 -4.43 C-8.34 -3.71, -10.33 -2.98, -12.5 -2.19 M-12.5 -2.19 C-12.51 0.6, -12.53 3.4, -12.54 5.29 M-12.5 -2.19 C-12.51 -0.17, -12.52 1.86, -12.54 5.29 M-12.54 5.29 C-10.35 6.28, -8.15 7.26, -6.3 8.1 M-12.54 5.29 C-10.35 6.28, -8.15 7.26, -6.3 8.1 M-6.3 8.1 C-4.97 7.51, -3.65 6.93, 0.01 5.31 M-6.3 8.1 C-4.43 7.27, -2.56 6.45, 0.01 5.31 M0.01 5.31 C0.01 3.32, 0 1.32, 0 0 M0.01 5.31 C0.01 3.28, 0 1.25, 0 0 M0 0 C0 0, 0 0, 0 0 M0 0 C0 0, 0 0, 0 0" stroke="#000" stroke-width="2" fill="none"></path></g></g><g stroke-linecap="round"><g transform="translate(382.03553243245653 241.37405341963017) rotate(0 3.035394671633668 4.954613381979257)"><path d="M0 0 C1.46 0.59, 2.93 1.17, 6.07 2.43 M0 0 C2.07 0.83, 4.14 1.66, 6.07 2.43 M6.07 2.43 C6.06 4.59, 6.06 6.75, 6.04 9.91 M6.07 2.43 C6.06 5.32, 6.05 8.2, 6.04 9.91" stroke="#000000" stroke-width="2" fill="none"></path></g></g><g stroke-linecap="round"><g transform="translate(388.087481998287 243.7739021794) rotate(0 3.0042396091930357 -1.1683154035750647)"><path d="M0 0 C2.07 -0.8, 4.13 -1.61, 6.01 -2.34 M0 0 C2.22 -0.87, 4.45 -1.73, 6.01 -2.34" stroke="#000000" stroke-width="2" fill="none"></path></g></g><g stroke-linecap="round"><g transform="translate(357.6107152948074 237.30602306434957) rotate(178.33979303936556 17.366631671222592 -8.19403422875601)"><path d="M0 0 C-0.62 -0.36, -2.66 -1.12, -3.74 -2.14 C-4.83 -3.16, -6.37 -4.65, -6.52 -6.13 C-6.66 -7.6, -5.97 -9.61, -4.61 -10.98 C-3.25 -12.36, -0.8 -13.5, 1.63 -14.37 C4.06 -15.24, 7.05 -15.79, 9.95 -16.2 C12.86 -16.6, 15.99 -16.86, 19.06 -16.78 C22.13 -16.7, 25.63 -16.28, 28.39 -15.71 C31.14 -15.15, 33.66 -14.36, 35.59 -13.41 C37.52 -12.46, 39.02 -11.32, 39.96 -10.04 C40.89 -8.76, 41.49 -7.11, 41.19 -5.74 C40.9 -4.38, 39.47 -2.89, 38.2 -1.86 C36.93 -0.84, 34.36 0.03, 33.59 0.41 M0 0 C-0.62 -0.36, -2.66 -1.12, -3.74 -2.14 C-4.83 -3.16, -6.37 -4.65, -6.52 -6.13 C-6.66 -7.6, -5.97 -9.61, -4.61 -10.98 C-3.25 -12.36, -0.8 -13.5, 1.63 -14.37 C4.06 -15.24, 7.05 -15.79, 9.95 -16.2 C12.86 -16.6, 15.99 -16.86, 19.06 -16.78 C22.13 -16.7, 25.63 -16.28, 28.39 -15.71 C31.14 -15.15, 33.66 -14.36, 35.59 -13.41 C37.52 -12.46, 39.02 -11.32, 39.96 -10.04 C40.89 -8.76, 41.49 -7.11, 41.19 -5.74 C40.9 -4.38, 39.47 -2.89, 38.2 -1.86 C36.93 -0.84, 34.36 0.03, 33.59 0.41" stroke="#000000" stroke-width="2" fill="none"></path></g></g><g transform="translate(334.73850767837064 268.6070318345933) rotate(0 40 12.5)"><text x="0" y="18" font-family="Virgil, Segoe UI Emoji" font-size="20px" fill="#000000" text-anchor="start" style="white-space: pre;" direction="ltr">Fargate</text></g><g stroke-linecap="round"><g transform="translate(878.5217299316755 179.46644195733901) rotate(0 43.98541226444314 48.11470810658943)" fill-rule="evenodd"><path d="M1.98 1.98 L0.66 96.92 L3.23 98.49 L21.31 104.33 L47.44 105.39 L74.32 102.67 L80.9 101.04 L88.17 98.28 L87.76 -1.47 L87.69 1.13 L84.58 -2.73 L78.91 -4.98 L41.51 -7.58 L11.34 -4.45 L4.08 -3.97 L-0.59 0.67" stroke="none" stroke-width="0" fill="#228be6" fill-rule="evenodd"></path><path d="M0 -1.18 C-0.12 13.12, 0.54 69.52, 0.34 85.77 C0.15 102.02, -1.99 93.76, -1.15 96.34 C-0.31 98.91, 1.86 100.1, 5.39 101.21 C8.91 102.33, 13.08 102.54, 20 103.02 C26.93 103.49, 38.28 104.1, 46.94 104.07 C55.6 104.05, 65.57 103.58, 71.95 102.88 C78.33 102.19, 82.58 101.22, 85.22 99.89 C87.86 98.57, 87.32 97, 87.77 94.94 C88.21 92.89, 87.7 102.03, 87.91 87.55 C88.12 73.07, 89 22.75, 89.04 8.05 C89.08 -6.65, 89.21 1.4, 88.15 -0.64 C87.09 -2.69, 85.68 -3.32, 82.71 -4.21 C79.74 -5.1, 76.9 -5.14, 70.32 -5.99 C63.74 -6.83, 51.39 -9.13, 43.21 -9.29 C35.04 -9.44, 27.66 -7.99, 21.25 -6.9 C14.85 -5.81, 8.18 -3.8, 4.79 -2.73 C1.4 -1.66, 1.74 -0.97, 0.91 -0.49 C0.07 -0.02, -0.23 0.18, -0.23 0.12 M-1.46 0.81 C-1.82 15.3, -1.01 71.59, -0.58 87.16 C-0.14 102.73, 0.02 92.24, 1.13 94.25 C2.24 96.27, 2.59 97.78, 6.08 99.25 C9.56 100.72, 14.99 101.89, 22.03 103.07 C29.07 104.24, 39.95 106.59, 48.33 106.32 C56.71 106.06, 65.81 102.5, 72.33 101.47 C78.85 100.45, 84.55 101.5, 87.45 100.16 C90.34 98.82, 89.5 95.61, 89.68 93.45 C89.87 91.3, 89.11 101.85, 88.54 87.25 C87.97 72.64, 86.51 20.56, 86.27 5.81 C86.03 -8.93, 87.56 0.55, 87.09 -1.23 C86.61 -3, 86.28 -4.11, 83.41 -4.84 C80.53 -5.58, 76.44 -4.79, 69.84 -5.64 C63.24 -6.49, 51.71 -9.42, 43.81 -9.95 C35.91 -10.48, 29.09 -9.61, 22.46 -8.81 C15.84 -8.01, 7.79 -6.55, 4.07 -5.14 C0.34 -3.73, 1.09 -1.29, 0.12 -0.36 C-0.85 0.57, -1.43 0.28, -1.74 0.44" stroke="#0a11d3" stroke-width="1" fill="none"></path></g></g><g stroke-linecap="round"><g transform="translate(879.2090915211729 244.7565699881266) rotate(0 44.13942482246222 4.592258525593053)"><path d="M-1.18 0.05 C-0.83 0.51, -0.29 1.41, 2.05 2.74 C4.38 4.07, 8.72 7.01, 12.85 8.03 C16.98 9.04, 21.32 8.64, 26.84 8.85 C32.36 9.07, 38.73 9.52, 45.98 9.31 C53.23 9.09, 63.8 8.68, 70.33 7.58 C76.86 6.48, 81.98 4.08, 85.17 2.72 C88.36 1.36, 88.97 -0.01, 89.46 -0.58 M0.4 -0.97 C0.57 -0.41, -1.04 2.49, 0.95 3.67 C2.94 4.85, 8.49 5.1, 12.34 6.12 C16.18 7.15, 18.11 9.2, 24.02 9.79 C29.94 10.38, 39.93 10.26, 47.83 9.68 C55.72 9.09, 65.05 7.11, 71.37 6.27 C77.69 5.43, 82.81 5.84, 85.75 4.62 C88.7 3.41, 88.34 0.15, 89.04 -1" stroke="#0a11d3" stroke-width="1" fill="none"></path></g></g><g stroke-linecap="round"><g transform="translate(878.1153500091114 211.68241542605477) rotate(0 43.3975330254263 3.9571591954529453)"><path d="M0.05 -0.28 C0.25 0.65, -1.03 2.96, 1.16 4.39 C3.35 5.83, 9.16 7.63, 13.2 8.31 C17.24 9, 19.83 8.46, 25.4 8.52 C30.96 8.57, 39.06 8.73, 46.59 8.64 C54.11 8.55, 64.21 8.63, 70.53 7.97 C76.85 7.3, 81.58 6.08, 84.52 4.64 C87.46 3.2, 87.58 0.15, 88.17 -0.65 M-1.38 -1.47 C-0.83 -0.8, 0.89 1.19, 3.26 2.53 C5.64 3.87, 9.18 5.44, 12.88 6.56 C16.58 7.69, 20.11 8.93, 25.48 9.28 C30.85 9.63, 37.39 9.06, 45.09 8.66 C52.79 8.26, 65.06 7.66, 71.67 6.87 C78.28 6.07, 82.19 5.23, 84.75 3.9 C87.32 2.57, 86.22 -0.22, 87.08 -1.1" stroke="#0a11d3" stroke-width="1" fill="none"></path></g></g><g stroke-linecap="round" transform="translate(876.9945273229496 171.4417457302424) rotate(0 43.825373054270926 8.863351988406833)"><path d="M43.73 0.75 C52.52 0.7, 65.19 1.79, 72.44 2.88 C79.69 3.96, 85.76 5.48, 87.22 7.28 C88.69 9.09, 85.93 12.15, 81.23 13.72 C76.53 15.29, 67.96 15.97, 59.01 16.7 C50.06 17.43, 36.32 18.84, 27.53 18.1 C18.74 17.37, 10.71 14.08, 6.29 12.28 C1.86 10.49, -0.6 8.96, 0.98 7.34 C2.56 5.71, 7.64 3.69, 15.76 2.52 C23.88 1.35, 43.14 0.49, 49.68 0.31 C56.21 0.13, 55.04 1.41, 54.96 1.44 M60.15 1.51 C68.7 2.12, 79.6 2.4, 84.01 4.11 C88.42 5.82, 88.99 9.59, 86.63 11.75 C84.27 13.91, 77.37 15.84, 69.83 17.07 C62.3 18.29, 50.57 19.32, 41.4 19.12 C32.22 18.92, 21.89 17.5, 14.81 15.87 C7.73 14.24, 0.17 11.08, -1.07 9.34 C-2.32 7.6, 2.1 7.07, 7.36 5.45 C12.62 3.83, 21.48 0.56, 30.5 -0.37 C39.51 -1.3, 56.5 -0.15, 61.44 -0.13 C66.38 -0.11, 60.57 -0.53, 60.16 -0.26" stroke="none" stroke-width="0" fill="#fff"></path><path d="M52.42 -0.36 C61.15 -0.36, 72.37 1.21, 78.16 2.78 C83.96 4.34, 87.58 6.87, 87.21 9.02 C86.84 11.18, 82.11 14.31, 75.93 15.72 C69.74 17.12, 59.29 17.31, 50.07 17.46 C40.85 17.62, 28.43 17.5, 20.61 16.65 C12.79 15.79, 5.96 14.23, 3.13 12.34 C0.3 10.46, 0.21 7.17, 3.65 5.34 C7.09 3.51, 15.26 2.07, 23.76 1.36 C32.26 0.66, 49.26 1.28, 54.65 1.11 C60.03 0.94, 56.25 0.21, 56.06 0.34 M61.24 0.49 C69.43 1.12, 79.43 4.15, 83.44 6.16 C87.45 8.16, 87.38 10.76, 85.3 12.53 C83.21 14.29, 78.23 15.62, 70.95 16.73 C63.67 17.84, 51.21 19.3, 41.62 19.17 C32.02 19.04, 20.19 17.47, 13.37 15.96 C6.56 14.45, 1.61 11.88, 0.72 10.1 C-0.17 8.32, 2.88 6.88, 8.04 5.28 C13.19 3.68, 22.68 1.19, 31.64 0.49 C40.61 -0.21, 56.73 1.04, 61.83 1.07 C66.93 1.11, 62.59 0.6, 62.26 0.72" stroke="#0a11d3" stroke-width="1" fill="none"></path></g><g stroke-linecap="round" transform="translate(948.5042596235303 196.01754860737594) rotate(0 6.423028523489961 6.970952181208048)"><path d="M9.84 0.69 C11.1 1.32, 12.51 2.83, 12.96 4.12 C13.4 5.41, 12.91 6.89, 12.5 8.42 C12.09 9.95, 11.67 12.54, 10.49 13.32 C9.3 14.1, 6.66 13.21, 5.39 13.09 C4.12 12.97, 3.91 13.48, 2.87 12.61 C1.82 11.74, -0.62 9.51, -0.89 7.86 C-1.16 6.22, 0.23 4, 1.24 2.74 C2.26 1.48, 3.76 0.52, 5.22 0.29 C6.68 0.05, 8.99 1.09, 10 1.34 C11.02 1.58, 11.48 1.58, 11.31 1.76 M7.35 0.94 C8.64 1.12, 8.82 1.11, 9.86 1.94 C10.9 2.77, 13.06 4.42, 13.58 5.91 C14.1 7.41, 13.59 9.43, 12.98 10.91 C12.36 12.38, 11.27 14.57, 9.89 14.77 C8.5 14.97, 6.27 12.85, 4.67 12.11 C3.07 11.38, 0.78 11.6, 0.27 10.36 C-0.24 9.12, 1.38 6.12, 1.62 4.66 C1.85 3.2, 1 2.52, 1.68 1.61 C2.36 0.69, 5.09 -0.5, 5.71 -0.85 C6.33 -1.2, 5.28 -0.89, 5.41 -0.49" stroke="none" stroke-width="0" fill="#fff"></path><path d="M8.09 0.39 C9.09 0.77, 10.64 1.88, 11.4 3.08 C12.16 4.27, 12.63 6.03, 12.65 7.55 C12.66 9.07, 12.57 11.18, 11.5 12.21 C10.43 13.24, 7.74 13.56, 6.24 13.73 C4.74 13.89, 3.43 14.04, 2.52 13.2 C1.61 12.37, 1.11 10.22, 0.79 8.72 C0.47 7.22, -0.01 5.54, 0.62 4.21 C1.24 2.89, 2.95 1.29, 4.54 0.77 C6.13 0.26, 9.29 1.03, 10.14 1.15 C11 1.27, 9.72 1.34, 9.66 1.51 M8.62 0.7 C9.85 1.09, 12.36 1.22, 13.29 2.77 C14.21 4.32, 14.56 8.21, 14.17 10 C13.79 11.8, 12.08 12.86, 10.98 13.53 C9.88 14.2, 8.94 14.19, 7.57 14.04 C6.21 13.88, 4 13.54, 2.8 12.58 C1.6 11.63, 0.46 9.91, 0.39 8.3 C0.33 6.69, 1.71 4.27, 2.43 2.94 C3.14 1.62, 3.55 0.61, 4.68 0.35 C5.81 0.09, 8.55 1.34, 9.21 1.38 C9.87 1.41, 8.7 0.4, 8.64 0.55" stroke="#0a11d3" stroke-width="1" fill="none"></path></g><g stroke-linecap="round" transform="translate(948.5042596235303 226.62000246643635) rotate(0 6.423028523489961 6.970952181208048)"><path d="M8 0.93 C9.41 1.03, 10.99 1.56, 11.75 2.69 C12.5 3.83, 12.54 6.32, 12.54 7.75 C12.54 9.17, 12.78 10.07, 11.75 11.25 C10.71 12.44, 7.67 14.75, 6.3 14.85 C4.93 14.95, 4.5 12.82, 3.53 11.85 C2.56 10.89, 1.03 10.24, 0.48 9.05 C-0.06 7.86, -0.26 6.04, 0.26 4.69 C0.78 3.34, 2.04 1.45, 3.6 0.96 C5.17 0.46, 8.47 1.68, 9.64 1.74 C10.81 1.8, 10.59 1.35, 10.63 1.3 M5.81 -0.6 C7.29 -1.03, 8.37 0.55, 9.45 1.52 C10.53 2.49, 11.71 3.75, 12.29 5.21 C12.86 6.68, 13.08 8.96, 12.91 10.31 C12.73 11.66, 12.62 12.83, 11.21 13.34 C9.79 13.85, 5.96 13.4, 4.4 13.39 C2.84 13.38, 2.73 14.41, 1.85 13.3 C0.96 12.19, -0.84 8.61, -0.93 6.72 C-1.02 4.84, 0.48 3.28, 1.31 2 C2.13 0.72, 3.53 -0.67, 4.02 -0.96 C4.52 -1.24, 3.97 -0.13, 4.28 0.28" stroke="none" stroke-width="0" fill="#fff"></path><path d="M9.3 0.17 C10.48 0.81, 11.48 2.51, 11.91 4.15 C12.35 5.78, 12.27 8.55, 11.92 9.97 C11.57 11.38, 10.89 11.95, 9.81 12.65 C8.73 13.34, 6.62 14.17, 5.43 14.13 C4.23 14.09, 3.44 13.59, 2.63 12.42 C1.82 11.25, 0.66 8.64, 0.56 7.09 C0.46 5.53, 1.24 4.09, 2.03 3.08 C2.83 2.07, 3.83 1.29, 5.34 1.04 C6.84 0.78, 9.99 1.08, 11.08 1.56 C12.17 2.03, 11.9 3.65, 11.9 3.9 M9.06 1.69 C10.22 2.46, 10.27 4.02, 11.12 5.27 C11.97 6.52, 14.14 7.74, 14.17 9.19 C14.2 10.64, 12.64 13.07, 11.31 13.99 C9.99 14.9, 7.67 14.93, 6.22 14.68 C4.76 14.42, 3.51 13.34, 2.56 12.43 C1.61 11.53, 0.81 10.76, 0.51 9.25 C0.21 7.73, 0.1 4.79, 0.77 3.35 C1.45 1.91, 3.07 1.11, 4.56 0.61 C6.06 0.1, 9.04 0.28, 9.74 0.32 C10.44 0.35, 8.73 0.78, 8.74 0.82" stroke="#0a11d3" stroke-width="1" fill="none"></path></g><g stroke-linecap="round" transform="translate(948.5042596235303 259.8808036409329) rotate(0 6.423028523489961 6.970952181208048)"><path d="M5.26 0.46 C6.34 -0.1, 7.57 -0.42, 8.77 0.25 C9.97 0.91, 11.9 3.22, 12.47 4.46 C13.03 5.7, 12.36 6.23, 12.16 7.68 C11.96 9.14, 12.42 12.11, 11.25 13.19 C10.09 14.27, 6.7 14.39, 5.19 14.16 C3.67 13.93, 2.94 12.85, 2.17 11.8 C1.4 10.76, 0.72 9.26, 0.57 7.88 C0.41 6.5, 0.16 4.79, 1.25 3.51 C2.35 2.22, 6.11 0.55, 7.12 0.16 C8.13 -0.24, 7.45 1.1, 7.29 1.11 M3.1 0.76 C4.28 -0.03, 7.48 -0.16, 9.11 0.3 C10.74 0.75, 12.03 2.03, 12.88 3.48 C13.73 4.93, 14.46 7.81, 14.21 9.01 C13.96 10.22, 12.72 9.89, 11.39 10.72 C10.06 11.55, 7.47 13.83, 6.25 13.98 C5.03 14.13, 5.19 12.49, 4.05 11.6 C2.92 10.71, 0.14 10.06, -0.56 8.62 C-1.27 7.18, -0.72 4.41, -0.17 2.96 C0.38 1.51, 2.07 0.17, 2.75 -0.07 C3.43 -0.31, 3.56 1.13, 3.9 1.52" stroke="none" stroke-width="0" fill="#fff"></path><path d="M5 -0.36 C6.36 -0.74, 8.36 -0.41, 9.78 0.45 C11.2 1.3, 13.11 3.27, 13.51 4.76 C13.91 6.26, 12.83 7.88, 12.19 9.43 C11.54 10.97, 10.7 13.24, 9.63 14.06 C8.55 14.87, 7.15 14.68, 5.72 14.33 C4.3 13.98, 1.98 13.17, 1.07 11.95 C0.17 10.74, 0.06 8.57, 0.31 7.02 C0.55 5.48, 1.37 3.79, 2.55 2.68 C3.73 1.58, 6.12 0.54, 7.39 0.39 C8.66 0.24, 10.03 1.58, 10.17 1.78 M6.39 -0.9 C7.96 -1.02, 9.95 1.31, 11.07 2.38 C12.19 3.45, 12.63 4.36, 13.11 5.52 C13.59 6.69, 14.39 8.07, 13.95 9.39 C13.5 10.72, 11.8 12.65, 10.43 13.47 C9.06 14.29, 6.96 14.68, 5.72 14.31 C4.47 13.94, 3.87 12.46, 2.95 11.26 C2.02 10.05, 0.35 8.39, 0.16 7.08 C-0.04 5.77, 0.95 4.56, 1.76 3.38 C2.57 2.19, 4.41 0.33, 5.02 -0.01 C5.63 -0.34, 5.46 1.22, 5.42 1.36" stroke="#0a11d3" stroke-width="1" fill="none"></path></g><g stroke-linecap="round"><g transform="translate(218.68781358959438 341.2210253449391) rotate(0 -30.779735558363797 15.697225758631674)" fill-rule="evenodd"><path d="M-75.88 8.24 C-75.88 8.24, -75.88 8.24, -75.88 8.24 M-75.88 8.24 C-75.88 8.24, -75.88 8.24, -75.88 8.24 M-77.18 14.75 C-75.09 14.35, -74.6 12.42, -71.11 9.35 M-76.47 15.55 C-75.22 12.97, -72.89 11.26, -71.8 9.16 M-76.17 18.94 C-72.28 17.13, -68.86 14.09, -66.9 8.78 M-75.53 19.55 C-71.29 16.52, -67.94 11.5, -66.14 8.71 M-73.98 25.16 C-68.75 19.97, -65.95 15.25, -59.46 8.81 M-72.75 23.25 C-68.16 16.98, -62.63 12.24, -59.63 8.44 M-73 26.12 C-65.39 20.68, -60.49 16.6, -55.89 10.41 M-70.62 26.08 C-67.57 22.17, -64.59 18.65, -54.87 8.65 M-69.73 30.15 C-65.53 27.77, -59.44 23.06, -50.25 10.07 M-69.21 31.38 C-62.02 23.35, -54.55 14.93, -49.57 9.26 M-67.93 32.62 C-60.03 28.1, -53.73 19.18, -43.51 8.62 M-65.95 34.51 C-58.68 25.43, -50.37 16.69, -44.44 8.26 M-64.58 35.22 C-57.38 31.32, -50.89 24.12, -38.93 10.33 M-64.4 38.05 C-57.19 28.24, -48.33 19.65, -38.42 9.48 M-62.12 38.02 C-51.41 28.96, -38.94 15.06, -33.51 8.12 M-60.83 38.67 C-54.24 30.89, -46.15 23.9, -33.36 9.53 M-57.86 39.05 C-46.9 28.88, -36.18 18.36, -28.92 6.75 M-56.77 40.31 C-45.94 30.12, -35.73 17.61, -29.15 7.65 M-11.31 -11.16 C-11.31 -11.16, -11.31 -11.16, -11.31 -11.16 M-11.31 -11.16 C-11.31 -11.16, -11.31 -11.16, -11.31 -11.16 M-51.56 42.18 C-44.06 31.16, -34.88 20.13, -21.38 9.36 M-52.12 40.96 C-43.51 31.54, -34.95 20.78, -22.6 8.6 M-12.62 -3.65 C-10.07 -6.05, -8.58 -8.73, -6.91 -10.6 M-12.43 -3.7 C-10.85 -5.35, -9.57 -6.3, -6.59 -9.9 M-45.37 42.61 C-39.34 34.04, -32.8 24.46, -18.86 8.9 M-47.61 43.21 C-36.37 29.93, -26.47 19.18, -18.2 8.27 M-11.96 1.57 C-9.39 -2.61, -5.4 -5.02, -2.52 -8.76 M-12.17 1.89 C-9.5 -0.98, -7.15 -3.44, -3.24 -8.41 M-42.41 44.44 C-35.64 34.01, -26.68 26.25, -11.64 6.66 M-44.5 44.26 C-36.91 37.13, -28.83 27.58, -11.27 8.6 M-9.82 6.18 C-7.76 3.93, -6.22 -0.2, -0.07 -5.88 M-9.05 5.03 C-5.91 1.06, -4 -2.26, -0.7 -4.54 M-38.89 44.96 C-29.41 34.63, -22.27 27.34, -0.14 1.91 M-38.82 43.44 C-28.13 32.56, -15.6 19.89, -0.44 -0.08 M-33.27 42.73 C-19.62 27.44, -7.3 15.82, 6.39 -0.11 M-32.54 43.93 C-17.71 27.91, -5.64 13.29, 5.19 -0.9 M-28.34 45.32 C-20 34.99, -11.66 24.28, 2.64 12.67 M-26.58 43.87 C-16.74 32.6, -5.57 19.78, 0.88 10.74 M-0.04 9.92 C4.6 6.15, 8.92 3.14, 10.96 -0.04 M1.46 10.7 C3.7 7.79, 6.53 5.18, 11.04 -0.21 M-14.58 35.97 C-10.36 33.22, -8.09 27.66, -4.09 23.46 M-15.53 35.11 C-10.84 31.31, -8.05 26.8, -5.32 24.27 M8.11 9.3 C10.99 7.56, 11.83 4.49, 14.64 1.2 M7.6 9.06 C9.74 6.62, 12.94 4.15, 14.72 1.99" stroke="#228be6" stroke-width="0.5" fill="none"></path><path d="M1.13 -0.31 C0.62 -1.35, -1.27 -3.7, -2.58 -5.38 C-3.89 -7.07, -5.2 -9.26, -6.72 -10.41 C-8.23 -11.57, -10.64 -13.13, -11.66 -12.31 C-12.67 -11.49, -12.67 -7.62, -12.82 -5.5 C-12.96 -3.38, -13.22 -1.61, -12.54 0.41 C-11.86 2.43, -8.6 5.32, -8.73 6.65 C-8.86 7.97, -10.48 7.97, -13.31 8.35 C-16.13 8.72, -21.78 8.91, -25.68 8.9 C-29.58 8.9, -30.15 8.41, -36.71 8.33 C-43.26 8.25, -58.41 8.36, -64.99 8.42 C-71.57 8.48, -74.37 7.49, -76.2 8.71 C-78.02 9.93, -76.54 12.84, -75.93 15.76 C-75.32 18.67, -74.21 22.96, -72.53 26.21 C-70.86 29.46, -68.58 32.7, -65.89 35.28 C-63.21 37.85, -59.68 40.22, -56.42 41.66 C-53.16 43.1, -50.95 43.9, -46.34 43.93 C-41.73 43.96, -34.01 43.05, -28.75 41.84 C-23.49 40.63, -18.47 38.94, -14.78 36.68 C-11.09 34.43, -8.84 31.46, -6.6 28.31 C-4.35 25.16, -2.59 20.46, -1.32 17.76 C-0.05 15.07, -0.18 13.4, 1.03 12.14 C2.25 10.88, 4.06 10.97, 6 10.23 C7.93 9.49, 10.92 8.99, 12.66 7.72 C14.4 6.45, 16.74 4.04, 16.43 2.59 C16.13 1.14, 12.71 -0.21, 10.85 -0.99 C8.99 -1.78, 7.08 -2.47, 5.27 -2.13 C3.47 -1.79, 0.81 0.79, 0.03 1.03 M0.26 -1.52 C0.11 -2.43, 0.53 -2.56, -0.21 -3.87 C-0.95 -5.17, -2.32 -8.07, -4.19 -9.36 C-6.07 -10.65, -9.89 -12.31, -11.47 -11.61 C-13.05 -10.92, -13.72 -6.98, -13.68 -5.18 C-13.64 -3.37, -12.19 -2.61, -11.24 -0.77 C-10.28 1.08, -7.49 4.35, -7.94 5.87 C-8.38 7.39, -11.24 8, -13.9 8.35 C-16.55 8.71, -20.21 8.03, -23.85 7.99 C-27.49 7.95, -28.42 7.83, -35.75 8.11 C-43.07 8.39, -60.79 9.61, -67.79 9.67 C-74.78 9.73, -76.48 7.5, -77.72 8.46 C-78.96 9.43, -76.03 12.45, -75.2 15.46 C-74.37 18.47, -74.3 23.33, -72.74 26.52 C-71.17 29.71, -68.7 32.39, -65.8 34.6 C-62.9 36.8, -58.9 38.56, -55.32 39.73 C-51.75 40.91, -48.68 41.19, -44.36 41.65 C-40.04 42.11, -34.18 43.78, -29.42 42.49 C-24.65 41.2, -19.64 36.5, -15.75 33.89 C-11.86 31.28, -8.32 29.7, -6.07 26.84 C-3.81 23.98, -3.46 19.3, -2.2 16.72 C-0.93 14.14, 0.17 12.59, 1.51 11.38 C2.86 10.16, 3.74 10.16, 5.87 9.43 C8 8.69, 12.83 8.06, 14.31 6.95 C15.8 5.85, 15.17 4.12, 14.78 2.78 C14.38 1.45, 13.82 -0.14, 11.95 -1.08 C10.08 -2.01, 5.29 -2.99, 3.54 -2.82 C1.78 -2.65, 1.87 -0.6, 1.44 -0.05" stroke="#000000" stroke-width="1" fill="none"></path></g></g><g stroke-linecap="round" transform="translate(149.7014983379994 339.1530264895366) rotate(0 4.389813198750801 4.181105756654887)"><path d="M0 0 C0 0, 0 0, 0 0 M0 0 C0 0, 0 0, 0 0 M-0.37 6.83 C1.33 3.96, 2.76 2.35, 5.59 1.14 M-0.41 6.06 C1.45 4.08, 3.76 2.01, 5.32 0.28 M2.25 10.93 C4.48 5.86, 8.93 2.36, 9.89 -0.18 M2.02 9.99 C5.14 6.99, 6.61 3.53, 10.13 0.65 M7.39 9.88 C8.16 9.42, 8.83 7.91, 9.66 6.9 M7.03 9.97 C7.61 9.63, 8.17 8.72, 9.66 7.29" stroke="#228be6" stroke-width="0.5" fill="none"></path><path d="M-0.48 -0.03 C2.73 -0.35, 6.41 -0.54, 9.62 -0.1 M0.4 0.3 C2.73 -0.13, 5.29 0.11, 8.94 0.38 M9.44 0.71 C9.43 3.53, 8.46 5.56, 8.86 9 M8.97 0.28 C9.27 1.97, 9.07 4.02, 8.88 8.49 M8.8 8.53 C5.81 8.24, 1.8 8.46, 0.65 8.02 M8.52 8.69 C6.15 8.73, 3.54 8.34, -0.13 8.51 M0.79 8.92 C-0.73 5.48, 0.14 1.98, 0.43 0.03 M0.06 8.18 C0.32 5.68, -0.23 2.62, 0.21 0.26" stroke="#000000" stroke-width="1" fill="none"></path></g><g stroke-linecap="round" transform="translate(159.84468002386114 339.02780202427914) rotate(0 4.215890330337544 4.215890330337544)"><path d="M0 0 C0 0, 0 0, 0 0 M0 0 C0 0, 0 0, 0 0 M0.17 6.25 C1.29 3.67, 3.67 2.55, 5.76 1.08 M-0.59 6.02 C0.9 5.01, 2.3 4.16, 4.9 0.68 M3.25 9.07 C3.25 8.65, 4.83 5.94, 9.07 1.04 M2.31 10.29 C5.01 6.03, 7.26 3.63, 9.9 0.76" stroke="#228be6" stroke-width="0.5" fill="none"></path><path d="M-0.03 -0.5 C2.97 -0.04, 6.1 0.86, 8.34 -0.14 M0.29 0.23 C2.24 0.24, 4.82 0.08, 8.79 0.18 M9.14 0.67 C9.13 2.07, 8.29 4.85, 9.08 7.86 M8.71 0.41 C8.54 3.57, 8.66 6.83, 8.56 8.83 M8.6 8.9 C5.92 8.36, 3.74 9.05, -0.33 8.45 M8.75 8.46 C5.49 8.45, 1.87 8.26, 0.14 8.72 M0.56 7.65 C0.26 6.44, -0.17 4.7, 0.03 0.19 M-0.19 8.78 C-0.06 5.43, -0.42 3.06, 0.26 -0.23" stroke="#000000" stroke-width="1" fill="none"></path></g><g stroke-linecap="round" transform="translate(169.91829256235786 339.1669403190097) rotate(0 4.14632118297223 4.14632118297223)"><path d="M0 0 C0 0, 0 0, 0 0 M0 0 C0 0, 0 0, 0 0 M-0.41 5.97 C0.44 5.01, 2.75 4.38, 5.7 -0.33 M-0.64 6.42 C1.04 5.13, 2.88 3.14, 5.31 -0.01 M1.46 9.37 C5.24 6.43, 6.92 3.23, 9.61 2.01 M2.57 9.98 C4.18 6.49, 7.49 3.66, 9.36 1.95" stroke="#228be6" stroke-width="0.5" fill="none"></path><path d="M-0.49 -0.35 C2.19 -0.53, 5.34 -0.09, 8.15 -0.18 M0.23 -0.1 C2.99 0.07, 5.52 0.3, 8.47 -0.07 M8.95 0.66 C8.05 2.56, 8.44 6.08, 7.73 9.12 M8.7 0.03 C8.53 3.45, 8.42 6.74, 8.68 8.22 M8.75 8.17 C5.65 8.39, 3.75 7.98, 0.02 9 M8.32 8.6 C5.47 8.3, 2.41 8.49, 0.28 8.07 M-0.76 8.48 C0.02 6.26, 0.35 4.72, 0.19 0.26 M0.34 8.31 C-0.21 4.66, 0.2 1.94, -0.22 0.06" stroke="#000000" stroke-width="1" fill="none"></path></g><g stroke-linecap="round" transform="translate(179.7136285113927 339.0834573421713) rotate(0 4.14632118297223 4.14632118297223)"><path d="M0 0 C0 0, 0 0, 0 0 M0 0 C0 0, 0 0, 0 0 M-0.69 5.89 C1.23 5.28, 3.49 3.66, 4.3 0.09 M-0.24 6.28 C1.47 5.19, 2.47 3.59, 4.61 0.52 M1.7 10.47 C3.82 7.15, 5.7 4.93, 9.85 2.17 M2.3 9.23 C3.89 7.48, 6.14 4.99, 9.8 1.3" stroke="#228be6" stroke-width="0.5" fill="none"></path><path d="M-0.35 -0.08 C1.5 0.85, 3.98 -0.09, 8.11 0.2 M-0.1 0.31 C3.36 0.1, 6.83 0.13, 8.22 0.12 M8.95 -0.31 C8.2 3.23, 9 5.72, 9.12 9.11 M8.32 0.2 C8.49 2.96, 8.47 6.11, 8.22 8.34 M8.17 8.22 C5.87 8.95, 2.95 8.36, 0.71 8.69 M8.6 8.36 C6.24 8.17, 4.45 8.58, -0.22 7.95 M0.19 8.39 C-0.29 5.45, -0.03 1.94, 0.26 0.82 M0.02 8.09 C-0.3 5.89, 0.3 2.85, 0.06 0.22" stroke="#000000" stroke-width="1" fill="none"></path></g><g stroke-linecap="round" transform="translate(189.63418892568575 339.1669403190097) rotate(0 4.14632118297223 4.14632118297223)"><path d="M0 0 C0 0, 0 0, 0 0 M0 0 C0 0, 0 0, 0 0 M-0.77 6.42 C2.21 5.06, 4.18 1.46, 4.72 0.07 M-0.38 6.7 C1.26 5, 2.39 3.41, 5.15 0.41 M2.79 9.32 C4.93 5.69, 8.16 3.76, 10.01 1.33 M1.55 9.52 C4.59 6.9, 6.9 4.67, 9.15 1.88" stroke="#228be6" stroke-width="0.5" fill="none"></path><path d="M-0.08 -0.53 C3.26 -0.06, 4.78 -0.14, 8.49 0.75 M0.31 0.12 C3.21 0.38, 6.3 -0.05, 8.41 0.33 M7.99 -0.16 C8.44 3.82, 7.8 7.2, 9.11 8.67 M8.5 0.14 C8.47 3.17, 8.76 6.02, 8.34 8.3 M8.22 8.38 C6.25 7.95, 3.01 8.99, 0.39 7.79 M8.36 8.23 C5.06 8.49, 2.36 8.14, -0.34 8.69 M0.09 8.06 C0.5 5.28, 0.27 2.47, 0.82 0.12 M-0.2 7.96 C0.14 6.43, -0.29 4.12, 0.22 0" stroke="#000000" stroke-width="1" fill="none"></path></g><g stroke-linecap="round" transform="translate(179.58840404613534 329.28812139313624) rotate(0 4.215890330337544 4.215890330337544)"><path d="M0 0 C0 0, 0 0, 0 0 M0 0 C0 0, 0 0, 0 0 M-0.24 7 C2.02 5.45, 2.04 2.76, 4.69 -0.31 M0.04 6.73 C0.73 5.5, 1.51 4.1, 5.03 0.74 M1.61 9.7 C3.13 7.86, 6.52 6.11, 9.81 1.14 M1.82 9.93 C5.02 6.41, 8.65 2.7, 10.42 0.33" stroke="#228be6" stroke-width="0.5" fill="none"></path><path d="M-0.54 0.81 C1.94 -0.14, 3.89 0.21, 9.19 0.58 M0.13 0.15 C3.36 0.12, 5.92 0.06, 8.76 0.36 M8.27 0.09 C9.15 2.63, 9.34 7.24, 8.81 9 M8.57 0.1 C8.57 3.75, 8.37 6.75, 8.44 8.51 M8.52 9.05 C5.1 8.44, 3.16 8.83, -0.51 9.06 M8.37 8.31 C5.99 8.73, 3.05 8.09, 0.4 8.71 M-0.24 8.87 C0.01 6.87, 0.24 5.76, 0.13 -0.38 M-0.34 8.65 C0.26 4.98, 0.05 2.21, 0 0.3" stroke="#000000" stroke-width="1" fill="none"></path></g><g stroke-linecap="round" transform="translate(170.15482766339977 329.77510542469344) rotate(0 4.00718288824163 4.00718288824163)"><path d="M0 0 C0 0, 0 0, 0 0 M0 0 C0 0, 0 0, 0 0 M0.34 7.17 C1.79 4.21, 2.1 3.12, 4.32 -0.4 M0.07 6.31 C1.68 4.15, 3.12 2.73, 5.37 0.13 M2.03 8.95 C4.24 8.16, 6.54 5.29, 9.7 2.41 M2.24 9.71 C4.65 7.49, 6.88 4.62, 8.96 1.88" stroke="#228be6" stroke-width="0.5" fill="none"></path><path d="M0.77 -0.09 C1.93 -0.12, 4.32 0.77, 8.57 0.44 M0.14 0.34 C2.37 -0.09, 4.52 0.29, 8.35 0.32 M8.1 0.61 C7.44 3.84, 8.78 6.44, 8.55 8.8 M8.11 0.12 C8.43 2.39, 8.1 4.93, 8.09 8.24 M8.6 7.7 C5.75 8.71, 3.83 7.54, 0.6 8.06 M7.9 8.15 C5.29 7.79, 1.69 8.38, 0.27 7.64 M0.41 8.04 C0.18 5.68, 0.78 2.97, -0.36 0.66 M0.21 8.26 C-0.18 5.63, 0.25 3.13, 0.29 0.08" stroke="#000000" stroke-width="1" fill="none"></path></g><g stroke-linecap="round" transform="translate(160.01164597753785 329.7055362773281) rotate(0 4.00718288824163 4.00718288824163)"><path d="M0 0 C0 0, 0 0, 0 0 M0 0 C0 0, 0 0, 0 0 M0.51 7.11 C0.29 4.66, 1.93 2.83, 4.23 0.4 M-0.35 6.72 C0.74 4.89, 2.57 3.48, 4.75 0.21 M1.27 10.07 C5.29 7.46, 7.23 4.14, 10.25 1.88 M2.03 9.82 C4.07 7.92, 5.44 6.07, 9.72 1.75" stroke="#228be6" stroke-width="0.5" fill="none"></path><path d="M-0.09 -0.14 C2.15 0.11, 5.37 0.48, 8.46 -0.2 M0.34 0.17 C2.93 0.08, 6.31 0.31, 8.33 0.32 M8.63 -0.54 C8.79 2.9, 8.36 4.75, 8.8 8.07 M8.14 0.37 C7.97 2.84, 8.05 5.68, 8.24 7.95 M7.7 8.03 C6.36 8.45, 2.86 8.67, 0.05 8.6 M8.15 8.28 C5.28 7.66, 3.34 8.26, -0.37 8.1 M0.03 8.2 C0.27 6.31, 0.14 2.66, 0.66 0.04 M0.25 7.8 C0.12 6.22, 0.06 4.27, 0.08 0.38" stroke="#000000" stroke-width="1" fill="none"></path></g><g stroke-linecap="round" transform="translate(179.4492657514047 319.4927854441012) rotate(0 4.215890330337544 4.215890330337544)"><path d="M0 0 C0 0, 0 0, 0 0 M0 0 C0 0, 0 0, 0 0 M0.45 5.71 C1.01 4.23, 2.2 1.94, 5.03 0.12 M0.06 6.03 C1.82 4.19, 4.01 1.65, 4.84 0.61 M2.42 10.36 C4.9 7.33, 6.6 6.17, 10.42 -0.47 M2.14 10.3 C3.89 7.93, 5.69 5.63, 10.28 0.96" stroke="#228be6" stroke-width="0.5" fill="none"></path><path d="M-0.14 -0.18 C2.19 0.77, 4.56 0.48, 8.22 0.63 M0.18 -0.07 C2.9 0.26, 5.92 0.26, 8.77 -0.16 M7.86 0.84 C9.28 2.75, 9 5.56, 8.49 8.85 M8.83 -0.07 C8.49 2.82, 8.53 5.85, 8.37 8.4 M8.45 9.15 C6.22 7.89, 3.83 8.45, 0.62 8.56 M8.72 8.21 C5.67 8.86, 3.89 8.07, 0.09 8.48 M0.19 8.69 C0.79 6.27, -0.42 4.54, 0.04 -0.41 M-0.23 8.49 C0.18 6.58, 0.26 4.82, 0.4 0.34" stroke="#000000" stroke-width="1" fill="none"></path></g><g transform="translate(844.3135855407868 104.55064628810544) rotate(0 76 12.5)"><text x="76" y="18" font-family="Virgil, Segoe UI Emoji" font-size="20px" fill="#000000" text-anchor="middle" style="white-space: pre;" direction="ltr">MongoDB Atlas</text></g><g stroke-linecap="round"><g transform="translate(632.3560566884039 785.2001285052362) rotate(0 2.5811033855552523 52.78943584432358)"><path d="M-0.26 0.29 C0.67 18.02, 4.54 88.73, 5.42 106.19 M1.81 -0.61 C2.68 16.81, 4.58 86.7, 5.04 104.5" stroke="#000000" stroke-width="1" fill="none"></path></g><g transform="translate(632.3560566884039 785.2001285052362) rotate(0 2.5811033855552523 52.78943584432358)"><path d="M-5.5 78.4 C-1.46 85.79, -0.16 94.22, 5.64 105.22 M-5.7 77.39 C-0.77 88.18, 3.44 97.78, 4.85 104.6" stroke="#000000" stroke-width="1" fill="none"></path></g><g transform="translate(632.3560566884039 785.2001285052362) rotate(0 2.5811033855552523 52.78943584432358)"><path d="M15.01 77.85 C13.13 85.35, 8.5 93.94, 5.64 105.22 M14.82 76.83 C11.84 87.8, 8.12 97.61, 4.85 104.6" stroke="#000000" stroke-width="1" fill="none"></path></g></g><g stroke-linecap="round" transform="translate(973.9263234841792 731.8668765521111) rotate(0 134.999969482422 23.666656494140625)"><path d="M1.41 1.08 C77.27 -0.9, 153.95 -0.03, 270.56 1.34 M0.62 0.66 C93 0.03, 184.46 -0.75, 270.08 0.6 M270.9 1.34 C272.42 11.13, 271.46 22.65, 270.46 47.95 M270.03 0.2 C270.47 18.47, 269.84 37.34, 270.73 46.94 M269.06 48.51 C188.47 49.49, 107 48.12, -0.46 47.86 M270.74 47.85 C170.09 45.75, 71.71 45.35, 0.4 47.36 M0.3 46.44 C1.5 32.14, -1.12 15.15, 1.03 1.25 M-0.01 48.05 C0.14 36.63, 0.73 24.44, -0.9 -0.34" stroke="#000000" stroke-width="1" fill="none"></path></g><g transform="translate(1005.4263845193354 745.5335330462517) rotate(0 104.5 12.5)"><text x="104.5" y="18" font-family="Virgil, Segoe UI Emoji" font-size="20px" fill="#000000" text-anchor="middle" style="white-space: pre;" direction="ltr">Load Balancer - SSL</text></g><g transform="translate(960.0930104958979 786.8667544817986) rotate(0 148.5 12.5)"><text x="148.5" y="18" font-family="Virgil, Segoe UI Emoji" font-size="20px" fill="#000000" text-anchor="middle" style="white-space: pre;" direction="ltr">https://game.dragonbounty.com</text></g><g stroke-linecap="round" transform="translate(1269.3858419167964 722.4120628306105) rotate(0 32.54042053222645 32.540420532226506)"><path d="M0 0 C0 0, 0 0, 0 0 M0 0 C0 0, 0 0, 0 0 M0.13 12.04 C2.9 8.86, 5.66 5.69, 10.63 -0.03 M0.13 12.04 C3.41 8.27, 6.68 4.51, 10.63 -0.03 M0.27 24.08 C6.28 17.16, 12.3 10.24, 21.26 -0.07 M0.27 24.08 C8.12 15.05, 15.98 6.01, 21.26 -0.07 M-0.26 36.88 C8.48 26.83, 17.21 16.78, 31.89 -0.1 M-0.26 36.88 C11.85 22.95, 23.97 9.01, 31.89 -0.1 M-0.12 48.92 C15.74 30.66, 31.61 12.41, 42.52 -0.14 M-0.12 48.92 C12.08 34.88, 24.28 20.85, 42.52 -0.14 M0.01 60.96 C12.57 46.51, 25.13 32.07, 53.15 -0.17 M0.01 60.96 C20.8 37.04, 41.6 13.12, 53.15 -0.17 M4.08 68.47 C27.84 41.13, 51.61 13.8, 63.78 -0.21 M4.08 68.47 C19.79 50.39, 35.51 32.31, 63.78 -0.21 M14.71 68.44 C35.17 44.9, 55.63 21.37, 70.47 4.29 M14.71 68.44 C26.65 54.7, 38.59 40.96, 70.47 4.29 M25.34 68.4 C35.11 57.17, 44.87 45.93, 69.95 17.08 M25.34 68.4 C36.8 55.21, 48.27 42.03, 69.95 17.08 M35.97 68.37 C45.77 57.09, 55.58 45.81, 70.08 29.12 M35.97 68.37 C48.41 54.06, 60.85 39.74, 70.08 29.12 M46.6 68.33 C54.94 58.74, 63.28 49.14, 70.22 41.16 M46.6 68.33 C52.02 62.09, 57.45 55.85, 70.22 41.16 M57.23 68.3 C61.64 63.23, 66.04 58.16, 70.35 53.2 M57.23 68.3 C61.47 63.42, 65.71 58.54, 70.35 53.2 M0.23 65.28 C0.23 65.28, 0.23 65.28, 0.23 65.28 M0.23 65.28 C0.23 65.28, 0.23 65.28, 0.23 65.28 M12.27 65.15 C9.08 62.37, 5.89 59.6, 0.19 54.65 M12.27 65.15 C9.48 62.72, 6.69 60.29, 0.19 54.65 M24.31 65.01 C15.71 57.53, 7.1 50.06, 0.16 44.02 M24.31 65.01 C19.09 60.47, 13.86 55.93, 0.16 44.02 M36.35 64.88 C24.08 54.21, 11.81 43.55, 0.13 33.39 M36.35 64.88 C22.2 52.58, 8.06 40.28, 0.13 33.39 M49.15 65.4 C35.3 53.37, 21.45 41.33, 0.09 22.76 M49.15 65.4 C33.96 52.2, 18.77 38.99, 0.09 22.76 M61.19 65.27 C46.54 52.54, 31.89 39.81, 0.06 12.13 M61.19 65.27 C38.9 45.89, 16.61 26.52, 0.06 12.13 M68.7 61.2 C52.48 47.1, 36.25 32.99, 0.02 1.5 M68.7 61.2 C45.29 40.85, 21.88 20.5, 0.02 1.5 M68.67 50.57 C45.5 30.44, 22.34 10.3, 4.52 -5.19 M68.67 50.57 C50.86 35.09, 33.06 19.62, 4.52 -5.19 M68.63 39.94 C50.04 23.78, 31.45 7.62, 16.56 -5.33 M68.63 39.94 C56.81 29.66, 44.99 19.39, 16.56 -5.33 M68.6 29.31 C56.14 18.48, 43.68 7.65, 28.6 -5.46 M68.6 29.31 C56.03 18.38, 43.46 7.46, 28.6 -5.46 M68.56 18.68 C61.84 12.84, 55.12 7, 41.39 -4.94 M68.56 18.68 C60.52 11.69, 52.47 4.69, 41.39 -4.94 M68.53 8.05 C65.31 5.25, 62.09 2.46, 53.43 -5.07 M68.53 8.05 C65.2 5.15, 61.86 2.26, 53.43 -5.07" stroke="#7950f288" stroke-width="1" fill="none"></path><path d="M0 0 C25.39 0, 50.79 0, 65.08 0 M0 0 C24.67 0, 49.34 0, 65.08 0 M65.08 0 C65.08 22.46, 65.08 44.92, 65.08 65.08 M65.08 0 C65.08 19.7, 65.08 39.4, 65.08 65.08 M65.08 65.08 C49.46 65.08, 33.85 65.08, 0 65.08 M65.08 65.08 C39.39 65.08, 13.7 65.08, 0 65.08 M0 65.08 C0 44.59, 0 24.1, 0 0 M0 65.08 C0 45.59, 0 26.1, 0 0" stroke="#000000" stroke-width="2" fill="none"></path></g><g stroke-linecap="round" transform="translate(1275.3696368793858 739.9860988813768) rotate(0 15.50619339104469 15.50619339104469)"><path d="M31.01 15.51 C31.01 16.4, 30.93 17.31, 30.78 18.2 C30.62 19.08, 30.38 19.97, 30.08 20.81 C29.77 21.65, 29.38 22.48, 28.93 23.26 C28.49 24.04, 27.96 24.79, 27.38 25.47 C26.81 26.16, 26.16 26.81, 25.47 27.38 C24.79 27.96, 24.04 28.49, 23.26 28.93 C22.48 29.38, 21.65 29.77, 20.81 30.08 C19.97 30.38, 19.08 30.62, 18.2 30.78 C17.31 30.93, 16.4 31.01, 15.51 31.01 C14.61 31.01, 13.7 30.93, 12.81 30.78 C11.93 30.62, 11.05 30.38, 10.2 30.08 C9.36 29.77, 8.53 29.38, 7.75 28.93 C6.98 28.49, 6.23 27.96, 5.54 27.38 C4.85 26.81, 4.2 26.16, 3.63 25.47 C3.05 24.79, 2.53 24.04, 2.08 23.26 C1.63 22.48, 1.24 21.65, 0.94 20.81 C0.63 19.97, 0.39 19.08, 0.24 18.2 C0.08 17.31, 0 16.4, 0 15.51 C0 14.61, 0.08 13.7, 0.24 12.81 C0.39 11.93, 0.63 11.05, 0.94 10.2 C1.24 9.36, 1.63 8.53, 2.08 7.75 C2.53 6.98, 3.05 6.23, 3.63 5.54 C4.2 4.85, 4.85 4.2, 5.54 3.63 C6.23 3.05, 6.98 2.53, 7.75 2.08 C8.53 1.63, 9.36 1.24, 10.2 0.94 C11.05 0.63, 11.93 0.39, 12.81 0.24 C13.7 0.08, 14.61 0, 15.51 0 C16.4 0, 17.31 0.08, 18.2 0.24 C19.08 0.39, 19.97 0.63, 20.81 0.94 C21.65 1.24, 22.48 1.63, 23.26 2.08 C24.04 2.53, 24.79 3.05, 25.47 3.63 C26.16 4.2, 26.81 4.85, 27.38 5.54 C27.96 6.23, 28.49 6.98, 28.93 7.75 C29.38 8.53, 29.77 9.36, 30.08 10.2 C30.38 11.05, 30.62 11.93, 30.78 12.81 C30.93 13.7, 30.97 15.06, 31.01 15.51 C31.05 15.95, 31.05 15.06, 31.01 15.51" stroke="#000000" stroke-width="2" fill="none"></path></g><g stroke-linecap="round" transform="translate(1314.454037483963 734.5999071191816) rotate(0 4.681114985975796 4.681114985975739)"><path d="M9.36 4.68 C9.36 4.95, 9.34 5.23, 9.29 5.49 C9.24 5.76, 9.17 6.03, 9.08 6.28 C8.99 6.54, 8.87 6.79, 8.74 7.02 C8.6 7.26, 8.44 7.48, 8.27 7.69 C8.09 7.9, 7.9 8.09, 7.69 8.27 C7.48 8.44, 7.26 8.6, 7.02 8.74 C6.79 8.87, 6.54 8.99, 6.28 9.08 C6.03 9.17, 5.76 9.24, 5.49 9.29 C5.23 9.34, 4.95 9.36, 4.68 9.36 C4.41 9.36, 4.14 9.34, 3.87 9.29 C3.6 9.24, 3.33 9.17, 3.08 9.08 C2.83 8.99, 2.58 8.87, 2.34 8.74 C2.11 8.6, 1.88 8.44, 1.67 8.27 C1.46 8.09, 1.27 7.9, 1.1 7.69 C0.92 7.48, 0.76 7.26, 0.63 7.02 C0.49 6.79, 0.37 6.54, 0.28 6.28 C0.19 6.03, 0.12 5.76, 0.07 5.49 C0.02 5.23, 0 4.95, 0 4.68 C0 4.41, 0.02 4.14, 0.07 3.87 C0.12 3.6, 0.19 3.33, 0.28 3.08 C0.37 2.83, 0.49 2.58, 0.63 2.34 C0.76 2.11, 0.92 1.88, 1.1 1.67 C1.27 1.46, 1.46 1.27, 1.67 1.1 C1.88 0.92, 2.11 0.76, 2.34 0.63 C2.58 0.49, 2.83 0.37, 3.08 0.28 C3.33 0.19, 3.6 0.12, 3.87 0.07 C4.14 0.02, 4.41 0, 4.68 0 C4.95 0, 5.23 0.02, 5.49 0.07 C5.76 0.12, 6.03 0.19, 6.28 0.28 C6.54 0.37, 6.79 0.49, 7.02 0.63 C7.26 0.76, 7.48 0.92, 7.69 1.1 C7.9 1.27, 8.09 1.46, 8.27 1.67 C8.44 1.88, 8.6 2.11, 8.74 2.34 C8.87 2.58, 8.99 2.83, 9.08 3.08 C9.17 3.33, 9.24 3.6, 9.29 3.87 C9.34 4.14, 9.35 4.55, 9.36 4.68 C9.37 4.82, 9.37 4.55, 9.36 4.68" stroke="#000000" stroke-width="2" fill="none"></path></g><g stroke-linecap="round" transform="translate(1314.5739748869355 766.9025100507365) rotate(0 4.681114985975796 4.681114985975739)"><path d="M9.36 4.68 C9.36 4.95, 9.34 5.23, 9.29 5.49 C9.24 5.76, 9.17 6.03, 9.08 6.28 C8.99 6.54, 8.87 6.79, 8.74 7.02 C8.6 7.26, 8.44 7.48, 8.27 7.69 C8.09 7.9, 7.9 8.09, 7.69 8.27 C7.48 8.44, 7.26 8.6, 7.02 8.74 C6.79 8.87, 6.54 8.99, 6.28 9.08 C6.03 9.17, 5.76 9.24, 5.49 9.29 C5.23 9.34, 4.95 9.36, 4.68 9.36 C4.41 9.36, 4.14 9.34, 3.87 9.29 C3.6 9.24, 3.33 9.17, 3.08 9.08 C2.83 8.99, 2.58 8.87, 2.34 8.74 C2.11 8.6, 1.88 8.44, 1.67 8.27 C1.46 8.09, 1.27 7.9, 1.1 7.69 C0.92 7.48, 0.76 7.26, 0.63 7.02 C0.49 6.79, 0.37 6.54, 0.28 6.28 C0.19 6.03, 0.12 5.76, 0.07 5.49 C0.02 5.23, 0 4.95, 0 4.68 C0 4.41, 0.02 4.14, 0.07 3.87 C0.12 3.6, 0.19 3.33, 0.28 3.08 C0.37 2.83, 0.49 2.58, 0.63 2.34 C0.76 2.11, 0.92 1.88, 1.1 1.67 C1.27 1.46, 1.46 1.27, 1.67 1.1 C1.88 0.92, 2.11 0.76, 2.34 0.63 C2.58 0.49, 2.83 0.37, 3.08 0.28 C3.33 0.19, 3.6 0.12, 3.87 0.07 C4.14 0.02, 4.41 0, 4.68 0 C4.95 0, 5.23 0.02, 5.49 0.07 C5.76 0.12, 6.03 0.19, 6.28 0.28 C6.54 0.37, 6.79 0.49, 7.02 0.63 C7.26 0.76, 7.48 0.92, 7.69 1.1 C7.9 1.27, 8.09 1.46, 8.27 1.67 C8.44 1.88, 8.6 2.11, 8.74 2.34 C8.87 2.58, 8.99 2.83, 9.08 3.08 C9.17 3.33, 9.24 3.6, 9.29 3.87 C9.34 4.14, 9.35 4.55, 9.36 4.68 C9.37 4.82, 9.37 4.55, 9.36 4.68" stroke="#000000" stroke-width="2" fill="none"></path></g><g stroke-linecap="round" transform="translate(1319.2550898729087 749.3483288533287) rotate(0 4.681114985975796 4.681114985975739)"><path d="M9.36 4.68 C9.36 4.95, 9.34 5.23, 9.29 5.49 C9.24 5.76, 9.17 6.03, 9.08 6.28 C8.99 6.54, 8.87 6.79, 8.74 7.02 C8.6 7.26, 8.44 7.48, 8.27 7.69 C8.09 7.9, 7.9 8.09, 7.69 8.27 C7.48 8.44, 7.26 8.6, 7.02 8.74 C6.79 8.87, 6.54 8.99, 6.28 9.08 C6.03 9.17, 5.76 9.24, 5.49 9.29 C5.23 9.34, 4.95 9.36, 4.68 9.36 C4.41 9.36, 4.14 9.34, 3.87 9.29 C3.6 9.24, 3.33 9.17, 3.08 9.08 C2.83 8.99, 2.58 8.87, 2.34 8.74 C2.11 8.6, 1.88 8.44, 1.67 8.27 C1.46 8.09, 1.27 7.9, 1.1 7.69 C0.92 7.48, 0.76 7.26, 0.63 7.02 C0.49 6.79, 0.37 6.54, 0.28 6.28 C0.19 6.03, 0.12 5.76, 0.07 5.49 C0.02 5.23, 0 4.95, 0 4.68 C0 4.41, 0.02 4.14, 0.07 3.87 C0.12 3.6, 0.19 3.33, 0.28 3.08 C0.37 2.83, 0.49 2.58, 0.63 2.34 C0.76 2.11, 0.92 1.88, 1.1 1.67 C1.27 1.46, 1.46 1.27, 1.67 1.1 C1.88 0.92, 2.11 0.76, 2.34 0.63 C2.58 0.49, 2.83 0.37, 3.08 0.28 C3.33 0.19, 3.6 0.12, 3.87 0.07 C4.14 0.02, 4.41 0, 4.68 0 C4.95 0, 5.23 0.02, 5.49 0.07 C5.76 0.12, 6.03 0.19, 6.28 0.28 C6.54 0.37, 6.79 0.49, 7.02 0.63 C7.26 0.76, 7.48 0.92, 7.69 1.1 C7.9 1.27, 8.09 1.46, 8.27 1.67 C8.44 1.88, 8.6 2.11, 8.74 2.34 C8.87 2.58, 8.99 2.83, 9.08 3.08 C9.17 3.33, 9.24 3.6, 9.29 3.87 C9.34 4.14, 9.35 4.55, 9.36 4.68 C9.37 4.82, 9.37 4.55, 9.36 4.68" stroke="#000000" stroke-width="2" fill="none"></path></g><g stroke-linecap="round"><g transform="translate(1306.9671630347225 755.1997225857981) rotate(0 5.851393732469774 0)"><path d="M0 0 C1.95 0, 9.75 0, 11.7 0 M0 0 C1.95 0, 9.75 0, 11.7 0" stroke="#000000" stroke-width="2" fill="none"></path></g></g><g stroke-linecap="round"><g transform="translate(1303.3363893922697 767.4876494239838) rotate(23.749494492867285 5.851393732469774 0)"><path d="M0 0 C1.95 0, 9.75 0, 11.7 0 M0 0 C1.95 0, 9.75 0, 11.7 0" stroke="#000000" stroke-width="2" fill="none"></path></g></g><g stroke-linecap="round"><g transform="translate(1303.3363893922701 743.0317331505828) rotate(338.0702750671431 5.851393732469774 0)"><path d="M0 0 C1.95 0, 9.75 0, 11.7 0 M0 0 C1.95 0, 9.75 0, 11.7 0" stroke="#000000" stroke-width="2" fill="none"></path></g></g><g transform="translate(1281.4262624490225 792.3215682032994) rotate(0 20.5 12.5)"><text x="0" y="18" font-family="Virgil, Segoe UI Emoji" font-size="20px" fill="#000000" text-anchor="start" style="white-space: pre;" direction="ltr">ELB</text></g><g stroke-linecap="round"><g transform="translate(771.0298467385737 744.0156930870736) rotate(0 97.47144718789514 0.5622615420053307)"><path d="M0.95 1.01 C33.48 1.19, 162.85 1.5, 194.96 1.37 M-0.01 0.5 C32.46 0.32, 162.41 -0.4, 194.51 -0.26" stroke="#000000" stroke-width="1" fill="none"></path></g><g transform="translate(771.0298467385737 744.0156930870736) rotate(0 97.47144718789514 0.5622615420053307)"><path d="M168.02 11.63 C175.86 6.17, 181.84 4.2, 196.04 -1.61 M167 11.02 C177.55 6.3, 189.06 1.92, 194.82 0.68" stroke="#000000" stroke-width="1" fill="none"></path></g><g transform="translate(771.0298467385737 744.0156930870736) rotate(0 97.47144718789514 0.5622615420053307)"><path d="M168 -8.89 C175.89 -8.55, 181.89 -4.72, 196.04 -1.61 M166.97 -9.5 C177.74 -6.03, 189.26 -2.21, 194.82 0.68" stroke="#000000" stroke-width="1" fill="none"></path></g></g><g stroke-linecap="round"><g transform="translate(964.3632207620115 765.0946065382423) rotate(0 -93.90637007825092 3.003443494187991)"><path d="M1.01 0.96 C-30.44 1.51, -156.62 3.64, -188.38 4.29 M0.09 0.41 C-31.47 1.05, -157.07 4.62, -188.83 5.59" stroke="#000000" stroke-width="1" fill="none"></path></g><g transform="translate(964.3632207620115 765.0946065382423) rotate(0 -93.90637007825092 3.003443494187991)"><path d="M-159.35 -3.89 C-170.75 -2, -178.95 3.55, -190.18 7.58 M-159.97 -5.42 C-171.53 -0.55, -182.92 3.85, -187.89 5.43" stroke="#000000" stroke-width="1" fill="none"></path></g><g transform="translate(964.3632207620115 765.0946065382423) rotate(0 -93.90637007825092 3.003443494187991)"><path d="M-158.76 16.62 C-170.5 11.79, -178.91 10.61, -190.18 7.58 M-159.37 15.1 C-171.26 11.79, -182.89 8, -187.89 5.43" stroke="#000000" stroke-width="1" fill="none"></path></g></g><g stroke-linecap="round"><g transform="translate(643.3275862482849 318.33136734307965) rotate(0 112.1053588407396 -67.13096102407489)"><path d="M0.96 0.95 C38.17 -21.75, 186.91 -112.71, 224.21 -135.22 M0 0.41 C36.93 -21.59, 185.69 -111.08, 223.03 -133.8" stroke="#000000" stroke-width="1" fill="none"></path></g><g transform="translate(643.3275862482849 318.33136734307965) rotate(0 112.1053588407396 -67.13096102407489)"><path d="M205.8 -111.18 C210.76 -119.24, 219.81 -129.65, 225.02 -131.82 M204.28 -109.94 C210.88 -118.45, 217.35 -125.81, 222.86 -133.7" stroke="#000000" stroke-width="1" fill="none"></path></g><g transform="translate(643.3275862482849 318.33136734307965) rotate(0 112.1053588407396 -67.13096102407489)"><path d="M195.19 -128.74 C204.32 -130.23, 217.39 -133.99, 225.02 -131.82 M193.67 -127.51 C204.05 -130.06, 214.18 -131.36, 222.86 -133.7" stroke="#000000" stroke-width="1" fill="none"></path></g></g><g stroke-linecap="round"><g transform="translate(884.5327299319815 192.35739942959265) rotate(0 -119.30764259884336 71.89081121809285)"><path d="M0.95 -0.44 C-38.96 23.38, -198.78 120, -238.5 143.9 M0 -1.72 C-40.19 22.23, -199.96 121.24, -239.57 145.5" stroke="#000000" stroke-width="1" fill="none"></path></g><g transform="translate(884.5327299319815 192.35739942959265) rotate(0 -119.30764259884336 71.89081121809285)"><path d="M-221.69 121.59 C-227.72 132.7, -236.44 142.2, -237.59 146.4 M-220.46 122.31 C-227.32 130.93, -233.45 139.09, -239.47 145.53" stroke="#000000" stroke-width="1" fill="none"></path></g><g transform="translate(884.5327299319815 192.35739942959265) rotate(0 -119.30764259884336 71.89081121809285)"><path d="M-210.93 139.06 C-221.23 143.54, -234.09 146.32, -237.59 146.4 M-209.69 139.78 C-220.68 142, -230.75 143.74, -239.47 145.53" stroke="#000000" stroke-width="1" fill="none"></path></g></g><g stroke-linecap="round" transform="translate(1168.5717578439449 370.8820957653343) rotate(0 129.33334350585938 85.3333435058594)"><path d="M-0.31 0.16 C99.43 -0.32, 198 2.35, 259.39 1.07 M0.27 0.18 C103.13 -0.28, 205.63 -0.94, 258.69 0.16 M258.87 1.47 C257.62 60.7, 260.12 122.26, 257.47 172.16 M258.52 -0.3 C260.26 52.9, 259.4 103.62, 259.61 171.33 M258.21 171.49 C204.97 171.27, 151.67 172.48, 0.24 169.95 M258.02 171.08 C160.27 169.22, 60.99 170.09, 0 171.24 M0.78 168.87 C-2.29 116.01, 0.38 59.97, -0.97 0.11 M-0.42 170.63 C1.52 129.74, 1.66 87.3, -0.13 0.54" stroke="#000000" stroke-width="1" fill="none"></path></g><g transform="translate(1187.3733799642837 381.8532471701961) rotate(0 54 12.5)"><text x="54" y="18" font-family="Virgil, Segoe UI Emoji" font-size="20px" fill="#000000" text-anchor="middle" style="white-space: pre;" direction="ltr">AWS - ECS</text></g><g stroke-linecap="round" transform="translate(1185.2384448556636 415.5486912243187) rotate(0 111 56.3333435058594)"><path d="M-1.27 0.05 L223.51 1.94 L223.79 110.94 L-0.68 111.93" stroke="none" stroke-width="0" fill="#ced4da"></path><path d="M1.32 -1.17 C60.11 1.51, 117.58 0.96, 223.69 0.12 M0.26 0.81 C77.43 -0.35, 155.17 -0.27, 222.48 -0.13 M221.21 0.05 C223.82 33.82, 220.91 67.23, 222.12 114.14 M222.33 0.67 C221.31 34.68, 222.79 71.7, 221.08 112.89 M222.06 113.06 C153.41 115.35, 84 112.88, 1.42 112.75 M222.54 112.2 C166.33 114.12, 110.42 114.27, 0.18 113.48 M-0.68 112.73 C1.55 68.62, -1.41 27.2, -1.16 -1.13 M0.55 113.07 C1.16 86.88, 0.34 63.05, -0.18 -0.53" stroke="#000000" stroke-width="1" fill="none"></path></g><g stroke-linecap="round" transform="translate(1193.905070832226 484.2153782360374) rotate(0 50.33331298828125 18)"><path d="M0.05 1.51 L102.6 1.79 L98.94 35.32 L-0.74 34.33" stroke="none" stroke-width="0" fill="#15aabf"></path><path d="M-1.35 1.98 C30.23 0.13, 57.84 1.18, 100.81 0.99 M0.93 -0.17 C33.64 -0.28, 67.27 0.25, 100.52 -0.08 M100.71 1.71 C101.88 9.96, 102.43 22.45, 102.14 36.3 M101.34 -0.53 C99.73 11.23, 101.22 19.65, 100.89 36.11 M101.13 36.62 C75.29 36.33, 45.08 37.68, 0.09 35.03 M100.13 36.14 C79.1 36.62, 57.17 36.83, 0.94 36.8 M0.06 37.99 C-0.93 22.82, 0.43 10.44, -1.13 -1.55 M0.4 36.69 C-0.7 26.58, 0.55 17.24, -0.53 -0.63" stroke="#000000" stroke-width="1" fill="none"></path></g><g transform="translate(1199.405070832226 489.88206524775626) rotate(0 44.5 12.5)"><text x="44.5" y="18" font-family="Virgil, Segoe UI Emoji" font-size="20px" fill="#000000" text-anchor="middle" style="white-space: pre;" direction="ltr">container</text></g><g transform="translate(1200.5716968087886 438.5487217418968) rotate(0 40 12.5)"><text x="40" y="18" font-family="Virgil, Segoe UI Emoji" font-size="20px" fill="#000000" text-anchor="middle" style="white-space: pre;" direction="ltr">Fargate</text></g><g stroke-linecap="round"><g transform="translate(1220.9065962948498 722.5740503886416) rotate(0 2.299159169317363 -85.78491458708476)"><path d="M1.19 0.54 C2.03 -28.09, 3.86 -141.98, 4.25 -170.6 M0.35 -0.22 C1.18 -28.65, 3.31 -143.28, 3.72 -172.11" stroke="#000000" stroke-width="1" fill="none"></path></g><g transform="translate(1220.9065962948498 722.5740503886416) rotate(0 2.299159169317363 -85.78491458708476)"><path d="M14.4 -142.41 C12.9 -150.1, 9.66 -156.16, 4.18 -171.5 M13.53 -143.55 C10.25 -155.05, 5.77 -165.95, 4.45 -172.51" stroke="#000000" stroke-width="1" fill="none"></path></g><g transform="translate(1220.9065962948498 722.5740503886416) rotate(0 2.299159169317363 -85.78491458708476)"><path d="M-6.11 -142.76 C-2.85 -150.57, -1.32 -156.55, 4.18 -171.5 M-6.99 -143.9 C-2.19 -155.28, 1.39 -166.05, 4.45 -172.51" stroke="#000000" stroke-width="1" fill="none"></path></g></g><g stroke-linecap="round"><g transform="translate(1253.9828439605449 551.4925267440308) rotate(0 -1.3962267386067424 85.44101728455149)"><path d="M0.54 0.8 C-0.16 28.79, -2.31 141.02, -3 169.12 M-0.63 0.18 C-1.49 28.88, -2.77 142.85, -3.33 170.7" stroke="#000000" stroke-width="1" fill="none"></path></g><g transform="translate(1253.9828439605449 551.4925267440308) rotate(0 -1.3962267386067424 85.44101728455149)"><path d="M-11.82 144.31 C-8.82 154.62, -4.37 165.4, -2.72 172.57 M-12.96 142.91 C-10.5 150.3, -7.46 159.15, -3.73 170.73" stroke="#000000" stroke-width="1" fill="none"></path></g><g transform="translate(1253.9828439605449 551.4925267440308) rotate(0 -1.3962267386067424 85.44101728455149)"><path d="M8.7 144.63 C3.51 154.9, -0.24 165.56, -2.72 172.57 M7.56 143.23 C4.21 150.54, 1.43 159.29, -3.73 170.73" stroke="#000000" stroke-width="1" fill="none"></path></g></g><g stroke-linecap="round"><g transform="translate(1176.2008078708636 456.9109138428945) rotate(0 -104.67525141672104 -93.21337362604207)"><path d="M0.8 1.17 C-34.27 -29.88, -174.29 -154.58, -209.25 -185.79 M-0.24 0.74 C-35.56 -30.71, -175.28 -156.7, -210.15 -187.6" stroke="#000000" stroke-width="1" fill="none"></path></g><g transform="translate(1176.2008078708636 456.9109138428945) rotate(0 -104.67525141672104 -93.21337362604207)"><path d="M-180.35 -176.31 C-192.48 -180.05, -204.12 -184.55, -208.29 -187.93 M-181.75 -176.6 C-191.03 -179.75, -198.86 -183.71, -210.13 -186.74" stroke="#000000" stroke-width="1" fill="none"></path></g><g transform="translate(1176.2008078708636 456.9109138428945) rotate(0 -104.67525141672104 -93.21337362604207)"><path d="M-194.03 -161.02 C-200.77 -170.95, -206.95 -181.55, -208.29 -187.93 M-195.43 -161.3 C-200.47 -169.23, -204.05 -177.94, -210.13 -186.74" stroke="#000000" stroke-width="1" fill="none"></path></g></g><g stroke-linecap="round"><g transform="translate(962.0011341939221 276.78847544879704) rotate(0 109.6475162982631 114.14159515056616)"><path d="M1.17 0.08 C37.58 38.15, 182.72 191.02, 218.97 229.2 M0.33 -0.92 C36.58 36.71, 182.05 189.3, 218.33 227.29" stroke="#000000" stroke-width="1" fill="none"></path></g><g transform="translate(962.0011341939221 276.78847544879704) rotate(0 109.6475162982631 114.14159515056616)"><path d="M191.58 214.97 C201.47 218.77, 210.7 224.77, 217.99 227.5 M191.29 213.89 C199.71 218.59, 207.35 221.91, 219.18 227.76" stroke="#000000" stroke-width="1" fill="none"></path></g><g transform="translate(962.0011341939221 276.78847544879704) rotate(0 109.6475162982631 114.14159515056616)"><path d="M206.43 200.8 C211.29 209.63, 215.39 220.52, 217.99 227.5 M206.14 199.73 C210.09 208.79, 213.24 216.4, 219.18 227.76" stroke="#000000" stroke-width="1" fill="none"></path></g></g><g stroke-linecap="round"><g transform="translate(766.0142790972202 677.5705494872303) rotate(0 212.21454909471925 -85.07771421539647)"><path d="M0.08 0.59 C70.91 -27.73, 354.82 -140.68, 425.76 -168.77 M-1.33 -0.14 C69.3 -28.34, 353.94 -142.49, 425.02 -170.75" stroke="#000000" stroke-width="1" fill="none"></path></g><g transform="translate(766.0142790972202 677.5705494872303) rotate(0 212.21454909471925 -85.07771421539647)"><path d="M403.64 -150.1 C411.12 -157.5, 420.74 -165.78, 425.23 -170.7 M402.57 -150.66 C410.43 -157.51, 416.86 -162.65, 425.5 -171.35" stroke="#000000" stroke-width="1" fill="none"></path></g><g transform="translate(766.0142790972202 677.5705494872303) rotate(0 212.21454909471925 -85.07771421539647)"><path d="M396.03 -169.15 C406.49 -169.57, 418.9 -170.86, 425.23 -170.7 M394.95 -169.72 C405.35 -170.46, 414.22 -169.51, 425.5 -171.35" stroke="#000000" stroke-width="1" fill="none"></path></g></g><g stroke-linecap="round"><g transform="translate(1192.8661910564372 520.7766135787479) rotate(0 -209.57754939475444 87.78936941863927)"><path d="M0.59 0.4 C-69.43 29.72, -349.16 146.84, -418.94 176.02 M-0.55 -0.44 C-70.81 28.5, -350.13 144.57, -419.75 174.09" stroke="#000000" stroke-width="1" fill="none"></path></g><g transform="translate(1192.8661910564372 520.7766135787479) rotate(0 -209.57754939475444 87.78936941863927)"><path d="M-397.05 154.19 C-405.85 163.8, -415.56 170.24, -419.69 174.48 M-397.61 154.46 C-405.97 160.97, -412.55 168.66, -420.35 174.84" stroke="#000000" stroke-width="1" fill="none"></path></g><g transform="translate(1192.8661910564372 520.7766135787479) rotate(0 -209.57754939475444 87.78936941863927)"><path d="M-389.12 173.11 C-401.09 175.24, -413.95 174.15, -419.69 174.48 M-389.68 173.39 C-400.83 173.16, -410.23 174.12, -420.35 174.84" stroke="#000000" stroke-width="1" fill="none"></path></g></g><g transform="translate(946.795934798829 625.3108047484636) rotate(0 122 25.5)"><text x="0" y="17.5" font-family="Virgil, Segoe UI Emoji" font-size="20px" fill="#000000" text-anchor="start" style="white-space: pre;" direction="ltr">web socket connection</text><text x="0" y="43" font-family="Virgil, Segoe UI Emoji" font-size="20px" fill="#000000" text-anchor="start" style="white-space: pre;" direction="ltr">remains after handshake</text></g><g stroke-linecap="round"><g transform="translate(1112.17989493415 830.7530492196245) rotate(0 33.815643450670336 60.15976091453945)"><path d="M0.27 0.37 C11.62 20.2, 57.44 99.5, 68.67 119.37 M-1.04 -0.49 C10.19 19.5, 56.98 100.57, 68.31 120.81" stroke="#1864ab" stroke-width="1" fill="none"></path></g><g transform="translate(1112.17989493415 830.7530492196245) rotate(0 33.815643450670336 60.15976091453945)"><path d="M46.05 103.26 C53.16 108.33, 61.54 115.3, 69.42 120.5 M45.05 101.41 C52.99 107.36, 58.21 113.3, 68.37 121.54" stroke="#1864ab" stroke-width="1" fill="none"></path></g><g transform="translate(1112.17989493415 830.7530492196245) rotate(0 33.815643450670336 60.15976091453945)"><path d="M63.89 93.1 C64.8 101.76, 66.95 112.28, 69.42 120.5 M62.88 91.25 C65.63 100.3, 65.64 109.2, 68.37 121.54" stroke="#1864ab" stroke-width="1" fill="none"></path></g></g><g transform="translate(902.5379329349289 977.0433335191569) rotate(0 263.5 25.5)"><text x="0" y="17.5" font-family="Virgil, Segoe UI Emoji" font-size="20px" fill="#1864ab" text-anchor="start" style="white-space: pre;" direction="ltr">This load balancer is only used to provide</text><text x="0" y="43" font-family="Virgil, Segoe UI Emoji" font-size="20px" fill="#1864ab" text-anchor="start" style="white-space: pre;" direction="ltr">a secure connection to the container (SSL / HTTPS)</text></g><g stroke-linecap="round" transform="translate(413.72531373958634 721.4660843355808) rotate(0 53.666656494140625 36.33331298828125)"><path d="M0 0 C0 0, 0 0, 0 0 M0 0 C0 0, 0 0, 0 0 M-0.52 5.77 C1.36 4.15, 2.1 3.46, 5.41 0.81 M-0.08 6.55 C1.49 4.4, 2.95 2.49, 4.71 0.04 M1.36 12.95 C3.25 9.83, 7.98 6.26, 11.2 -0.85 M0.22 12.22 C3 8.55, 5.37 5.01, 10.82 0.34 M1.5 19.06 C1.39 14.74, 6.68 10.2, 15.29 0.83 M-0.18 18.19 C3.81 13.56, 9.26 7.9, 15.16 -0.22 M1.03 24.53 C4.02 20.38, 8.26 14.25, 20.54 -1.27 M0.35 24.24 C5.37 17.96, 11.8 10.47, 20.57 -0.8 M-0.01 29.3 C9.02 23.42, 13.31 16.32, 27.37 -1.37 M0.9 30.38 C8.94 20.73, 15.65 12.24, 25.41 0.73 M-0.23 38.64 C5.81 26.18, 13.89 19.17, 32.66 -2.04 M0.29 37.48 C12.28 22.9, 25.62 8.04, 32.8 -0.28 M-0.72 40.83 C13.79 31.11, 25 14.53, 36.52 0.9 M-0.24 42.47 C9.39 31.22, 20.64 20.49, 36.97 0.77 M0.79 50.63 C8.47 37.57, 19.17 26.77, 41.31 -0.5 M0.62 48.52 C10.73 36.6, 20.67 25.34, 43.17 0.58 M0.35 55.15 C19.1 36.41, 34.76 14.65, 46.23 0.89 M-0.64 54.69 C13.51 39.28, 28.22 22.17, 47.92 -0.08 M-1.69 61.11 C18.98 37.74, 40.59 13.7, 54.37 0.45 M0.06 61.83 C22.2 36.75, 42.21 12.82, 52.93 0.48 M-2.21 68.72 C22.2 39.95, 44.97 12.92, 59.28 1.03 M-0.43 68.21 C15.27 49.45, 29.75 33, 57.41 0.83 M-1.53 71.16 C22.12 49.08, 45.52 23.24, 64.01 -1.89 M1.1 73.73 C19.75 50.88, 39.67 26.79, 63.92 -0.73 M6.37 73.19 C28.06 47.87, 48.08 26.07, 67.71 -0.99 M4.79 72.26 C18.54 57.73, 31.47 42.19, 68.73 -0.21 M11.21 73 C25.51 56.13, 39.15 39.41, 72.67 0.03 M10.83 72.15 C33.39 46.07, 56.83 19.86, 73.62 -1.07 M17.95 72.97 C36.18 53.73, 54.89 31.88, 78.88 1.7 M15.81 72.78 C34.88 50.54, 55.67 27.19, 80.27 -0.26 M20.74 72.21 C36.5 55.15, 50.89 42.26, 83.09 -2.07 M20.45 73.77 C38.48 53.96, 54.17 34.21, 84.08 0.61 M26.02 71.7 C47.46 51.47, 64.56 26.18, 89.4 -0.78 M27.43 71.87 C50.83 45.49, 73.88 18.09, 90.53 -0.74 M31.05 73.53 C48.38 51.3, 65.58 31.03, 96.28 -2.2 M31.77 72.87 C57.26 42.94, 81.66 14.46, 94.99 -0.43 M38.33 74.75 C52.17 56.69, 67.05 35.05, 99.17 -1.11 M37.98 73.25 C54.95 52.27, 74.3 29.42, 101.11 -0.44 M41.43 70.91 C58.14 54.72, 72.27 37.88, 105.52 -2.19 M41.72 72.34 C62.48 49.13, 83.1 27.65, 106.63 0.22 M48.85 73.42 C62.55 57.54, 79.86 36.75, 107.4 1.51 M48.38 73.5 C71.05 46.66, 95.71 18.8, 109.77 1.76 M52.43 73.51 C68.08 60.37, 79.37 43.45, 111.18 6.67 M53.32 72.72 C64.95 57.66, 77.49 44.52, 109.69 7.42 M59.87 71.47 C73.3 57.01, 88.96 40.35, 108 14.41 M59.17 73.61 C73.42 54.8, 88.41 37.65, 108.77 14.91 M63.88 71.74 C79.12 56.97, 94.94 37.36, 109.04 20.48 M64.71 73.21 C77.66 56.35, 91.24 41.51, 110.6 20.32 M70.63 72.17 C78.93 61.24, 87.09 51.09, 111.25 26.75 M68.18 72.98 C78 61.5, 88.01 49.95, 109.58 26.33 M72.91 71.18 C84.92 62.07, 94.23 50.19, 107.86 31.06 M74.15 72.63 C89.58 56.53, 102.33 42.13, 110.11 33.75 M78.63 72.98 C86.58 67.18, 91.94 59.34, 110.16 38.72 M78.83 73.11 C86.23 65.96, 92.63 58.27, 110.23 37.8 M83.91 74.68 C92.06 67.59, 95.8 57.49, 111.37 43.95 M84.98 72.44 C93.08 63.87, 100.24 55.25, 110.25 45.17 M89.66 71.58 C97.94 62.77, 105.13 57.26, 111.04 49.76 M89.17 72.68 C97.77 64.5, 105.02 57, 108.9 50.74 M94.58 72.27 C101.64 68.63, 103.36 64.07, 107.62 57.2 M96.68 71.76 C100.36 67.42, 104.76 62.55, 108.71 56.45 M100.15 72.29 C103.97 68.97, 106.66 66.64, 110.31 61.95 M100.82 72.67 C103.52 69.01, 107.35 65.37, 109.88 63.71 M106.3 72.29 C106.94 71.44, 108.8 70.86, 109.69 68.73 M106.29 72.57 C107.17 71.91, 107.7 71.16, 109.9 69.12" stroke="#ced4da" stroke-width="0.5" fill="none"></path><path d="M1.41 -0.92 C24.43 -0.41, 48.34 0.03, 106.06 -1.24 M-0.98 0.44 C42.27 1.07, 83.92 0.39, 108.25 0.12 M109.08 -1.93 C107.49 23.67, 108.19 48.01, 109.29 74.5 M106.82 -0.8 C107.88 17.96, 106.84 35.57, 106.97 72.22 M106.58 70.71 C84.04 72.87, 63.31 73.36, 1.34 73.95 M106.4 72.49 C66.89 72.02, 27.3 71.7, -0.86 73.28 M-1.22 73.86 C1.9 48.7, 0.34 20.75, -1.62 -0.57 M-0.34 73.47 C-0.71 45.73, -0.07 19.03, -0.43 -0.07" stroke="#000000" stroke-width="1" fill="none"></path></g><g transform="translate(418.72531373958634 735.7993973238621) rotate(0 49 25.5)"><text x="49" y="17.5" font-family="Virgil, Segoe UI Emoji" font-size="20px" fill="#000000" text-anchor="middle" style="white-space: pre;" direction="ltr">Metamask</text><text x="49" y="43" font-family="Virgil, Segoe UI Emoji" font-size="20px" fill="#000000" text-anchor="middle" style="white-space: pre;" direction="ltr">ethersjs</text></g><g transform="translate(453.55067669580626 905.3001690197973) rotate(0 184.6166798234782 16.08159231911833)"><text x="0" y="23.163184638236608" font-family="Virgil, Segoe UI Emoji" font-size="25.730547710589263px" fill="#000000" text-anchor="start" style="white-space: pre;" direction="ltr">https://www.dragonbounty.com</text></g></svg>