<svg version="1.1" xmlns="http://www.w3.org/2000/svg" viewBox="0 0 1239.5939061304184 889.9115637414334" width="1239.5939061304184" height="889.9115637414334" filter="invert(93%) hue-rotate(180deg)">
  <!-- svg-source:excalidraw -->
  
  <defs>
    <style>
      @font-face {
        font-family: "Virgil";
        src: url("https://excalidraw.com/Virgil.woff2");
      }
      @font-face {
        font-family: "Cascadia";
        src: url("https://excalidraw.com/Cascadia.woff2");
      }
    </style>
  </defs>
  <g stroke-linecap="round" transform="translate(10 607.419790893934) rotate(0 219.65542819348235 133.61532514821732)"><path d="M-0.36 -0.45 C126.75 2.62, 254.33 1.48, 439.02 -0.62 M-0.24 0.46 C106.58 0.15, 213.44 0.12, 439.48 0.48 M438.79 1.03 C439.51 61.97, 440.65 121.6, 439.92 268.11 M438.73 0.44 C438.25 103.11, 438.18 207.31, 438.8 267.88 M439.47 267.1 C305.61 266.72, 173.08 265.67, 0.63 268.18 M439.47 266.97 C316.67 267.23, 194.78 267.67, 0.16 267.31 M-0.67 267.1 C0.7 209.53, -0.99 152.75, 0.97 -0.17 M0.21 266.98 C0.05 178.86, 0.63 91.81, 0.63 -0.11" stroke="#1864ab" stroke-width="1" fill="none"></path></g><g stroke-linecap="round" transform="translate(454.7604100366684 723.9115637414334) rotate(0 117.00003051757812 78)"><path d="M-0.75 -0.93 C85.73 0.25, 168.02 0.21, 232.95 -0.97 M0.77 0.02 C90.62 1.46, 180.92 1.23, 234.81 -0.59 M235.3 -0.45 C234.29 51.87, 231.91 102.5, 235.12 157.74 M234.55 0.03 C232.97 38.74, 234.02 76.94, 234.83 156.04 M233.79 155.48 C146.56 157.26, 56.16 157.38, 1.6 155.64 M233.56 155.53 C150.84 156.98, 69.06 156.91, 0.14 155.29 M-0.16 157.12 C-1.59 106.81, -0.56 60.9, -0.22 0.56 M-0.32 155.66 C-1.24 111.95, -0.5 67.93, -0.14 0.5" stroke="#000000" stroke-width="1" fill="none"></path></g><g transform="translate(532.5937840601059 788.9115637414334) rotate(0 36 12.5)"><text x="36" y="18" font-family="Virgil, Segoe UI Emoji" font-size="20px" fill="#000000" text-anchor="middle" style="white-space: pre;" direction="ltr">NextJS</text></g><g stroke-linecap="round" transform="translate(440.09372302494967 503.91153322385526) rotate(0 134.99996948242193 23.666656494140625)"><path d="M1.42 -0.42 C71 0.71, 141.74 0.26, 271.35 0 M0.24 0.48 C68.26 0.22, 136.92 -0.59, 270.2 -0.15 M270.59 1 C268.51 13.41, 271.43 27.02, 268.97 46.46 M269.65 -0.06 C270.96 10.05, 271.09 21.43, 270.79 46.78 M271.12 48.2 C184.11 47.67, 100.74 46.35, 0.83 47.6 M269.41 47.65 C180.35 46.42, 90.64 45.5, 0.07 48.06 M-0.15 46.31 C0.92 36.37, -0.18 23.51, -0.3 0.37 M-0.95 47.72 C-0.06 32.69, 0.01 16.94, 0.04 0.56" stroke="#000000" stroke-width="1" fill="none"></path></g><g stroke-linecap="round"><g transform="translate(550.0824195016621 704.5781897179959) rotate(0 -0.07423235377370929 -58.0039282720536)"><path d="M1.09 -0.33 C1.16 -19.5, 0.17 -96.4, -0.11 -115.68 M0.2 -1.54 C0.13 -20.48, -1.49 -95.41, -1.2 -114.33" stroke="#000000" stroke-width="1" fill="none"></path></g><g transform="translate(550.0824195016621 704.5781897179959) rotate(0 -0.07423235377370929 -58.0039282720536)"><path d="M8.67 -86.65 C6.13 -94.54, 2.9 -98.76, -1.21 -115.28 M9.82 -85.97 C5.48 -96.21, 0.36 -107.91, -1.39 -114.66" stroke="#000000" stroke-width="1" fill="none"></path></g><g transform="translate(550.0824195016621 704.5781897179959) rotate(0 -0.07423235377370929 -58.0039282720536)"><path d="M-11.85 -86.53 C-9.15 -94.64, -7.14 -98.89, -1.21 -115.28 M-10.7 -85.86 C-7.02 -96.2, -4.11 -107.95, -1.39 -114.66" stroke="#000000" stroke-width="1" fill="none"></path></g></g><g stroke-linecap="round"><g transform="translate(578.5152858320542 592.5781897179959) rotate(0 0.5549679408005659 52.13570985337719)"><path d="M-0.33 -0.27 C-0.13 16.98, 0.45 86.81, 0.53 104.59 M1.7 -1.46 C1.77 16.44, -0.16 88.06, -0.6 105.73" stroke="#000000" stroke-width="1" fill="none"></path></g><g transform="translate(578.5152858320542 592.5781897179959) rotate(0 0.5549679408005659 52.13570985337719)"><path d="M-10.59 76.71 C-8.79 83.13, -3.48 91.25, -1.55 107.56 M-9.91 77.63 C-6.21 85.12, -4.03 94.22, -0.93 106.38" stroke="#000000" stroke-width="1" fill="none"></path></g><g transform="translate(578.5152858320542 592.5781897179959) rotate(0 0.5549679408005659 52.13570985337719)"><path d="M9.93 77.23 C6.7 83.47, 6.98 91.46, -1.55 107.56 M10.61 78.15 C8.11 85.61, 4.09 94.56, -0.93 106.38" stroke="#000000" stroke-width="1" fill="none"></path></g></g><g transform="translate(471.5937840601059 517.5781897179959) rotate(0 104.5 12.5)"><text x="104.5" y="18" font-family="Virgil, Segoe UI Emoji" font-size="20px" fill="#000000" text-anchor="middle" style="white-space: pre;" direction="ltr">Load Balancer - SSL</text></g><g stroke-linecap="round" transform="translate(444.0937840601059 236.57812868283958) rotate(0 129.33334350585938 85.3333435058594)"><path d="M-1 -0.92 C71.97 0.6, 140.4 2.07, 258.7 0.48 M0.77 -0.56 C93.57 -0.86, 186.46 -0.19, 258.49 0.24 M259.79 1.74 C256.11 58.88, 255.65 120.6, 258.73 169.97 M259.5 0.04 C260.64 49.63, 260.01 100.25, 258.36 171.38 M260.19 170.32 C167.52 172.24, 75.2 171.14, -0.88 169.46 M258.8 169.99 C170.63 172.07, 82.12 171.27, 0.45 170.61 M-0.22 171.22 C-1.06 128.56, -0.23 85.09, -0.67 -1.9 M-0.14 171.17 C0.41 113.38, -0.5 55.71, 0.26 -0.37" stroke="#000000" stroke-width="1" fill="none"></path></g><g transform="translate(852.2603490015122 367.57815920041776) rotate(0 66.5 25.5)"><text x="66.5" y="17.5" font-family="Virgil, Segoe UI Emoji" font-size="20px" fill="#1864ab" text-anchor="middle" style="white-space: pre;" direction="ltr">Dockerized</text><text x="66.5" y="43" font-family="Virgil, Segoe UI Emoji" font-size="20px" fill="#1864ab" text-anchor="middle" style="white-space: pre;" direction="ltr">Express - api</text></g><g stroke-linecap="round"><g transform="translate(558.3899826196734 480.43038245182447) rotate(0 -0.3050370510129028 -26.388375824260663)"><path d="M-0.69 1.03 C-0.77 -7.81, -0.97 -44.77, -0.81 -53.81 M1.15 0.53 C0.95 -8.09, -1.58 -43.84, -1.76 -52.57" stroke="#000000" stroke-width="1" fill="none"></path></g><g transform="translate(558.3899826196734 480.43038245182447) rotate(0 -0.3050370510129028 -26.388375824260663)"><path d="M10.28 -28.04 C4.95 -32.92, 3.16 -40.79, -0.54 -52.13 M8.81 -28.22 C4.54 -35.66, 1.2 -44.22, -1.26 -53.47" stroke="#000000" stroke-width="1" fill="none"></path></g><g transform="translate(558.3899826196734 480.43038245182447) rotate(0 -0.3050370510129028 -26.388375824260663)"><path d="M-7.91 -27.15 C-8.3 -32.16, -5.17 -40.28, -0.54 -52.13 M-9.38 -27.34 C-7.58 -34.94, -4.84 -43.8, -1.26 -53.47" stroke="#000000" stroke-width="1" fill="none"></path></g></g><g stroke-linecap="round"><g transform="translate(573.2564266730253 428.9574506774321) rotate(0 -0.38867019555203797 26.286132427694724)"><path d="M1.03 0 C1.06 9.05, -0.4 44.81, -0.56 53.62 M0.12 -1.05 C0.01 7.75, -1.67 43.44, -1.81 52.07" stroke="#000000" stroke-width="1" fill="none"></path></g><g transform="translate(573.2564266730253 428.9574506774321) rotate(0 -0.38867019555203797 26.286132427694724)"><path d="M-9.97 26.15 C-6.34 33.01, -5.63 40.13, -1.36 52.76 M-10.15 26.78 C-6.26 36.74, -3.39 47.35, -2.71 52.46" stroke="#000000" stroke-width="1" fill="none"></path></g><g transform="translate(573.2564266730253 428.9574506774321) rotate(0 -0.38867019555203797 26.286132427694724)"><path d="M7.99 26.75 C7.35 33.63, 3.79 40.6, -1.36 52.76 M7.8 27.38 C4.59 37.15, 0.36 47.52, -2.71 52.46" stroke="#000000" stroke-width="1" fill="none"></path></g></g><g transform="translate(752.7605321069809 756.2448156945584) rotate(0 172 38)"><text x="172" y="18.333333333333332" font-family="Virgil, Segoe UI Emoji" font-size="20px" fill="#000000" text-anchor="middle" style="white-space: pre;" direction="ltr">Vercel - uses cloudflare as a CDN</text><text x="172" y="43.666666666666664" font-family="Virgil, Segoe UI Emoji" font-size="20px" fill="#000000" text-anchor="middle" style="white-space: pre;" direction="ltr"></text><text x="172" y="69" font-family="Virgil, Segoe UI Emoji" font-size="20px" fill="#000000" text-anchor="middle" style="white-space: pre;" direction="ltr">Frontend</text></g><g stroke-linecap="round"><g transform="translate(825.4270970483872 659.9115027062771) rotate(0 95.05896345190706 -0.24326703035319497)"><path d="M-0.57 1.09 C31.04 1.15, 158.7 0.5, 190.69 0.36 M1.33 0.62 C32.69 0.31, 158.14 -1.76, 189.76 -1.57" stroke="#000000" stroke-width="1" fill="none"></path></g></g><g stroke-linecap="round" transform="translate(347.42709704838717 767.9115027062771) rotate(0 53.666656494140625 36.33331298828125)"><path d="M0 0 C0 0, 0 0, 0 0 M0 0 C0 0, 0 0, 0 0 M-0.54 6.2 C1.69 4.93, 2.83 2.47, 4.69 0.26 M-0.66 6.2 C0.99 4.5, 2.31 3.19, 4.6 0.42 M-0.63 10.5 C4.22 8.89, 5.87 5.72, 10.96 1.17 M0.03 12.81 C1.98 9.04, 5 7.36, 10.16 0.7 M-1.71 17.45 C5.97 12.55, 12.33 6.08, 14.43 1.2 M-0.74 18.75 C5.61 13.2, 9.31 5.86, 16.6 0.3 M0 24.39 C5.69 17.92, 14.87 7.73, 22.49 1.13 M0.33 23.66 C5.56 17.8, 11.65 12.53, 21.3 -0.69 M-0.57 30.87 C6.31 23.6, 12.22 16.91, 27.15 -0.81 M-0.52 29.67 C4.81 22.94, 12.45 16.41, 25.58 0.05 M-0.36 36.12 C9.06 24.08, 21 14.26, 31.21 -1.46 M-0.35 36.71 C7.69 28.22, 16.48 17.37, 32.55 -0.93 M-0.55 44.13 C12.46 23.52, 29.59 8.26, 34.94 -1.2 M1.08 41.93 C9.03 32.37, 18.05 20.58, 37.29 -0.69 M-0.69 47.12 C18.13 31.34, 32.54 12.64, 43.12 1.24 M-1.1 49.85 C17.42 29.73, 32.42 10.57, 42.76 -1.09 M-0.34 55.41 C15.14 37.69, 30.27 17.71, 47.6 -0.05 M0.35 53.95 C17.99 33.32, 36.01 11.33, 48.11 -0.77 M-0.46 60.69 C18.22 39.42, 38.88 16.43, 54.4 -0.97 M-0.87 60.68 C16.18 42.74, 32.71 22.56, 52.53 -0.33 M-1.03 65.87 C13.32 53.47, 26.19 35.54, 58.23 -0.22 M0.54 67.03 C17.13 48.67, 31.96 29.41, 57.57 -0.36 M0.79 72.59 C25.96 45.07, 49.84 16.98, 65.55 -2.12 M-0.84 72.72 C14.53 56.46, 26.97 42.15, 63.04 -0.62 M4.45 71.83 C24 52.96, 40.16 33.67, 69.18 -1.37 M5.36 72.57 C30.77 44.84, 55.56 16.22, 69.29 -0.03 M11.31 73.73 C28.15 54.45, 46.86 32.77, 75.32 -1.96 M10.44 73.01 C34.85 46.52, 58.59 17.22, 75.1 0.16 M16.26 74.4 C30.77 57.5, 43.66 44.25, 78.11 2.09 M16.96 72.65 C39.13 47.45, 59.11 22.41, 80 0.33 M21.62 72.39 C33.51 56.01, 46.42 42.99, 86.75 -0.09 M20.5 73.42 C37.74 55.41, 51.35 39.63, 84.12 -0.68 M28.23 73.91 C44.94 51.96, 66.26 27.95, 91.96 -1.04 M27.48 73.54 C46.8 50.1, 65.46 26.82, 90.54 0.44 M34.02 71.98 C44.09 54.78, 60.66 38.99, 97.16 -1.83 M31.51 73.36 C51.17 51.68, 69.3 30.69, 95.13 0.27 M36.41 72.4 C48.9 57.8, 65.61 38.72, 100.94 -0.77 M36.59 73.1 C52.27 56.57, 66.7 40.01, 100.88 0.67 M42.12 73.15 C61.6 51.57, 81.92 27.68, 108.16 -0.31 M42.73 72.9 C67.79 44.41, 93.2 14.27, 105.75 -0.41 M47.08 73.86 C71.36 45.45, 96.31 18.25, 110.57 2.42 M48.56 74.08 C62.17 56.06, 76.1 38.99, 109.09 1.31 M52.77 71.74 C71.99 49.01, 90.44 27.88, 108.43 9.85 M53.53 73.73 C70.39 54.76, 85.74 36.2, 110.02 8.28 M58.84 74.77 C79.46 52.16, 99.1 27.12, 109.07 14.52 M59.27 73.64 C78.62 51.48, 97.3 28.83, 109.78 14.55 M64.13 72.85 C79 56.51, 93.49 37.77, 110.05 21.43 M64.4 72.19 C76.62 58.7, 88.58 45.02, 109.7 19.67 M67.25 75.05 C83.48 55.92, 96.16 42.4, 109.02 27.39 M69.89 73.3 C80.69 59.65, 93.53 44.15, 108.78 26.88 M75.63 72.75 C88.8 58.63, 101.86 45.31, 110.1 30.96 M73.93 72.27 C83.84 61.2, 92.46 50.38, 108.9 32.72 M78.11 72.86 C91.2 60.2, 99.8 46.96, 109.76 39.91 M79.2 72.75 C90.37 58.65, 103.23 45.52, 110.47 39.22 M85.98 72.96 C93.66 63.99, 97.77 58.62, 108.63 44.66 M85.81 72.59 C90.91 67.18, 96.38 59.07, 109 45.06 M89.55 74.57 C94.52 67.86, 102.5 60.68, 107.92 50.19 M90.57 72.8 C94.4 67.27, 100.86 61.66, 109.34 50.17 M95.19 74.22 C102.05 65.13, 106.98 60.58, 109.99 57.26 M95.87 73.41 C100.1 67.32, 103.73 61.72, 109 56.71 M101.54 72.87 C104.86 68.27, 106.54 66.09, 110.25 62.64 M100.93 72.64 C103.44 70.06, 106.61 65.76, 108.69 63.52 M106.46 73.11 C107.6 71.47, 108.73 69.82, 110.16 68.4 M106.59 72.9 C107.66 71.35, 108.34 70.12, 109.6 68.68" stroke="#ced4da" stroke-width="0.5" fill="none"></path><path d="M0.04 0.6 C33.4 -0.53, 65.05 0.94, 105.94 0.52 M-0.22 0.29 C30.66 -1.6, 60.7 -0.14, 108.2 -0.51 M107.39 -0.7 C106.68 20.03, 105.49 38.95, 107.41 74.24 M107.03 0.72 C108.01 17.43, 108.08 36.47, 107.12 73.19 M106.23 71.17 C74.13 72.37, 39.94 72.44, -1.69 72.84 M107.89 72.59 C64.7 73.02, 23.71 72.47, 0.28 72.52 M-0.67 70.77 C0.59 49.1, 1.41 26.13, 1 0.08 M0.26 72.3 C0.84 46.88, 0.26 20.07, 0.33 -0.58" stroke="#000000" stroke-width="1" fill="none"></path></g><g transform="translate(352.42709704838717 782.2448156945584) rotate(0 49 25.5)"><text x="49" y="17.5" font-family="Virgil, Segoe UI Emoji" font-size="20px" fill="#000000" text-anchor="middle" style="white-space: pre;" direction="ltr">Metamask</text><text x="49" y="43" font-family="Virgil, Segoe UI Emoji" font-size="20px" fill="#000000" text-anchor="middle" style="white-space: pre;" direction="ltr">ethersjs</text></g><g stroke-linecap="round"><g transform="translate(322.76044055424654 798.5781897179959) rotate(0 -32.08836254945959 0.7580118418414372)"><path d="M0.36 0.73 C-10.44 1.02, -53.2 1.78, -63.73 1.74 M-0.91 0.07 C-11.94 -0.02, -54.19 -0.38, -64.54 -0.16" stroke="#000000" stroke-width="1" fill="none"></path></g><g transform="translate(322.76044055424654 798.5781897179959) rotate(0 -32.08836254945959 0.7580118418414372)"><path d="M-35.17 -10.08 C-46.71 -4.48, -59.81 -1.81, -64.92 -0.82 M-35.88 -11.43 C-46.3 -6.1, -56.1 -3.39, -64.97 -0.9" stroke="#000000" stroke-width="1" fill="none"></path></g><g transform="translate(322.76044055424654 798.5781897179959) rotate(0 -32.08836254945959 0.7580118418414372)"><path d="M-35.09 10.44 C-46.67 8.02, -59.79 2.65, -64.92 -0.82 M-35.81 9.09 C-46.21 6.93, -56.03 2.15, -64.97 -0.9" stroke="#000000" stroke-width="1" fill="none"></path></g></g><g stroke-linecap="round" transform="translate(146.0937535425278 749.2448767297146) rotate(0 48 55)"><path d="M0 0 C0 0, 0 0, 0 0 M0 0 C0 0, 0 0, 0 0 M0.02 6.56 C0.69 4.47, 2.44 2.76, 4.87 1.04 M-0.61 6.34 C0.67 4.81, 1.94 3.95, 4.82 -0.03 M0.41 11.58 C3.54 9.26, 6.75 4.45, 9.96 -1.09 M-0.4 12.44 C3.37 8.16, 6.78 5.55, 10.27 -0.05 M0.29 19.86 C3.69 13.2, 7.8 11.01, 17.12 -0.31 M0.58 17.58 C2.95 14.98, 7.31 9.81, 15.19 0.02 M1.61 25.42 C4.97 18.53, 13.47 9.48, 19.8 -0.97 M0.06 24.56 C7.49 16.78, 12.6 8.49, 22 -0.35 M-0.48 31.67 C6.36 23.08, 13.08 12.44, 26.97 0.8 M-0.74 31.34 C6.2 22.59, 13 15.77, 25.63 0.92 M-1.79 38.67 C9.07 25.38, 17.48 14.3, 30.22 -0.72 M0.5 36.76 C8.59 26.97, 17.7 16.53, 32.88 0.47 M-1.81 43.12 C9.19 29.7, 17.88 19.58, 37.52 0.74 M1.02 41.54 C14.91 26.45, 28.41 10.2, 36 1.19 M1.51 48.44 C13.66 35.87, 24.88 23.84, 43.67 -0.82 M-0.09 48.07 C8.3 38.81, 15.73 28.91, 41.86 0.7 M1.56 53.32 C11.85 40.23, 25.24 27.25, 48.25 2.19 M0.61 53.79 C14.63 38.62, 28.73 21.87, 47.57 1.06 M0.98 61.52 C14.83 45.55, 28.69 27.62, 54.03 -1.25 M0.57 60.78 C10.87 47.46, 22.53 34.51, 53.66 -0.74 M1.45 66.46 C15.2 49.89, 30.32 31.76, 56.9 1.06 M-0.24 67.09 C21.3 40.79, 43.67 16.76, 57.72 0.89 M0.95 73.22 C22.45 50.12, 40.71 22.33, 64.36 0.32 M-0.43 72.56 C14.12 56.93, 25.63 42.67, 63.6 0.68 M0.89 78.71 C18.04 61.13, 30.76 44.14, 69.39 0.58 M0.81 79.74 C18.5 59.27, 35.17 38.13, 69 0.13 M1.98 86.12 C24.43 58.09, 46.69 30.87, 72.96 -1.5 M1.13 84.16 C19.25 63.41, 40.14 39.07, 74.68 0.07 M0.13 92.81 C24.23 62.88, 47.53 38.25, 77.89 1.24 M-0.24 90.96 C27.31 58.99, 56.44 25.1, 80.08 0.32 M-1.8 96.85 C27.2 69.33, 53.21 35.84, 83.34 -1.83 M-1.04 97.22 C17.82 75.69, 34.67 55.98, 84.51 0.19 M1.3 105.03 C30.31 68.78, 62.89 29.94, 90.75 -1.2 M-0.06 102.8 C29.13 68.19, 61.19 31.37, 90.77 0.16 M-2.08 111.04 C37.01 68.01, 75.42 22.21, 94.23 0.5 M-0.13 110.21 C23.04 81.64, 47.43 54.13, 96.35 0.39 M4.4 112.89 C28.1 84.05, 54.16 52.8, 100.6 0.61 M2.92 112.89 C28.43 83.45, 53 54.98, 99.08 2.67 M9.58 112.84 C32.99 86.57, 57.17 58.18, 97.72 9.98 M8.73 112.91 C35.21 80.6, 63.32 50.08, 98.25 8.67 M13.25 113.17 C36.38 87.24, 59.64 58.2, 99.7 14.53 M13.53 111.48 C46.06 73.93, 78.37 36.24, 99.52 15.3 M17.34 111.98 C40.75 86.35, 64.79 62.2, 98.22 20.32 M19.08 112.58 C44.35 82.76, 69.89 53.5, 98.98 20.58 M25.76 114.02 C47.28 83.19, 72.76 56.88, 97.6 28.38 M25.14 112.5 C54.11 77.93, 83.69 43.58, 99.89 26.23 M30.26 112.49 C50.55 88.03, 73.77 62.21, 98.74 34.5 M29.21 113.53 C53.96 84.32, 77.68 56.99, 99.37 32.27 M32.95 112.85 C48.13 95.53, 62.73 80.29, 98.89 39.81 M35.62 112.45 C59.55 82.71, 85.91 54.98, 97.89 39.33 M40.19 114.64 C62.28 89.08, 79.78 63.58, 98.89 46.82 M39.2 112.19 C53.34 96.2, 68.08 81.06, 99.23 45.52 M45.06 111.3 C56.39 98.14, 71.32 86.05, 100.36 49.51 M44.47 112.41 C59.49 97.29, 74.75 80.06, 99.37 50.3 M49.24 111.99 C68.11 92.44, 83.23 72.77, 99.49 57.85 M51.26 113.09 C67.11 91.83, 85.98 71.9, 99.03 57.75 M57.53 113.34 C67.96 97.49, 78.37 85.16, 97.02 63.67 M55.87 113.11 C70.5 95.47, 84.94 80.13, 99.32 64.23 M59.71 113.37 C70.96 101.34, 81.23 89.8, 99.94 69.19 M60.73 111.87 C71.34 98.96, 83.46 87.17, 98.22 69.7 M65.03 111.19 C78.89 100.32, 88.74 86.85, 98.79 77.06 M67.58 111.86 C76.88 99.68, 87.94 89.25, 99.55 75.55 M72.12 112.91 C78.6 104.98, 85.78 93.91, 98.81 82.47 M71.1 112.28 C80.06 100.83, 89.81 91.08, 98.87 81.48 M75.45 111.36 C83.3 103.5, 89.53 95.05, 99.78 87.69 M78.07 111.6 C84.42 102.08, 92.8 93.72, 99 87.81 M83.23 112 C86.54 106.16, 92.6 103.92, 99.92 93.87 M83.01 113.18 C86.74 108.14, 90.55 103.98, 98.7 94.08 M87.91 112.56 C91.36 108.38, 95.08 105.12, 99.44 99.73 M87.5 111.92 C92.15 107.79, 95.8 102.49, 98.17 99.56 M92.52 112.92 C94.58 109.8, 96.52 107.94, 98 105.47 M93.06 113.01 C94.52 110.63, 96.76 108.39, 98.79 105.59" stroke="#ced4da" stroke-width="0.5" fill="none"></path><path d="M0.45 0.69 C30.91 -1.98, 58.52 -0.97, 95.34 1.3 M-0.9 0.39 C27.21 0.39, 52.78 -0.92, 95.26 0.55 M97.39 -1.31 C97.27 33.41, 97.19 65.55, 96.32 109.75 M95.67 0.63 C97.74 29.42, 97.31 59.44, 96.32 109.48 M96.26 110.64 C72.83 108.7, 49.17 112.24, -0.85 109.84 M96.44 110.62 C61.72 109.79, 27.5 109.69, 0.26 109.68 M-0.43 111.6 C0.77 81.7, 1.13 52.51, -1.75 1.44 M0.06 109.62 C-0.49 74.43, -0.17 37.84, -0.55 -0.41" stroke="#000000" stroke-width="1" fill="none"></path></g><g transform="translate(151.0937535425278 779.2448767297146) rotate(0 43 25)"><text x="43" y="17" font-family="Virgil, Segoe UI Emoji" font-size="20px" fill="#000000" text-anchor="middle" style="white-space: pre;" direction="ltr">Infura</text><text x="43" y="42" font-family="Virgil, Segoe UI Emoji" font-size="20px" fill="#000000" text-anchor="middle" style="white-space: pre;" direction="ltr">node</text></g><g stroke-linecap="round" transform="translate(17.66193646819852 684.4842405368255) rotate(0 63 86.5)"><path d="M0 0 C0 0, 0 0, 0 0 M0 0 C0 0, 0 0, 0 0 M-0.72 6.1 C1.53 3.78, 3.42 2.67, 4.19 -0.04 M-0.42 6.01 C1.34 4.67, 2.59 2.6, 4.8 -0.02 M0.78 12.37 C5.1 6.29, 7 2.31, 10.42 1.49 M0.47 11.57 C3.56 9.37, 5.08 5.96, 10 -0.43 M0.12 17.25 C5.85 13.04, 11.62 5.87, 14.4 0.94 M-0.76 19.42 C5.48 12.08, 10.84 5.01, 15.48 0.48 M-1.01 25.32 C6.29 17.32, 8.61 11.58, 21.38 -0.91 M0.96 24.12 C5.47 16.48, 12.61 10.41, 20.97 0.13 M-0.7 31.38 C8.04 18.35, 18.93 9.97, 25.2 -1.33 M-0.54 29.82 C5.4 24.02, 10.44 18.42, 26.2 -0.09 M-0.54 36.2 C7.47 25.61, 15.95 15.73, 31.71 -0.44 M-0.83 37.53 C6.25 29.14, 15.67 19.98, 31.55 0.7 M-0.24 40.58 C6.63 32.93, 16.25 25.57, 38.76 -0.92 M0.18 42.93 C8.02 33.12, 17.31 22.62, 36.59 -0.64 M1.63 49.52 C16.77 32.61, 32.46 11.71, 40.57 1.72 M0.12 49.16 C15.9 30, 33.19 11.02, 42.22 0.29 M-0.65 54.66 C11.63 42.84, 24.63 29.25, 47.67 -1 M-0.27 55.17 C11.22 41.59, 24.39 27.88, 47.27 0.09 M0.05 62.21 C12.39 45.54, 27.55 28.72, 51.39 -0.72 M-0.55 60.34 C14.72 42.93, 30.58 25.5, 52.76 -0.91 M-0.54 67.45 C16.48 46.73, 33.38 27.73, 59.72 -0.46 M-1.05 66.79 C22.13 41.99, 45.2 15.45, 58.46 -0.02 M1.13 74.77 C20 45.87, 44.55 22.71, 61.82 -0.77 M1.07 72.26 C24.72 44.78, 49.53 17.62, 63.11 -0.59 M1.68 79.81 C20.75 55.31, 45.68 27.64, 67.91 0.07 M0.75 79.92 C22.31 52.07, 46.07 25.43, 69.04 0.54 M0.53 85.95 C19.92 60.79, 42.29 32.55, 73.74 -0.14 M-0.46 85.73 C18.2 63.77, 36.31 44.02, 74.33 0.67 M1.87 90.16 C31.78 57.33, 58.14 23.35, 80.49 0.27 M-0.76 92.04 C31.03 55.72, 62.08 21.66, 79.5 -0.15 M0.44 99.54 C23.54 70.69, 44.49 44.16, 83.24 0.71 M0.41 96.92 C32.08 61.57, 63.89 25.33, 85.63 0.41 M-1.27 105.41 C20.3 77.86, 44.02 51.17, 90.9 2.08 M-0.7 104 C30.67 68.82, 61.03 35.23, 91.02 -0.37 M-1.76 111.37 C21.46 83.72, 43.55 59.49, 94.63 0.63 M-0.18 109.34 C33.13 71.26, 65.88 35.15, 95.36 -0.74 M-0.8 115.8 C18.84 90.76, 41.8 67.06, 99.8 -0.27 M0.98 115.74 C40.6 69.55, 80.08 24.11, 100.39 0.19 M0.57 123.78 C27.93 90.57, 56.1 56.69, 106.43 -0.27 M-0.39 121.37 C28.19 89.08, 57.33 54.51, 106.01 -0.02 M-0.22 129.56 C31.66 90.43, 63.97 55.46, 113.1 1.74 M-0.2 128.08 C31.74 91.92, 66.35 54.56, 111.03 -0.53 M-0.04 132.67 C37.3 94.61, 69.48 54.78, 116.75 2.18 M0.89 134.26 C42.64 85.79, 85.58 35.43, 116.56 1.17 M-0.85 139.97 C45.89 86.95, 91.25 33.43, 123.9 0.88 M0.39 140.69 C43.52 89.08, 88.99 37.11, 122.02 0.01 M0.12 146.2 C41.42 98.84, 80.47 54.78, 127.86 -0.86 M0.44 145.86 C47.36 90.8, 95.79 35.35, 126.07 1.29 M0.25 151.83 C48.8 98.8, 94.63 45.98, 128.61 7.04 M-0.46 151.59 C31.66 115.78, 62.92 78.12, 127.18 6.73 M1.36 159.58 C44.69 102.82, 93.57 51.4, 125.13 12.16 M-1.01 158.38 C39.22 115.6, 78.32 71.26, 125.67 13.01 M-1.11 164.48 C46.72 115.52, 91.79 60.34, 126.1 18.04 M-0.14 165.19 C29.79 132.61, 57.21 100.33, 127.18 18.9 M1.15 170.01 C50.76 112.1, 101.59 56.89, 127.77 24.91 M-1.1 170.38 C41.3 121.49, 83.5 73.73, 126.2 25.92 M2.4 173.04 C29.75 139.38, 57.78 106.96, 127.72 30.25 M1.39 174.46 C28.94 143.38, 57.17 112.05, 126.6 31.59 M7.45 174.98 C50.62 126.24, 93.74 76.98, 126.76 38.66 M6.42 173.99 C43.14 135.37, 78.66 93.68, 127.21 37.08 M12.92 176.35 C53.89 128.97, 96.25 81.86, 126.79 42.34 M11.91 173.95 C38.63 144.63, 66.05 113.22, 126.42 44.53 M16.92 176.28 C49.6 135.43, 85.71 97.08, 127.94 51.22 M16.94 174.03 C60.42 126.72, 104.16 76.63, 127.03 48.89 M21.72 174.15 C48.52 143.77, 77.78 114.74, 127.83 56.99 M22.22 173.97 C59.56 131.94, 97.56 89.14, 126.24 54.8 M28.12 173.29 C64.74 135.58, 100.32 93.11, 125.36 59.68 M29.15 174.17 C55.25 142.89, 81.18 112.77, 127.13 60.87 M33.48 174.91 C61.19 144.13, 89.29 111.42, 128.6 67.44 M33.51 175.31 C61.23 143.11, 89.28 110.62, 127.33 68.34 M38.08 173.83 C64.36 144.64, 90.39 112.87, 126.64 75.16 M38.64 174.91 C70.35 138.05, 100.99 101.59, 126.48 73.39 M43.11 176.37 C63.36 153.85, 82.17 134.86, 128.75 80.45 M45.07 174.94 C65.26 151.47, 85.45 127.21, 126.23 79.97 M49.07 176.06 C77.9 142.59, 103.85 114.01, 125.61 85.8 M49.67 174.38 C74.4 144.32, 100.29 116.22, 127.13 85.68 M53.73 175.56 C73.68 154.01, 92.21 133.45, 127.12 91.06 M55.34 174.89 C72.38 153.55, 90.4 134.09, 127.15 91.09 M58.57 174.39 C74.5 159.29, 91.41 139.34, 128.31 99.3 M60.13 175.3 C74.55 158.39, 88.67 140.33, 127.33 97.34 M66.68 174.79 C88.49 148.64, 106.33 124.67, 127.14 105.35 M64.91 175.31 C77.74 160.71, 89.84 147.25, 126.27 105.48 M69.27 173.51 C84.95 158.18, 104.26 139.45, 125.68 109.86 M70.54 174 C89.71 152.63, 108.08 132.78, 127.11 110.31 M75.53 175.65 C95.96 153.73, 111.11 134.85, 125.41 115.41 M75.5 175.47 C90.14 158.48, 104.57 141.33, 127.4 117.26 M83.11 174.41 C98.74 156.58, 116.93 135.71, 126.89 120.98 M81.07 173.42 C96.88 156.15, 112.47 139.43, 126.66 122.67 M88.05 173 C97.23 161.37, 108.02 150.58, 125.79 129.88 M86.98 174.75 C100.32 160.51, 112.82 144.3, 126.99 128.43 M91.22 172.34 C105.74 159.52, 115.6 144.94, 124.63 136.19 M92.54 174.12 C104.99 161.48, 115.26 147.57, 126.62 134.32 M96.25 172.99 C106 161.85, 119.99 150.6, 128.01 140.93 M96.34 175.62 C104.34 166.63, 110.18 159.3, 125.81 140.84 M103.96 174.85 C109.27 169.07, 113.86 161.73, 127.82 146.04 M103.39 173.27 C108.57 167.53, 114.75 161.09, 125.78 147.06 M106.32 175.06 C113.12 169.16, 116.85 163.05, 125.03 151 M108.75 174.68 C112.92 167.01, 119.79 160.59, 127.26 151.95 M112.23 176.52 C116.3 172.92, 120.77 169.99, 127.61 158.62 M112.06 174.38 C118.3 168.07, 123.42 163.15, 126.08 160.01 M117.45 174.19 C120.23 172.39, 121.68 169.99, 127.57 164.37 M118.5 174.02 C120.73 173.08, 121.9 170.65, 126 164.96 M123.68 174.69 C124.58 173.72, 126.52 171.6, 126.61 171.02 M123.29 175.05 C124.17 174.08, 125.08 172.96, 126.66 171.3" stroke="#868e96" stroke-width="0.5" fill="none"></path><path d="M1.91 -1.4 C46 -0.81, 90.29 0.87, 125.55 0.59 M0.56 0.87 C43.6 -0.92, 87.48 0.07, 126.03 -0.35 M127.66 0.07 C128.78 49.76, 127.52 101.5, 125.39 174.43 M126.95 -0.21 C125.95 61.7, 125.75 122.53, 125.45 172.25 M126.34 171.31 C83.26 175.25, 39.32 173.24, 1.12 172.85 M125.89 173.28 C94.49 173.96, 63.55 173.46, -0.34 172.05 M-0.27 174 C0.46 115.48, -1.37 57.18, 0.53 -0.74 M-0.9 173.33 C-0.68 117.12, -0.65 61.53, 0.61 -0.78" stroke="#000000" stroke-width="1" fill="none"></path></g><g transform="translate(22.66193646819852 745.9842405368255) rotate(0 58 25)"><text x="58" y="17" font-family="Virgil, Segoe UI Emoji" font-size="20px" fill="#000000" text-anchor="middle" style="white-space: pre;" direction="ltr">EVM</text><text x="58" y="42" font-family="Virgil, Segoe UI Emoji" font-size="20px" fill="#000000" text-anchor="middle" style="white-space: pre;" direction="ltr">Blockchain</text></g><g stroke-linecap="round"><g transform="translate(256.7604100366684 823.2448767297146) rotate(0 32.466799841448676 -0.3747539442032348)"><path d="M-0.84 0.31 C10.06 -0.06, 54.5 -0.85, 65.77 -1.06 M0.92 -0.57 C11.6 -0.26, 53.79 0.13, 64.7 0.27" stroke="#000000" stroke-width="1" fill="none"></path></g><g transform="translate(256.7604100366684 823.2448767297146) rotate(0 32.466799841448676 -0.3747539442032348)"><path d="M36.92 9.84 C45.11 8.39, 54.78 4.35, 65.71 -1.53 M35.89 9.78 C45.19 7.16, 55.54 2.88, 64.64 0.96" stroke="#000000" stroke-width="1" fill="none"></path></g><g transform="translate(256.7604100366684 823.2448767297146) rotate(0 32.466799841448676 -0.3747539442032348)"><path d="M37.15 -10.68 C45.45 -5.27, 55.05 -2.45, 65.71 -1.53 M36.11 -10.74 C45.45 -6.41, 55.73 -3.74, 64.64 0.96" stroke="#000000" stroke-width="1" fill="none"></path></g></g><g transform="translate(214.00521103260144 10) rotate(0 181 31.5)"><text x="181" y="44" font-family="Virgil, Segoe UI Emoji" font-size="49.333325195312476px" fill="#000000" text-anchor="middle" style="white-space: pre;" direction="ltr">LandTokenDAO</text></g><g transform="translate(435.2604100366684 558.9114111535428) rotate(0 139.5 12.5)"><text x="139.5" y="18" font-family="Virgil, Segoe UI Emoji" font-size="20px" fill="#000000" text-anchor="middle" style="white-space: pre;" direction="ltr">https://api.landtokendao.com</text></g><g stroke-linecap="round" transform="translate(227.52787689245065 633.2202811114554) rotate(0 78.33334350585938 46.3333740234375)"><path d="M90.8 0.23 C102.56 0.62, 116.7 4.28, 126.37 8.68 C136.04 13.08, 143.92 20.06, 148.83 26.63 C153.75 33.19, 156.43 40.87, 155.88 48.07 C155.33 55.27, 151.55 63.68, 145.55 69.84 C139.55 76, 130.05 81.1, 119.87 85.02 C109.7 88.94, 96.72 92.81, 84.5 93.37 C72.29 93.93, 57.82 91.45, 46.59 88.4 C35.35 85.34, 24.5 80.48, 17.09 75.04 C9.67 69.6, 4.37 62.75, 2.1 55.74 C-0.18 48.74, -0.06 39.86, 3.45 33.02 C6.96 26.18, 14.78 19.87, 23.14 14.71 C31.5 9.54, 41.75 4.29, 53.62 2.05 C65.48 -0.2, 87.29 1.34, 94.33 1.25 C101.36 1.17, 96.27 0.85, 95.84 1.53 M57.11 0.74 C67.97 -2.07, 83.79 -1.76, 95.82 -0.1 C107.86 1.55, 120.31 5.72, 129.3 10.66 C138.29 15.61, 145.3 22.9, 149.77 29.57 C154.23 36.24, 157.41 43.72, 156.1 50.7 C154.79 57.67, 148.9 65.22, 141.91 71.44 C134.93 77.65, 124.58 84.51, 114.2 87.98 C103.82 91.44, 91.41 92.24, 79.62 92.23 C67.83 92.23, 54.12 91.35, 43.45 87.95 C32.77 84.54, 22.81 77.88, 15.58 71.81 C8.35 65.74, 1.91 58.18, 0.07 51.53 C-1.77 44.88, 0.4 38.65, 4.54 31.9 C8.67 25.16, 15.73 16.02, 24.86 11.06 C34 6.1, 53.8 3.34, 59.34 2.13 C64.88 0.91, 57.78 3.25, 58.11 3.77" stroke="none" stroke-width="0" fill="#ced4da"></path><path d="M68.67 0.68 C80.04 -0.7, 95.94 1.56, 107.31 4.02 C118.68 6.49, 129.15 10.12, 136.91 15.48 C144.66 20.84, 150.92 29.19, 153.81 36.19 C156.7 43.19, 157.15 50.49, 154.25 57.46 C151.36 64.44, 144.69 72.53, 136.45 78.05 C128.21 83.58, 116.18 88.13, 104.82 90.63 C93.45 93.13, 80.27 94.11, 68.25 93.07 C56.23 92.03, 42.67 88.71, 32.72 84.4 C22.76 80.08, 13.86 73.52, 8.53 67.2 C3.2 60.88, 0.65 53.51, 0.72 46.48 C0.79 39.46, 3.19 31.53, 8.96 25.07 C14.73 18.62, 23.54 11.91, 35.35 7.76 C47.16 3.61, 70.85 1.33, 79.81 0.17 C88.76 -0.98, 89.28 0.21, 89.09 0.83 M94.38 -0.32 C105.89 0.54, 118.87 7.14, 128.11 11.88 C137.35 16.62, 144.96 21.76, 149.81 28.12 C154.67 34.48, 158.26 42.74, 157.24 50.03 C156.22 57.31, 150.19 65.77, 143.7 71.82 C137.21 77.87, 128.63 82.9, 118.31 86.33 C107.99 89.76, 94.01 92.03, 81.78 92.4 C69.54 92.78, 56.01 91.69, 44.91 88.55 C33.81 85.42, 22.71 79.32, 15.15 73.6 C7.6 67.89, 1.47 61.08, -0.43 54.27 C-2.33 47.47, -0.32 39.56, 3.75 32.79 C7.81 26.01, 15.13 18.64, 23.96 13.61 C32.79 8.59, 45.25 4.57, 56.73 2.64 C68.2 0.71, 86.57 2.25, 92.82 2.03 C99.07 1.81, 94.2 0.71, 94.21 1.3" stroke="#000000" stroke-width="1" fill="none"></path></g><g transform="translate(265.3611898807319 655.5535940997366) rotate(0 39.5 25.5)"><text x="39.5" y="17.5" font-family="Virgil, Segoe UI Emoji" font-size="20px" fill="#000000" text-anchor="middle" style="white-space: pre;" direction="ltr">Hardhat</text><text x="39.5" y="43" font-family="Virgil, Segoe UI Emoji" font-size="20px" fill="#000000" text-anchor="middle" style="white-space: pre;" direction="ltr">dev env</text></g><g transform="translate(461.8432456381802 248.24475465940213) rotate(0 54 12.5)"><text x="54" y="18" font-family="Virgil, Segoe UI Emoji" font-size="20px" fill="#000000" text-anchor="middle" style="white-space: pre;" direction="ltr">AWS - ECS</text></g><g stroke-linecap="round" transform="translate(460.76047107182467 281.244724141824) rotate(0 111 56.333343505859375)"><path d="M0.66 1.66 L220.76 -0.91 L221.45 111.9 L1.21 113.49" stroke="none" stroke-width="0" fill="#ced4da"></path><path d="M0.86 -1.55 C81.73 0.4, 163.63 -1.45, 221.25 -1.28 M-0.05 0.6 C78.32 1.39, 157.8 1.35, 221.52 0.14 M223.11 -0.66 C222.91 34.27, 221.23 65.8, 222.34 113.31 M222.41 0.13 C221.7 28.11, 220.53 55.97, 222.92 112.24 M221.12 113.43 C158.24 112.33, 92.84 112.26, 0.32 113.12 M222.34 112.48 C163.19 110.73, 103.44 110.88, 0.48 111.91 M0.42 112.78 C-1.05 68.98, 0.37 27.72, -0.71 -1.1 M-0.47 112.57 C-1.39 83.14, -1.07 54.52, 0.06 -0.62" stroke="#000000" stroke-width="1" fill="none"></path></g><g stroke-linecap="round" transform="translate(469.42709704838717 349.91141115354276) rotate(0 50.33331298828125 18)"><path d="M1.66 -1.24 L99.76 -0.55 L99.9 37.21 L0.82 36.45" stroke="none" stroke-width="0" fill="#15aabf"></path><path d="M-1.8 0.77 C29.06 1.23, 54.86 -1.37, 99.19 1.11 M0.69 -0.65 C31.34 0.1, 61.8 -0.5, 100.83 -0.13 M100 1.26 C102.82 9.27, 101.98 19.74, 101.31 34.96 M100.8 0.32 C100.56 7.97, 100.48 18.55, 100.24 35.92 M101.55 37.23 C64.61 36.04, 28.7 35.85, 0.53 35.36 M100.45 36.8 C73.71 36.89, 47.07 36.95, -0.87 36.72 M0.12 35.24 C-1.66 24.92, -1.02 11.79, -1.1 -0.83 M-0.09 35.3 C-0.12 22.63, 0.38 10.1, -0.62 0.33" stroke="#000000" stroke-width="1" fill="none"></path></g><g transform="translate(474.92709704838717 355.5780981652615) rotate(0 44.5 12.5)"><text x="44.5" y="18" font-family="Virgil, Segoe UI Emoji" font-size="20px" fill="#000000" text-anchor="middle" style="white-space: pre;" direction="ltr">container</text></g><g transform="translate(476.09372302494967 304.24475465940213) rotate(0 40 12.5)"><text x="40" y="18" font-family="Virgil, Segoe UI Emoji" font-size="20px" fill="#000000" text-anchor="middle" style="white-space: pre;" direction="ltr">Fargate</text></g><g stroke-linecap="round"><g transform="translate(574.7603490015122 373.96341606034105) rotate(0 133.33560133360328 9.930895690300133)"><path d="M0.67 1.04 C44.97 3.97, 220.76 15.02, 264.72 18.05 M-0.44 0.54 C44.36 3.59, 222.55 16.53, 267.11 19.32" stroke="#1864ab" stroke-width="1" fill="none"></path></g><g transform="translate(574.7603490015122 373.96341606034105) rotate(0 133.33560133360328 9.930895690300133)"><path d="M240.02 26.61 C243.44 24.25, 251.48 24.04, 266.4 19.2 M238.32 28.42 C248.43 24.49, 259.5 20.95, 267.82 19.87" stroke="#1864ab" stroke-width="1" fill="none"></path></g><g transform="translate(574.7603490015122 373.96341606034105) rotate(0 133.33560133360328 9.930895690300133)"><path d="M241.42 6.14 C244.62 8.08, 252.36 12.18, 266.4 19.2 M239.72 7.95 C249.17 11.59, 259.73 15.61, 267.82 19.87" stroke="#1864ab" stroke-width="1" fill="none"></path></g></g><g stroke-linecap="round"><g transform="translate(562.7604100366684 317.78251714429445) rotate(0 125.72127348938028 -16.479793650583275)"><path d="M1.04 -0.62 C42.85 -6.5, 209.4 -29.12, 251.31 -34.63 M0.13 1.68 C41.69 -4.14, 208.1 -27.89, 250.09 -33.56" stroke="#1864ab" stroke-width="1" fill="none"></path></g><g transform="translate(562.7604100366684 317.78251714429445) rotate(0 125.72127348938028 -16.479793650583275)"><path d="M222.56 -20.38 C231 -23.39, 241.52 -29.96, 249.97 -32.18 M224.37 -20.06 C229.85 -22.94, 235.61 -25.4, 250.65 -33.9" stroke="#1864ab" stroke-width="1" fill="none"></path></g><g transform="translate(562.7604100366684 317.78251714429445) rotate(0 125.72127348938028 -16.479793650583275)"><path d="M219.73 -40.7 C229.24 -36.86, 240.72 -36.54, 249.97 -32.18 M221.54 -40.39 C227.85 -38.5, 234.27 -36.18, 250.65 -33.9" stroke="#1864ab" stroke-width="1" fill="none"></path></g></g><g transform="translate(926.5939061304184 250.24475465940213) rotate(0 151.5 38)"><text x="151.5" y="18.333333333333332" font-family="Virgil, Segoe UI Emoji" font-size="20px" fill="#1864ab" text-anchor="middle" style="white-space: pre;" direction="ltr">Service to automatically scale</text><text x="151.5" y="43.666666666666664" font-family="Virgil, Segoe UI Emoji" font-size="20px" fill="#1864ab" text-anchor="middle" style="white-space: pre;" direction="ltr">and only pay for what you use</text><text x="151.5" y="69" font-family="Virgil, Segoe UI Emoji" font-size="20px" fill="#1864ab" text-anchor="middle" style="white-space: pre;" direction="ltr">- lambda for containers</text></g><g transform="translate(747.9269749780747 162.91141115354276) rotate(0 113.5 12.5)"><text x="113.5" y="18" font-family="Virgil, Segoe UI Emoji" font-size="20px" fill="#1864ab" text-anchor="middle" style="white-space: pre;" direction="ltr">AWS Container solution</text></g><g stroke-linecap="round"><g transform="translate(536.6265749695419 237.57818971799588) rotate(0 101.28410216072353 -21.771486075146186)"><path d="M-0.89 0.66 C33.12 -6.62, 169.42 -36.94, 203.46 -44.21 M0.85 -0.03 C34.76 -7.1, 168.91 -35.42, 202.53 -42.89" stroke="#1864ab" stroke-width="1" fill="none"></path></g><g transform="translate(536.6265749695419 237.57818971799588) rotate(0 101.28410216072353 -21.771486075146186)"><path d="M178.24 -26.85 C182.82 -30.82, 191.22 -35.98, 204.19 -42.82 M177.01 -27.22 C187.56 -32.45, 196.13 -38.43, 203.48 -43.11" stroke="#1864ab" stroke-width="1" fill="none"></path></g><g transform="translate(536.6265749695419 237.57818971799588) rotate(0 101.28410216072353 -21.771486075146186)"><path d="M173.91 -46.91 C179.48 -45.86, 188.96 -46.03, 204.19 -42.82 M172.68 -47.28 C184.76 -44.92, 194.97 -43.3, 203.48 -43.11" stroke="#1864ab" stroke-width="1" fill="none"></path></g></g><g stroke-linecap="round" transform="translate(735.5532414575669 494.45671950235453) rotate(0 32.540420532226506 32.540420532226506)"><path d="M0 0 C0 0, 0 0, 0 0 M0 0 C0 0, 0 0, 0 0 M0.13 12.04 C3.2 8.51, 6.28 4.97, 10.63 -0.03 M0.13 12.04 C2.34 9.5, 4.55 6.96, 10.63 -0.03 M0.27 24.08 C7.57 15.67, 14.88 7.27, 21.26 -0.07 M0.27 24.08 C7.22 16.08, 14.17 8.09, 21.26 -0.07 M-0.26 36.88 C9.82 25.29, 19.89 13.7, 31.89 -0.1 M-0.26 36.88 C7.96 27.43, 16.18 17.97, 31.89 -0.1 M-0.12 48.92 C9.02 38.41, 18.15 27.89, 42.52 -0.14 M-0.12 48.92 C9.38 37.99, 18.88 27.05, 42.52 -0.14 M0.01 60.96 C15.91 42.67, 31.81 24.38, 53.15 -0.17 M0.01 60.96 C13.68 45.23, 27.35 29.51, 53.15 -0.17 M4.08 68.47 C27.87 41.11, 51.65 13.75, 63.78 -0.21 M4.08 68.47 C19.54 50.68, 35.01 32.9, 63.78 -0.21 M14.71 68.44 C36.1 43.83, 57.49 19.23, 70.47 4.29 M14.71 68.44 C36.73 43.11, 58.75 17.78, 70.47 4.29 M25.34 68.4 C39.92 51.63, 54.51 34.85, 69.95 17.08 M25.34 68.4 C42.68 48.46, 60.01 28.52, 69.95 17.08 M35.97 68.37 C48.28 54.21, 60.59 40.05, 70.08 29.12 M35.97 68.37 C46.61 56.13, 57.25 43.89, 70.08 29.12 M46.6 68.33 C52.2 61.89, 57.8 55.45, 70.22 41.16 M46.6 68.33 C53.09 60.87, 59.57 53.41, 70.22 41.16 M57.23 68.3 C62.3 62.47, 67.37 56.64, 70.35 53.2 M57.23 68.3 C60.06 65.04, 62.89 61.78, 70.35 53.2 M0.23 65.28 C0.23 65.28, 0.23 65.28, 0.23 65.28 M0.23 65.28 C0.23 65.28, 0.23 65.28, 0.23 65.28 M12.27 65.15 C8.93 62.25, 5.59 59.34, 0.19 54.65 M12.27 65.15 C7.7 61.17, 3.13 57.2, 0.19 54.65 M24.31 65.01 C19.31 60.67, 14.32 56.33, 0.16 44.02 M24.31 65.01 C16.14 57.91, 7.97 50.81, 0.16 44.02 M36.35 64.88 C28.81 58.32, 21.26 51.76, 0.13 33.39 M36.35 64.88 C27.83 57.47, 19.31 50.06, 0.13 33.39 M49.15 65.4 C34.63 52.79, 20.12 40.17, 0.09 22.76 M49.15 65.4 C33.82 52.08, 18.49 38.76, 0.09 22.76 M61.19 65.27 C47.74 53.58, 34.29 41.89, 0.06 12.13 M61.19 65.27 C43.7 50.07, 26.21 34.87, 0.06 12.13 M68.7 61.2 C53.21 47.74, 37.73 34.28, 0.02 1.5 M68.7 61.2 C52.52 47.13, 36.34 33.07, 0.02 1.5 M68.67 50.57 C48.73 33.24, 28.79 15.9, 4.52 -5.19 M68.67 50.57 C43.35 28.56, 18.04 6.56, 4.52 -5.19 M68.63 39.94 C48.44 22.39, 28.24 4.83, 16.56 -5.33 M68.63 39.94 C56.07 29.02, 43.51 18.1, 16.56 -5.33 M68.6 29.31 C54.97 17.46, 41.34 5.62, 28.6 -5.46 M68.6 29.31 C57.04 19.27, 45.49 9.23, 28.6 -5.46 M68.56 18.68 C58.08 9.57, 47.6 0.46, 41.39 -4.94 M68.56 18.68 C58.33 9.78, 48.1 0.89, 41.39 -4.94 M68.53 8.05 C63.54 3.71, 58.55 -0.63, 53.43 -5.07 M68.53 8.05 C64.6 4.63, 60.66 1.21, 53.43 -5.07" stroke="#7950f288" stroke-width="1" fill="none"></path><path d="M0 0 C16.7 0, 33.39 0, 65.08 0 M0 0 C15.9 0, 31.81 0, 65.08 0 M65.08 0 C65.08 20.63, 65.08 41.25, 65.08 65.08 M65.08 0 C65.08 25.54, 65.08 51.08, 65.08 65.08 M65.08 65.08 C44.36 65.08, 23.65 65.08, 0 65.08 M65.08 65.08 C41.93 65.08, 18.78 65.08, 0 65.08 M0 65.08 C0 47.88, 0 30.68, 0 0 M0 65.08 C0 45.13, 0 25.19, 0 0" stroke="#000000" stroke-width="2" fill="none"></path></g><g stroke-linecap="round" transform="translate(741.5370364201565 512.0307555531209) rotate(0 15.50619339104469 15.50619339104469)"><path d="M31.01 15.51 C31.01 16.4, 30.93 17.31, 30.78 18.2 C30.62 19.08, 30.38 19.97, 30.08 20.81 C29.77 21.65, 29.38 22.48, 28.93 23.26 C28.49 24.04, 27.96 24.79, 27.38 25.47 C26.81 26.16, 26.16 26.81, 25.47 27.38 C24.79 27.96, 24.04 28.49, 23.26 28.93 C22.48 29.38, 21.65 29.77, 20.81 30.08 C19.97 30.38, 19.08 30.62, 18.2 30.78 C17.31 30.93, 16.4 31.01, 15.51 31.01 C14.61 31.01, 13.7 30.93, 12.81 30.78 C11.93 30.62, 11.05 30.38, 10.2 30.08 C9.36 29.77, 8.53 29.38, 7.75 28.93 C6.98 28.49, 6.23 27.96, 5.54 27.38 C4.85 26.81, 4.2 26.16, 3.63 25.47 C3.05 24.79, 2.53 24.04, 2.08 23.26 C1.63 22.48, 1.24 21.65, 0.94 20.81 C0.63 19.97, 0.39 19.08, 0.24 18.2 C0.08 17.31, 0 16.4, 0 15.51 C0 14.61, 0.08 13.7, 0.24 12.81 C0.39 11.93, 0.63 11.05, 0.94 10.2 C1.24 9.36, 1.63 8.53, 2.08 7.75 C2.53 6.98, 3.05 6.23, 3.63 5.54 C4.2 4.85, 4.85 4.2, 5.54 3.63 C6.23 3.05, 6.98 2.53, 7.75 2.08 C8.53 1.63, 9.36 1.24, 10.2 0.94 C11.05 0.63, 11.93 0.39, 12.81 0.24 C13.7 0.08, 14.61 0, 15.51 0 C16.4 0, 17.31 0.08, 18.2 0.24 C19.08 0.39, 19.97 0.63, 20.81 0.94 C21.65 1.24, 22.48 1.63, 23.26 2.08 C24.04 2.53, 24.79 3.05, 25.47 3.63 C26.16 4.2, 26.81 4.85, 27.38 5.54 C27.96 6.23, 28.49 6.98, 28.93 7.75 C29.38 8.53, 29.77 9.36, 30.08 10.2 C30.38 11.05, 30.62 11.93, 30.78 12.81 C30.93 13.7, 30.97 15.06, 31.01 15.51 C31.05 15.95, 31.05 15.06, 31.01 15.51" stroke="#000000" stroke-width="2" fill="none"></path></g><g stroke-linecap="round" transform="translate(780.6214370247337 506.64456379092564) rotate(0 4.681114985975796 4.681114985975739)"><path d="M9.36 4.68 C9.36 4.95, 9.34 5.23, 9.29 5.49 C9.24 5.76, 9.17 6.03, 9.08 6.28 C8.99 6.54, 8.87 6.79, 8.74 7.02 C8.6 7.26, 8.44 7.48, 8.27 7.69 C8.09 7.9, 7.9 8.09, 7.69 8.27 C7.48 8.44, 7.26 8.6, 7.02 8.74 C6.79 8.87, 6.54 8.99, 6.28 9.08 C6.03 9.17, 5.76 9.24, 5.49 9.29 C5.23 9.34, 4.95 9.36, 4.68 9.36 C4.41 9.36, 4.14 9.34, 3.87 9.29 C3.6 9.24, 3.33 9.17, 3.08 9.08 C2.83 8.99, 2.58 8.87, 2.34 8.74 C2.11 8.6, 1.88 8.44, 1.67 8.27 C1.46 8.09, 1.27 7.9, 1.1 7.69 C0.92 7.48, 0.76 7.26, 0.63 7.02 C0.49 6.79, 0.37 6.54, 0.28 6.28 C0.19 6.03, 0.12 5.76, 0.07 5.49 C0.02 5.23, 0 4.95, 0 4.68 C0 4.41, 0.02 4.14, 0.07 3.87 C0.12 3.6, 0.19 3.33, 0.28 3.08 C0.37 2.83, 0.49 2.58, 0.63 2.34 C0.76 2.11, 0.92 1.88, 1.1 1.67 C1.27 1.46, 1.46 1.27, 1.67 1.1 C1.88 0.92, 2.11 0.76, 2.34 0.63 C2.58 0.49, 2.83 0.37, 3.08 0.28 C3.33 0.19, 3.6 0.12, 3.87 0.07 C4.14 0.02, 4.41 0, 4.68 0 C4.95 0, 5.23 0.02, 5.49 0.07 C5.76 0.12, 6.03 0.19, 6.28 0.28 C6.54 0.37, 6.79 0.49, 7.02 0.63 C7.26 0.76, 7.48 0.92, 7.69 1.1 C7.9 1.27, 8.09 1.46, 8.27 1.67 C8.44 1.88, 8.6 2.11, 8.74 2.34 C8.87 2.58, 8.99 2.83, 9.08 3.08 C9.17 3.33, 9.24 3.6, 9.29 3.87 C9.34 4.14, 9.35 4.55, 9.36 4.68 C9.37 4.82, 9.37 4.55, 9.36 4.68" stroke="#000000" stroke-width="2" fill="none"></path></g><g stroke-linecap="round" transform="translate(780.7413744277062 538.9471667224806) rotate(0 4.681114985975796 4.681114985975739)"><path d="M9.36 4.68 C9.36 4.95, 9.34 5.23, 9.29 5.49 C9.24 5.76, 9.17 6.03, 9.08 6.28 C8.99 6.54, 8.87 6.79, 8.74 7.02 C8.6 7.26, 8.44 7.48, 8.27 7.69 C8.09 7.9, 7.9 8.09, 7.69 8.27 C7.48 8.44, 7.26 8.6, 7.02 8.74 C6.79 8.87, 6.54 8.99, 6.28 9.08 C6.03 9.17, 5.76 9.24, 5.49 9.29 C5.23 9.34, 4.95 9.36, 4.68 9.36 C4.41 9.36, 4.14 9.34, 3.87 9.29 C3.6 9.24, 3.33 9.17, 3.08 9.08 C2.83 8.99, 2.58 8.87, 2.34 8.74 C2.11 8.6, 1.88 8.44, 1.67 8.27 C1.46 8.09, 1.27 7.9, 1.1 7.69 C0.92 7.48, 0.76 7.26, 0.63 7.02 C0.49 6.79, 0.37 6.54, 0.28 6.28 C0.19 6.03, 0.12 5.76, 0.07 5.49 C0.02 5.23, 0 4.95, 0 4.68 C0 4.41, 0.02 4.14, 0.07 3.87 C0.12 3.6, 0.19 3.33, 0.28 3.08 C0.37 2.83, 0.49 2.58, 0.63 2.34 C0.76 2.11, 0.92 1.88, 1.1 1.67 C1.27 1.46, 1.46 1.27, 1.67 1.1 C1.88 0.92, 2.11 0.76, 2.34 0.63 C2.58 0.49, 2.83 0.37, 3.08 0.28 C3.33 0.19, 3.6 0.12, 3.87 0.07 C4.14 0.02, 4.41 0, 4.68 0 C4.95 0, 5.23 0.02, 5.49 0.07 C5.76 0.12, 6.03 0.19, 6.28 0.28 C6.54 0.37, 6.79 0.49, 7.02 0.63 C7.26 0.76, 7.48 0.92, 7.69 1.1 C7.9 1.27, 8.09 1.46, 8.27 1.67 C8.44 1.88, 8.6 2.11, 8.74 2.34 C8.87 2.58, 8.99 2.83, 9.08 3.08 C9.17 3.33, 9.24 3.6, 9.29 3.87 C9.34 4.14, 9.35 4.55, 9.36 4.68 C9.37 4.82, 9.37 4.55, 9.36 4.68" stroke="#000000" stroke-width="2" fill="none"></path></g><g stroke-linecap="round" transform="translate(785.4224894136794 521.3929855250727) rotate(0 4.681114985975796 4.681114985975739)"><path d="M9.36 4.68 C9.36 4.95, 9.34 5.23, 9.29 5.49 C9.24 5.76, 9.17 6.03, 9.08 6.28 C8.99 6.54, 8.87 6.79, 8.74 7.02 C8.6 7.26, 8.44 7.48, 8.27 7.69 C8.09 7.9, 7.9 8.09, 7.69 8.27 C7.48 8.44, 7.26 8.6, 7.02 8.74 C6.79 8.87, 6.54 8.99, 6.28 9.08 C6.03 9.17, 5.76 9.24, 5.49 9.29 C5.23 9.34, 4.95 9.36, 4.68 9.36 C4.41 9.36, 4.14 9.34, 3.87 9.29 C3.6 9.24, 3.33 9.17, 3.08 9.08 C2.83 8.99, 2.58 8.87, 2.34 8.74 C2.11 8.6, 1.88 8.44, 1.67 8.27 C1.46 8.09, 1.27 7.9, 1.1 7.69 C0.92 7.48, 0.76 7.26, 0.63 7.02 C0.49 6.79, 0.37 6.54, 0.28 6.28 C0.19 6.03, 0.12 5.76, 0.07 5.49 C0.02 5.23, 0 4.95, 0 4.68 C0 4.41, 0.02 4.14, 0.07 3.87 C0.12 3.6, 0.19 3.33, 0.28 3.08 C0.37 2.83, 0.49 2.58, 0.63 2.34 C0.76 2.11, 0.92 1.88, 1.1 1.67 C1.27 1.46, 1.46 1.27, 1.67 1.1 C1.88 0.92, 2.11 0.76, 2.34 0.63 C2.58 0.49, 2.83 0.37, 3.08 0.28 C3.33 0.19, 3.6 0.12, 3.87 0.07 C4.14 0.02, 4.41 0, 4.68 0 C4.95 0, 5.23 0.02, 5.49 0.07 C5.76 0.12, 6.03 0.19, 6.28 0.28 C6.54 0.37, 6.79 0.49, 7.02 0.63 C7.26 0.76, 7.48 0.92, 7.69 1.1 C7.9 1.27, 8.09 1.46, 8.27 1.67 C8.44 1.88, 8.6 2.11, 8.74 2.34 C8.87 2.58, 8.99 2.83, 9.08 3.08 C9.17 3.33, 9.24 3.6, 9.29 3.87 C9.34 4.14, 9.35 4.55, 9.36 4.68 C9.37 4.82, 9.37 4.55, 9.36 4.68" stroke="#000000" stroke-width="2" fill="none"></path></g><g stroke-linecap="round"><g transform="translate(773.134562575493 527.2443792575422) rotate(0 5.851393732469717 0)"><path d="M0 0 C1.95 0, 9.75 0, 11.7 0 M0 0 C1.95 0, 9.75 0, 11.7 0" stroke="#000000" stroke-width="2" fill="none"></path></g></g><g stroke-linecap="round"><g transform="translate(769.5037889330404 539.5323060957279) rotate(23.749494492867285 5.851393732469717 0)"><path d="M0 0 C1.95 0, 9.75 0, 11.7 0 M0 0 C1.95 0, 9.75 0, 11.7 0" stroke="#000000" stroke-width="2" fill="none"></path></g></g><g stroke-linecap="round"><g transform="translate(769.5037889330408 515.0763898223269) rotate(338.0702750671431 5.851393732469717 0)"><path d="M0 0 C1.95 0, 9.75 0, 11.7 0 M0 0 C1.95 0, 9.75 0, 11.7 0" stroke="#000000" stroke-width="2" fill="none"></path></g></g><g transform="translate(747.5936619897932 564.3662248750435) rotate(0 20.5 12.5)"><text x="0" y="18" font-family="Virgil, Segoe UI Emoji" font-size="20px" fill="#000000" text-anchor="start" style="white-space: pre;" direction="ltr">ELB</text></g><g stroke-linecap="round" transform="translate(826.52983385419 245.19379541307183) rotate(0 32.230576182478444 32.199712367130076)"><path d="M0 0 C0 0, 0 0, 0 0 M0 0 C0 0, 0 0, 0 0 M0.13 12.04 C3.5 8.17, 6.86 4.3, 10.63 -0.03 M0.13 12.04 C2.66 9.13, 5.2 6.22, 10.63 -0.03 M0.27 24.08 C5.32 18.27, 10.37 12.46, 21.26 -0.07 M0.27 24.08 C8.62 14.47, 16.97 4.87, 21.26 -0.07 M-0.26 36.88 C11.37 23.5, 23 10.13, 31.89 -0.1 M-0.26 36.88 C9.51 25.64, 19.28 14.41, 31.89 -0.1 M-0.12 48.92 C14.6 31.98, 29.32 15.04, 42.52 -0.14 M-0.12 48.92 C9.84 37.46, 19.81 25.99, 42.52 -0.14 M0.01 60.96 C14.15 44.69, 28.3 28.42, 53.15 -0.17 M0.01 60.96 C19.44 38.61, 38.87 16.26, 53.15 -0.17 M4.08 68.47 C16.21 54.52, 28.34 40.56, 63.78 -0.21 M4.08 68.47 C24.44 45.05, 44.8 21.62, 63.78 -0.21 M14.71 68.44 C32.89 47.53, 51.06 26.62, 69.82 5.04 M14.71 68.44 C32.57 47.89, 50.43 27.35, 69.82 5.04 M25.34 68.4 C38.94 52.76, 52.53 37.12, 69.95 17.08 M25.34 68.4 C41.42 49.9, 57.51 31.4, 69.95 17.08 M35.97 68.37 C48.34 54.14, 60.71 39.91, 70.08 29.12 M35.97 68.37 C44.08 59.04, 52.19 49.71, 70.08 29.12 M46.6 68.33 C53.79 60.06, 60.98 51.79, 70.22 41.16 M46.6 68.33 C52.35 61.72, 58.1 55.1, 70.22 41.16 M57.23 68.3 C62.07 62.73, 66.91 57.16, 69.69 53.96 M57.23 68.3 C60.05 65.06, 62.86 61.82, 69.69 53.96 M-0.19 64.24 C-0.19 64.24, -0.19 64.24, -0.19 64.24 M-0.19 64.24 C-0.19 64.24, -0.19 64.24, -0.19 64.24 M11.85 64.1 C7.68 60.48, 3.51 56.85, -0.22 53.61 M11.85 64.1 C7.4 60.23, 2.94 56.36, -0.22 53.61 M24.65 64.63 C18.77 59.52, 12.9 54.41, -0.26 42.98 M24.65 64.63 C15.68 56.83, 6.7 49.03, -0.26 42.98 M36.69 64.49 C22.44 52.11, 8.2 39.72, -0.29 32.35 M36.69 64.49 C28.99 57.8, 21.29 51.11, -0.29 32.35 M48.73 64.36 C29.27 47.44, 9.8 30.52, -0.33 21.72 M48.73 64.36 C31.48 49.36, 14.22 34.36, -0.33 21.72 M60.77 64.23 C37.88 44.33, 14.98 24.42, -0.36 11.09 M60.77 64.23 C45.74 51.16, 30.71 38.09, -0.36 11.09 M68.28 60.16 C46.95 41.61, 25.62 23.07, 0.36 1.11 M68.28 60.16 C46.43 41.16, 24.58 22.16, 0.36 1.11 M68.25 49.53 C43.32 27.86, 18.4 6.19, 4.85 -5.58 M68.25 49.53 C52.71 36.02, 37.16 22.51, 4.85 -5.58 M68.21 38.9 C49.61 22.73, 31.02 6.56, 16.89 -5.72 M68.21 38.9 C54.02 26.56, 39.83 14.22, 16.89 -5.72 M68.18 28.27 C58.93 20.23, 49.69 12.19, 28.93 -5.85 M68.18 28.27 C55.23 17.01, 42.27 5.74, 28.93 -5.85 M68.15 17.64 C60.73 11.19, 53.32 4.75, 41.73 -5.33 M68.15 17.64 C59.34 9.99, 50.54 2.34, 41.73 -5.33 M68.11 7.01 C63.66 3.14, 59.22 -0.72, 53.77 -5.46 M68.11 7.01 C64.01 3.44, 59.92 -0.12, 53.77 -5.46" stroke="#fd7e1488" stroke-width="1" fill="none"></path><path d="M0 0 C19.57 0, 39.15 0, 64.46 0 M0 0 C17.95 0, 35.91 0, 64.46 0 M64.46 0 C64.46 13.88, 64.46 27.75, 64.46 64.4 M64.46 0 C64.46 21.12, 64.46 42.23, 64.46 64.4 M64.46 64.4 C41.9 64.4, 19.34 64.4, 0 64.4 M64.46 64.4 C42.97 64.4, 21.48 64.4, 0 64.4 M0 64.4 C0 47.59, 0 30.77, 0 0 M0 64.4 C0 42.43, 0 20.47, 0 0" stroke="#000000" stroke-width="2" fill="none"></path></g><g stroke-linecap="round"><g transform="translate(873.7947838273669 260.5725126993299) rotate(0 -14.527943252572754 4.246637183852329)" fill-rule="evenodd"><path d="M0 0 L-0.01 -5.02 L-14.76 -10.29 L-28.99 -5.08 L-29.08 12.27 L-14.61 18.78 L0.03 12.33 L0 0" stroke="none" stroke-width="0" fill="#ff00" fill-rule="evenodd"></path><path d="M0 0 C-0.01 -1.9, -0.01 -3.81, -0.01 -5.02 M0 0 C0 -1.77, -0.01 -3.54, -0.01 -5.02 M-0.01 -5.02 C-4.57 -6.65, -9.12 -8.27, -14.76 -10.29 M-0.01 -5.02 C-4.21 -6.52, -8.41 -8.02, -14.76 -10.29 M-14.76 -10.29 C-19.09 -8.7, -23.42 -7.12, -28.99 -5.08 M-14.76 -10.29 C-18.21 -9.02, -21.65 -7.76, -28.99 -5.08 M-28.99 -5.08 C-29.02 0.3, -29.05 5.68, -29.08 12.27 M-28.99 -5.08 C-29.02 0.52, -29.05 6.12, -29.08 12.27 M-29.08 12.27 C-24.92 14.15, -20.75 16.02, -14.61 18.78 M-29.08 12.27 C-24.52 14.33, -19.95 16.38, -14.61 18.78 M-14.61 18.78 C-9.12 16.36, -3.63 13.94, 0.03 12.33 M-14.61 18.78 C-8.87 16.25, -3.13 13.72, 0.03 12.33 M0.03 12.33 C0.02 8.09, 0.01 3.86, 0 0 M0.03 12.33 C0.02 8.67, 0.01 5, 0 0 M0 0 C0 0, 0 0, 0 0 M0 0 C0 0, 0 0, 0 0" stroke="#000" stroke-width="2" fill="none"></path></g></g><g stroke-linecap="round"><g transform="translate(845.2286664541753 255.76809723907525) rotate(0 7.040937546110854 11.492780070298295)"><path d="M0 0 C3.44 1.38, 6.88 2.76, 14.08 5.64 M0 0 C4.46 1.79, 8.93 3.57, 14.08 5.64 M14.08 5.64 C14.06 12.45, 14.03 19.25, 14.02 22.99 M14.08 5.64 C14.06 11.16, 14.04 16.68, 14.02 22.99" stroke="#000000" stroke-width="2" fill="none"></path></g></g><g stroke-linecap="round"><g transform="translate(859.2668405747916 261.3348149366335) rotate(0 6.968669893097058 -2.7100382917599575)"><path d="M0 0 C4.41 -1.71, 8.81 -3.43, 13.94 -5.42 M0 0 C4.63 -1.8, 9.27 -3.6, 13.94 -5.42" stroke="#000000" stroke-width="2" fill="none"></path></g></g><g stroke-linecap="round"><g transform="translate(852.5959362472281 289.3011120227227) rotate(0 -6.263092272848439 1.8307533330340107)" fill-rule="evenodd"><path d="M0 0 L-0.01 -2.17 L-6.36 -4.43 L-12.5 -2.19 L-12.54 5.29 L-6.3 8.1 L0.01 5.31 L0 0" stroke="none" stroke-width="0" fill="#ff00" fill-rule="evenodd"></path><path d="M0 0 C0 -0.62, 0 -1.24, -0.01 -2.17 M0 0 C0 -0.54, 0 -1.07, -0.01 -2.17 M-0.01 -2.17 C-1.86 -2.83, -3.72 -3.49, -6.36 -4.43 M-0.01 -2.17 C-1.71 -2.77, -3.41 -3.38, -6.36 -4.43 M-6.36 -4.43 C-8.64 -3.6, -10.93 -2.76, -12.5 -2.19 M-6.36 -4.43 C-7.95 -3.85, -9.54 -3.27, -12.5 -2.19 M-12.5 -2.19 C-12.51 0.3, -12.53 2.79, -12.54 5.29 M-12.5 -2.19 C-12.51 0.55, -12.53 3.29, -12.54 5.29 M-12.54 5.29 C-10.13 6.37, -7.73 7.45, -6.3 8.1 M-12.54 5.29 C-11.28 5.86, -10.01 6.43, -6.3 8.1 M-6.3 8.1 C-4.82 7.45, -3.35 6.79, 0.01 5.31 M-6.3 8.1 C-4.42 7.27, -2.53 6.44, 0.01 5.31 M0.01 5.31 C0.01 3.89, 0.01 2.46, 0 0 M0.01 5.31 C0.01 3.88, 0.01 2.45, 0 0 M0 0 C0 0, 0 0, 0 0 M0 0 C0 0, 0 0, 0 0" stroke="#000" stroke-width="2" fill="none"></path></g></g><g stroke-linecap="round"><g transform="translate(840.2808944085557 287.2298967913913) rotate(0 3.0353946716336395 4.954613381979243)"><path d="M0 0 C1.64 0.65, 3.27 1.31, 6.07 2.43 M0 0 C1.49 0.6, 2.97 1.19, 6.07 2.43 M6.07 2.43 C6.06 5.09, 6.05 7.75, 6.04 9.91 M6.07 2.43 C6.06 4.42, 6.06 6.42, 6.04 9.91" stroke="#000000" stroke-width="2" fill="none"></path></g></g><g stroke-linecap="round"><g transform="translate(846.3328439743798 289.62974555116386) rotate(0 3.004239609193064 -1.1683154035750647)"><path d="M0 0 C2.23 -0.87, 4.47 -1.74, 6.01 -2.34 M0 0 C1.35 -0.53, 2.7 -1.05, 6.01 -2.34" stroke="#000000" stroke-width="2" fill="none"></path></g></g><g stroke-linecap="round"><g transform="translate(865.7330768039722 296.3205319164987) rotate(0 -6.263092272848439 1.8307533330339822)" fill-rule="evenodd"><path d="M0 0 L-0.01 -2.17 L-6.36 -4.43 L-12.5 -2.19 L-12.54 5.29 L-6.3 8.1 L0.01 5.31 L0 0" stroke="none" stroke-width="0" fill="#ff00" fill-rule="evenodd"></path><path d="M0 0 C0 -0.77, 0 -1.54, -0.01 -2.17 M0 0 C0 -0.74, 0 -1.48, -0.01 -2.17 M-0.01 -2.17 C-1.59 -2.73, -3.17 -3.29, -6.36 -4.43 M-0.01 -2.17 C-2.16 -2.93, -4.32 -3.7, -6.36 -4.43 M-6.36 -4.43 C-8.33 -3.71, -10.3 -2.99, -12.5 -2.19 M-6.36 -4.43 C-7.92 -3.87, -9.47 -3.3, -12.5 -2.19 M-12.5 -2.19 C-12.51 -0.29, -12.52 1.62, -12.54 5.29 M-12.5 -2.19 C-12.51 0.54, -12.53 3.26, -12.54 5.29 M-12.54 5.29 C-10.77 6.08, -9.01 6.88, -6.3 8.1 M-12.54 5.29 C-10.29 6.3, -8.04 7.31, -6.3 8.1 M-6.3 8.1 C-4.73 7.4, -3.16 6.71, 0.01 5.31 M-6.3 8.1 C-4.24 7.19, -2.18 6.28, 0.01 5.31 M0.01 5.31 C0.01 3.37, 0 1.42, 0 0 M0.01 5.31 C0.01 4.05, 0.01 2.79, 0 0 M0 0 C0 0, 0 0, 0 0 M0 0 C0 0, 0 0, 0 0" stroke="#000" stroke-width="2" fill="none"></path></g></g><g stroke-linecap="round"><g transform="translate(853.4180349652979 294.2493166851631) rotate(0 3.0353946716336395 4.954613381979243)"><path d="M0 0 C1.62 0.65, 3.24 1.3, 6.07 2.43 M0 0 C1.9 0.76, 3.8 1.52, 6.07 2.43 M6.07 2.43 C6.06 5, 6.05 7.58, 6.04 9.91 M6.07 2.43 C6.06 4.51, 6.06 6.59, 6.04 9.91" stroke="#000000" stroke-width="2" fill="none"></path></g></g><g stroke-linecap="round"><g transform="translate(859.4699845311261 296.64916544493747) rotate(0 3.004239609193064 -1.1683154035750647)"><path d="M0 0 C2.18 -0.85, 4.36 -1.7, 6.01 -2.34 M0 0 C2 -0.78, 3.99 -1.55, 6.01 -2.34" stroke="#000000" stroke-width="2" fill="none"></path></g></g><g stroke-linecap="round"><g transform="translate(878.3724766294317 288.4672637103837) rotate(0 -6.263092272848439 1.8307533330339822)" fill-rule="evenodd"><path d="M0 0 L-0.01 -2.17 L-6.36 -4.43 L-12.5 -2.19 L-12.54 5.29 L-6.3 8.1 L0.01 5.31 L0 0" stroke="none" stroke-width="0" fill="#ff00" fill-rule="evenodd"></path><path d="M0 0 C0 -0.86, 0 -1.71, -0.01 -2.17 M0 0 C0 -0.69, 0 -1.37, -0.01 -2.17 M-0.01 -2.17 C-1.84 -2.82, -3.68 -3.48, -6.36 -4.43 M-0.01 -2.17 C-1.83 -2.82, -3.65 -3.46, -6.36 -4.43 M-6.36 -4.43 C-7.65 -3.96, -8.94 -3.49, -12.5 -2.19 M-6.36 -4.43 C-7.96 -3.85, -9.55 -3.27, -12.5 -2.19 M-12.5 -2.19 C-12.51 0.51, -12.53 3.2, -12.54 5.29 M-12.5 -2.19 C-12.51 -0.37, -12.52 1.45, -12.54 5.29 M-12.54 5.29 C-10.91 6.02, -9.29 6.75, -6.3 8.1 M-12.54 5.29 C-10.41 6.25, -8.29 7.2, -6.3 8.1 M-6.3 8.1 C-4.14 7.14, -1.98 6.19, 0.01 5.31 M-6.3 8.1 C-4.33 7.23, -2.36 6.36, 0.01 5.31 M0.01 5.31 C0.01 4.05, 0.01 2.79, 0 0 M0.01 5.31 C0.01 4.06, 0.01 2.8, 0 0 M0 0 C0 0, 0 0, 0 0 M0 0 C0 0, 0 0, 0 0" stroke="#000" stroke-width="2" fill="none"></path></g></g><g stroke-linecap="round"><g transform="translate(866.0574347907543 286.3960484790506) rotate(0 3.0353946716336395 4.954613381979243)"><path d="M0 0 C1.69 0.68, 3.38 1.35, 6.07 2.43 M0 0 C1.31 0.52, 2.62 1.05, 6.07 2.43 M6.07 2.43 C6.06 4.88, 6.05 7.34, 6.04 9.91 M6.07 2.43 C6.06 5.05, 6.05 7.67, 6.04 9.91" stroke="#000000" stroke-width="2" fill="none"></path></g></g><g stroke-linecap="round"><g transform="translate(872.1093843565848 288.79589723882043) rotate(0 3.004239609193064 -1.1683154035750647)"><path d="M0 0 C2.12 -0.82, 4.24 -1.65, 6.01 -2.34 M0 0 C1.86 -0.72, 3.71 -1.44, 6.01 -2.34" stroke="#000000" stroke-width="2" fill="none"></path></g></g><g stroke-linecap="round"><g transform="translate(841.6326176531052 282.32801812377) rotate(178.33979303936556 17.36663167122265 -8.19403422875601)"><path d="M0 0 C-0.62 -0.36, -2.66 -1.12, -3.74 -2.14 C-4.83 -3.16, -6.37 -4.65, -6.52 -6.13 C-6.66 -7.6, -5.97 -9.61, -4.61 -10.98 C-3.25 -12.36, -0.8 -13.5, 1.63 -14.37 C4.06 -15.24, 7.05 -15.79, 9.95 -16.2 C12.86 -16.6, 15.99 -16.86, 19.06 -16.78 C22.13 -16.7, 25.63 -16.28, 28.39 -15.71 C31.14 -15.15, 33.66 -14.36, 35.59 -13.41 C37.52 -12.46, 39.02 -11.32, 39.96 -10.04 C40.89 -8.76, 41.49 -7.11, 41.19 -5.74 C40.9 -4.38, 39.47 -2.89, 38.2 -1.86 C36.93 -0.84, 34.36 0.03, 33.59 0.41 M0 0 C-0.62 -0.36, -2.66 -1.12, -3.74 -2.14 C-4.83 -3.16, -6.37 -4.65, -6.52 -6.13 C-6.66 -7.6, -5.97 -9.61, -4.61 -10.98 C-3.25 -12.36, -0.8 -13.5, 1.63 -14.37 C4.06 -15.24, 7.05 -15.79, 9.95 -16.2 C12.86 -16.6, 15.99 -16.86, 19.06 -16.78 C22.13 -16.7, 25.63 -16.28, 28.39 -15.71 C31.14 -15.15, 33.66 -14.36, 35.59 -13.41 C37.52 -12.46, 39.02 -11.32, 39.96 -10.04 C40.89 -8.76, 41.49 -7.11, 41.19 -5.74 C40.9 -4.38, 39.47 -2.89, 38.2 -1.86 C36.93 -0.84, 34.36 0.03, 33.59 0.41" stroke="#000000" stroke-width="2" fill="none"></path></g></g><g transform="translate(818.7604100366684 313.6290268940137) rotate(0 40 12.5)"><text x="0" y="18" font-family="Virgil, Segoe UI Emoji" font-size="20px" fill="#000000" text-anchor="start" style="white-space: pre;" direction="ltr">Fargate</text></g><g stroke-linecap="round"><g transform="translate(123.69294390055074 149.3927100270039) rotate(0 44.15892224788263 47.68317639761652)" fill-rule="evenodd"><path d="M-0.71 -1.1 L-1.07 96.79 L-0.29 97.42 L20.13 102.26 L46.17 104 L72.66 103.13 L79.46 101.64 L89.44 95.94 L87.15 -1.85 L86.72 0.87 L86.19 -2.32 L76.89 -3.97 L44.04 -9.78 L10.72 -4.63 L4.48 -3.28 L-1.14 -0.74" stroke="none" stroke-width="0" fill="#228be6" fill-rule="evenodd"></path><path d="M-0.9 0.49 C-0.72 15, 0.26 70.71, 0.45 86.44 C0.63 102.16, -0.48 92.38, 0.22 94.84 C0.92 97.29, 1.38 99.74, 4.65 101.19 C7.91 102.65, 12.64 102.99, 19.81 103.57 C26.98 104.15, 38.98 104.7, 47.65 104.69 C56.33 104.69, 65.33 104.54, 71.84 103.53 C78.36 102.51, 84 100.03, 86.73 98.61 C89.46 97.18, 87.96 96.81, 88.24 94.97 C88.51 93.13, 88.5 102.27, 88.39 87.58 C88.28 72.89, 87.92 21.39, 87.57 6.82 C87.23 -7.76, 87.35 1.86, 86.34 0.12 C85.34 -1.61, 84.33 -2.52, 81.56 -3.61 C78.79 -4.7, 76.19 -5.62, 69.73 -6.42 C63.26 -7.22, 51.07 -8.31, 42.76 -8.41 C34.45 -8.5, 26.31 -7.7, 19.87 -6.99 C13.42 -6.27, 7.37 -5.3, 4.09 -4.13 C0.81 -2.96, 0.96 -0.49, 0.2 0.02 C-0.55 0.53, -0.49 -0.96, -0.45 -1.08 M0.83 -0.3 C0.92 13.9, -0.21 68.53, -0.42 84.52 C-0.63 100.51, -1.34 93.17, -0.44 95.62 C0.45 98.07, 1.25 97.84, 4.95 99.22 C8.65 100.6, 14.93 103.18, 21.73 103.91 C28.53 104.64, 37.35 103.85, 45.76 103.61 C54.16 103.37, 65.44 103.36, 72.16 102.46 C78.89 101.56, 83.66 99.69, 86.09 98.2 C88.52 96.7, 86.21 95.31, 86.74 93.49 C87.27 91.67, 89.11 101.61, 89.27 87.29 C89.43 72.97, 87.91 22.15, 87.69 7.59 C87.48 -6.97, 89 1.87, 87.99 -0.06 C86.99 -1.98, 84.83 -2.89, 81.65 -3.93 C78.48 -4.97, 75.36 -5.51, 68.94 -6.29 C62.51 -7.08, 51.21 -8.17, 43.11 -8.61 C35.02 -9.06, 27.04 -9.78, 20.35 -8.94 C13.67 -8.11, 6.56 -5.17, 3 -3.61 C-0.55 -2.05, -0.71 0.05, -0.95 0.42 C-1.19 0.79, 1.24 -1.45, 1.58 -1.39" stroke="#0a11d3" stroke-width="1" fill="none"></path></g></g><g stroke-linecap="round"><g transform="translate(124.38030549004816 214.6828380577915) rotate(0 43.729595216793484 4.998902489996453)"><path d="M0.49 0.16 C1.05 0.99, 0.9 2.92, 2.71 4.11 C4.52 5.3, 7.33 6.53, 11.35 7.29 C15.36 8.05, 20.96 8.2, 26.82 8.66 C32.68 9.11, 39.18 10.22, 46.53 10.02 C53.89 9.82, 64.4 8.44, 70.95 7.47 C77.5 6.5, 82.95 5.49, 85.82 4.23 C88.69 2.96, 87.79 0.63, 88.18 -0.12 M-0.72 -0.81 C-0.22 -0.28, -0.44 0.51, 1.97 2.09 C4.37 3.67, 10.04 7.43, 13.71 8.66 C17.38 9.89, 18.77 9.14, 23.99 9.49 C29.21 9.84, 36.96 10.72, 45.01 10.76 C53.06 10.81, 65.36 11.02, 72.31 9.77 C79.27 8.52, 84.28 4.94, 86.74 3.27 C89.2 1.59, 86.53 0.51, 87.08 -0.28" stroke="#0a11d3" stroke-width="1" fill="none"></path></g></g><g stroke-linecap="round"><g transform="translate(123.2865639779867 181.60868349571967) rotate(0 43.711580795041755 4.621889167895034)"><path d="M0.16 0.39 C0.73 0.79, 0.48 1.57, 2.53 2.89 C4.58 4.21, 8.69 7.26, 12.47 8.29 C16.24 9.32, 19.4 8.91, 25.2 9.07 C31.01 9.23, 39.76 9.34, 47.3 9.26 C54.84 9.18, 63.97 9.6, 70.42 8.61 C76.88 7.63, 82.99 4.9, 86.03 3.36 C89.07 1.81, 88.23 -0.05, 88.64 -0.63 M-1.22 -0.46 C-0.71 0.02, -0.48 2.73, 1.69 3.9 C3.85 5.06, 7.84 5.49, 11.75 6.53 C15.67 7.57, 19.44 9.61, 25.18 10.12 C30.92 10.64, 38.46 9.98, 46.18 9.6 C53.9 9.23, 64.7 9.13, 71.51 7.85 C78.32 6.57, 84.35 3.43, 87.06 1.94 C89.77 0.45, 87.81 -0.52, 87.79 -1.07" stroke="#0a11d3" stroke-width="1" fill="none"></path></g></g><g stroke-linecap="round" transform="translate(122.16574129182493 141.36801379990723) rotate(0 43.825373054270926 8.86335198840682)"><path d="M49.43 -0.29 C58.34 -0.26, 68.93 1.93, 75.35 3.4 C81.76 4.87, 87.4 6.8, 87.92 8.52 C88.45 10.25, 84.16 12.35, 78.5 13.76 C72.83 15.17, 63.01 16.32, 53.95 16.97 C44.89 17.62, 32.69 18.5, 24.14 17.65 C15.59 16.81, 6.4 13.93, 2.65 11.9 C-1.1 9.87, -1.18 7.28, 1.63 5.48 C4.43 3.68, 10.17 1.88, 19.48 1.08 C28.8 0.28, 49.6 0.65, 57.49 0.66 C65.39 0.67, 67.09 1.09, 66.84 1.13 M23.14 1.61 C30.69 0.82, 44.58 1.13, 53.59 1.34 C62.61 1.54, 71.73 1.55, 77.24 2.83 C82.74 4.12, 86.56 7.17, 86.62 9.05 C86.68 10.92, 83.93 12.52, 77.59 14.08 C71.25 15.64, 58.02 18.17, 48.58 18.4 C39.13 18.63, 28.46 16.48, 20.93 15.46 C13.4 14.44, 6.47 13.92, 3.42 12.25 C0.37 10.59, -0.52 7.45, 2.64 5.45 C5.81 3.45, 18.76 0.92, 22.38 0.26 C26 -0.4, 23.66 1.19, 24.37 1.47" stroke="none" stroke-width="0" fill="#fff"></path><path d="M25.43 0.7 C33.41 -0.31, 47.29 -0.34, 56.31 0.26 C65.33 0.86, 74.27 2.76, 79.56 4.32 C84.85 5.89, 88.86 7.86, 88.04 9.65 C87.23 11.44, 81.47 13.68, 74.66 15.06 C67.86 16.45, 56.69 17.86, 47.23 17.97 C37.76 18.07, 25.68 16.81, 17.88 15.72 C10.07 14.63, 2.68 13.08, 0.39 11.43 C-1.9 9.78, -1.29 7.58, 4.15 5.81 C9.59 4.03, 26.9 1.61, 33.03 0.77 C39.16 -0.08, 40.86 0.58, 40.91 0.75 M49.68 -0.49 C58.46 -0.33, 68.64 1.98, 74.82 3.38 C81 4.79, 86.26 6.24, 86.74 7.95 C87.23 9.66, 83.17 12.24, 77.74 13.64 C72.31 15.04, 63.33 15.86, 54.18 16.35 C45.03 16.84, 31.5 17.36, 22.85 16.58 C14.2 15.8, 5.83 13.35, 2.26 11.64 C-1.3 9.93, -1.57 8.2, 1.46 6.34 C4.48 4.48, 12.31 1.29, 20.41 0.46 C28.52 -0.38, 45.39 1.47, 50.08 1.32 C54.77 1.17, 48.79 -0.27, 48.55 -0.43" stroke="#0a11d3" stroke-width="1" fill="none"></path></g><g stroke-linecap="round" transform="translate(193.67547359240552 165.9438166770408) rotate(0 6.423028523489904 6.970952181208048)"><path d="M5.57 -0.23 C6.81 -0.48, 9.58 0.83, 10.8 1.65 C12.01 2.46, 12.67 3.29, 12.85 4.66 C13.02 6.02, 12.56 8.43, 11.85 9.85 C11.14 11.27, 9.63 12.69, 8.58 13.16 C7.53 13.64, 6.89 13.1, 5.56 12.7 C4.24 12.29, 1.69 11.84, 0.63 10.75 C-0.44 9.66, -0.99 7.78, -0.84 6.17 C-0.69 4.55, 0.17 2.07, 1.53 1.04 C2.88 0.01, 6.23 0.23, 7.29 -0.03 C8.35 -0.29, 7.99 -0.5, 7.87 -0.53 M8.93 0.62 C10.35 0.81, 12.42 0.82, 12.95 1.86 C13.49 2.9, 12.56 4.92, 12.17 6.86 C11.77 8.81, 11.62 12.51, 10.58 13.52 C9.55 14.54, 7.18 13, 5.96 12.94 C4.75 12.88, 4.4 13.66, 3.28 13.15 C2.17 12.64, -0.42 11.57, -0.72 9.89 C-1.03 8.21, 0.66 4.85, 1.44 3.1 C2.21 1.34, 2.89 -0.25, 3.92 -0.64 C4.94 -1.04, 6.81 0.35, 7.59 0.71 C8.37 1.07, 8.48 1.61, 8.6 1.51" stroke="none" stroke-width="0" fill="#fff"></path><path d="M6.62 0.57 C7.77 0.53, 9.59 0.3, 10.69 1.32 C11.79 2.34, 13.06 5.07, 13.23 6.68 C13.41 8.29, 12.57 9.81, 11.73 11 C10.89 12.18, 9.45 13.45, 8.2 13.8 C6.95 14.15, 5.53 13.85, 4.23 13.09 C2.92 12.33, 1 10.55, 0.39 9.24 C-0.22 7.93, 0.05 6.57, 0.54 5.24 C1.03 3.92, 2.15 2.16, 3.31 1.3 C4.48 0.44, 6.77 0.4, 7.54 0.07 C8.31 -0.25, 7.89 -0.81, 7.91 -0.66 M4.67 -1.23 C5.98 -1.73, 8.87 -0.79, 10.08 0.03 C11.28 0.85, 11.6 2, 11.9 3.69 C12.2 5.39, 12.42 8.77, 11.86 10.2 C11.3 11.63, 9.62 11.84, 8.52 12.27 C7.42 12.7, 6.5 13.02, 5.23 12.79 C3.97 12.57, 1.79 11.86, 0.94 10.92 C0.09 9.98, 0.22 8.45, 0.15 7.14 C0.08 5.83, -0.52 4.36, 0.53 3.04 C1.59 1.72, 5.81 -0.28, 6.49 -0.81 C7.16 -1.34, 4.87 -0.58, 4.58 -0.16" stroke="#0a11d3" stroke-width="1" fill="none"></path></g><g stroke-linecap="round" transform="translate(193.67547359240552 196.54627053610125) rotate(0 6.423028523489904 6.970952181208048)"><path d="M9.19 1.46 C10.33 2.14, 12.27 3.35, 12.73 4.57 C13.2 5.78, 12.47 7.46, 11.96 8.76 C11.46 10.06, 10.8 11.38, 9.7 12.38 C8.61 13.37, 6.88 14.94, 5.38 14.73 C3.87 14.52, 1.58 12.53, 0.66 11.13 C-0.27 9.73, -0.26 7.81, -0.17 6.34 C-0.07 4.86, 0.51 3.29, 1.23 2.28 C1.94 1.28, 2.65 0.54, 4.13 0.31 C5.61 0.07, 9.16 0.69, 10.09 0.89 C11.03 1.1, 9.97 1.26, 9.76 1.52 M7.29 1.15 C8.45 0.98, 8.87 0.58, 9.62 1.41 C10.38 2.25, 11.25 4.7, 11.83 6.17 C12.41 7.63, 13.91 8.82, 13.12 10.21 C12.33 11.59, 8.55 14.09, 7.09 14.45 C5.63 14.82, 5.19 13.04, 4.34 12.41 C3.49 11.77, 2.78 11.85, 1.98 10.64 C1.18 9.43, -0.39 6.83, -0.46 5.14 C-0.53 3.46, 0.25 1.32, 1.56 0.52 C2.86 -0.28, 6.3 0.36, 7.38 0.34 C8.46 0.31, 8.26 0.18, 8.04 0.35" stroke="none" stroke-width="0" fill="#fff"></path><path d="M9.85 0.66 C11.04 1.3, 11.24 3.27, 11.8 4.63 C12.36 5.99, 13.46 7.5, 13.2 8.84 C12.94 10.17, 11.47 11.74, 10.25 12.63 C9.03 13.52, 7.35 14.36, 5.88 14.16 C4.42 13.96, 2.58 12.5, 1.45 11.44 C0.31 10.37, -0.87 9.09, -0.94 7.79 C-1.01 6.49, 0.09 4.81, 1.04 3.63 C2 2.44, 3.31 1.03, 4.78 0.69 C6.26 0.36, 9.12 1.36, 9.89 1.63 C10.66 1.9, 9.45 2.36, 9.43 2.31 M5.75 0.54 C6.9 0.6, 9.13 0.71, 10.18 1.59 C11.22 2.48, 11.61 4.48, 12 5.86 C12.39 7.25, 13.32 8.61, 12.53 9.9 C11.74 11.19, 8.94 13.14, 7.28 13.59 C5.61 14.05, 3.77 13.24, 2.55 12.63 C1.33 12.02, 0.34 11.37, -0.03 9.96 C-0.4 8.54, -0.21 5.38, 0.35 4.12 C0.91 2.87, 2.36 3.23, 3.33 2.44 C4.3 1.64, 5.61 -0.17, 6.17 -0.64 C6.73 -1.12, 6.38 -0.73, 6.67 -0.4" stroke="#0a11d3" stroke-width="1" fill="none"></path></g><g stroke-linecap="round" transform="translate(193.67547359240552 229.80707171059782) rotate(0 6.423028523489904 6.970952181208048)"><path d="M9.16 0.74 C10.52 1.06, 11.6 1.61, 12.14 2.82 C12.68 4.02, 12.73 6.4, 12.4 7.95 C12.06 9.49, 10.96 11.25, 10.12 12.09 C9.29 12.92, 8.76 12.93, 7.38 12.95 C6.01 12.97, 3.23 13.01, 1.87 12.21 C0.52 11.41, -0.51 9.75, -0.75 8.16 C-1 6.56, -0.42 3.92, 0.41 2.62 C1.25 1.33, 2.78 0.81, 4.28 0.39 C5.78 -0.04, 8.4 -0.05, 9.41 0.08 C10.43 0.21, 10.28 0.88, 10.39 1.17 M6.64 -1.27 C7.71 -1.78, 8.23 -1.19, 9.18 0.06 C10.13 1.31, 11.92 4.81, 12.33 6.23 C12.73 7.65, 11.97 7.31, 11.62 8.57 C11.27 9.82, 11.44 12.65, 10.21 13.75 C8.97 14.85, 5.58 15.7, 4.22 15.18 C2.87 14.65, 2.8 12.2, 2.1 10.6 C1.39 9, 0.18 6.88, -0.02 5.56 C-0.22 4.25, -0.08 3.46, 0.89 2.72 C1.87 1.98, 5.02 1.7, 5.82 1.13 C6.62 0.57, 5.64 -0.7, 5.71 -0.68" stroke="none" stroke-width="0" fill="#fff"></path><path d="M5 -0.36 C6.35 -0.73, 8.65 0.59, 9.86 1.42 C11.07 2.25, 11.84 3.31, 12.26 4.62 C12.68 5.93, 12.74 7.97, 12.39 9.29 C12.03 10.61, 11.3 11.95, 10.1 12.55 C8.91 13.16, 6.55 13.11, 5.21 12.93 C3.87 12.74, 2.78 12.4, 2.05 11.43 C1.32 10.46, 0.84 8.54, 0.8 7.1 C0.77 5.65, 0.79 4.06, 1.85 2.73 C2.92 1.41, 6.02 -0.52, 7.19 -0.87 C8.36 -1.21, 9.03 0.37, 8.87 0.67 M7.11 -0.86 C8.42 -0.83, 9.32 -0.35, 10.16 0.93 C11 2.22, 12.06 5.37, 12.16 6.87 C12.25 8.37, 11.36 8.98, 10.72 9.93 C10.08 10.87, 9.52 12.04, 8.3 12.53 C7.09 13.02, 4.68 13.22, 3.45 12.87 C2.22 12.51, 1.63 11.51, 0.92 10.38 C0.21 9.24, -1.25 7.69, -0.79 6.06 C-0.33 4.42, 2.56 1.66, 3.68 0.58 C4.8 -0.5, 5.53 -0.49, 5.93 -0.41 C6.32 -0.33, 5.82 0.81, 6.03 1.05" stroke="#0a11d3" stroke-width="1" fill="none"></path></g><g stroke-linecap="round"><g transform="translate(948.968659430433 452.5701792236132) rotate(0 -30.35086275519234 14.900041651297329)" fill-rule="evenodd"><path d="M-75.88 8.24 C-75.88 8.24, -75.88 8.24, -75.88 8.24 M-75.88 8.24 C-75.88 8.24, -75.88 8.24, -75.88 8.24 M-76.65 15.17 C-75.09 14.01, -73.49 11.6, -71.88 8.83 M-77.06 15.6 C-75.18 13.46, -73.47 12.15, -71.73 9.35 M-74.8 20.52 C-72.83 16.34, -70.36 15.27, -64.85 8.52 M-74.59 18.93 C-73.36 17.63, -70.75 14.51, -66.2 8.75 M-72.04 25.01 C-70.92 20.65, -64.68 14.2, -61.72 7.66 M-73.59 24.14 C-68.6 19.11, -65.9 13.59, -59.52 8.29 M-71.5 28.24 C-67.49 22.96, -63.61 15.6, -54.55 9.43 M-71.76 27.9 C-67.52 22.04, -63.32 18.22, -55.89 9.55 M-70.84 32.97 C-63.71 23.88, -58.98 17.02, -51.3 7.92 M-68.55 31.06 C-64.12 25.36, -58.63 19.1, -48.64 9.11 M-68.24 34.4 C-61.11 25.45, -56.43 19.94, -44 9.38 M-65.41 32.82 C-57.57 24.5, -50.02 15.1, -45.51 9.82 M-62.29 36.7 C-55.15 29.8, -48.74 23.31, -37.85 7.82 M-63.89 36.33 C-58.9 31.37, -55.06 25.59, -39.66 9.34 M-58.97 37.81 C-54.23 31.13, -46.5 24.67, -33.26 10.83 M-59.91 38.28 C-52.52 30.46, -44.88 21.16, -33.95 9.7 M-55.61 41.48 C-48.69 33.32, -41.73 23.33, -27.49 7.39 M-56.01 40.74 C-51.07 33.46, -44.69 26.58, -27.86 7.9 M-11.31 -11.16 C-11.31 -11.16, -11.31 -11.16, -11.31 -11.16 M-11.31 -11.16 C-11.31 -11.16, -11.31 -11.16, -11.31 -11.16 M-50.79 41.5 C-40.93 31.87, -34.23 17.37, -22.15 8.6 M-52.16 40.84 C-44.74 33.58, -40.26 27.4, -22.91 8.96 M-11.83 -4.28 C-10.26 -5.26, -10.37 -6.08, -6.73 -9.87 M-11.86 -3.87 C-10.53 -5.37, -9.6 -7.23, -6.89 -10.05 M-45.56 43.47 C-37.49 32.2, -29.82 21.77, -19.19 7.18 M-46.41 41.52 C-40.15 34.19, -31.14 23.53, -17.47 8.75 M-11.76 2.53 C-8.23 -2.13, -5.66 -3.66, -4.29 -7.45 M-12 1.33 C-9.32 -1.52, -5.66 -5.99, -2.86 -8.04 M-45.13 43.27 C-33.02 34.81, -23.73 20.56, -13.8 6.48 M-44.38 43.65 C-36.5 35.51, -30.95 28.78, -12.63 8.51 M-8.72 6.03 C-7.39 2.8, -4.14 -1.82, -0.47 -5.63 M-9.6 4.58 C-7.19 1.96, -3.48 -2.27, -0.46 -4.75 M-39.9 45.03 C-24.19 28.13, -8.85 8.87, -1.33 0.9 M-37.96 44.2 C-28.78 32.32, -18.7 21.27, 0.79 0.79 M-30.8 43.86 C-22.94 32.34, -12.43 18.98, 7.66 -2.01 M-32.28 43.86 C-21.73 32.06, -12.02 20.69, 6.14 0.05 M-25.63 43.81 C-19.11 36.92, -11.94 28.1, 0.19 12.65 M-26.47 43.88 C-19.08 33.4, -10.09 24.88, 0.72 11.34 M0.67 11.94 C3.73 9.12, 6.67 3.91, 12.1 -0.55 M0.9 10.59 C4.93 6.48, 8.22 2.27, 11.96 0.06 M-16.05 35.22 C-12.33 31.56, -7.76 29.1, -4.88 23.47 M-14.66 35.69 C-11.22 32.15, -8.13 28.68, -4.27 23.68 M8.65 10.27 C9.58 6.75, 12.2 5.24, 13.74 2.92 M8.34 9.51 C10.68 6.59, 13.17 3.56, 14.88 1.85" stroke="#228be6" stroke-width="0.5" fill="none"></path><path d="M1.11 -0.51 C0.94 -1.31, -0.82 -3, -2.03 -4.67 C-3.23 -6.34, -4.6 -9.5, -6.1 -10.52 C-7.6 -11.54, -9.68 -11.72, -11.01 -10.8 C-12.34 -9.88, -13.85 -6.97, -14.1 -5.03 C-14.35 -3.08, -13.42 -0.81, -12.52 0.89 C-11.62 2.59, -8.36 4.24, -8.7 5.18 C-9.04 6.12, -11.84 6.11, -14.54 6.54 C-17.24 6.97, -21.32 7.56, -24.91 7.75 C-28.51 7.95, -29.36 7.7, -36.11 7.74 C-42.86 7.77, -58.88 8.03, -65.42 7.97 C-71.96 7.9, -73.55 6.14, -75.32 7.33 C-77.09 8.51, -76.25 12.03, -76.02 15.06 C-75.79 18.09, -75.71 22.17, -73.93 25.51 C-72.16 28.84, -68.1 32.45, -65.38 35.05 C-62.66 37.66, -60.82 39.93, -57.62 41.14 C-54.43 42.35, -50.72 42.37, -46.22 42.32 C-41.72 42.26, -35.83 42.09, -30.6 40.8 C-25.38 39.51, -18.75 36.77, -14.86 34.57 C-10.96 32.37, -9.29 30.53, -7.24 27.6 C-5.19 24.68, -3.81 19.75, -2.57 17 C-1.33 14.26, -1.27 12.41, 0.2 11.14 C1.67 9.87, 4.14 9.81, 6.27 9.36 C8.41 8.92, 11.56 9.67, 13.02 8.48 C14.48 7.29, 15.43 3.9, 15.03 2.22 C14.63 0.55, 12.27 -1.01, 10.62 -1.57 C8.96 -2.14, 6.84 -1.39, 5.12 -1.16 C3.39 -0.93, 0.93 -0.52, 0.27 -0.19 M0.23 -1.82 C-0.01 -2.97, -1.83 -5.16, -3.02 -6.44 C-4.21 -7.73, -5.67 -8.44, -6.91 -9.53 C-8.15 -10.61, -9.03 -13.81, -10.49 -12.97 C-11.94 -12.12, -15.52 -6.62, -15.64 -4.46 C-15.76 -2.3, -12.49 -2, -11.2 -0.04 C-9.91 1.92, -7.13 5.74, -7.89 7.29 C-8.65 8.84, -12.7 9.44, -15.78 9.26 C-18.85 9.08, -22.55 6.58, -26.34 6.24 C-30.13 5.89, -32.09 6.74, -38.5 7.2 C-44.9 7.66, -58.47 8.51, -64.78 8.98 C-71.1 9.44, -74.62 9.11, -76.38 10.01 C-78.14 10.92, -75.59 11.83, -75.33 14.4 C-75.08 16.97, -76.59 22.14, -74.87 25.45 C-73.15 28.76, -67.97 32.01, -65.02 34.26 C-62.06 36.51, -60.63 37.51, -57.15 38.94 C-53.68 40.37, -48.94 42.51, -44.18 42.84 C-39.42 43.17, -33.3 42.32, -28.58 40.9 C-23.86 39.49, -19.45 36.25, -15.86 34.33 C-12.27 32.42, -9.62 31.94, -7.05 29.42 C-4.48 26.91, -1.65 22.49, -0.43 19.22 C0.78 15.96, -0.88 11.09, 0.24 9.85 C1.36 8.61, 4.47 12.06, 6.3 11.77 C8.12 11.48, 9.54 9.71, 11.21 8.12 C12.87 6.53, 16.23 3.91, 16.29 2.23 C16.36 0.55, 13.76 -1.37, 11.6 -1.96 C9.43 -2.56, 4.93 -1.97, 3.3 -1.35 C1.67 -0.73, 2.65 1.67, 1.81 1.75" stroke="#000000" stroke-width="1" fill="none"></path></g></g><g stroke-linecap="round" transform="translate(879.982344178838 450.5021803682107) rotate(0 4.389813198750858 4.181105756654915)"><path d="M0 0 C0 0, 0 0, 0 0 M0 0 C0 0, 0 0, 0 0 M-0.51 5.91 C1.77 4.81, 3.89 1.52, 4.48 1.14 M-0.38 6.34 C1.35 4.38, 3.12 3.1, 4.73 0.61 M1.56 9.85 C4.47 6.27, 7.56 3.89, 10.81 0.77 M1.94 9.6 C4.17 7.84, 5.78 5.77, 9.76 0.99 M7.19 9.93 C7.43 9.01, 8.1 8.99, 9.49 6.85 M7.21 10.13 C7.74 9.27, 8.38 8.67, 9.68 7.05" stroke="#228be6" stroke-width="0.5" fill="none"></path><path d="M-0.07 0.49 C2.65 -0.41, 5.81 0.58, 8.68 0.24 M-0.14 -0.15 C2.08 0.15, 4.91 0.33, 8.72 0.22 M9.38 0.22 C8.52 2.72, 8.87 4.77, 8.03 8.64 M8.61 0.25 C8.42 1.83, 8.71 3.76, 8.61 8.2 M9.07 9.09 C5.52 7.91, 3.09 7.97, 0.53 8.72 M9.07 8.21 C5.84 8.73, 3.27 8.54, -0.25 8.2 M0.71 7.53 C-0.38 5.81, -0.69 3.43, -0.33 -0.8 M-0.41 8.16 C-0.4 5.98, 0.08 2.97, 0.17 0.09" stroke="#000000" stroke-width="1" fill="none"></path></g><g stroke-linecap="round" transform="translate(890.1255258646997 450.3769559029531) rotate(0 4.2158903303375155 4.215890330337572)"><path d="M0 0 C0 0, 0 0, 0 0 M0 0 C0 0, 0 0, 0 0 M-0.75 6.64 C1.96 4.98, 2.48 1.91, 5.77 0.34 M-0.31 6.46 C1.16 4.79, 3.32 2.37, 5.23 0.6 M2.18 9.27 C3.88 7.25, 6.77 6.02, 10.02 -0.03 M1.93 9.89 C3.99 7.71, 5.77 5.71, 10.25 0.39" stroke="#228be6" stroke-width="0.5" fill="none"></path><path d="M0.47 -0.06 C2.88 0.38, 7.14 -0.09, 8.67 -0.13 M-0.14 -0.4 C2.85 -0.06, 5.71 -0.03, 8.64 0.02 M8.65 -0.31 C8.53 3.05, 8.04 5.24, 8.71 7.94 M8.69 -0.33 C8.19 2.19, 8.09 4.29, 8.27 8.47 M9.13 7.91 C5.46 8.23, 2.94 8.97, 0.35 8.62 M8.28 8.33 C6.31 8.64, 3.72 8.25, -0.16 8.38 M-0.84 8.01 C-0.13 5.6, -0.1 3.9, -0.81 0.13 M-0.2 8.03 C0.29 6.04, -0.09 3.67, 0.09 0.32" stroke="#000000" stroke-width="1" fill="none"></path></g><g stroke-linecap="round" transform="translate(900.1991384031965 450.51609419768374) rotate(0 4.146321182972201 4.146321182972258)"><path d="M0 0 C0 0, 0 0, 0 0 M0 0 C0 0, 0 0, 0 0 M-0.02 6.93 C2.29 3.48, 3.19 2.68, 4.96 0.47 M-0.2 6.15 C1.38 5.12, 2.2 3.54, 5.23 0.18 M1.64 9.5 C3.55 8.42, 6.18 6.04, 8.63 0.53 M2.21 10.03 C4.69 7.02, 7.33 3.83, 9.02 1.05" stroke="#228be6" stroke-width="0.5" fill="none"></path><path d="M-0.06 -0.42 C2.5 0.46, 4.18 0.18, 8.17 0.15 M-0.39 0.16 C2.62 0.36, 5.35 0.24, 8.31 0.23 M7.99 0.17 C8.4 1.45, 7.61 3.81, 7.81 8 M7.97 -0.19 C8.22 1.74, 8.09 3.9, 8.33 8.32 M7.78 7.92 C6.09 8.04, 4.84 8.7, 0.19 8.16 M8.19 8.56 C5.14 8.35, 1.46 8.11, -0.05 8.08 M-0.42 8.15 C-0.79 5.82, -0.4 2.77, 0.13 -0.06 M-0.4 8.54 C0.15 6.03, 0.25 4.09, 0.31 -0.37" stroke="#000000" stroke-width="1" fill="none"></path></g><g stroke-linecap="round" transform="translate(909.9944743522312 450.4326112208453) rotate(0 4.146321182972201 4.146321182972258)"><path d="M0 0 C0 0, 0 0, 0 0 M0 0 C0 0, 0 0, 0 0 M0.27 6.96 C0.5 4.26, 3.38 3.12, 5.09 0.02 M-0.51 6.67 C1.43 4.51, 2.83 3.37, 4.81 0.07 M1.83 9.55 C4.46 8.46, 5.81 4.89, 8.38 2.29 M2.35 9.64 C4.42 7.31, 6.3 4.94, 8.89 1.67" stroke="#228be6" stroke-width="0.5" fill="none"></path><path d="M-0.42 0.37 C2.93 -0.09, 5.07 -0.12, 8.44 0.22 M0.16 -0.09 C2.55 0.02, 4.65 0.1, 8.52 -0.36 M8.47 0.05 C8 2.34, 8.59 5.69, 8 7.84 M8.1 -0.04 C8.05 1.98, 8.18 4.33, 8.32 8.04 M7.92 8.06 C5.21 8.74, 3.11 8.43, -0.13 9.1 M8.56 8.44 C5.34 8.04, 2.06 8.22, -0.21 8.23 M-0.14 7.57 C-0.03 4.77, -0.71 2.03, -0.06 -0.34 M0.25 8.37 C-0.08 6.78, 0.12 5.25, -0.37 -0.17" stroke="#000000" stroke-width="1" fill="none"></path></g><g stroke-linecap="round" transform="translate(919.9150347665243 450.51609419768374) rotate(0 4.146321182972201 4.146321182972258)"><path d="M0 0 C0 0, 0 0, 0 0 M0 0 C0 0, 0 0, 0 0 M0.3 5.71 C0.47 5.7, 2.21 3.58, 4.65 0.12 M0.01 6.67 C0.98 4.95, 2.98 2.79, 4.7 0.18 M1.87 10.31 C5.11 7.29, 5.87 3.77, 10.13 1.17 M1.97 10.11 C3.85 7.74, 5.7 4.82, 9.52 1.61" stroke="#228be6" stroke-width="0.5" fill="none"></path><path d="M0.37 0.51 C2.86 0.27, 5.78 0.19, 8.51 -0.27 M-0.09 0.33 C2.15 0.18, 4.44 0.2, 7.93 0.3 M8.34 -0.31 C7.52 2.98, 7.78 5.12, 7.84 7.95 M8.25 -0.29 C8.06 2.83, 8.27 6.01, 8.04 8.43 M8.06 7.98 C5.62 8.6, 2.13 8.12, 0.81 8.84 M8.44 8.38 C5.86 8.19, 3.85 8.13, -0.06 8.65 M-0.72 8.18 C-0.29 5.83, 0.17 4.9, -0.34 -0.81 M0.07 8.17 C0.25 6.29, 0.39 3.74, -0.17 -0.27" stroke="#000000" stroke-width="1" fill="none"></path></g><g stroke-linecap="round" transform="translate(909.8692498869739 440.63727527181027) rotate(0 4.2158903303375155 4.215890330337572)"><path d="M0 0 C0 0, 0 0, 0 0 M0 0 C0 0, 0 0, 0 0 M-0.95 5.89 C2.22 4.34, 3.28 2.03, 4.75 0.25 M0.01 6.14 C1.68 4.7, 2.91 2.26, 4.81 0.39 M2.68 10.61 C4.2 6.71, 5.16 6.01, 9.64 0.37 M2.46 9.57 C4.85 6.57, 6.63 4.22, 10.13 0.41" stroke="#228be6" stroke-width="0.5" fill="none"></path><path d="M0.52 -0.09 C2.7 -0.16, 5.09 0.18, 8.16 -0.28 M0.34 -0.06 C1.94 0.04, 3.69 -0.35, 8.73 0.11 M8.11 -0.76 C8.73 1.73, 8.15 3.97, 8.08 8.94 M8.13 -0.17 C8.23 1.91, 8.42 3.48, 8.57 8.78 M8.11 8.94 C6.77 8.6, 4.28 9.23, 0.56 8.14 M8.52 8.19 C5.96 8.41, 3.58 8.4, 0.36 8.01 M-0.12 8.1 C-0.8 6.46, -0.05 3.87, -0.82 -0.4 M-0.12 8.6 C0.04 7.03, -0.43 4.82, -0.28 -0.06" stroke="#000000" stroke-width="1" fill="none"></path></g><g stroke-linecap="round" transform="translate(900.4356735042384 441.12425930336747) rotate(0 4.007182888241573 4.00718288824163)"><path d="M0 0 C0 0, 0 0, 0 0 M0 0 C0 0, 0 0, 0 0 M-0.76 7.18 C1.59 4.34, 3.2 1.78, 4.88 0.48 M-0.52 6.64 C1.18 4.75, 1.9 3.32, 5.01 0.19 M2.87 9.82 C3.42 6.52, 6.91 4.87, 9 1.69 M1.91 10.03 C4.31 6.44, 7.31 4.14, 9.03 1.03" stroke="#228be6" stroke-width="0.5" fill="none"></path><path d="M-0.09 0.22 C1.87 0.1, 4.2 -0.31, 7.75 -0.76 M-0.06 0.2 C2.73 0.16, 5.08 0.22, 8.12 -0.15 M7.3 0.27 C7.56 2.29, 7.58 4.81, 8.5 7.39 M7.85 -0.16 C8.05 2.06, 7.76 4.19, 8.35 7.77 M8.5 8.34 C6.16 7.86, 4.72 8.52, -0.28 7.81 M7.79 7.87 C5.05 7.83, 2.11 8.37, -0.4 7.81 M-0.32 7.24 C0.19 5.69, -0.26 2.7, -0.38 -0.77 M0.16 8.1 C0.29 4.77, -0.18 1.97, -0.05 0.38" stroke="#000000" stroke-width="1" fill="none"></path></g><g stroke-linecap="round" transform="translate(890.2924918183764 441.05469015600215) rotate(0 4.007182888241573 4.00718288824163)"><path d="M0 0 C0 0, 0 0, 0 0 M0 0 C0 0, 0 0, 0 0 M0.52 6.37 C1.84 3.85, 3.44 1.85, 5.11 -0.14 M-0.01 6.64 C1.45 3.92, 3.37 2.03, 4.82 0.26 M2.14 9.09 C3.13 8.22, 5.79 4.77, 9.53 1.97 M2.35 9.47 C3.62 7.71, 6.17 4.94, 8.87 0.96" stroke="#228be6" stroke-width="0.5" fill="none"></path><path d="M0.22 -0.12 C2.9 0.22, 5.26 -0.26, 7.25 0.31 M0.2 0.02 C2.45 -0.34, 4.75 0.12, 7.87 0.08 M8.28 -0.46 C7.7 2.01, 7.65 5.39, 7.39 7.64 M7.86 0.04 C7.98 2.08, 8.09 4.99, 7.77 7.83 M8.34 8.2 C5.7 8.85, 4.18 7.78, -0.2 8.53 M7.87 7.97 C5.12 7.91, 2.98 7.57, -0.2 7.95 M-0.77 8.14 C-0.05 5.98, -0.77 4.22, -0.77 0.48 M0.08 8.32 C-0.34 5.3, -0.24 2.87, 0.38 -0.2" stroke="#000000" stroke-width="1" fill="none"></path></g><g stroke-linecap="round" transform="translate(909.7301115922432 430.84193932277526) rotate(0 4.2158903303375155 4.215890330337572)"><path d="M0 0 C0 0, 0 0, 0 0 M0 0 C0 0, 0 0, 0 0 M-0.28 6.5 C0.56 4.81, 1.92 3.88, 4.48 0.9 M-0.02 6.22 C1.41 3.97, 3.66 1.76, 4.89 0.28 M1.36 8.75 C5.67 6.29, 7.17 3.71, 10.52 0.43 M1.77 9.31 C5.18 6.63, 7.48 2.74, 9.41 0.27" stroke="#228be6" stroke-width="0.5" fill="none"></path><path d="M-0.13 0.15 C3.27 -0.29, 5.81 -0.82, 8.76 -0.18 M0.02 0.23 C2.84 0.26, 6.52 -0.2, 8.52 0.02 M7.94 -0.3 C7.89 1.86, 8.87 3.76, 8.04 8.35 M8.47 0.03 C8.14 2.07, 8.75 3.61, 8.24 8.32 M8.62 8.3 C7.05 9.03, 3.72 8.25, 0.54 8.73 M8.38 8.22 C5.67 8.76, 2.61 8.19, -0.07 8.06 M0.13 8.37 C-0.32 5.19, -0.37 2.79, 0.51 0.15 M0.32 8.05 C-0.21 5.86, -0.09 4.26, -0.21 -0.28" stroke="#000000" stroke-width="1" fill="none"></path></g><g transform="translate(88.09372302494967 278.244724141824) rotate(0 76 12.5)"><text x="76" y="18" font-family="Virgil, Segoe UI Emoji" font-size="20px" fill="#000000" text-anchor="middle" style="white-space: pre;" direction="ltr">MongoDB Atlas</text></g><g stroke-linecap="round"><g transform="translate(467.42709704838717 367.91141115354276) rotate(0 -116.3235946986731 -77.710499836877)"><path d="M0.22 0.32 C-38.46 -25.61, -192.94 -129.87, -231.72 -155.74 M-1.12 -0.56 C-40.02 -26.31, -194.69 -128.34, -232.87 -154.41" stroke="#000000" stroke-width="1" fill="none"></path></g><g transform="translate(467.42709704838717 367.91141115354276) rotate(0 -116.3235946986731 -77.710499836877)"><path d="M-203.21 -147.89 C-213.95 -151.45, -222.05 -152.33, -231.27 -154.69 M-204.61 -146.54 C-213.67 -149.97, -223.92 -152.04, -233.25 -155.31" stroke="#000000" stroke-width="1" fill="none"></path></g><g transform="translate(467.42709704838717 367.91141115354276) rotate(0 -116.3235946986731 -77.710499836877)"><path d="M-214.62 -130.84 C-221.59 -140.01, -225.95 -146.48, -231.27 -154.69 M-216.02 -129.48 C-221.1 -138.95, -227.35 -146.99, -233.25 -155.31" stroke="#000000" stroke-width="1" fill="none"></path></g></g><g stroke-linecap="round"><g transform="translate(230.76041003666842 240.5780981652615) rotate(0 116.6427393005043 67.75052137590944)"><path d="M0.32 -0.38 C39.39 22.28, 195.13 113.28, 234.26 136.19 M-0.98 -1.63 C37.92 21.12, 193.84 113.82, 233.1 137.13" stroke="#000000" stroke-width="1" fill="none"></path></g><g transform="translate(230.76041003666842 240.5780981652615) rotate(0 116.6427393005043 67.75052137590944)"><path d="M202.99 130.88 C210.13 133.84, 220 136.25, 232.83 138.13 M204.34 131.82 C212.25 133.72, 221.65 134.83, 232.21 137.47" stroke="#000000" stroke-width="1" fill="none"></path></g><g transform="translate(230.76041003666842 240.5780981652615) rotate(0 116.6427393005043 67.75052137590944)"><path d="M213.47 113.24 C217.66 121.26, 224.54 128.69, 232.83 138.13 M214.83 114.18 C219.64 121.35, 225.85 127.82, 232.21 137.47" stroke="#000000" stroke-width="1" fill="none"></path></g></g><g transform="translate(18.09777212147469 568.0527747461573) rotate(0 68 12.5)"><text x="0" y="18" font-family="Virgil, Segoe UI Emoji" font-size="20px" fill="#1864ab" text-anchor="start" style="white-space: pre;" direction="ltr">web3 - crypto</text></g></svg>