<svg version="1.1" xmlns="http://www.w3.org/2000/svg" viewBox="0 0 1239.5939061304184 948.2254779471976" width="1239.5939061304184" height="948.2254779471976" filter="invert(93%) hue-rotate(180deg)">
  <!-- svg-source:excalidraw -->
  
  <defs>
    <style>
      @font-face {
        font-family: "Virgil";
        src: url("https://excalidraw.com/Virgil.woff2");
      }
      @font-face {
        font-family: "Cascadia";
        src: url("https://excalidraw.com/Cascadia.woff2");
      }
    </style>
  </defs>
  <g stroke-linecap="round" transform="translate(10 607.419790893934) rotate(0 219.65542819348235 133.61532514821732)"><path d="M0.15 0.6 C141.93 0.77, 284.79 -0.14, 438.53 0.69 M-0.33 0.28 C164.4 -1.52, 328 -1.01, 438.87 -0.42 M439.85 0.19 C441.56 59.68, 440.22 115.5, 438.86 268.2 M438.93 0.46 C441.57 89.35, 441.76 177.31, 438.67 267.83 M438.58 266.29 C350.95 266.19, 262.41 264.95, 0.71 267.1 M439.19 267.32 C341.39 269.68, 243.95 269.72, 0.11 267.22 M0.64 267.21 C-1.5 186.63, -0.65 106.57, -1.56 0.13 M0.36 267.92 C-2.13 177.97, -1.68 90.04, -0.15 -0.41" stroke="#1864ab" stroke-width="1" fill="none"></path></g><g stroke-linecap="round" transform="translate(454.7604100366684 723.9115637414334) rotate(0 117.00003051757812 78)"><path d="M1.02 -0.73 C50.93 -0.18, 98.92 -1.61, 235.17 1.24 M0.48 0.39 C66.92 0.76, 134.83 0.56, 233.29 -0.69 M234.25 0.8 C235.11 57.87, 232 116.95, 235.23 156.65 M234.58 0.56 C234.02 61.06, 232.96 119.7, 234.76 155.02 M232.42 156.7 C182.73 155.67, 128.6 155.76, -0.22 154.69 M234.15 155.68 C162.83 155.69, 91.28 155.72, -0.02 156 M-0.02 155.4 C0.1 102.1, 0.2 45.25, 0.16 0.65 M0.88 155.41 C0.87 96.89, 1.98 37.64, -0.51 0.14" stroke="#000000" stroke-width="1" fill="none"></path></g><g transform="translate(532.5937840601059 788.9115637414334) rotate(0 36 12.5)"><text x="36" y="18" font-family="Virgil, Segoe UI Emoji" font-size="20px" fill="#000000" text-anchor="middle" style="white-space: pre;" direction="ltr">NextJS</text></g><g stroke-linecap="round" transform="translate(440.09372302494967 503.91153322385526) rotate(0 134.99996948242193 23.666656494140625)"><path d="M1.3 0.1 C84.87 -0.31, 171.08 2.06, 269.79 1.02 M-0.12 -0.51 C63.8 -1.68, 125.61 -1.63, 270.6 -0.35 M271.8 -0.9 C268.74 15.24, 271.28 32.28, 271.73 46.46 M270.7 0.81 C269.92 11.11, 271.03 22.87, 269.22 46.66 M270.7 48.36 C207.41 49.33, 147.1 47, 0.09 48.89 M270.41 47.47 C195.8 46.69, 120.64 46.52, 0.38 46.99 M-0.58 47.81 C-0.48 29.24, 0.17 15.76, 1.57 -1.87 M-0.59 47.31 C0.1 30.78, -0.93 14.74, -0.75 -0.95" stroke="#000000" stroke-width="1" fill="none"></path></g><g stroke-linecap="round"><g transform="translate(550.0824195016621 704.5781897179959) rotate(0 0.02610764477782368 -58.09497099108995)"><path d="M1 0.08 C0.89 -19.21, 0.06 -97.18, 0.06 -116.27 M0.06 -0.93 C-0.28 -20.05, -1.04 -95.99, -0.94 -115.22" stroke="#000000" stroke-width="1" fill="none"></path></g><g transform="translate(550.0824195016621 704.5781897179959) rotate(0 0.02610764477782368 -58.09497099108995)"><path d="M9.56 -87.23 C4.26 -95.74, 3.56 -107.53, 0.37 -116.55 M8.78 -86.22 C4.72 -97.97, 1.09 -106.4, -1.38 -114.88" stroke="#000000" stroke-width="1" fill="none"></path></g><g transform="translate(550.0824195016621 704.5781897179959) rotate(0 0.02610764477782368 -58.09497099108995)"><path d="M-10.96 -87.15 C-8.87 -95.86, -2.18 -107.68, 0.37 -116.55 M-11.74 -86.15 C-8.49 -97.89, -4.8 -106.34, -1.38 -114.88" stroke="#000000" stroke-width="1" fill="none"></path></g></g><g stroke-linecap="round"><g transform="translate(578.5152858320542 592.5781897179959) rotate(0 0.4152444378055975 52.48623093895611)"><path d="M0.08 -0.1 C0.16 17.43, -0.33 88.62, -0.05 106.16 M-1.34 -1.19 C-0.85 16.53, 1.7 86.54, 2.17 104.48" stroke="#000000" stroke-width="1" fill="none"></path></g><g transform="translate(578.5152858320542 592.5781897179959) rotate(0 0.4152444378055975 52.48623093895611)"><path d="M-9.14 75.07 C-4.5 85.25, -3.29 92.24, 0.85 105.61 M-8.13 75.74 C-6 85.54, -0.52 95.57, 2.51 104.6" stroke="#000000" stroke-width="1" fill="none"></path></g><g transform="translate(578.5152858320542 592.5781897179959) rotate(0 0.4152444378055975 52.48623093895611)"><path d="M11.37 74.42 C10.75 84.78, 6.69 91.94, 0.85 105.61 M12.38 75.09 C7.39 84.98, 5.76 95.24, 2.51 104.6" stroke="#000000" stroke-width="1" fill="none"></path></g></g><g transform="translate(471.5937840601059 517.5781897179959) rotate(0 104.5 12.5)"><text x="104.5" y="18" font-family="Virgil, Segoe UI Emoji" font-size="20px" fill="#000000" text-anchor="middle" style="white-space: pre;" direction="ltr">Load Balancer - SSL</text></g><g stroke-linecap="round" transform="translate(444.0937840601059 236.57812868283958) rotate(0 129.33334350585938 85.3333435058594)"><path d="M1.11 1.18 C79.08 2.67, 157.53 2.53, 259.42 -0.25 M-0.68 -0.66 C61.48 1.48, 122.01 1.93, 258.99 0.72 M259.89 0.65 C259.27 42.68, 256.58 88.27, 259.79 172.07 M259.43 -0.98 C257.28 64.3, 257.33 129.02, 259.08 171.11 M258.46 169.42 C164.17 173.73, 69.1 172.42, -0.61 171.51 M258.65 170.67 C176.88 170.76, 94.64 171.11, -0.24 170.43 M0.16 171.31 C1.99 113.5, 1.33 61.83, -1.19 -1.18 M-0.51 170.81 C-1.63 118.91, -1.27 68.83, -0.53 0.05" stroke="#000000" stroke-width="1" fill="none"></path></g><g transform="translate(852.2603490015122 367.57815920041776) rotate(0 66.5 25.5)"><text x="66.5" y="17.5" font-family="Virgil, Segoe UI Emoji" font-size="20px" fill="#1864ab" text-anchor="middle" style="white-space: pre;" direction="ltr">Dockerized</text><text x="66.5" y="43" font-family="Virgil, Segoe UI Emoji" font-size="20px" fill="#1864ab" text-anchor="middle" style="white-space: pre;" direction="ltr">Express - api</text></g><g stroke-linecap="round"><g transform="translate(558.3899826196734 480.43038245182447) rotate(0 0.1703953483658438 -27.096026678699218)"><path d="M0.88 -0.16 C1.04 -9.3, 0.14 -45.28, -0.02 -54.03 M-0.11 -1.29 C0.03 -10.37, -0.49 -44.01, -0.56 -52.91" stroke="#000000" stroke-width="1" fill="none"></path></g><g transform="translate(558.3899826196734 480.43038245182447) rotate(0 0.1703953483658438 -27.096026678699218)"><path d="M8.57 -26.69 C5.25 -32.33, 5.43 -39.31, -1.85 -51.22 M9.6 -28.44 C7.4 -33.23, 5.47 -37.72, -1.01 -53.57" stroke="#000000" stroke-width="1" fill="none"></path></g><g transform="translate(558.3899826196734 480.43038245182447) rotate(0 0.1703953483658438 -27.096026678699218)"><path d="M-9.64 -26.48 C-8.91 -32.3, -4.7 -39.33, -1.85 -51.22 M-8.61 -28.23 C-6.95 -32.91, -5.03 -37.45, -1.01 -53.57" stroke="#000000" stroke-width="1" fill="none"></path></g></g><g stroke-linecap="round"><g transform="translate(573.2564266730253 428.9574506774321) rotate(0 -0.09621869419368068 26.678195371114157)"><path d="M-0.16 0.78 C-0.43 9.5, -0.9 44.61, -0.78 53.21 M-1.7 0.15 C-1.66 8.45, 1.21 42.54, 1.51 51.44" stroke="#000000" stroke-width="1" fill="none"></path></g><g transform="translate(573.2564266730253 428.9574506774321) rotate(0 -0.09621869419368068 26.678195371114157)"><path d="M-7.65 26.03 C-3.78 37.2, -1.36 43.86, 3.21 49.67 M-9.4 27.69 C-6.78 32.86, -3.74 37.2, 0.86 51.15" stroke="#000000" stroke-width="1" fill="none"></path></g><g transform="translate(573.2564266730253 428.9574506774321) rotate(0 -0.09621869419368068 26.678195371114157)"><path d="M10.28 24.94 C7.54 36.48, 3.34 43.55, 3.21 49.67 M8.53 26.6 C7.28 32.14, 6.45 36.71, 0.86 51.15" stroke="#000000" stroke-width="1" fill="none"></path></g></g><g transform="translate(752.7605321069809 756.2448156945584) rotate(0 172 38)"><text x="172" y="18.333333333333332" font-family="Virgil, Segoe UI Emoji" font-size="20px" fill="#000000" text-anchor="middle" style="white-space: pre;" direction="ltr">Vercel - uses cloudflare as a CDN</text><text x="172" y="43.666666666666664" font-family="Virgil, Segoe UI Emoji" font-size="20px" fill="#000000" text-anchor="middle" style="white-space: pre;" direction="ltr"></text><text x="172" y="69" font-family="Virgil, Segoe UI Emoji" font-size="20px" fill="#000000" text-anchor="middle" style="white-space: pre;" direction="ltr">Frontend</text></g><g stroke-linecap="round"><g transform="translate(825.4270970483872 659.9115027062771) rotate(0 95.21708567924804 0.5335584246926146)"><path d="M-0.79 0.68 C31.1 0.52, 159.45 -0.24, 191.23 -0.19 M0.99 -0.01 C32.79 -0.05, 158.68 1.38, 190.57 1.25" stroke="#000000" stroke-width="1" fill="none"></path></g></g><g stroke-linecap="round" transform="translate(347.42709704838717 767.9115027062771) rotate(0 53.666656494140625 36.33331298828125)"><path d="M0 0 C0 0, 0 0, 0 0 M0 0 C0 0, 0 0, 0 0 M-0.2 7.05 C0.76 4.99, 2.17 3.59, 4.59 0.34 M-0.49 6.26 C1.39 4.5, 3.15 2.52, 4.75 0.41 M0.26 12.64 C4.31 8.79, 7.77 2.68, 9.14 1.53 M0.05 11.78 C2.54 9.99, 3.61 6.85, 10.22 -0.3 M-1.65 18.14 C3.94 12.78, 6.78 8.28, 16.92 1.02 M0.05 18.87 C5.56 10.83, 12.01 5.04, 16.27 0.72 M-0.82 25.33 C8.7 16.23, 15.53 4.07, 19.5 1.64 M0.01 23.94 C6 16.98, 13.24 10.46, 20.37 0.33 M1.29 30.6 C7.5 23.15, 10.6 15.29, 25.64 1.11 M-0.33 30.07 C9.13 20.17, 18.04 9.81, 27.05 0.08 M-1.63 37.65 C10.09 26.07, 23.24 12, 31 -0.19 M0.2 36.43 C7.1 27.28, 16.22 18.56, 32.2 0.23 M0.48 43.81 C9.84 30.46, 16.52 21.84, 37.66 1.02 M-0.82 42.04 C10.53 30.68, 22.18 16.96, 37.62 0.27 M1.29 48.03 C11.13 36.67, 22.76 22.63, 42.61 0.73 M0.49 48.7 C14.07 31.49, 29.83 15.6, 43.19 0.49 M1.87 53.47 C19.26 36.17, 35.75 17.16, 45.67 -0.55 M-0.16 55.23 C10.18 44.26, 20.9 33.01, 47.5 0.63 M-1.38 59.3 C16.65 39.81, 37.32 18.99, 53.9 0 M-0.57 60.16 C16.56 40.93, 33.87 22.59, 54.05 -0.61 M-0.99 67.29 C12 52.24, 27.03 32.11, 57.59 -0.64 M-0.59 67.99 C13.03 50.81, 27.52 34.55, 57.87 1.11 M0.88 73.81 C21.17 45.78, 42.56 23.32, 62.64 -1.53 M-0.12 72.07 C15.99 54.43, 30.93 37.28, 63.67 -0.71 M7.51 73.21 C21.11 58.08, 31.3 43.9, 70.56 2.04 M5.67 71.68 C24.64 52.07, 44.9 29.28, 68.52 -0.74 M10.36 72.13 C33.22 44.19, 60.39 18.62, 74.84 0.32 M9.84 73.21 C29.07 51.94, 47.82 30.8, 74.03 -0.32 M18.02 73.02 C37.84 44.22, 60.99 19.54, 80.94 1 M16.33 73.38 C33.67 52.32, 49.64 34.88, 78.92 -0.76 M19.52 71.23 C41.5 50.44, 60.92 26.97, 86.7 -1.04 M21.95 73.15 C44.48 46.88, 67.38 19.12, 85.28 0.15 M28.79 72.81 C38.1 58.8, 53.13 41.88, 90.3 0.09 M26.63 73.27 C49.62 48.11, 71.55 21.86, 89.16 0.83 M32.58 74.33 C55.62 43.05, 82.87 14.46, 94.66 -0.89 M31.99 72.95 C47.99 53.79, 62.94 35.74, 94.72 -0.59 M38.23 73.43 C58.45 49.11, 76.46 27.93, 99.43 -0.6 M36.89 74.12 C61.5 46.66, 84.03 19.07, 100.95 0.4 M40.94 72.89 C58.01 56.5, 71.13 40.36, 105.38 -1.23 M43.37 72.32 C59.57 53.18, 77.22 31.56, 105.77 0.25 M48.93 74.73 C70.24 43.1, 97.54 16.42, 108.39 3.58 M47.55 72.54 C62.79 56.49, 78.18 36.66, 108.72 2.22 M53.25 72.69 C76.44 46.11, 98.66 20.78, 110.51 7.5 M54.16 72.56 C68.27 55.99, 83.37 40.01, 109.78 8.92 M57.73 74.12 C71.51 57.32, 82.96 44.73, 107.84 14.84 M58.19 72.53 C75.63 52.79, 93.76 31.68, 109.91 14.42 M65.37 71.76 C75.91 62.51, 82.38 51.59, 111.08 19.35 M64.05 73.58 C78.13 54.75, 93.59 38.41, 109.39 20.9 M68.34 73.54 C78.9 61.16, 89.1 50.12, 108.76 28.33 M69.21 73.42 C80.41 59.65, 93.68 44.72, 109.71 25.42 M74.37 74.42 C86.74 56.58, 101.84 40.07, 111.03 33.13 M75.39 72.9 C86.23 59.76, 97.92 45.75, 109.08 32.32 M80.7 74.19 C91.46 62, 104.14 46.63, 108.83 37.26 M80.16 73.66 C90.56 58.94, 101.3 46.23, 110.4 38.02 M84.54 73.28 C91.53 67.34, 94.65 62.02, 111.18 46.45 M86.16 72.66 C91.46 66.62, 95.11 61.78, 110.15 44.91 M88.97 74.58 C95.01 67.1, 98.63 61.93, 110.93 49.16 M90.7 73.83 C97.59 66.28, 102.96 56.64, 108.93 50.65 M97.41 71.23 C97.81 68.11, 103.52 63.64, 110.65 58.47 M94.98 72.6 C98.56 69.21, 102.99 64.73, 109.07 57.8 M99.97 72.67 C102.43 70.43, 104.61 68.12, 108.79 64.1 M101.36 73.4 C104.09 69.67, 106.87 64.81, 109.25 63.16 M106.25 72.35 C107.44 70.93, 108.55 70.07, 110.14 68.88 M106.36 72.76 C107 71.94, 107.88 71.03, 109.57 69.02" stroke="#ced4da" stroke-width="0.5" fill="none"></path><path d="M0.94 -0.31 C37.92 1.09, 76.66 -2.3, 105.69 1.53 M0.4 0.9 C27 -0.79, 54.61 0.48, 107.66 0.86 M108.46 1.4 C108.6 17.92, 105.35 38.78, 105.38 71.11 M107.75 0.45 C107.46 16.1, 107.52 33.67, 106.56 72.73 M106.57 73.72 C64.84 74.06, 22.08 72.82, 0 73.64 M107.03 72.37 C80.1 72.41, 51.39 72.73, 0.32 73.45 M-1.19 71.49 C-0.38 58.71, -0.71 41.66, 0.28 -1.5 M-0.53 72.71 C0.29 57.91, 1.25 43.37, -0.21 -0.15" stroke="#000000" stroke-width="1" fill="none"></path></g><g transform="translate(352.42709704838717 782.2448156945584) rotate(0 49 25.5)"><text x="49" y="17.5" font-family="Virgil, Segoe UI Emoji" font-size="20px" fill="#000000" text-anchor="middle" style="white-space: pre;" direction="ltr">Metamask</text><text x="49" y="43" font-family="Virgil, Segoe UI Emoji" font-size="20px" fill="#000000" text-anchor="middle" style="white-space: pre;" direction="ltr">ethersjs</text></g><g stroke-linecap="round"><g transform="translate(322.76044055424654 798.5781897179959) rotate(0 -31.79282519795001 0.32680791740477844)"><path d="M-0.19 -0.78 C-10.8 -0.82, -52.18 0.08, -62.98 0.27 M-1.75 1.43 C-12.49 1.44, -53.25 1.3, -63.4 1.25" stroke="#000000" stroke-width="1" fill="none"></path></g><g transform="translate(322.76044055424654 798.5781897179959) rotate(0 -31.79282519795001 0.32680791740477844)"><path d="M-36.46 -7.2 C-46.95 -7.02, -56.89 -0.17, -64.28 1.93 M-35.61 -9.55 C-44.23 -4.86, -52.44 -1.44, -63.83 0.77" stroke="#000000" stroke-width="1" fill="none"></path></g><g transform="translate(322.76044055424654 798.5781897179959) rotate(0 -31.79282519795001 0.32680791740477844)"><path d="M-36.54 13.32 C-47.1 6.19, -57.01 5.72, -64.28 1.93 M-35.69 10.97 C-44.37 9.25, -52.55 6.26, -63.83 0.77" stroke="#000000" stroke-width="1" fill="none"></path></g></g><g stroke-linecap="round" transform="translate(146.0937535425278 749.2448767297146) rotate(0 48 55)"><path d="M0 0 C0 0, 0 0, 0 0 M0 0 C0 0, 0 0, 0 0 M-0.14 6.14 C1.58 4.16, 2.91 3.03, 5.22 0.4 M-0.1 6.24 C1.29 4.7, 2.37 3.86, 4.76 0.06 M1.6 11.28 C3.46 6.84, 8.12 3.11, 11.84 -0.99 M0.51 11.27 C2.95 8.09, 6 4.71, 10.42 -0.2 M-1.03 16.98 C2.8 15.7, 7.63 11.8, 15.78 -0.35 M-1.05 18.86 C4.84 13.37, 10.19 7.81, 14.75 0.45 M1.74 22.98 C3.87 16.38, 12.13 12.1, 20.9 -1.27 M0.14 24.65 C6.54 16.66, 12.23 10.27, 21.69 -0.34 M-0.28 28.83 C8.53 18.69, 19.92 9.1, 26.99 0.48 M-0.02 30.78 C7.01 23.16, 13.9 14.7, 25.51 0.53 M1.55 38.3 C7.32 27.57, 14.38 18.91, 31.68 -0.62 M-0.69 37.24 C11.12 24.63, 22.48 11.05, 32.61 0.3 M-1.13 40.71 C12.26 29.77, 23.92 15.53, 37.31 -0.9 M0.64 42.83 C7.16 34.8, 15.34 25, 37.72 0.17 M0.18 50.31 C14.77 30.67, 32.58 13.28, 41.97 1.71 M-0.25 49.35 C16.27 32.15, 31.41 14.3, 41.83 0.21 M1.27 56.25 C19.73 31.61, 35.71 10.94, 46.1 -1.14 M0.92 55.2 C12.72 40.72, 24.59 27.25, 48.49 -0.7 M-0.28 61.75 C13 47.98, 25.16 33.35, 51.51 0.94 M-0.77 61.36 C13.19 47.31, 25.77 31.1, 53.66 0.02 M1.39 66.04 C13.3 49.68, 29.68 31.48, 60 0.33 M-0.21 66.98 C15.23 49.46, 31.39 32.23, 58.05 0.53 M-1.81 71.81 C21.94 47.45, 41.43 22.69, 64.36 0.52 M-0.69 73.56 C17.78 52.3, 35.19 31.4, 63 -0.48 M-0.03 78.63 C26.94 49.94, 54.72 17.54, 66.97 -0.68 M0.79 80.13 C20.28 56.77, 39.43 34.92, 68.76 0.08 M-1.09 86.91 C21.86 62.18, 42.6 37.65, 74.84 -1.92 M-0.36 85.86 C14.56 66.81, 30.68 50.1, 74.38 0.63 M-1.94 91.06 C29.19 58.69, 61.05 21.71, 78.2 0.83 M-0.91 91.02 C23.1 64.22, 44.59 38.14, 80.05 0.82 M-0.21 99.45 C16.79 78.69, 34.95 58.12, 85.54 -0.49 M0.33 97.58 C29.32 63.21, 60.51 27.19, 84.93 0.43 M1.62 103.83 C34.12 64.54, 69.63 25.15, 90.19 1.1 M1.14 104.41 C22.43 75.18, 46.54 50.26, 89.5 -0.72 M-1.97 110.78 C28.49 73.57, 61.19 37.56, 97.36 0.89 M-0.44 109.41 C28.14 75.81, 56.14 44.28, 95.39 0.12 M1.54 112.62 C37.3 70.74, 71.24 33.56, 96.75 3.84 M3.62 112.17 C29.42 80.72, 57.33 47.98, 97.8 2.86 M7.99 112.66 C27.31 89.35, 45.71 67.65, 99.59 7.59 M8.53 111.89 C41.71 74.32, 76.15 37.2, 99.25 9.11 M11.61 114.35 C43.18 76.3, 76.18 40.59, 100.38 13.27 M14.44 112.3 C37.95 83.4, 63.54 56.49, 99.18 13.91 M16.85 114.44 C40.75 85.63, 65.87 56.51, 96.92 20.1 M18.09 113.53 C49.87 77.31, 81.59 41.23, 98.7 19.85 M22.79 111.21 C45.12 87.27, 65.03 66.4, 97.95 25.46 M24 112.03 C45.67 88.43, 68.33 62.04, 98.04 26.04 M29.71 111.64 C56.11 83.56, 80.75 53.12, 99.72 34.15 M28.82 112.49 C50.97 87.79, 72.92 62.66, 97.93 32.96 M34.17 112.58 C51.58 91.76, 71.18 72.72, 98.41 38.28 M35.17 112.69 C55.15 88.8, 75.7 65.49, 97.75 39.1 M39.56 111.99 C55.63 95.29, 73.93 74.29, 97.98 46.71 M40.02 113.51 C61.46 86.3, 84.53 61.25, 98.14 44.19 M47.15 114.06 C63.52 89.48, 82.03 69.97, 99.98 52.54 M44.46 111.73 C63.68 90.94, 83.18 67.15, 98.71 51.29 M50.67 112.45 C63.83 99.12, 77.93 80.75, 98 54.97 M50.12 112.01 C70.65 90.79, 89.14 67.29, 99.11 56.47 M55.38 111.45 C65.48 101.58, 74.89 89.6, 100.19 62.54 M56.96 111.75 C69.81 93.72, 86.04 76.98, 99.48 62.72 M60.61 113.18 C74.87 97.71, 91.38 79.35, 99.7 71.07 M61.64 113.03 C69.28 103.1, 78.22 94.07, 97.57 69.6 M66.82 110.78 C75.13 102.94, 83.29 96.87, 100.49 75.05 M67.38 111.49 C78.03 97.87, 91.2 84.32, 98.4 75.38 M70.2 111.58 C79.44 106.31, 85.95 95.14, 97.24 81.14 M72.24 112.26 C79.13 104.05, 86.46 96.4, 98.85 82.26 M77.69 110.3 C84.09 103.79, 94.08 91.97, 99.65 88.04 M77.03 112.83 C84.29 103.82, 92.09 94.27, 99.9 86.92 M81.58 112.25 C87.41 110.3, 89.1 102.87, 97.1 91.77 M81.65 113.01 C86.44 109.04, 90.75 104.54, 97.91 93.54 M86.8 110.82 C90.44 108.87, 93.75 105.25, 98.9 101.21 M88.68 111.88 C91.67 108.36, 93.51 105.44, 98.78 100.32 M92.57 112.78 C95.44 111.39, 96.81 108.07, 98.78 105.44 M92.84 112.89 C94.84 110.17, 97.75 107.68, 98.9 105.4" stroke="#ced4da" stroke-width="0.5" fill="none"></path><path d="M1.69 -1.77 C31.6 -1.02, 68.12 -0.26, 96.68 0.25 M-0.66 -0.29 C33.25 0.75, 66.14 -0.01, 95.52 0.58 M95.29 -1.63 C98.29 37.23, 95.22 77.03, 94.54 108.13 M95.2 0.71 C96.36 36.8, 96.55 76.13, 95.77 110.18 M97.2 110.43 C70.84 110.17, 46.72 109.29, 0.81 109.98 M95.76 109.01 C70.16 110.55, 44.95 109.29, 0.46 110.88 M1.03 109.62 C-0.38 83.8, -0.85 55.15, -0.77 -0.4 M0.18 110.96 C0.51 82.62, -0.2 55.58, 0.23 -0.06" stroke="#000000" stroke-width="1" fill="none"></path></g><g transform="translate(151.0937535425278 779.2448767297146) rotate(0 43 25)"><text x="43" y="17" font-family="Virgil, Segoe UI Emoji" font-size="20px" fill="#000000" text-anchor="middle" style="white-space: pre;" direction="ltr">Infura</text><text x="43" y="42" font-family="Virgil, Segoe UI Emoji" font-size="20px" fill="#000000" text-anchor="middle" style="white-space: pre;" direction="ltr">node</text></g><g stroke-linecap="round" transform="translate(17.66193646819852 684.4842405368255) rotate(0 63 86.5)"><path d="M0 0 C0 0, 0 0, 0 0 M0 0 C0 0, 0 0, 0 0 M0.02 6 C1.09 5.17, 2.72 3.29, 4.54 0.09 M-0.01 6.16 C1.17 5.19, 2.29 2.88, 5.02 0.51 M0.27 10.56 C4.7 7.02, 7.46 3.97, 10.47 -0.56 M-0.13 11.63 C3.4 7.74, 7.03 3.74, 10.02 -0.15 M-0.75 19.74 C5.26 14.69, 9.35 7.25, 15.97 1.18 M-0.08 19.09 C4.9 14.09, 8.1 8.23, 15.07 0.95 M-1.13 22.32 C8.24 16.67, 12.62 8.17, 20.75 -0.35 M0.74 23.19 C5.97 17.25, 11.28 11.53, 21.9 -0.01 M-1.01 29.88 C10.61 20.28, 20.29 8.46, 25.58 -0.52 M-0.11 31.29 C8.49 20.79, 16.66 10.65, 25.56 0.68 M0.03 35.99 C7.63 26.08, 15.83 17, 32.81 -1.01 M-0.17 37.19 C7.56 27.85, 15.27 20.31, 32.06 0.54 M0.89 43.3 C13.59 28.5, 25.68 13.12, 34.96 -0.7 M-0.53 43.26 C9.4 31.09, 19.68 20.56, 37.58 -0.19 M-1.26 49.01 C15 33.03, 27.91 17.5, 43.74 -0.58 M0.76 49.59 C10.65 37.68, 19.4 25.89, 43.32 -0.68 M1.48 52.72 C17.89 30.83, 35.93 9.85, 46.65 1.57 M0.95 54.56 C13.21 39.93, 26.67 23.69, 46.81 -0.61 M0.26 61.71 C12.71 46.64, 23.35 33.24, 51.99 -1.77 M-0.15 61.86 C13.71 44.51, 28.3 29.51, 52.78 -0.21 M-2.09 66.81 C10.41 52.82, 25.14 40.19, 57.47 1.45 M0.08 67.09 C15.36 51.07, 29.07 34.06, 58.51 0.59 M0.78 71.86 C16.04 53.19, 34.43 36.15, 63.26 -2.07 M-0.33 72.88 C24.7 43.56, 48.87 16.11, 64.64 0.09 M0.58 81.19 C28.94 48.35, 52.46 16.23, 68.53 -1.69 M-0.31 79.15 C14.39 61.1, 31.39 41.74, 68.56 -0.27 M0.79 85.47 C18.35 64.59, 35.14 43.72, 72.55 0.25 M-0.57 84.66 C24.93 57.17, 49.17 29.65, 75.21 -0.02 M-0.79 92.98 C21.38 68.33, 38.88 47.25, 79.22 1.74 M0.74 90.96 C25.5 62.43, 52.55 33.76, 78.46 -0.73 M-1.61 99.49 C30.48 62.19, 63.25 24.44, 86.14 0.15 M-0.74 98.08 C25.69 67.1, 51.21 38.79, 85.91 -0.14 M-0.55 103.75 C18.02 82.82, 36.81 61.48, 89.19 1.55 M-0.02 102.61 C34.15 64.1, 67.15 22.96, 90.3 0.8 M-2.06 108.87 C21.55 84.07, 45.03 61.83, 95.58 -0.21 M-0.1 108.93 C34.32 70.88, 68.68 31.72, 96.28 -0.23 M0.23 114.29 C38.92 72.5, 76.14 28.4, 100.4 1.77 M0.24 115.82 C34.42 75.24, 67.79 36.76, 99.8 0.07 M0.09 121 C34.61 80.79, 72.2 39.13, 107.71 -1.43 M-0.28 121.39 C24.91 95.05, 50.2 65.67, 106.94 0.41 M-0.9 127.39 C29.45 95.09, 56.88 63.69, 111.08 -1.34 M-1.19 127.72 C32.75 90.05, 67.37 49.35, 111.27 -0.05 M-1.54 134.76 C43.69 82.86, 85.31 33.81, 118 -0.17 M0.34 134.02 C36.78 92.35, 70.98 51.58, 116 0.84 M0.87 138.74 C39.92 97.71, 76.94 51.49, 121.73 -1.34 M-0.92 140.82 C27.84 108.17, 54.43 76.97, 122.64 -0.54 M0.93 147.23 C49.51 89.51, 101.39 32.49, 127.15 1.91 M1 145.54 C31.51 111.52, 59.62 77.98, 126.62 0.53 M-0.33 151.58 C39.21 110, 73.98 66.78, 127.25 7.27 M-0.45 152.52 C27.21 120.03, 56.15 85.95, 126.55 7.57 M-0.99 160.5 C25.73 130.48, 49.93 102.66, 128.05 13.43 M-1.1 158.55 C40.63 110.68, 82.04 61.37, 126.96 13.67 M-0.45 163.55 C37.98 118.6, 80.75 72.15, 128.02 19.87 M-0.49 165.12 C38.5 121.31, 76.35 79.42, 126.46 19.06 M0.45 172.56 C48.78 114.78, 93.59 59.99, 128.46 25.06 M0.81 171.53 C49.75 114.39, 99.09 57.88, 125.92 25.92 M1.15 176.04 C39.56 131.82, 81.08 85.64, 127.98 32.31 M0.65 174.04 C48.42 120.24, 96.9 64.91, 127.71 30.09 M6.56 175.63 C35.74 142.74, 61.95 114.54, 124.97 37.04 M7.36 174.06 C35.75 141.29, 62.3 108.81, 126.01 36.93 M12.98 174.11 C40.62 146.4, 68.1 113.08, 128.11 44.68 M11.36 174.81 C45.97 136.46, 80.43 95.93, 126.01 43 M18.4 176.21 C47.13 141.12, 74.16 109.32, 126.12 50.09 M18.29 173.94 C40.43 148.87, 62.84 123.3, 127.53 50.21 M21.75 175.64 C47.94 145.94, 72.4 120.15, 127.65 55.03 M22.04 175.2 C47.43 145.22, 74.06 116.44, 125.65 55.01 M29.99 176.23 C59.53 137.43, 89.18 101.53, 125.69 60.1 M28.61 175.35 C54.43 146.59, 77.8 117.14, 126.9 60.95 M32.64 175.17 C61.63 143.76, 90.81 112.61, 126.13 65.9 M34.43 174.08 C54.01 149.81, 76.66 125.19, 126.57 67.72 M40.89 176.12 C59.86 150.67, 78.13 128.95, 128.13 72.98 M38.22 174.86 C59.67 151.73, 79.2 127.3, 126.96 73.71 M46.11 176.48 C76.99 138.62, 107.59 101.9, 128.03 79.28 M43.34 174.93 C68.41 147.33, 92.53 119.48, 125.95 79.16 M50.96 172.5 C74.13 147.12, 100.98 115.85, 125.13 87.58 M49.62 174.14 C64.82 155.86, 83.06 136.38, 126.65 86.42 M55.91 174.54 C78.43 147.66, 98.92 124.21, 128.12 91.4 M55.71 174.9 C75.35 151.76, 96.37 126.65, 126.6 91.46 M62.34 176.2 C73.99 158.31, 86.81 142.51, 125.66 98.22 M60.93 175.04 C73.36 157.18, 87.3 141.92, 126.06 97.93 M67.07 173.55 C80.64 156.89, 96.09 143.32, 124.78 103.43 M65.6 173.76 C80.42 156.58, 97.56 139.39, 127.27 104.67 M69.44 174.28 C90.21 152.8, 104.27 135.24, 128.68 109.7 M70.88 174.52 C82.92 160.36, 93.78 147.95, 126.02 109.97 M77.89 172.93 C85.65 160.06, 98.63 147.94, 124.64 116.52 M75.14 174.94 C90.2 156.97, 105.28 140.98, 126.3 116.7 M80.97 176.03 C95.37 158.29, 111.4 140.3, 128.38 124.04 M81.79 173.71 C96.65 155.95, 111.35 140.2, 126.48 122.93 M85.96 173.33 C95.7 162.58, 109.6 151.69, 128.65 130.31 M87.62 174.5 C98.07 162.7, 107.78 149.13, 126.67 128.88 M93.89 174.94 C101.57 164.94, 108.82 155.76, 127.61 135.21 M92.62 174.85 C102.15 160.93, 113.15 149.74, 126.86 135.55 M98.14 174.59 C104.41 168.25, 110.56 160.06, 128.7 141.88 M96.39 174.12 C105.88 164.19, 115.97 153.92, 127.61 139.91 M103.48 174.73 C110.08 165.43, 115.16 160.41, 126.46 148.16 M101.92 174.35 C109.04 167.38, 112.36 161.81, 125.62 147 M108.6 173.8 C113.05 167.96, 118.45 163.95, 124.95 152.54 M107.95 174.17 C112.86 167.83, 118.83 162.27, 126.97 153.64 M112.6 176.09 C117.29 168.68, 122.5 164.94, 128.32 157.32 M112.19 174.49 C116.02 171.12, 120.03 166.56, 127.41 158.31 M117.47 174.98 C120.34 171.79, 125.09 168.58, 126.88 166.16 M118.75 174.6 C120.09 173.14, 122.28 170.49, 125.9 165.1 M123.74 175.13 C124.65 173.72, 125.78 172.29, 127.24 170.78 M123.52 175.07 C124.29 173.67, 125.33 172.89, 126.75 170.99" stroke="#868e96" stroke-width="0.5" fill="none"></path><path d="M-1.69 -1.64 C31.18 0.23, 59.98 1.36, 126.8 1.8 M0.61 0.32 C33.02 -0.07, 63.83 0.94, 126.56 0.7 M127.52 -1.96 C123.83 64.52, 123.93 129.86, 126.83 173.9 M125.87 -0.78 C124.68 64.26, 124.39 126.71, 125.62 173.53 M125.96 173 C86.94 172.39, 46.75 173.25, -0.6 172.42 M126.08 173.32 C85.96 170.81, 44.81 172.63, -0.59 172.41 M-1.03 173.28 C-2.4 119.6, -1.67 69.58, -1.06 0.1 M0.56 172.79 C-0.46 120.79, -0.08 68.7, -0.25 -0.12" stroke="#000000" stroke-width="1" fill="none"></path></g><g transform="translate(22.66193646819852 745.9842405368255) rotate(0 58 25)"><text x="58" y="17" font-family="Virgil, Segoe UI Emoji" font-size="20px" fill="#000000" text-anchor="middle" style="white-space: pre;" direction="ltr">EVM</text><text x="58" y="42" font-family="Virgil, Segoe UI Emoji" font-size="20px" fill="#000000" text-anchor="middle" style="white-space: pre;" direction="ltr">Blockchain</text></g><g stroke-linecap="round"><g transform="translate(256.7604100366684 823.2448767297146) rotate(0 32.24263017959893 -0.6173206102646418)"><path d="M-0.98 0.92 C10.1 1.05, 54.28 -0.07, 65.47 -0.26 M0.7 0.36 C11.68 0.2, 53.45 -1.73, 64.24 -2.16" stroke="#000000" stroke-width="1" fill="none"></path></g><g transform="translate(256.7604100366684 823.2448767297146) rotate(0 32.24263017959893 -0.6173206102646418)"><path d="M38.05 8.42 C43.17 7.35, 49.15 6.48, 63.35 -3.48 M37.38 8.87 C43.49 6.68, 52.06 3.69, 65.05 -2.52" stroke="#000000" stroke-width="1" fill="none"></path></g><g transform="translate(256.7604100366684 823.2448767297146) rotate(0 32.24263017959893 -0.6173206102646418)"><path d="M37.17 -12.08 C42.29 -8.81, 48.46 -5.34, 63.35 -3.48 M36.5 -11.63 C42.97 -8.26, 51.78 -5.69, 65.05 -2.52" stroke="#000000" stroke-width="1" fill="none"></path></g></g><g transform="translate(214.00521103260144 10) rotate(0 181 31.5)"><text x="181" y="44" font-family="Virgil, Segoe UI Emoji" font-size="49.333325195312476px" fill="#000000" text-anchor="middle" style="white-space: pre;" direction="ltr">LandTokenDAO</text></g><g transform="translate(435.2604100366684 558.9114111535428) rotate(0 139.5 12.5)"><text x="139.5" y="18" font-family="Virgil, Segoe UI Emoji" font-size="20px" fill="#000000" text-anchor="middle" style="white-space: pre;" direction="ltr">https://api.landtokendao.com</text></g><g stroke-linecap="round" transform="translate(227.52787689245065 633.2202811114554) rotate(0 78.33334350585938 46.3333740234375)"><path d="M70.31 0.2 C81.64 -1.21, 95.81 0.43, 106.98 3.15 C118.14 5.86, 129.32 10.9, 137.3 16.5 C145.28 22.1, 151.9 29.69, 154.84 36.76 C157.78 43.83, 158.09 52.1, 154.94 58.92 C151.79 65.74, 144.37 72.53, 135.93 77.69 C127.5 82.85, 115.62 87.55, 104.34 89.88 C93.06 92.22, 80.15 92.59, 68.26 91.68 C56.37 90.78, 42.81 88.56, 32.99 84.48 C23.17 80.4, 14.99 73.77, 9.34 67.22 C3.7 60.68, -1 52.51, -0.88 45.21 C-0.75 37.91, 4.15 29.53, 10.11 23.43 C16.08 17.33, 22.47 12.47, 34.91 8.62 C47.34 4.77, 74.03 1.26, 84.73 0.32 C95.44 -0.61, 99.27 2.29, 99.13 3.03 M93.73 0.5 C105.09 1.33, 118.45 6.45, 127.84 11.28 C137.22 16.1, 145.44 22.89, 150.04 29.44 C154.64 35.99, 156.19 43.75, 155.46 50.59 C154.73 57.44, 152.28 64.49, 145.68 70.52 C139.08 76.55, 126.57 83.07, 115.87 86.75 C105.16 90.43, 93.18 92.49, 81.47 92.59 C69.76 92.69, 56.6 90.68, 45.6 87.33 C34.61 83.98, 22.7 78.38, 15.5 72.5 C8.29 66.62, 4.08 59.04, 2.39 52.03 C0.7 45.02, 1.69 37.08, 5.35 30.44 C9.01 23.8, 15.61 16.85, 24.34 12.19 C33.07 7.52, 46.25 4.39, 57.72 2.44 C69.18 0.5, 87.17 0.68, 93.13 0.51 C99.09 0.34, 93.59 0.65, 93.48 1.42" stroke="none" stroke-width="0" fill="#ced4da"></path><path d="M93.23 0.64 C104.71 1.45, 118.73 6.22, 128.4 10.72 C138.06 15.23, 146.63 21.03, 151.22 27.67 C155.81 34.32, 156.95 43.23, 155.94 50.58 C154.93 57.92, 151.42 65.82, 145.16 71.74 C138.91 77.66, 129.14 82.46, 118.41 86.07 C107.68 89.68, 93.21 93.16, 80.79 93.39 C68.36 93.62, 54.82 90.76, 43.88 87.45 C32.93 84.13, 22.4 79.03, 15.1 73.49 C7.81 67.96, 1.88 61.1, 0.1 54.25 C-1.68 47.4, 0.59 39.14, 4.44 32.38 C8.29 25.62, 14.55 18.89, 23.19 13.68 C31.83 8.46, 43 2.8, 56.3 1.07 C69.6 -0.65, 93.92 2.61, 102.99 3.33 C112.06 4.06, 111.2 4.75, 110.72 5.41 M85.23 0.18 C96.78 -0.06, 111.14 2.83, 121.45 6.71 C131.76 10.59, 141.3 17.19, 147.09 23.47 C152.87 29.75, 155.82 37.28, 156.18 44.4 C156.53 51.51, 154.66 59.61, 149.19 66.17 C143.73 72.72, 133.14 79.19, 123.4 83.71 C113.67 88.24, 102.75 92.12, 90.77 93.31 C78.79 94.49, 62.87 93.52, 51.53 90.85 C40.19 88.18, 30.98 82.61, 22.73 77.27 C14.48 71.94, 5.41 65.65, 2.04 58.84 C-1.34 52.03, -0.05 43.4, 2.49 36.42 C5.03 29.44, 9.85 22.67, 17.28 16.96 C24.71 11.24, 35.84 4.99, 47.08 2.15 C58.31 -0.7, 78.47 0.04, 84.68 -0.12 C90.88 -0.28, 84.34 0.31, 84.32 1.18" stroke="#000000" stroke-width="1" fill="none"></path></g><g transform="translate(265.3611898807319 655.5535940997366) rotate(0 39.5 25.5)"><text x="39.5" y="17.5" font-family="Virgil, Segoe UI Emoji" font-size="20px" fill="#000000" text-anchor="middle" style="white-space: pre;" direction="ltr">Hardhat</text><text x="39.5" y="43" font-family="Virgil, Segoe UI Emoji" font-size="20px" fill="#000000" text-anchor="middle" style="white-space: pre;" direction="ltr">dev env</text></g><g transform="translate(461.8432456381802 248.24475465940213) rotate(0 54 12.5)"><text x="54" y="18" font-family="Virgil, Segoe UI Emoji" font-size="20px" fill="#000000" text-anchor="middle" style="white-space: pre;" direction="ltr">AWS - ECS</text></g><g stroke-linecap="round" transform="translate(460.76047107182467 281.244724141824) rotate(0 111 56.333343505859375)"><path d="M-1.29 -0.04 L223.12 -1.11 L222.27 113.51 L1.84 112.65" stroke="none" stroke-width="0" fill="#ced4da"></path><path d="M-0.77 -1.13 C68.83 -0.67, 139.21 -0.24, 221.25 -0.83 M0.7 -0.31 C78.8 -0.69, 158.16 -2.01, 221.42 -0.63 M223.31 -1.59 C223.89 23, 220.92 46.66, 223.98 112.2 M222.18 0.6 C221.79 35.76, 221.57 72.05, 221.56 113.07 M222.41 112.25 C153.95 112.24, 89.89 113.47, -1.62 113.46 M221.98 113.11 C135.77 111.09, 49.98 110.89, -0.82 112.33 M0.03 113.02 C2.53 82.24, 0.18 49.26, -0.18 0.46 M-0.46 113.02 C0.45 80.37, 1.13 47.23, -0.23 0.1" stroke="#000000" stroke-width="1" fill="none"></path></g><g stroke-linecap="round" transform="translate(469.42709704838717 349.91141115354276) rotate(0 50.33331298828125 18)"><path d="M-0.04 1.12 L99.56 0.27 L101.51 37.84 L-0.02 34.23" stroke="none" stroke-width="0" fill="#15aabf"></path><path d="M-1.31 -0.57 C35.45 1.1, 70.18 -0.42, 99.71 1.16 M-0.35 -0.82 C36.62 -1.79, 70.95 -1.49, 99.94 -0.93 M99.07 1.42 C100.56 10.75, 100.95 26.58, 100.2 36.35 M101.27 0.22 C100.84 9.42, 101.34 18.4, 101.07 35.99 M100.18 34.01 C73.65 36.89, 47.88 34.37, 0.91 37.75 M101.18 35.81 C75.92 36.12, 51.45 35.03, -0.39 35.8 M0.36 37.93 C1.11 26.69, -0.32 18.04, 0.46 -0.12 M0.35 36.17 C0.87 26.96, 0.86 15.99, 0.1 -0.64" stroke="#000000" stroke-width="1" fill="none"></path></g><g transform="translate(474.92709704838717 355.5780981652615) rotate(0 44.5 12.5)"><text x="44.5" y="18" font-family="Virgil, Segoe UI Emoji" font-size="20px" fill="#000000" text-anchor="middle" style="white-space: pre;" direction="ltr">container</text></g><g transform="translate(476.09372302494967 304.24475465940213) rotate(0 40 12.5)"><text x="40" y="18" font-family="Virgil, Segoe UI Emoji" font-size="20px" fill="#000000" text-anchor="middle" style="white-space: pre;" direction="ltr">Fargate</text></g><g stroke-linecap="round"><g transform="translate(574.7603490015122 373.96341606034105) rotate(0 133.0151339257601 9.430009152401794)"><path d="M0.74 0.39 C45.26 3.45, 222.36 14.9, 266.37 18.05 M-0.34 -0.45 C44.19 2.8, 221.96 16.36, 265.96 19.31" stroke="#1864ab" stroke-width="1" fill="none"></path></g><g transform="translate(574.7603490015122 373.96341606034105) rotate(0 133.0151339257601 9.430009152401794)"><path d="M237.75 29.24 C243.02 24.45, 251.81 24.62, 267.36 20.93 M236.13 26.74 C244.13 24.4, 251.5 23.37, 266.41 19.97" stroke="#1864ab" stroke-width="1" fill="none"></path></g><g transform="translate(574.7603490015122 373.96341606034105) rotate(0 133.0151339257601 9.430009152401794)"><path d="M239.23 8.77 C244.09 8.79, 252.54 13.75, 267.36 20.93 M237.61 6.27 C245.05 9.36, 252.04 13.74, 266.41 19.97" stroke="#1864ab" stroke-width="1" fill="none"></path></g></g><g stroke-linecap="round"><g transform="translate(562.7604100366684 317.78251714429445) rotate(0 125.2209073128551 -16.64442424393343)"><path d="M0.39 1.04 C42.33 -4.81, 209.29 -28.64, 251.31 -34.32 M-0.87 0.53 C40.9 -5.22, 207.92 -27.16, 250.09 -33.09" stroke="#1864ab" stroke-width="1" fill="none"></path></g><g transform="translate(562.7604100366684 317.78251714429445) rotate(0 125.2209073128551 -16.64442424393343)"><path d="M225.25 -20.01 C229.69 -21.85, 238.98 -25.39, 251.7 -33.8 M222.75 -19.81 C228.49 -22.86, 235.44 -24.52, 250.74 -33.89" stroke="#1864ab" stroke-width="1" fill="none"></path></g><g transform="translate(562.7604100366684 317.78251714429445) rotate(0 125.2209073128551 -16.64442424393343)"><path d="M222.5 -40.35 C227.81 -36.67, 237.85 -34.7, 251.7 -33.8 M220 -40.15 C226.5 -38.73, 234.04 -35.95, 250.74 -33.89" stroke="#1864ab" stroke-width="1" fill="none"></path></g></g><g transform="translate(926.5939061304184 250.24475465940213) rotate(0 151.5 38)"><text x="151.5" y="18.333333333333332" font-family="Virgil, Segoe UI Emoji" font-size="20px" fill="#1864ab" text-anchor="middle" style="white-space: pre;" direction="ltr">Service to automatically scale</text><text x="151.5" y="43.666666666666664" font-family="Virgil, Segoe UI Emoji" font-size="20px" fill="#1864ab" text-anchor="middle" style="white-space: pre;" direction="ltr">and only pay for what you use</text><text x="151.5" y="69" font-family="Virgil, Segoe UI Emoji" font-size="20px" fill="#1864ab" text-anchor="middle" style="white-space: pre;" direction="ltr">- lambda for containers</text></g><g transform="translate(747.9269749780747 162.91141115354276) rotate(0 113.5 12.5)"><text x="113.5" y="18" font-family="Virgil, Segoe UI Emoji" font-size="20px" fill="#1864ab" text-anchor="middle" style="white-space: pre;" direction="ltr">AWS Container solution</text></g><g stroke-linecap="round"><g transform="translate(536.6265749695419 237.57818971799588) rotate(0 101.75903425687704 -21.96506585025047)"><path d="M-0.58 0.7 C33.27 -6.37, 169.93 -35.46, 204.09 -42.95 M1.32 0.02 C34.98 -7.34, 169.7 -37.44, 203.5 -44.63" stroke="#1864ab" stroke-width="1" fill="none"></path></g><g transform="translate(536.6265749695419 237.57818971799588) rotate(0 101.75903425687704 -21.96506585025047)"><path d="M179.32 -27.45 C189.41 -33.04, 197.1 -42.49, 205.02 -46.59 M177.22 -28.16 C184.35 -31.31, 188.74 -34.82, 203.37 -45.4" stroke="#1864ab" stroke-width="1" fill="none"></path></g><g transform="translate(536.6265749695419 237.57818971799588) rotate(0 101.75903425687704 -21.96506585025047)"><path d="M174.93 -47.5 C186.64 -45.32, 196.01 -47.03, 205.02 -46.59 M172.83 -48.21 C180.8 -46.86, 186.17 -45.92, 203.37 -45.4" stroke="#1864ab" stroke-width="1" fill="none"></path></g></g><g stroke-linecap="round" transform="translate(735.5532414575669 494.45671950235453) rotate(0 32.540420532226506 32.540420532226506)"><path d="M0 0 C0 0, 0 0, 0 0 M0 0 C0 0, 0 0, 0 0 M0.13 12.04 C4.3 7.25, 8.46 2.46, 10.63 -0.03 M0.13 12.04 C2.3 9.55, 4.47 7.05, 10.63 -0.03 M0.27 24.08 C5.81 17.7, 11.36 11.32, 21.26 -0.07 M0.27 24.08 C8.09 15.08, 15.91 6.09, 21.26 -0.07 M-0.26 36.88 C12.12 22.64, 24.49 8.41, 31.89 -0.1 M-0.26 36.88 C9.21 25.99, 18.67 15.11, 31.89 -0.1 M-0.12 48.92 C9.93 37.35, 19.99 25.78, 42.52 -0.14 M-0.12 48.92 C14.37 32.24, 28.87 15.56, 42.52 -0.14 M0.01 60.96 C18.03 40.23, 36.05 19.5, 53.15 -0.17 M0.01 60.96 C13.29 45.68, 26.58 30.39, 53.15 -0.17 M4.08 68.47 C19.11 51.18, 34.14 33.89, 63.78 -0.21 M4.08 68.47 C21.81 48.08, 39.53 27.68, 63.78 -0.21 M14.71 68.44 C29.03 51.97, 43.35 35.49, 70.47 4.29 M14.71 68.44 C33.93 46.33, 53.14 24.23, 70.47 4.29 M25.34 68.4 C41.12 50.25, 56.9 32.1, 69.95 17.08 M25.34 68.4 C34.59 57.76, 43.85 47.11, 69.95 17.08 M35.97 68.37 C47.89 54.66, 59.8 40.95, 70.08 29.12 M35.97 68.37 C46.55 56.2, 57.12 44.03, 70.08 29.12 M46.6 68.33 C52.45 61.6, 58.31 54.87, 70.22 41.16 M46.6 68.33 C52.42 61.64, 58.24 54.95, 70.22 41.16 M57.23 68.3 C61.72 63.13, 66.21 57.97, 70.35 53.2 M57.23 68.3 C60.37 64.69, 63.51 61.08, 70.35 53.2 M0.23 65.28 C0.23 65.28, 0.23 65.28, 0.23 65.28 M0.23 65.28 C0.23 65.28, 0.23 65.28, 0.23 65.28 M12.27 65.15 C7.74 61.21, 3.21 57.27, 0.19 54.65 M12.27 65.15 C8.82 62.15, 5.37 59.15, 0.19 54.65 M24.31 65.01 C15.7 57.53, 7.08 50.04, 0.16 44.02 M24.31 65.01 C17.94 59.48, 11.58 53.95, 0.16 44.02 M36.35 64.88 C25.43 55.38, 14.51 45.89, 0.13 33.39 M36.35 64.88 C23.14 53.4, 9.93 41.91, 0.13 33.39 M49.15 65.4 C39.16 56.72, 29.16 48.03, 0.09 22.76 M49.15 65.4 C32.16 50.63, 15.16 35.86, 0.09 22.76 M61.19 65.27 C37.39 44.58, 13.59 23.9, 0.06 12.13 M61.19 65.27 C45.82 51.91, 30.46 38.56, 0.06 12.13 M68.7 61.2 C47.59 42.85, 26.49 24.5, 0.02 1.5 M68.7 61.2 C43.53 39.32, 18.37 17.45, 0.02 1.5 M68.67 50.57 C54.55 38.3, 40.42 26.02, 4.52 -5.19 M68.67 50.57 C50.55 34.82, 32.42 19.07, 4.52 -5.19 M68.63 39.94 C48.12 22.11, 27.6 4.27, 16.56 -5.33 M68.63 39.94 C55.44 28.47, 42.24 17, 16.56 -5.33 M68.6 29.31 C53 15.76, 37.41 2.2, 28.6 -5.46 M68.6 29.31 C58.37 20.42, 48.15 11.53, 28.6 -5.46 M68.56 18.68 C61.66 12.68, 54.76 6.69, 41.39 -4.94 M68.56 18.68 C59.12 10.47, 49.67 2.26, 41.39 -4.94 M68.53 8.05 C65.38 5.32, 62.24 2.58, 53.43 -5.07 M68.53 8.05 C63.56 3.73, 58.59 -0.59, 53.43 -5.07" stroke="#7950f288" stroke-width="1" fill="none"></path><path d="M0 0 C16.69 0, 33.37 0, 65.08 0 M0 0 C15.14 0, 30.27 0, 65.08 0 M65.08 0 C65.08 25.98, 65.08 51.95, 65.08 65.08 M65.08 0 C65.08 16.66, 65.08 33.32, 65.08 65.08 M65.08 65.08 C51.66 65.08, 38.23 65.08, 0 65.08 M65.08 65.08 C51.71 65.08, 38.34 65.08, 0 65.08 M0 65.08 C0 46.13, 0 27.18, 0 0 M0 65.08 C0 47.06, 0 29.04, 0 0" stroke="#000000" stroke-width="2" fill="none"></path></g><g stroke-linecap="round" transform="translate(741.5370364201565 512.0307555531209) rotate(0 15.50619339104469 15.50619339104469)"><path d="M31.01 15.51 C31.01 16.4, 30.93 17.31, 30.78 18.2 C30.62 19.08, 30.38 19.97, 30.08 20.81 C29.77 21.65, 29.38 22.48, 28.93 23.26 C28.49 24.04, 27.96 24.79, 27.38 25.47 C26.81 26.16, 26.16 26.81, 25.47 27.38 C24.79 27.96, 24.04 28.49, 23.26 28.93 C22.48 29.38, 21.65 29.77, 20.81 30.08 C19.97 30.38, 19.08 30.62, 18.2 30.78 C17.31 30.93, 16.4 31.01, 15.51 31.01 C14.61 31.01, 13.7 30.93, 12.81 30.78 C11.93 30.62, 11.05 30.38, 10.2 30.08 C9.36 29.77, 8.53 29.38, 7.75 28.93 C6.98 28.49, 6.23 27.96, 5.54 27.38 C4.85 26.81, 4.2 26.16, 3.63 25.47 C3.05 24.79, 2.53 24.04, 2.08 23.26 C1.63 22.48, 1.24 21.65, 0.94 20.81 C0.63 19.97, 0.39 19.08, 0.24 18.2 C0.08 17.31, 0 16.4, 0 15.51 C0 14.61, 0.08 13.7, 0.24 12.81 C0.39 11.93, 0.63 11.05, 0.94 10.2 C1.24 9.36, 1.63 8.53, 2.08 7.75 C2.53 6.98, 3.05 6.23, 3.63 5.54 C4.2 4.85, 4.85 4.2, 5.54 3.63 C6.23 3.05, 6.98 2.53, 7.75 2.08 C8.53 1.63, 9.36 1.24, 10.2 0.94 C11.05 0.63, 11.93 0.39, 12.81 0.24 C13.7 0.08, 14.61 0, 15.51 0 C16.4 0, 17.31 0.08, 18.2 0.24 C19.08 0.39, 19.97 0.63, 20.81 0.94 C21.65 1.24, 22.48 1.63, 23.26 2.08 C24.04 2.53, 24.79 3.05, 25.47 3.63 C26.16 4.2, 26.81 4.85, 27.38 5.54 C27.96 6.23, 28.49 6.98, 28.93 7.75 C29.38 8.53, 29.77 9.36, 30.08 10.2 C30.38 11.05, 30.62 11.93, 30.78 12.81 C30.93 13.7, 30.97 15.06, 31.01 15.51 C31.05 15.95, 31.05 15.06, 31.01 15.51" stroke="#000000" stroke-width="2" fill="none"></path></g><g stroke-linecap="round" transform="translate(780.6214370247337 506.64456379092564) rotate(0 4.681114985975796 4.681114985975796)"><path d="M9.36 4.68 C9.36 4.95, 9.34 5.23, 9.29 5.49 C9.24 5.76, 9.17 6.03, 9.08 6.28 C8.99 6.54, 8.87 6.79, 8.74 7.02 C8.6 7.26, 8.44 7.48, 8.27 7.69 C8.09 7.9, 7.9 8.09, 7.69 8.27 C7.48 8.44, 7.26 8.6, 7.02 8.74 C6.79 8.87, 6.54 8.99, 6.28 9.08 C6.03 9.17, 5.76 9.24, 5.49 9.29 C5.23 9.34, 4.95 9.36, 4.68 9.36 C4.41 9.36, 4.14 9.34, 3.87 9.29 C3.6 9.24, 3.33 9.17, 3.08 9.08 C2.83 8.99, 2.58 8.87, 2.34 8.74 C2.11 8.6, 1.88 8.44, 1.67 8.27 C1.46 8.09, 1.27 7.9, 1.1 7.69 C0.92 7.48, 0.76 7.26, 0.63 7.02 C0.49 6.79, 0.37 6.54, 0.28 6.28 C0.19 6.03, 0.12 5.76, 0.07 5.49 C0.02 5.23, 0 4.95, 0 4.68 C0 4.41, 0.02 4.14, 0.07 3.87 C0.12 3.6, 0.19 3.33, 0.28 3.08 C0.37 2.83, 0.49 2.58, 0.63 2.34 C0.76 2.11, 0.92 1.88, 1.1 1.67 C1.27 1.46, 1.46 1.27, 1.67 1.1 C1.88 0.92, 2.11 0.76, 2.34 0.63 C2.58 0.49, 2.83 0.37, 3.08 0.28 C3.33 0.19, 3.6 0.12, 3.87 0.07 C4.14 0.02, 4.41 0, 4.68 0 C4.95 0, 5.23 0.02, 5.49 0.07 C5.76 0.12, 6.03 0.19, 6.28 0.28 C6.54 0.37, 6.79 0.49, 7.02 0.63 C7.26 0.76, 7.48 0.92, 7.69 1.1 C7.9 1.27, 8.09 1.46, 8.27 1.67 C8.44 1.88, 8.6 2.11, 8.74 2.34 C8.87 2.58, 8.99 2.83, 9.08 3.08 C9.17 3.33, 9.24 3.6, 9.29 3.87 C9.34 4.14, 9.35 4.55, 9.36 4.68 C9.37 4.82, 9.37 4.55, 9.36 4.68" stroke="#000000" stroke-width="2" fill="none"></path></g><g stroke-linecap="round" transform="translate(780.7413744277062 538.9471667224806) rotate(0 4.681114985975796 4.681114985975796)"><path d="M9.36 4.68 C9.36 4.95, 9.34 5.23, 9.29 5.49 C9.24 5.76, 9.17 6.03, 9.08 6.28 C8.99 6.54, 8.87 6.79, 8.74 7.02 C8.6 7.26, 8.44 7.48, 8.27 7.69 C8.09 7.9, 7.9 8.09, 7.69 8.27 C7.48 8.44, 7.26 8.6, 7.02 8.74 C6.79 8.87, 6.54 8.99, 6.28 9.08 C6.03 9.17, 5.76 9.24, 5.49 9.29 C5.23 9.34, 4.95 9.36, 4.68 9.36 C4.41 9.36, 4.14 9.34, 3.87 9.29 C3.6 9.24, 3.33 9.17, 3.08 9.08 C2.83 8.99, 2.58 8.87, 2.34 8.74 C2.11 8.6, 1.88 8.44, 1.67 8.27 C1.46 8.09, 1.27 7.9, 1.1 7.69 C0.92 7.48, 0.76 7.26, 0.63 7.02 C0.49 6.79, 0.37 6.54, 0.28 6.28 C0.19 6.03, 0.12 5.76, 0.07 5.49 C0.02 5.23, 0 4.95, 0 4.68 C0 4.41, 0.02 4.14, 0.07 3.87 C0.12 3.6, 0.19 3.33, 0.28 3.08 C0.37 2.83, 0.49 2.58, 0.63 2.34 C0.76 2.11, 0.92 1.88, 1.1 1.67 C1.27 1.46, 1.46 1.27, 1.67 1.1 C1.88 0.92, 2.11 0.76, 2.34 0.63 C2.58 0.49, 2.83 0.37, 3.08 0.28 C3.33 0.19, 3.6 0.12, 3.87 0.07 C4.14 0.02, 4.41 0, 4.68 0 C4.95 0, 5.23 0.02, 5.49 0.07 C5.76 0.12, 6.03 0.19, 6.28 0.28 C6.54 0.37, 6.79 0.49, 7.02 0.63 C7.26 0.76, 7.48 0.92, 7.69 1.1 C7.9 1.27, 8.09 1.46, 8.27 1.67 C8.44 1.88, 8.6 2.11, 8.74 2.34 C8.87 2.58, 8.99 2.83, 9.08 3.08 C9.17 3.33, 9.24 3.6, 9.29 3.87 C9.34 4.14, 9.35 4.55, 9.36 4.68 C9.37 4.82, 9.37 4.55, 9.36 4.68" stroke="#000000" stroke-width="2" fill="none"></path></g><g stroke-linecap="round" transform="translate(785.4224894136794 521.3929855250727) rotate(0 4.681114985975796 4.681114985975796)"><path d="M9.36 4.68 C9.36 4.95, 9.34 5.23, 9.29 5.49 C9.24 5.76, 9.17 6.03, 9.08 6.28 C8.99 6.54, 8.87 6.79, 8.74 7.02 C8.6 7.26, 8.44 7.48, 8.27 7.69 C8.09 7.9, 7.9 8.09, 7.69 8.27 C7.48 8.44, 7.26 8.6, 7.02 8.74 C6.79 8.87, 6.54 8.99, 6.28 9.08 C6.03 9.17, 5.76 9.24, 5.49 9.29 C5.23 9.34, 4.95 9.36, 4.68 9.36 C4.41 9.36, 4.14 9.34, 3.87 9.29 C3.6 9.24, 3.33 9.17, 3.08 9.08 C2.83 8.99, 2.58 8.87, 2.34 8.74 C2.11 8.6, 1.88 8.44, 1.67 8.27 C1.46 8.09, 1.27 7.9, 1.1 7.69 C0.92 7.48, 0.76 7.26, 0.63 7.02 C0.49 6.79, 0.37 6.54, 0.28 6.28 C0.19 6.03, 0.12 5.76, 0.07 5.49 C0.02 5.23, 0 4.95, 0 4.68 C0 4.41, 0.02 4.14, 0.07 3.87 C0.12 3.6, 0.19 3.33, 0.28 3.08 C0.37 2.83, 0.49 2.58, 0.63 2.34 C0.76 2.11, 0.92 1.88, 1.1 1.67 C1.27 1.46, 1.46 1.27, 1.67 1.1 C1.88 0.92, 2.11 0.76, 2.34 0.63 C2.58 0.49, 2.83 0.37, 3.08 0.28 C3.33 0.19, 3.6 0.12, 3.87 0.07 C4.14 0.02, 4.41 0, 4.68 0 C4.95 0, 5.23 0.02, 5.49 0.07 C5.76 0.12, 6.03 0.19, 6.28 0.28 C6.54 0.37, 6.79 0.49, 7.02 0.63 C7.26 0.76, 7.48 0.92, 7.69 1.1 C7.9 1.27, 8.09 1.46, 8.27 1.67 C8.44 1.88, 8.6 2.11, 8.74 2.34 C8.87 2.58, 8.99 2.83, 9.08 3.08 C9.17 3.33, 9.24 3.6, 9.29 3.87 C9.34 4.14, 9.35 4.55, 9.36 4.68 C9.37 4.82, 9.37 4.55, 9.36 4.68" stroke="#000000" stroke-width="2" fill="none"></path></g><g stroke-linecap="round"><g transform="translate(773.134562575493 527.2443792575422) rotate(0 5.851393732469717 0)"><path d="M0 0 C1.95 0, 9.75 0, 11.7 0 M0 0 C1.95 0, 9.75 0, 11.7 0" stroke="#000000" stroke-width="2" fill="none"></path></g></g><g stroke-linecap="round"><g transform="translate(769.5037889330404 539.5323060957279) rotate(23.749494492867285 5.851393732469717 0)"><path d="M0 0 C1.95 0, 9.75 0, 11.7 0 M0 0 C1.95 0, 9.75 0, 11.7 0" stroke="#000000" stroke-width="2" fill="none"></path></g></g><g stroke-linecap="round"><g transform="translate(769.5037889330408 515.0763898223269) rotate(338.0702750671431 5.851393732469717 0)"><path d="M0 0 C1.95 0, 9.75 0, 11.7 0 M0 0 C1.95 0, 9.75 0, 11.7 0" stroke="#000000" stroke-width="2" fill="none"></path></g></g><g transform="translate(747.5936619897932 564.3662248750435) rotate(0 20.5 12.5)"><text x="0" y="18" font-family="Virgil, Segoe UI Emoji" font-size="20px" fill="#000000" text-anchor="start" style="white-space: pre;" direction="ltr">ELB</text></g><g stroke-linecap="round" transform="translate(826.52983385419 245.19379541307183) rotate(0 32.230576182478444 32.199712367130076)"><path d="M0 0 C0 0, 0 0, 0 0 M0 0 C0 0, 0 0, 0 0 M0.13 12.04 C2.31 9.54, 4.48 7.04, 10.63 -0.03 M0.13 12.04 C2.74 9.04, 5.35 6.04, 10.63 -0.03 M0.27 24.08 C7.93 15.26, 15.6 6.45, 21.26 -0.07 M0.27 24.08 C7.94 15.26, 15.6 6.44, 21.26 -0.07 M-0.26 36.88 C6.56 29.04, 13.37 21.2, 31.89 -0.1 M-0.26 36.88 C6.53 29.07, 13.32 21.25, 31.89 -0.1 M-0.12 48.92 C11.39 35.68, 22.89 22.44, 42.52 -0.14 M-0.12 48.92 C16.11 30.25, 32.34 11.57, 42.52 -0.14 M0.01 60.96 C13.59 45.34, 27.16 29.73, 53.15 -0.17 M0.01 60.96 C17.61 40.71, 35.21 20.47, 53.15 -0.17 M4.08 68.47 C24.33 45.18, 44.58 21.88, 63.78 -0.21 M4.08 68.47 C26.44 42.75, 48.79 17.04, 63.78 -0.21 M14.71 68.44 C31.5 49.12, 48.29 29.81, 69.82 5.04 M14.71 68.44 C34.92 45.19, 55.13 21.93, 69.82 5.04 M25.34 68.4 C34.62 57.72, 43.91 47.04, 69.95 17.08 M25.34 68.4 C38.71 53.03, 52.07 37.65, 69.95 17.08 M35.97 68.37 C47.49 55.12, 59 41.87, 70.08 29.12 M35.97 68.37 C49.29 53.05, 62.61 37.73, 70.08 29.12 M46.6 68.33 C53.04 60.93, 59.48 53.52, 70.22 41.16 M46.6 68.33 C53.05 60.92, 59.5 53.5, 70.22 41.16 M57.23 68.3 C60.26 64.81, 63.29 61.32, 69.69 53.96 M57.23 68.3 C60.83 64.16, 64.42 60.03, 69.69 53.96 M-0.19 64.24 C-0.19 64.24, -0.19 64.24, -0.19 64.24 M-0.19 64.24 C-0.19 64.24, -0.19 64.24, -0.19 64.24 M11.85 64.1 C7.97 60.73, 4.09 57.36, -0.22 53.61 M11.85 64.1 C8.69 61.36, 5.53 58.61, -0.22 53.61 M24.65 64.63 C15.26 56.46, 5.87 48.3, -0.26 42.98 M24.65 64.63 C18.36 59.16, 12.07 53.69, -0.26 42.98 M36.69 64.49 C22.53 52.18, 8.37 39.87, -0.29 32.35 M36.69 64.49 C24.7 54.07, 12.7 43.64, -0.29 32.35 M48.73 64.36 C33.36 51, 17.98 37.63, -0.33 21.72 M48.73 64.36 C38.29 55.28, 27.85 46.21, -0.33 21.72 M60.77 64.23 C45.52 50.97, 30.26 37.71, -0.36 11.09 M60.77 64.23 C48.23 53.32, 35.69 42.42, -0.36 11.09 M68.28 60.16 C52.07 46.06, 35.86 31.97, 0.36 1.11 M68.28 60.16 C45.89 40.69, 23.5 21.22, 0.36 1.11 M68.25 49.53 C52.15 35.53, 36.05 21.54, 4.85 -5.58 M68.25 49.53 C52.59 35.92, 36.94 22.31, 4.85 -5.58 M68.21 38.9 C55.21 27.59, 42.2 16.28, 16.89 -5.72 M68.21 38.9 C55.88 28.18, 43.55 17.46, 16.89 -5.72 M68.18 28.27 C54.84 16.67, 41.51 5.08, 28.93 -5.85 M68.18 28.27 C56.15 17.81, 44.13 7.36, 28.93 -5.85 M68.15 17.64 C62.35 12.6, 56.56 7.56, 41.73 -5.33 M68.15 17.64 C59.01 9.69, 49.87 1.75, 41.73 -5.33 M68.11 7.01 C62.92 2.5, 57.74 -2.01, 53.77 -5.46 M68.11 7.01 C64.46 3.84, 60.82 0.66, 53.77 -5.46" stroke="#fd7e1488" stroke-width="1" fill="none"></path><path d="M0 0 C13.03 0, 26.05 0, 64.46 0 M0 0 C14.34 0, 28.68 0, 64.46 0 M64.46 0 C64.46 19.31, 64.46 38.63, 64.46 64.4 M64.46 0 C64.46 21.4, 64.46 42.8, 64.46 64.4 M64.46 64.4 C44.22 64.4, 23.99 64.4, 0 64.4 M64.46 64.4 C46.48 64.4, 28.5 64.4, 0 64.4 M0 64.4 C0 39.61, 0 14.83, 0 0 M0 64.4 C0 45.14, 0 25.89, 0 0" stroke="#000000" stroke-width="2" fill="none"></path></g><g stroke-linecap="round"><g transform="translate(873.7947838273669 260.5725126993299) rotate(0 -14.527943252572754 4.246637183852329)" fill-rule="evenodd"><path d="M0 0 L-0.01 -5.02 L-14.76 -10.29 L-28.99 -5.08 L-29.08 12.27 L-14.61 18.78 L0.03 12.33 L0 0" stroke="none" stroke-width="0" fill="#ff00" fill-rule="evenodd"></path><path d="M0 0 C0 -1.12, -0.01 -2.23, -0.01 -5.02 M0 0 C0 -1.54, -0.01 -3.07, -0.01 -5.02 M-0.01 -5.02 C-5.15 -6.86, -10.3 -8.69, -14.76 -10.29 M-0.01 -5.02 C-5.6 -7.02, -11.18 -9.01, -14.76 -10.29 M-14.76 -10.29 C-17.96 -9.11, -21.16 -7.94, -28.99 -5.08 M-14.76 -10.29 C-18.81 -8.8, -22.87 -7.32, -28.99 -5.08 M-28.99 -5.08 C-29.03 1.54, -29.06 8.15, -29.08 12.27 M-28.99 -5.08 C-29.01 -1.41, -29.03 2.26, -29.08 12.27 M-29.08 12.27 C-24.77 14.21, -20.46 16.15, -14.61 18.78 M-29.08 12.27 C-24.56 14.31, -20.04 16.34, -14.61 18.78 M-14.61 18.78 C-8.79 16.21, -2.97 13.65, 0.03 12.33 M-14.61 18.78 C-10.7 17.05, -6.79 15.33, 0.03 12.33 M0.03 12.33 C0.02 8.2, 0.01 4.08, 0 0 M0.03 12.33 C0.02 8.14, 0.01 3.95, 0 0 M0 0 C0 0, 0 0, 0 0 M0 0 C0 0, 0 0, 0 0" stroke="#000" stroke-width="2" fill="none"></path></g></g><g stroke-linecap="round"><g transform="translate(845.2286664541753 255.76809723907525) rotate(0 7.040937546110854 11.492780070298295)"><path d="M0 0 C3.28 1.31, 6.55 2.62, 14.08 5.64 M0 0 C5.62 2.25, 11.24 4.5, 14.08 5.64 M14.08 5.64 C14.07 10.08, 14.05 14.52, 14.02 22.99 M14.08 5.64 C14.07 9.22, 14.06 12.79, 14.02 22.99" stroke="#000000" stroke-width="2" fill="none"></path></g></g><g stroke-linecap="round"><g transform="translate(859.2668405747916 261.3348149366335) rotate(0 6.968669893097058 -2.7100382917599575)"><path d="M0 0 C3.17 -1.23, 6.33 -2.46, 13.94 -5.42 M0 0 C3.85 -1.5, 7.71 -3, 13.94 -5.42" stroke="#000000" stroke-width="2" fill="none"></path></g></g><g stroke-linecap="round"><g transform="translate(852.5959362472281 289.3011120227227) rotate(0 -6.263092272848439 1.8307533330340107)" fill-rule="evenodd"><path d="M0 0 L-0.01 -2.17 L-6.36 -4.43 L-12.5 -2.19 L-12.54 5.29 L-6.3 8.1 L0.01 5.31 L0 0" stroke="none" stroke-width="0" fill="#ff00" fill-rule="evenodd"></path><path d="M0 0 C0 -0.45, 0 -0.89, -0.01 -2.17 M0 0 C0 -0.69, 0 -1.38, -0.01 -2.17 M-0.01 -2.17 C-1.91 -2.84, -3.81 -3.52, -6.36 -4.43 M-0.01 -2.17 C-2.47 -3.05, -4.94 -3.92, -6.36 -4.43 M-6.36 -4.43 C-8.08 -3.81, -9.8 -3.18, -12.5 -2.19 M-6.36 -4.43 C-8.17 -3.77, -9.97 -3.11, -12.5 -2.19 M-12.5 -2.19 C-12.51 -0.43, -12.52 1.34, -12.54 5.29 M-12.5 -2.19 C-12.51 -0.5, -12.52 1.18, -12.54 5.29 M-12.54 5.29 C-10.64 6.15, -8.73 7, -6.3 8.1 M-12.54 5.29 C-11.14 5.92, -9.73 6.55, -6.3 8.1 M-6.3 8.1 C-4.78 7.43, -3.27 6.76, 0.01 5.31 M-6.3 8.1 C-4.53 7.32, -2.77 6.54, 0.01 5.31 M0.01 5.31 C0.01 3.9, 0.01 2.49, 0 0 M0.01 5.31 C0.01 3.65, 0 1.99, 0 0 M0 0 C0 0, 0 0, 0 0 M0 0 C0 0, 0 0, 0 0" stroke="#000" stroke-width="2" fill="none"></path></g></g><g stroke-linecap="round"><g transform="translate(840.2808944085557 287.2298967913913) rotate(0 3.0353946716336395 4.954613381979243)"><path d="M0 0 C2.07 0.83, 4.15 1.66, 6.07 2.43 M0 0 C1.59 0.64, 3.18 1.27, 6.07 2.43 M6.07 2.43 C6.06 4.45, 6.06 6.47, 6.04 9.91 M6.07 2.43 C6.06 4.23, 6.06 6.03, 6.04 9.91" stroke="#000000" stroke-width="2" fill="none"></path></g></g><g stroke-linecap="round"><g transform="translate(846.3328439743798 289.62974555116386) rotate(0 3.004239609193064 -1.1683154035750647)"><path d="M0 0 C2.07 -0.81, 4.14 -1.61, 6.01 -2.34 M0 0 C2.12 -0.82, 4.24 -1.65, 6.01 -2.34" stroke="#000000" stroke-width="2" fill="none"></path></g></g><g stroke-linecap="round"><g transform="translate(865.7330768039722 296.3205319164987) rotate(0 -6.263092272848439 1.8307533330339822)" fill-rule="evenodd"><path d="M0 0 L-0.01 -2.17 L-6.36 -4.43 L-12.5 -2.19 L-12.54 5.29 L-6.3 8.1 L0.01 5.31 L0 0" stroke="none" stroke-width="0" fill="#ff00" fill-rule="evenodd"></path><path d="M0 0 C0 -0.79, 0 -1.58, -0.01 -2.17 M0 0 C0 -0.69, 0 -1.38, -0.01 -2.17 M-0.01 -2.17 C-2.07 -2.9, -4.13 -3.64, -6.36 -4.43 M-0.01 -2.17 C-1.9 -2.84, -3.79 -3.52, -6.36 -4.43 M-6.36 -4.43 C-8.21 -3.76, -10.06 -3.08, -12.5 -2.19 M-6.36 -4.43 C-7.92 -3.86, -9.48 -3.29, -12.5 -2.19 M-12.5 -2.19 C-12.51 -0.36, -12.52 1.47, -12.54 5.29 M-12.5 -2.19 C-12.51 -0.23, -12.52 1.73, -12.54 5.29 M-12.54 5.29 C-10.87 6.04, -9.2 6.79, -6.3 8.1 M-12.54 5.29 C-10.69 6.12, -8.84 6.95, -6.3 8.1 M-6.3 8.1 C-4.15 7.15, -1.99 6.2, 0.01 5.31 M-6.3 8.1 C-4.45 7.28, -2.6 6.46, 0.01 5.31 M0.01 5.31 C0.01 3.81, 0.01 2.3, 0 0 M0.01 5.31 C0.01 3.68, 0 2.05, 0 0 M0 0 C0 0, 0 0, 0 0 M0 0 C0 0, 0 0, 0 0" stroke="#000" stroke-width="2" fill="none"></path></g></g><g stroke-linecap="round"><g transform="translate(853.4180349652979 294.2493166851631) rotate(0 3.0353946716336395 4.954613381979243)"><path d="M0 0 C1.34 0.54, 2.68 1.07, 6.07 2.43 M0 0 C2.19 0.88, 4.37 1.75, 6.07 2.43 M6.07 2.43 C6.06 4.49, 6.06 6.56, 6.04 9.91 M6.07 2.43 C6.06 5.06, 6.05 7.69, 6.04 9.91" stroke="#000000" stroke-width="2" fill="none"></path></g></g><g stroke-linecap="round"><g transform="translate(859.4699845311261 296.64916544493747) rotate(0 3.004239609193064 -1.1683154035750647)"><path d="M0 0 C2.23 -0.87, 4.46 -1.73, 6.01 -2.34 M0 0 C1.93 -0.75, 3.87 -1.5, 6.01 -2.34" stroke="#000000" stroke-width="2" fill="none"></path></g></g><g stroke-linecap="round"><g transform="translate(878.3724766294317 288.4672637103837) rotate(0 -6.263092272848439 1.8307533330339822)" fill-rule="evenodd"><path d="M0 0 L-0.01 -2.17 L-6.36 -4.43 L-12.5 -2.19 L-12.54 5.29 L-6.3 8.1 L0.01 5.31 L0 0" stroke="none" stroke-width="0" fill="#ff00" fill-rule="evenodd"></path><path d="M0 0 C0 -0.62, 0 -1.24, -0.01 -2.17 M0 0 C0 -0.65, 0 -1.29, -0.01 -2.17 M-0.01 -2.17 C-1.96 -2.86, -3.92 -3.56, -6.36 -4.43 M-0.01 -2.17 C-1.59 -2.73, -3.17 -3.29, -6.36 -4.43 M-6.36 -4.43 C-8.55 -3.63, -10.74 -2.83, -12.5 -2.19 M-6.36 -4.43 C-8.71 -3.57, -11.06 -2.72, -12.5 -2.19 M-12.5 -2.19 C-12.51 0.74, -12.53 3.67, -12.54 5.29 M-12.5 -2.19 C-12.51 0.32, -12.53 2.82, -12.54 5.29 M-12.54 5.29 C-10.27 6.31, -8 7.33, -6.3 8.1 M-12.54 5.29 C-10.61 6.16, -8.68 7.02, -6.3 8.1 M-6.3 8.1 C-4.62 7.35, -2.93 6.61, 0.01 5.31 M-6.3 8.1 C-4.6 7.35, -2.9 6.6, 0.01 5.31 M0.01 5.31 C0.01 3.69, 0 2.07, 0 0 M0.01 5.31 C0.01 4.09, 0.01 2.87, 0 0 M0 0 C0 0, 0 0, 0 0 M0 0 C0 0, 0 0, 0 0" stroke="#000" stroke-width="2" fill="none"></path></g></g><g stroke-linecap="round"><g transform="translate(866.0574347907543 286.3960484790506) rotate(0 3.0353946716336395 4.954613381979243)"><path d="M0 0 C1.35 0.54, 2.7 1.08, 6.07 2.43 M0 0 C1.82 0.73, 3.64 1.46, 6.07 2.43 M6.07 2.43 C6.06 4.92, 6.05 7.4, 6.04 9.91 M6.07 2.43 C6.06 4.78, 6.05 7.13, 6.04 9.91" stroke="#000000" stroke-width="2" fill="none"></path></g></g><g stroke-linecap="round"><g transform="translate(872.1093843565848 288.79589723882043) rotate(0 3.004239609193064 -1.1683154035750647)"><path d="M0 0 C1.84 -0.72, 3.68 -1.43, 6.01 -2.34 M0 0 C2.09 -0.81, 4.19 -1.63, 6.01 -2.34" stroke="#000000" stroke-width="2" fill="none"></path></g></g><g stroke-linecap="round"><g transform="translate(841.6326176531052 282.32801812377) rotate(178.33979303936556 17.36663167122265 -8.19403422875601)"><path d="M0 0 C-0.62 -0.36, -2.66 -1.12, -3.74 -2.14 C-4.83 -3.16, -6.37 -4.65, -6.52 -6.13 C-6.66 -7.6, -5.97 -9.61, -4.61 -10.98 C-3.25 -12.36, -0.8 -13.5, 1.63 -14.37 C4.06 -15.24, 7.05 -15.79, 9.95 -16.2 C12.86 -16.6, 15.99 -16.86, 19.06 -16.78 C22.13 -16.7, 25.63 -16.28, 28.39 -15.71 C31.14 -15.15, 33.66 -14.36, 35.59 -13.41 C37.52 -12.46, 39.02 -11.32, 39.96 -10.04 C40.89 -8.76, 41.49 -7.11, 41.19 -5.74 C40.9 -4.38, 39.47 -2.89, 38.2 -1.86 C36.93 -0.84, 34.36 0.03, 33.59 0.41 M0 0 C-0.62 -0.36, -2.66 -1.12, -3.74 -2.14 C-4.83 -3.16, -6.37 -4.65, -6.52 -6.13 C-6.66 -7.6, -5.97 -9.61, -4.61 -10.98 C-3.25 -12.36, -0.8 -13.5, 1.63 -14.37 C4.06 -15.24, 7.05 -15.79, 9.95 -16.2 C12.86 -16.6, 15.99 -16.86, 19.06 -16.78 C22.13 -16.7, 25.63 -16.28, 28.39 -15.71 C31.14 -15.15, 33.66 -14.36, 35.59 -13.41 C37.52 -12.46, 39.02 -11.32, 39.96 -10.04 C40.89 -8.76, 41.49 -7.11, 41.19 -5.74 C40.9 -4.38, 39.47 -2.89, 38.2 -1.86 C36.93 -0.84, 34.36 0.03, 33.59 0.41" stroke="#000000" stroke-width="2" fill="none"></path></g></g><g transform="translate(818.7604100366684 313.6290268940137) rotate(0 40 12.5)"><text x="0" y="18" font-family="Virgil, Segoe UI Emoji" font-size="20px" fill="#000000" text-anchor="start" style="white-space: pre;" direction="ltr">Fargate</text></g><g stroke-linecap="round"><g transform="translate(123.69294390055074 149.39271002700391) rotate(0 43.76471984854862 47.127363645511636)" fill-rule="evenodd"><path d="M-0.18 0.46 L-0.36 95.07 L1.03 97.44 L21.03 104 L48.64 106.48 L74.08 102.54 L80.9 99.7 L87.74 98.29 L86.96 -1.03 L88.33 1.5 L85.35 -4.55 L76.38 -4.78 L41.22 -8.92 L12.86 -6.67 L4.08 -4.33 L0.7 -0.98" stroke="none" stroke-width="0" fill="#228be6" fill-rule="evenodd"></path><path d="M0.63 0.21 C0.77 14.67, 1.12 70.37, 1.01 86.31 C0.91 102.25, -0.7 93.64, -0.01 95.85 C0.68 98.06, 1.66 98.25, 5.13 99.55 C8.6 100.85, 13.89 102.84, 20.8 103.65 C27.72 104.46, 37.96 104.59, 46.62 104.43 C55.28 104.27, 66.38 103.64, 72.74 102.71 C79.11 101.78, 82.21 99.94, 84.8 98.84 C87.39 97.73, 87.91 97.93, 88.29 96.09 C88.66 94.26, 86.92 102.74, 87.04 87.81 C87.16 72.88, 89.06 21.2, 89.01 6.51 C88.97 -8.19, 87.87 1.51, 86.78 -0.37 C85.68 -2.25, 85.36 -3.72, 82.44 -4.8 C79.52 -5.88, 76.05 -5.95, 69.27 -6.85 C62.5 -7.75, 49.95 -10, 41.81 -10.21 C33.67 -10.42, 26.9 -9.19, 20.45 -8.09 C14.01 -6.99, 6.55 -5, 3.14 -3.63 C-0.27 -2.25, 0.3 -0.56, -0.03 0.16 C-0.36 0.88, 1.19 0.73, 1.16 0.68 M-0.49 -0.72 C-0.47 13.4, 0.49 68.01, 0.44 84.33 C0.4 100.64, -1.66 94.49, -0.79 97.17 C0.08 99.84, 2.28 99.24, 5.68 100.38 C9.08 101.53, 12.56 103.56, 19.59 104.03 C26.61 104.5, 38.85 103.68, 47.84 103.21 C56.84 102.74, 67.04 101.99, 73.54 101.21 C80.03 100.44, 84.6 99.55, 86.81 98.55 C89.02 97.54, 86.75 97.02, 86.82 95.21 C86.89 93.39, 87.32 102.33, 87.22 87.65 C87.12 72.97, 85.99 21.86, 86.22 7.12 C86.46 -7.62, 89.19 1.33, 88.65 -0.81 C88.11 -2.95, 86.4 -4.71, 83 -5.74 C79.59 -6.76, 75.13 -6.63, 68.25 -6.95 C61.36 -7.28, 49.5 -7.7, 41.66 -7.7 C33.83 -7.71, 27.32 -7.77, 21.24 -6.96 C15.17 -6.15, 8.97 -4.12, 5.21 -2.85 C1.45 -1.58, -0.5 -0.05, -1.31 0.64 C-2.11 1.33, 0.14 1.13, 0.38 1.29" stroke="#0a11d3" stroke-width="1" fill="none"></path></g></g><g stroke-linecap="round"><g transform="translate(124.38030549004816 214.6828380577915) rotate(0 43.63453519313737 4.744831182426282)"><path d="M0.21 0.72 C0.72 1.26, 0.56 2.71, 2.59 3.88 C4.61 5.06, 8.59 6.8, 12.36 7.77 C16.12 8.73, 19.47 9.45, 25.18 9.65 C30.89 9.85, 39.03 9.2, 46.61 8.99 C54.2 8.77, 64.29 9.49, 70.68 8.37 C77.08 7.26, 82.05 3.7, 85 2.3 C87.95 0.89, 87.7 0.58, 88.4 -0.06 M-1.14 0.06 C-0.72 0.74, -0.35 4.46, 1.77 5.41 C3.9 6.35, 7.7 5.41, 11.59 5.73 C15.49 6.05, 19.56 6.77, 25.15 7.35 C30.74 7.93, 37.34 9.17, 45.13 9.19 C52.93 9.21, 65.19 8.35, 71.91 7.48 C78.64 6.62, 82.91 5.27, 85.49 3.99 C88.08 2.71, 87 0.45, 87.43 -0.2" stroke="#0a11d3" stroke-width="1" fill="none"></path></g></g><g stroke-linecap="round"><g transform="translate(123.2865639779867 181.6086834957197) rotate(0 44.16428197698451 4.8261941411621905)"><path d="M0.72 0.26 C1 0.88, 0.27 2.84, 2.3 3.9 C4.34 4.97, 8.96 5.78, 12.94 6.65 C16.93 7.53, 20.64 8.76, 26.2 9.15 C31.75 9.54, 38.75 9.22, 46.27 9 C53.79 8.77, 65.02 8.7, 71.32 7.8 C77.63 6.89, 81.2 4.8, 84.1 3.58 C86.99 2.37, 88.18 1.08, 88.7 0.49 M-0.36 -0.65 C-0.29 0.15, -0.8 4.05, 1.34 5.44 C3.48 6.83, 8.26 6.89, 12.48 7.69 C16.71 8.5, 20.73 10, 26.7 10.25 C32.66 10.5, 41.18 9.81, 48.27 9.2 C55.36 8.6, 63.25 7.76, 69.23 6.6 C75.2 5.45, 81.01 3.28, 84.12 2.29 C87.22 1.3, 87.13 1.2, 87.87 0.65" stroke="#0a11d3" stroke-width="1" fill="none"></path></g></g><g stroke-linecap="round" transform="translate(122.16574129182493 141.36801379990723) rotate(0 43.825373054270926 8.863351988406833)"><path d="M24.31 0.93 C32.34 -0.1, 46.49 -0.5, 55.73 -0.09 C64.96 0.32, 74.36 1.88, 79.72 3.41 C85.07 4.94, 88.64 7.07, 87.85 9.09 C87.07 11.11, 81.59 14.07, 74.99 15.51 C68.38 16.95, 57.65 17.69, 48.21 17.74 C38.77 17.79, 26.18 16.84, 18.35 15.82 C10.52 14.8, 3.7 13.29, 1.24 11.62 C-1.22 9.95, -1.54 7.67, 3.6 5.8 C8.75 3.93, 25.75 1.44, 32.11 0.41 C38.48 -0.62, 41.63 -0.52, 41.79 -0.38 M51.27 0.29 C59.91 0.53, 70.53 3.08, 76.36 4.72 C82.19 6.36, 86.28 8.48, 86.25 10.11 C86.21 11.74, 82.11 13.14, 76.14 14.49 C70.16 15.85, 59.4 18.14, 50.4 18.23 C41.4 18.32, 30.22 16.24, 22.15 15.04 C14.07 13.84, 5.26 12.66, 1.96 11.02 C-1.34 9.38, -1 6.89, 2.34 5.19 C5.68 3.49, 13.92 1.7, 22 0.82 C30.08 -0.05, 45.88 0.12, 50.84 -0.07 C55.79 -0.27, 51.84 -0.45, 51.72 -0.35" stroke="none" stroke-width="0" fill="#fff"></path><path d="M44.21 -0.01 C53 -0.1, 64.51 0.6, 71.68 1.78 C78.85 2.96, 85.7 5.15, 87.22 7.08 C88.74 9.01, 85.47 11.55, 80.8 13.37 C76.12 15.19, 67.97 17.26, 59.16 17.98 C50.34 18.69, 36.65 18.53, 27.92 17.65 C19.19 16.77, 11.4 14.43, 6.76 12.71 C2.12 10.98, -1.49 9.11, 0.07 7.31 C1.64 5.5, 7.87 3.07, 16.16 1.89 C24.44 0.71, 43.2 0.62, 49.78 0.24 C56.36 -0.14, 55.73 -0.48, 55.64 -0.39 M32.61 1.76 C41.2 1.12, 54.62 -0.03, 63.06 0.5 C71.5 1.03, 79.34 3.2, 83.25 4.96 C87.17 6.71, 88.97 9.21, 86.54 11.04 C84.12 12.87, 76.55 14.73, 68.7 15.93 C60.86 17.12, 48.72 18.15, 39.47 18.23 C30.22 18.31, 19.53 17.62, 13.19 16.39 C6.86 15.17, 2.4 12.96, 1.45 10.88 C0.5 8.81, 2.51 5.72, 7.49 3.96 C12.48 2.19, 27.05 1, 31.37 0.28 C35.69 -0.44, 33.02 -0.6, 33.41 -0.35" stroke="#0a11d3" stroke-width="1" fill="none"></path></g><g stroke-linecap="round" transform="translate(193.67547359240552 165.94381667704081) rotate(0 6.423028523489904 6.970952181208048)"><path d="M5.19 0.97 C6.3 0.74, 7.94 0.35, 9.08 0.98 C10.23 1.61, 11.58 3.38, 12.07 4.74 C12.56 6.09, 12.34 7.72, 12.03 9.13 C11.72 10.54, 11.3 12.5, 10.22 13.19 C9.14 13.89, 7.04 13.63, 5.55 13.31 C4.06 12.99, 2.15 12.38, 1.29 11.29 C0.44 10.2, 0.29 8.33, 0.41 6.79 C0.53 5.26, 1.16 3.01, 2.01 2.05 C2.87 1.1, 5.01 1.49, 5.54 1.05 C6.06 0.62, 5.13 -0.59, 5.14 -0.57 M6.45 -1.39 C7.77 -1.62, 10.7 -0.87, 11.93 0.16 C13.17 1.18, 13.87 3.13, 13.86 4.74 C13.85 6.36, 12.64 8.29, 11.89 9.86 C11.13 11.44, 10.84 13.66, 9.34 14.19 C7.84 14.72, 4.42 13.75, 2.89 13.06 C1.35 12.38, 0.7 11.33, 0.14 10.07 C-0.41 8.8, -0.75 7.07, -0.46 5.49 C-0.16 3.9, 0.81 1.49, 1.9 0.56 C2.99 -0.37, 5.47 0.15, 6.09 -0.1 C6.71 -0.35, 5.68 -1.25, 5.64 -0.96" stroke="none" stroke-width="0" fill="#fff"></path><path d="M7.96 -0.1 C9.27 0.13, 10.55 2.01, 11.32 3.11 C12.09 4.2, 12.62 4.95, 12.59 6.45 C12.56 7.96, 11.91 11.04, 11.13 12.13 C10.35 13.21, 9.2 12.71, 7.89 12.97 C6.59 13.22, 4.67 14.41, 3.3 13.63 C1.92 12.86, 0.12 9.81, -0.34 8.31 C-0.8 6.82, -0.1 6.01, 0.53 4.66 C1.15 3.31, 2.01 1.01, 3.41 0.2 C4.82 -0.62, 8.09 -0.33, 8.95 -0.25 C9.82 -0.17, 8.7 0.51, 8.61 0.66 M8.02 0.85 C9.28 0.71, 9.58 0.61, 10.35 1.51 C11.12 2.42, 12.4 4.82, 12.64 6.27 C12.89 7.72, 12.54 9.12, 11.82 10.22 C11.09 11.32, 9.5 12.31, 8.29 12.89 C7.09 13.47, 5.66 13.93, 4.62 13.72 C3.57 13.5, 2.57 12.99, 2.03 11.58 C1.48 10.17, 1.25 7.09, 1.34 5.25 C1.43 3.41, 1.7 1.29, 2.57 0.56 C3.43 -0.17, 6.02 0.88, 6.55 0.84 C7.08 0.81, 5.64 0.14, 5.74 0.35" stroke="#0a11d3" stroke-width="1" fill="none"></path></g><g stroke-linecap="round" transform="translate(193.67547359240552 196.54627053610128) rotate(0 6.423028523489904 6.970952181208062)"><path d="M9.07 -0.09 C10.49 0.16, 11.25 1.57, 11.93 2.8 C12.61 4.03, 13.34 5.66, 13.15 7.27 C12.97 8.87, 11.83 11.32, 10.83 12.44 C9.82 13.56, 8.58 14.01, 7.11 13.98 C5.65 13.94, 3.25 13.06, 2.04 12.24 C0.83 11.41, 0.15 10.3, -0.14 9.01 C-0.44 7.72, -0.28 5.88, 0.28 4.5 C0.85 3.11, 1.7 1.48, 3.26 0.7 C4.81 -0.07, 8.8 -0.16, 9.63 -0.14 C10.47 -0.12, 8.41 0.63, 8.27 0.83 M7.87 2.18 C8.96 2.9, 10.26 4.2, 10.9 5.29 C11.54 6.39, 11.92 7.42, 11.69 8.77 C11.46 10.12, 10.38 12.77, 9.5 13.38 C8.63 14, 7.8 12.85, 6.44 12.46 C5.07 12.06, 2.44 11.95, 1.29 11.02 C0.13 10.09, -0.41 8.31, -0.48 6.89 C-0.55 5.48, 0.15 3.7, 0.85 2.54 C1.56 1.39, 2.37 0.39, 3.75 -0.03 C5.14 -0.44, 8.43 -0.03, 9.16 0.04 C9.89 0.11, 7.98 0.07, 8.11 0.38" stroke="none" stroke-width="0" fill="#fff"></path><path d="M4.72 -0.12 C5.95 -0.56, 8.51 -0.21, 9.62 0.54 C10.72 1.29, 10.82 2.82, 11.36 4.37 C11.9 5.92, 13.28 8.35, 12.88 9.84 C12.47 11.33, 10.01 12.73, 8.95 13.3 C7.88 13.88, 7.78 13.56, 6.47 13.29 C5.17 13.02, 2.1 12.7, 1.11 11.67 C0.11 10.64, 0.57 8.57, 0.52 7.1 C0.47 5.64, -0.02 4.22, 0.8 2.88 C1.63 1.54, 4.44 -0.47, 5.48 -0.94 C6.52 -1.42, 7 -0.25, 7.04 0.03 M7.31 -0.32 C8.53 -0.66, 9.39 0.52, 10.35 1.53 C11.32 2.53, 12.9 4.25, 13.1 5.71 C13.31 7.18, 12.45 8.92, 11.58 10.31 C10.72 11.71, 9.09 13.33, 7.9 14.07 C6.71 14.81, 5.4 15.15, 4.44 14.75 C3.48 14.34, 2.89 13.12, 2.11 11.64 C1.33 10.16, -0.12 7.55, -0.24 5.87 C-0.37 4.19, 0.1 2.69, 1.36 1.58 C2.62 0.46, 6.42 -0.7, 7.31 -0.83 C8.19 -0.96, 6.58 0.52, 6.67 0.78" stroke="#0a11d3" stroke-width="1" fill="none"></path></g><g stroke-linecap="round" transform="translate(193.67547359240552 229.80707171059782) rotate(0 6.423028523489904 6.970952181208048)"><path d="M3.7 0.63 C4.82 -0.05, 6.87 0.26, 8.15 0.71 C9.44 1.16, 10.58 2.06, 11.42 3.32 C12.26 4.59, 13.31 6.93, 13.19 8.31 C13.07 9.7, 11.88 10.76, 10.72 11.64 C9.56 12.53, 7.55 13.55, 6.24 13.62 C4.92 13.68, 3.74 13.01, 2.82 12.03 C1.91 11.05, 1.08 8.98, 0.76 7.74 C0.44 6.5, 0.28 5.99, 0.91 4.6 C1.54 3.21, 3.63 0.08, 4.52 -0.6 C5.41 -1.28, 6.13 0.13, 6.25 0.52 M6.38 -1.2 C7.8 -1.54, 9.45 -0.99, 10.41 -0.17 C11.37 0.64, 11.69 2.05, 12.16 3.69 C12.62 5.32, 13.81 8.22, 13.2 9.65 C12.6 11.08, 9.91 11.65, 8.54 12.28 C7.16 12.9, 6.15 13.56, 4.94 13.41 C3.72 13.26, 2.11 12.58, 1.24 11.39 C0.36 10.2, -0.26 7.71, -0.29 6.27 C-0.33 4.82, 0.27 3.93, 1.03 2.73 C1.78 1.54, 3.66 -0.66, 4.23 -0.9 C4.81 -1.14, 4.25 0.83, 4.48 1.31" stroke="none" stroke-width="0" fill="#fff"></path><path d="M7.42 0.38 C8.68 0.46, 10.3 0.46, 11.21 1.64 C12.13 2.83, 12.79 5.98, 12.92 7.48 C13.06 8.99, 12.87 9.45, 12.02 10.66 C11.17 11.87, 9.41 14.47, 7.82 14.74 C6.23 15.02, 3.72 13.16, 2.47 12.32 C1.22 11.48, 0.67 11.1, 0.31 9.69 C-0.06 8.29, -0.27 5.49, 0.26 3.89 C0.79 2.29, 2.31 0.75, 3.5 0.09 C4.7 -0.57, 6.56 -0.07, 7.43 -0.05 C8.31 -0.04, 8.64 0.02, 8.78 0.2 M6.68 -0.2 C7.72 -0.25, 9.83 1.36, 10.84 2.4 C11.85 3.43, 12.62 4.68, 12.73 5.99 C12.84 7.31, 12.19 8.97, 11.5 10.29 C10.81 11.62, 9.7 13.25, 8.61 13.96 C7.51 14.67, 6.07 15.29, 4.94 14.56 C3.81 13.82, 2.58 11.29, 1.82 9.56 C1.06 7.83, 0.22 5.43, 0.38 4.19 C0.53 2.95, 1.76 2.76, 2.72 2.1 C3.69 1.44, 5.35 0.32, 6.16 0.23 C6.98 0.14, 7.49 1.68, 7.62 1.55" stroke="#0a11d3" stroke-width="1" fill="none"></path></g><g stroke-linecap="round"><g transform="translate(948.968659430433 452.57017922361314) rotate(0 -30.831523709900807 15.231935830166776)" fill-rule="evenodd"><path d="M-75.88 8.24 C-75.88 8.24, -75.88 8.24, -75.88 8.24 M-75.88 8.24 C-75.88 8.24, -75.88 8.24, -75.88 8.24 M-76.06 15.02 C-75.13 12.79, -72.8 10.93, -70.94 8.88 M-76.6 15.01 C-75.38 13.42, -73.86 11.73, -71.65 9.28 M-75.72 18.51 C-73.45 18.08, -70.48 15.82, -65.79 8.49 M-75.73 19.82 C-72.18 16.65, -69.02 13.43, -66.51 9.05 M-71.91 22.56 C-71.65 18.19, -65.32 16.13, -60.62 7.36 M-73.5 24.23 C-69.28 18.69, -65.75 14.79, -59.83 8.29 M-71.3 25.39 C-66.31 19.73, -58.74 14.53, -54.53 9.12 M-71.04 27.35 C-66.86 22.97, -62.76 17.73, -56 9.17 M-67.5 32.6 C-64.56 25.13, -60.39 19.79, -49.83 8.01 M-69.74 31.54 C-62.31 23.8, -55.26 15.17, -48.91 8.94 M-67.56 31.99 C-58.84 26.61, -51.96 17.87, -44.21 7.74 M-65.79 34.11 C-62.43 29.56, -57.33 23.3, -43.8 8.81 M-63.62 38.57 C-55.7 26.55, -44.45 16.71, -39.55 10.35 M-64.06 37.61 C-53.98 27.65, -45.23 17.17, -39.69 8.85 M-59.26 40.74 C-48.91 25.48, -40.91 13.99, -35.42 7.5 M-59.61 39.69 C-53.04 31.36, -46.56 24.1, -33.03 7.94 M-56.87 41.71 C-49.57 34.38, -43.15 26.36, -30 9.58 M-57.36 41.32 C-49.66 34.09, -43.11 24.82, -27.86 8.65 M-11.31 -11.16 C-11.31 -11.16, -11.31 -11.16, -11.31 -11.16 M-11.31 -11.16 C-11.31 -11.16, -11.31 -11.16, -11.31 -11.16 M-53.54 40.08 C-41.36 29.07, -33.58 17.79, -22.14 8.79 M-52.42 41.84 C-43.85 31.82, -35.97 21.88, -23.51 7.79 M-12.19 -4.31 C-9.94 -5.67, -7.44 -8.72, -7.7 -10.37 M-11.87 -3.71 C-10.74 -5.81, -9.5 -7.15, -6.98 -10.07 M-48.63 44.26 C-38.36 33.55, -30.07 23.35, -17.31 6.75 M-47.9 43.22 C-42.08 34.9, -35.2 28.82, -17.77 9.3 M-13.11 1.39 C-9.13 -1.05, -4.8 -6.25, -4.08 -7.71 M-12.43 1.37 C-8.96 -1.54, -7.52 -4.08, -2.88 -7.71 M-43.55 45.88 C-38.15 38.24, -31.07 30.41, -11.59 7.82 M-43.01 44.01 C-32.98 31.63, -20.88 17.57, -12.2 8.74 M-8.52 5.24 C-6.63 1.47, -2.87 -1.9, -0.84 -4.13 M-8.82 5.62 C-7.45 1.85, -4.66 0.46, -1.29 -5.32 M-39.8 44.77 C-27.76 28.84, -13.94 14.55, 1.8 1.29 M-38.27 43.4 C-26.71 29.76, -15.77 17.85, -0.17 0.53 M-33.67 43.59 C-18.67 26.14, -5.55 12.91, 3.82 1.23 M-31.58 43.14 C-21.79 31.03, -10.47 17.36, 4.86 0.24 M-27.22 43.63 C-21.21 35.87, -16.14 29.5, 2.06 10.26 M-26.68 42.86 C-16.98 31.46, -5.63 20.9, 1.72 11.78 M-0.64 12.88 C4.1 6.3, 9.49 1.9, 12.64 -1.56 M1.62 11.25 C3.26 7.4, 7.01 5.1, 11.68 -1.05 M-16.44 37.18 C-13.33 32.86, -9.18 27.91, -5.92 23.29 M-15.45 36.46 C-10.88 31.28, -6.17 26.19, -4.5 23.1 M7.17 8.86 C10.1 6.6, 11.65 5.83, 13.91 1.46 M7.77 9.28 C9.4 7.56, 11.77 4.68, 13.96 1.75" stroke="#228be6" stroke-width="0.5" fill="none"></path><path d="M-0.53 0.48 C-0.85 -0.56, -0.97 -4.02, -1.94 -5.7 C-2.92 -7.39, -4.71 -8.45, -6.36 -9.62 C-8.01 -10.79, -10.58 -13.5, -11.83 -12.73 C-13.08 -11.96, -13.95 -7.02, -13.87 -4.97 C-13.8 -2.93, -12.29 -2.39, -11.39 -0.46 C-10.49 1.47, -7.89 5.38, -8.47 6.62 C-9.04 7.86, -12.02 6.64, -14.85 6.97 C-17.67 7.31, -21.67 8.58, -25.41 8.64 C-29.15 8.69, -30.55 7.56, -37.29 7.29 C-44.03 7.02, -59.21 6.91, -65.85 7.01 C-72.49 7.12, -75.24 6.73, -77.12 7.91 C-79 9.09, -77.73 11.21, -77.12 14.11 C-76.5 17, -75.41 21.51, -73.43 25.27 C-71.45 29.03, -68.16 34.13, -65.24 36.67 C-62.31 39.2, -59.13 39.49, -55.87 40.49 C-52.62 41.48, -50.08 42.51, -45.71 42.64 C-41.34 42.76, -34.64 42.44, -29.67 41.22 C-24.69 40.01, -19.63 37.54, -15.89 35.36 C-12.15 33.18, -9.62 30.96, -7.23 28.14 C-4.83 25.33, -3 21.17, -1.52 18.48 C-0.03 15.79, 0.45 13.37, 1.69 11.99 C2.93 10.62, 4.22 10.98, 5.92 10.23 C7.61 9.47, 10.1 8.81, 11.86 7.46 C13.61 6.11, 16.57 3.45, 16.44 2.11 C16.32 0.76, 12.93 0.02, 11.11 -0.6 C9.28 -1.23, 7.52 -1.69, 5.49 -1.67 C3.47 -1.65, -0.26 -0.62, -1.06 -0.49 M1.4 -0.31 C0.91 -1.23, -1.45 -3.05, -2.9 -4.35 C-4.35 -5.66, -5.84 -6.83, -7.31 -8.15 C-8.78 -9.47, -10.4 -12.88, -11.73 -12.25 C-13.06 -11.62, -15.06 -6.68, -15.29 -4.38 C-15.53 -2.08, -14.44 -0.13, -13.14 1.57 C-11.85 3.27, -7.63 5.04, -7.54 5.82 C-7.44 6.61, -9.33 5.97, -12.59 6.26 C-15.85 6.55, -23.08 7.54, -27.09 7.58 C-31.1 7.62, -30.25 6.52, -36.64 6.51 C-43.03 6.5, -58.97 7.4, -65.44 7.53 C-71.92 7.65, -73.54 6.34, -75.47 7.24 C-77.4 8.15, -77.24 9.97, -77.01 12.95 C-76.79 15.92, -76.14 21.13, -74.11 25.09 C-72.07 29.05, -67.46 33.96, -64.8 36.72 C-62.14 39.47, -61.1 40.5, -58.14 41.61 C-55.18 42.71, -51.61 43.34, -47.06 43.33 C-42.5 43.32, -36.35 42.85, -30.8 41.55 C-25.26 40.26, -17.74 38.04, -13.77 35.54 C-9.81 33.05, -8.91 29.54, -7.03 26.59 C-5.15 23.63, -3.48 20.39, -2.5 17.82 C-1.52 15.24, -2.53 12.55, -1.15 11.15 C0.22 9.76, 3.38 10.19, 5.75 9.43 C8.13 8.66, 11.58 7.79, 13.09 6.56 C14.59 5.33, 14.91 3.22, 14.79 2.05 C14.67 0.87, 14.17 0.21, 12.35 -0.49 C10.53 -1.18, 5.97 -2.41, 3.87 -2.12 C1.78 -1.82, 0.23 0.9, -0.22 1.29" stroke="#000000" stroke-width="1" fill="none"></path></g></g><g stroke-linecap="round" transform="translate(879.982344178838 450.50218036821065) rotate(0 4.389813198750858 4.181105756654887)"><path d="M0 0 C0 0, 0 0, 0 0 M0 0 C0 0, 0 0, 0 0 M-0.53 6.54 C1.79 4.24, 2.47 2.69, 5.03 0.88 M-0.21 6.18 C1.72 4.42, 3.55 2.12, 4.71 0.01 M1.38 9.47 C4.97 5.72, 8.03 3.49, 10.54 -0.35 M1.94 10.16 C4.87 7.1, 7.42 3.1, 9.67 0.54 M7.13 10 C7.81 9.22, 8.86 8.19, 9.67 7.44 M7.14 10 C7.89 9.23, 8.72 8.62, 9.74 7.03" stroke="#228be6" stroke-width="0.5" fill="none"></path><path d="M-0.01 -0.26 C2.8 0.18, 5.91 -0.91, 8.85 0.28 M0.39 -0.26 C3.07 -0.05, 6.88 -0.12, 8.55 0.06 M8.61 -0.44 C8.74 1.89, 8.85 4.57, 9.25 8.19 M8.75 -0.11 C8.72 2.19, 8.92 4.83, 9.13 8.72 M8.21 8.35 C5.93 7.89, 2.21 8.74, 0.81 8.35 M8.45 8.4 C7.28 8.25, 5.13 8.27, 0.15 8.15 M0.04 7.89 C-0.32 5.6, 0.31 3.05, 0.53 -0.5 M-0.31 8.4 C0.08 5.73, 0.3 2.94, 0.04 -0.39" stroke="#000000" stroke-width="1" fill="none"></path></g><g stroke-linecap="round" transform="translate(890.1255258646997 450.37695590295317) rotate(0 4.2158903303375155 4.215890330337544)"><path d="M0 0 C0 0, 0 0, 0 0 M0 0 C0 0, 0 0, 0 0 M-0.12 6.74 C1.56 3.43, 3.98 1.96, 5.51 0.68 M-0.48 6.65 C1.84 4.36, 3.61 1.46, 4.63 0.7 M1.8 9.61 C3.85 7.01, 7.43 5.06, 8.91 1.19 M2.49 9.81 C4.35 7.58, 5.28 5.22, 9.79 0.97" stroke="#228be6" stroke-width="0.5" fill="none"></path><path d="M-0.25 -0.25 C2.36 -0.2, 3.48 0.07, 8.7 0.66 M-0.25 -0.25 C1.73 0.14, 3.4 -0.29, 8.49 -0.32 M7.98 0.04 C8.41 1.88, 9.21 3.94, 8.25 8.3 M8.32 -0.05 C8.26 2.6, 8.52 5.26, 8.79 8.77 M8.42 8.91 C5.63 8.49, 4.12 9.15, -0.01 7.69 M8.47 8.78 C6.09 8.43, 3.93 8.52, -0.21 8.42 M-0.47 8.15 C-0.3 5.9, -0.35 3.2, -0.51 0.11 M0.03 8.59 C0.03 5.47, -0.15 1.78, -0.39 0.41" stroke="#000000" stroke-width="1" fill="none"></path></g><g stroke-linecap="round" transform="translate(900.1991384031965 450.51609419768374) rotate(0 4.146321182972201 4.146321182972258)"><path d="M0 0 C0 0, 0 0, 0 0 M0 0 C0 0, 0 0, 0 0 M0.08 6.27 C0.64 4.86, 3.03 3.19, 5.31 1.04 M-0.01 6.43 C1.14 4.92, 1.69 3.5, 5.33 0.34 M1.95 9.24 C4.05 8.08, 6.74 4.14, 9.75 0.77 M2.13 10.17 C4.52 6.43, 6.79 3.88, 9.54 1.69" stroke="#228be6" stroke-width="0.5" fill="none"></path><path d="M-0.24 0.2 C2.62 -0.8, 5.71 0.29, 8.95 -0.78 M-0.24 -0.01 C3.08 -0.03, 5.52 0.11, 7.98 -0.39 M8.33 0.01 C8.42 2.97, 8.74 4.16, 8.17 8.22 M8.24 -0.19 C8.43 2.75, 8.63 5.71, 8.63 8.2 M8.76 7.83 C5.83 8.64, 3.91 8.28, -0.73 7.95 M8.63 8.14 C5.39 8.17, 2.51 8.1, -0.01 8.47 M-0.28 8.03 C0.34 5.24, 0.52 2.33, 0.1 0.8 M0.16 8.28 C0.44 6.09, 0.1 3.89, 0.41 -0.39" stroke="#000000" stroke-width="1" fill="none"></path></g><g stroke-linecap="round" transform="translate(909.9944743522312 450.43261122084533) rotate(0 4.146321182972201 4.14632118297223)"><path d="M0 0 C0 0, 0 0, 0 0 M0 0 C0 0, 0 0, 0 0 M-0.39 5.66 C1.46 4.81, 3.04 3.48, 5.67 -0.33 M-0.23 6.69 C1.19 4.2, 2.7 2.93, 4.96 0.29 M1.57 9.64 C4.48 8.32, 4.61 6.24, 8.61 1.94 M2.49 9.7 C3.56 7.23, 5.81 5.47, 9.54 1.68" stroke="#228be6" stroke-width="0.5" fill="none"></path><path d="M0.2 -0.2 C1.65 0.09, 5.22 0.68, 7.52 0.38 M-0.01 0.21 C3.14 -0.16, 6.49 -0.26, 7.9 -0.16 M8.3 0.15 C9.05 2.79, 8.07 4.52, 8.22 8.48 M8.1 0.15 C8.34 2.78, 8.62 5.21, 8.2 8.34 M7.83 8.41 C6.69 9.1, 4.38 7.61, -0.34 8.77 M8.14 8.35 C6.29 8.51, 4.35 8.35, 0.17 8.42 M-0.27 8.63 C-0.28 6.29, -0.45 3.34, 0.8 -0.48 M-0.01 8.67 C-0.2 6.47, -0.39 4.97, -0.39 0.31" stroke="#000000" stroke-width="1" fill="none"></path></g><g stroke-linecap="round" transform="translate(919.9150347665243 450.51609419768374) rotate(0 4.146321182972201 4.146321182972258)"><path d="M0 0 C0 0, 0 0, 0 0 M0 0 C0 0, 0 0, 0 0 M-1 6.73 C1.42 5.01, 3.37 3.25, 4.29 0.46 M0.03 6.18 C0.71 4.56, 2.62 3.41, 4.92 0.12 M1.97 10.4 C4.61 6.55, 6.51 4.55, 9.79 1.17 M2.02 9.32 C4.45 6.54, 7.58 3.9, 9.52 1.53" stroke="#228be6" stroke-width="0.5" fill="none"></path><path d="M-0.2 -0.82 C2.31 0.25, 5.13 -0.8, 8.67 0.73 M0.21 -0.08 C1.78 0.06, 3.68 -0.39, 8.13 -0.08 M8.44 0.8 C8.76 1.87, 8.17 4.02, 8.48 8.24 M8.44 0.07 C8.63 2.63, 8.62 4.46, 8.34 8.03 M8.41 8.64 C6.58 8.24, 2.61 7.91, 0.48 7.67 M8.35 8.16 C5.88 8.06, 3.18 8.43, 0.12 8.31 M0.34 7.97 C0.55 5.77, 0.13 5.05, -0.48 -0.62 M0.38 8.1 C0.01 5.35, 0.37 2.8, 0.31 -0.25" stroke="#000000" stroke-width="1" fill="none"></path></g><g stroke-linecap="round" transform="translate(909.8692498869739 440.63727527181027) rotate(0 4.2158903303375155 4.215890330337544)"><path d="M0 0 C0 0, 0 0, 0 0 M0 0 C0 0, 0 0, 0 0 M0.07 6.44 C2.07 4.7, 4.02 1.61, 5.09 -0.08 M-0.48 6.12 C1.29 4.51, 3.52 1.91, 4.75 0.26 M2.78 10.34 C3.33 7.67, 5.88 5.12, 9.64 1.49 M1.61 9.47 C4.26 7.26, 7.09 4.47, 10.03 0.52" stroke="#228be6" stroke-width="0.5" fill="none"></path><path d="M-0.84 0.07 C2.56 0.68, 3.78 0.41, 9.17 -0.5 M-0.08 -0.22 C2.09 -0.36, 3.67 -0.21, 8.35 -0.22 M9.25 0.47 C8.25 2.44, 8.36 5.33, 8.38 8.22 M8.5 0.35 C8.75 2.77, 8.3 4.9, 8.16 8.42 M8.79 9.21 C5.42 7.7, 2.08 8.93, -0.63 8.5 M8.3 8.58 C5 8.44, 2.17 8.57, 0.02 8.2 M-0.33 8.97 C-0.48 6.29, 0.84 3.46, -0.63 0.07 M-0.2 8.47 C-0.39 6, -0.39 3.06, -0.25 -0.04" stroke="#000000" stroke-width="1" fill="none"></path></g><g stroke-linecap="round" transform="translate(900.4356735042384 441.12425930336747) rotate(0 4.007182888241573 4.00718288824163)"><path d="M0 0 C0 0, 0 0, 0 0 M0 0 C0 0, 0 0, 0 0 M-0.22 6.92 C1.6 5.34, 2.08 3.05, 4.55 0.86 M-0.54 6.05 C1.65 4.55, 2.84 2.48, 4.89 0.3 M2.62 8.8 C4.36 6.94, 6.21 5.26, 10.02 1.54 M1.82 9.61 C5.02 6.97, 7.68 3.72, 9.13 1.25" stroke="#228be6" stroke-width="0.5" fill="none"></path><path d="M0.06 0.26 C3.23 -0.67, 5.56 0.78, 7.54 -0.47 M-0.21 0.06 C2.09 -0.36, 4.62 -0.06, 7.8 0.02 M8.47 -0.17 C7.91 2.34, 8.21 4.78, 7.81 7.92 M8.35 0.34 C8.37 1.95, 8.08 3.82, 8.01 8.24 M8.75 8.01 C5.34 7.72, 4.55 7.45, 0.06 8.67 M8.15 7.82 C5.91 8.16, 3.93 8.01, -0.22 7.88 M0.51 7.53 C0.07 6.64, -0.5 3.12, 0.06 0.3 M0.04 7.64 C0.32 5.26, 0.23 3.02, -0.04 -0.13" stroke="#000000" stroke-width="1" fill="none"></path></g><g stroke-linecap="round" transform="translate(890.2924918183764 441.05469015600215) rotate(0 4.007182888241573 4.00718288824163)"><path d="M0 0 C0 0, 0 0, 0 0 M0 0 C0 0, 0 0, 0 0 M0.26 6.72 C1.48 4.44, 2 3.44, 5.49 0.42 M-0.61 6.74 C1.71 4.11, 3.45 1.82, 4.93 0.17 M1.12 10.21 C3.43 7.82, 5.91 5.67, 9.38 2.26 M1.94 10 C4.45 7.65, 6.35 4.88, 9.09 1.65" stroke="#228be6" stroke-width="0.5" fill="none"></path><path d="M0.26 0.63 C1.46 0.36, 5.13 -0.48, 7.54 -0.02 M0.06 -0.3 C2.44 -0.11, 5.56 -0.17, 8.03 0.01 M7.85 -0.12 C8.02 2.73, 8.04 4.89, 7.92 7.65 M8.35 0.33 C7.94 2.73, 7.77 5.37, 8.24 7.79 M8.01 7.31 C5.17 8.55, 2.39 8.15, 0.66 7.71 M7.82 8.01 C5.66 8.16, 2.98 7.82, -0.14 7.89 M-0.48 8.11 C0.81 4.82, -0.57 2.61, 0.3 -0.03 M-0.37 8.41 C-0.34 5.18, -0.2 1.7, -0.13 0.17" stroke="#000000" stroke-width="1" fill="none"></path></g><g stroke-linecap="round" transform="translate(909.7301115922432 430.8419393227752) rotate(0 4.2158903303375155 4.215890330337544)"><path d="M0 0 C0 0, 0 0, 0 0 M0 0 C0 0, 0 0, 0 0 M0.06 7.08 C0.84 4.4, 2.89 2.73, 5.04 0.95 M0.08 6.38 C0.99 4.72, 2.25 3.43, 4.79 0.31 M2.58 9.01 C5.38 6.29, 8.45 3.46, 10.83 0.55 M2.35 10.02 C4.08 7.89, 5.37 5.62, 10.16 0.71" stroke="#228be6" stroke-width="0.5" fill="none"></path><path d="M0.66 -0.79 C2.08 0.71, 2.89 -0.52, 8.41 0.44 M-0.32 -0.4 C2.21 -0.1, 4.52 0.01, 8.44 0.07 M8.3 -0.07 C8.67 3.29, 8.27 6.58, 8.05 8.73 M8.77 -0.1 C8.54 2.4, 8.49 5.58, 8.2 8.49 M7.69 8.09 C6.03 7.8, 2.73 9.12, -0.32 8.56 M8.42 8.61 C6.3 8.41, 3.68 8.25, -0.14 8.61 M0.11 9.25 C-0.54 5.6, 0.01 4.35, -0.03 0.77 M0.41 8.04 C0.31 6.05, -0.05 4.04, 0.17 0.2" stroke="#000000" stroke-width="1" fill="none"></path></g><g transform="translate(88.09372302494967 278.244724141824) rotate(0 76 12.5)"><text x="76" y="18" font-family="Virgil, Segoe UI Emoji" font-size="20px" fill="#000000" text-anchor="middle" style="white-space: pre;" direction="ltr">MongoDB Atlas</text></g><g stroke-linecap="round"><g transform="translate(467.42709704838717 367.91141115354276) rotate(0 -115.09548003710805 -77.74799368791281)"><path d="M-1.12 0.55 C-39.57 -25.62, -191.79 -130.06, -230.28 -156.04 M0.49 -0.21 C-38.06 -26.31, -192.34 -129.24, -230.68 -154.88" stroke="#000000" stroke-width="1" fill="none"></path></g><g transform="translate(467.42709704838717 367.91141115354276) rotate(0 -115.09548003710805 -77.74799368791281)"><path d="M-200.62 -146 C-212.46 -151.57, -221 -151.73, -231.05 -155.91 M-201.92 -147.95 C-211.16 -150.22, -219.77 -152.33, -229.71 -154.32" stroke="#000000" stroke-width="1" fill="none"></path></g><g transform="translate(467.42709704838717 367.91141115354276) rotate(0 -115.09548003710805 -77.74799368791281)"><path d="M-212.02 -128.93 C-220.21 -140.07, -224.96 -145.9, -231.05 -155.91 M-213.32 -130.89 C-218.85 -138.4, -223.88 -145.87, -229.71 -154.32" stroke="#000000" stroke-width="1" fill="none"></path></g></g><g stroke-linecap="round"><g transform="translate(230.76041003666842 240.5780981652615) rotate(0 117.83571218887346 69.17535426607358)"><path d="M0.55 1.05 C39.38 24.01, 194.94 113.81, 233.96 136.63 M-0.62 0.56 C38.52 23.76, 197.21 115.23, 236.29 137.79" stroke="#000000" stroke-width="1" fill="none"></path></g><g transform="translate(230.76041003666842 240.5780981652615) rotate(0 117.83571218887346 69.17535426607358)"><path d="M208.5 131.4 C216.71 134.38, 230.11 136.02, 235.26 138.07 M206.55 132.06 C213.39 133.89, 220.17 136.01, 236.86 137.58" stroke="#000000" stroke-width="1" fill="none"></path></g><g transform="translate(230.76041003666842 240.5780981652615) rotate(0 117.83571218887346 69.17535426607358)"><path d="M218.76 113.63 C222.92 123.38, 232.44 131.75, 235.26 138.07 M216.81 114.28 C221.17 120.07, 225.64 126.19, 236.86 137.58" stroke="#000000" stroke-width="1" fill="none"></path></g></g><g transform="translate(18.09777212147469 568.0527747461573) rotate(0 68 12.5)"><text x="0" y="18" font-family="Virgil, Segoe UI Emoji" font-size="20px" fill="#1864ab" text-anchor="start" style="white-space: pre;" direction="ltr">web3 - crypto</text></g><g transform="translate(427.4718996422155 901.0786344188626) rotate(0 210.9940712409433 18.573421764167506)"><text x="0" y="26.14684352833507" font-family="Virgil, Segoe UI Emoji" font-size="29.717474822668084px" fill="#000000" text-anchor="start" style="white-space: pre;" direction="ltr">https://app.landtokendao.com</text></g></svg>